<?xml version="1.0" standalone="no"?>
<!DOCTYPE svg PUBLIC "-//W3C//DTD SVG 1.1//EN" "http://www.w3.org/Graphics/SVG/1.1/DTD/svg11.dtd" >
<svg xmlns="http://www.w3.org/2000/svg">
<metadata>
Created by FontPrep 20130207 at Thu Jul 13 15:39:58 2017
 By Louise Stroud
Copyright (c) 2017 by Daniel Hernandez. All rights reserved.
</metadata>
<defs>
<font id="dab5afa4c9df4396efea52987885fe97" horiz-adv-x='1024' >
  <font-face 
    font-family="LotaGrotesqueAlt1-BoldIt"
    font-weight="700"
    font-style="italic"
    font-stretch="normal"
    units-per-em="2048"
    panose-1="0 0 8 0 0 0 0 0 0 0"
    ascent="1638"
    descent="-410"
    x-height="1004"
    cap-height="1405"
    bbox="-1059 -621.071 2907.41 1870"
    underline-thickness="102"
    underline-position="-102"
    slope="-10"
    unicode-range="U+0020-FB02"
  />
<missing-glyph horiz-adv-x="802" 
 />
    <glyph glyph-name="fi" unicode="fi" horiz-adv-x="1218" 
d="M852 1481q61 0 111 -11l-52 -231q-31 6 -63 6q-78 0 -128 -48t-65 -138l-10 -55h631l-176 -1004h-281l137 780h-350l-137 -780h-281l138 780h-154l41 224h152l12 65q72 412 475 412zM1209 1501q77 0 122 -42q45 -43 45 -119t-59 -130t-135 -55q-76 0 -121 40t-45 117
t58 133t135 56z" />
    <glyph glyph-name="fl" unicode="fl" horiz-adv-x="1277" 
d="M1139 1454h280l-256 -1454h-280zM852 1481q102 0 164 -19l-53 -231q-33 14 -93 14q-60 1 -103 -21q-92 -45 -112 -165l-10 -55h256l-41 -224h-254l-137 -780h-281l138 780h-154l41 224h152l12 65q72 412 475 412z" />
    <glyph glyph-name=".notdef" horiz-adv-x="802" 
 />
    <glyph glyph-name=".null" 
 />
    <glyph glyph-name="nonmarkingreturn" horiz-adv-x="681" 
 />
    <glyph glyph-name="space" unicode=" " horiz-adv-x="403" 
 />
    <glyph glyph-name="exclam" unicode="!" horiz-adv-x="546" 
d="M313 319q80 -1 121 -41t41 -116t-56 -130t-124 -54t-104 18q-72 39 -72 125t57 142t137 56zM680 1454l-195 -967h-245l143 967h297z" />
    <glyph glyph-name="quotedbl" unicode="&#x22;" horiz-adv-x="729" 
d="M616 1044l78 486h215l-98 -486h-195zM281 1044l77 486h215l-98 -486h-194z" />
    <glyph glyph-name="numbersign" unicode="#" horiz-adv-x="1269" 
d="M836 600l71 225h-200l-72 -225h201zM1360 825h-230l-71 -225h190l-39 -213h-219l-125 -387h-225l125 387h-199l-125 -387h-223l125 387h-219l39 213h248l71 225h-209l39 213h240l117 367h223l-119 -367h201l119 367h223l-117 -367h199z" />
    <glyph glyph-name="dollar" unicode="$" horiz-adv-x="1234" 
d="M545 1033.5q0 -64.5 34.5 -101.5t92 -57.5t126 -39t136 -47t124 -70.5t91.5 -121t35 -187q-2 -176 -120 -285t-323 -131l-39 -219h-235l41 223q-184 29 -283.5 136.5t-99.5 285.5h283q0 -94 65.5 -144.5t184 -50.5t183 43t64.5 113.5t-34.5 113t-92 66t-126 43t-137.5 46
t-126 66.5t-92 113.5t-33 176.5q2 172 128 282.5t329 128.5l39 213h233l-41 -229q160 -39 242 -151.5t82 -278.5h-283q0 96 -58 154.5t-162.5 58.5t-166 -43t-61.5 -107.5z" />
    <glyph glyph-name="percent" unicode="%" horiz-adv-x="1902" 
d="M1425 170q74 0 113 84t39 199q0 174 -98 174q-74 0 -113 -85t-39 -200q0 -172 98 -172zM1397 -6q-131 0 -206 82t-75 270t106 323q106 136 283 136q131 0 206 -85q75 -86 75 -272t-106 -320t-283 -134zM508 786q72 0 110 85t37 198q0 174 -102 174q-47 0 -82 -43
q-65 -80 -65 -247t102 -167zM479 0l842 1421h207l-838 -1421h-211zM481 610q-131 0 -208 84t-77 234t46 259q45 108 133 171t211 63q122 0 200 -86q78 -87 78 -271t-104 -319t-279 -135z" />
    <glyph glyph-name="ampersand" unicode="&#x26;" horiz-adv-x="1239" 
d="M535 602q-131 -96 -131 -215q-2 -178 222 -178q80 0 162 41zM891 1102q-1 108 -131 108q-66 0 -111 -51t-45 -130t37 -150l68 30q182 85 182 193zM560 -12q-200 0 -314 98t-115 252q0 154 75 255q76 101 218 179q-62 118 -62 272t128 268t311 113q109 0 183 -41
q141 -78 144 -262q-2 -121 -76 -206t-257 -177l-50 -24l211 -301q57 98 78 225h234q-45 -248 -181 -414l158 -225h-276l-56 76q-153 -88 -353 -88z" />
    <glyph glyph-name="quotesingle" unicode="'" horiz-adv-x="393" 
d="M281 1044l77 486h215l-98 -486h-194z" />
    <glyph glyph-name="parenleft" unicode="(" horiz-adv-x="600" 
d="M426 322q0 -377 106 -611h-241q-57 97 -97 269t-40 374q0 421 134 719q134 297 283 467h283q-147 -167 -273 -443q-71 -153 -113 -355t-42 -420z" />
    <glyph glyph-name="parenright" unicode=")" horiz-adv-x="600" 
d="M670 898q0 -546 -274 -990q-67 -106 -144 -197h-281q146 175 272 445q71 152 113 354t41 422q0 375 -106 608h244q55 -98 95 -269t40 -373z" />
    <glyph glyph-name="asterisk" unicode="*" horiz-adv-x="751" 
d="M909 1235l-186 -45l96 -152l-176 -116l-74 178l-135 -178l-135 116l150 152l-170 45l94 186l159 -73l19 190h192l-49 -190l189 73z" />
    <glyph glyph-name="plus" unicode="+" horiz-adv-x="937" 
d="M1024 825l-43 -231h-279l-55 -315h-258l55 315h-280l43 231h278l56 316h258l-56 -316h281z" />
    <glyph glyph-name="comma" unicode="," horiz-adv-x="505" 
d="M98 120q0 60 26 103t71 69t109 26t107 -45q44 -44 44 -136q0 -174 -125 -318t-281 -141l25 138q53 0 112 51t70 113l-27 -3q-59 0 -95 41q-36 42 -36 102z" />
    <glyph glyph-name="hyphen" unicode="-" horiz-adv-x="892" 
d="M190 483l39 215h682l-41 -215h-680z" />
    <glyph glyph-name="period" unicode="." horiz-adv-x="491" 
d="M96 144q0 74 58 128q58 56 137 56q80 0 120 -41t40 -116q-1 -75 -57 -130t-136 -55t-121 42t-41 116z" />
    <glyph glyph-name="slash" unicode="/" horiz-adv-x="907" 
d="M29 -41l825 1487h274l-821 -1487h-278z" />
    <glyph glyph-name="zero" unicode="0" horiz-adv-x="1257" 
d="M471 579q-1 -169 61 -257t154 -89q249 0 327 366q22 103 21 218q0 185 -60 273t-166 88t-184 -85q-153 -165 -153 -514zM672 -12q-223 0 -357 149q-133 150 -133 416q0 538 305 761q150 110 362 110t343 -152q131 -150 131 -436q0 -376 -176 -612t-475 -236z" />
    <glyph glyph-name="one" unicode="1" horiz-adv-x="841" 
d="M645 238h209l-43 -238h-731l43 238h239l142 813q-100 -51 -246 -52l45 236q147 0 237 70q48 37 91 100h221z" />
    <glyph glyph-name="two" unicode="2" horiz-adv-x="1081" 
d="M887 1031q0 67 -38 107t-116 40t-136 -62t-79 -176l-282 -2q39 229 184 358t350 128q205 0 303 -108t98 -262q1 -154 -83 -282q-84 -127 -252 -270l-310 -264h516l-43 -238h-925l35 188l565 492q70 59 113 111q100 116 100 240z" />
    <glyph glyph-name="three" unicode="3" horiz-adv-x="1118" 
d="M774 1423q200 0 310 -94t110 -264q0 -111 -64 -199t-174 -145q158 -90 159 -293t-153 -322q-154 -118 -375 -118q-220 0 -341 120t-121 332l283 -2q0 -68 28 -114q52 -88 160 -88t171 52q62 52 62 152t-90 143q-45 22 -110 21h-107l39 213h98q105 -1 179 59t73 160
q-2 141 -151 142q-183 0 -223 -217h-285q35 213 178 337t344 125z" />
    <glyph glyph-name="four" unicode="4" horiz-adv-x="1153" 
d="M412 541h350l98 569h-2l-446 -567v-2zM1186 541l-43 -232h-164l-55 -309h-275l56 309h-617l43 232l684 864h356l-151 -864h166z" />
    <glyph glyph-name="five" unicode="5" horiz-adv-x="1089" 
d="M1116 481q0 -219 -154 -356t-375 -137q-220 0 -344 116t-124 318h284q-1 -94 53 -140t149 -46t161 68t66 170t-51 152q-49 50 -147 50t-181 -78l-226 84l203 723h770l-45 -238h-547l-80 -290q88 29 195 29t197 -46q90 -45 143 -142t53 -237z" />
    <glyph glyph-name="six" unicode="6" horiz-adv-x="1161" 
d="M895 464q0 98 -50 150t-145 52t-163 -72t-62 -180q17 -98 67 -140t142 -41q92 0 152 67q59 67 59 164zM807 1178q-125 0 -212 -114t-118 -310q125 133 297 133q244 0 350 -188q53 -93 54 -218q0 -211 -144 -352t-370 -141t-354 140t-128 406t84 464t236 312t346 114
t306 -114q112 -112 110 -292l-283 2q0 72 -48 115t-126 43z" />
    <glyph glyph-name="seven" unicode="7" horiz-adv-x="999" 
d="M858 1167h-625l43 238h936l-41 -229l-686 -1176h-315l688 1165v2z" />
    <glyph glyph-name="eight" unicode="8" horiz-adv-x="1171" 
d="M446 402q0 -186 220 -187q106 0 176 58q70 57 68 147t-56 143t-156 53t-177 -60t-75 -154zM797 1198q-99 0 -161 -59t-63 -142q2 -164 177 -163q102 0 162 54t60 158t-99 140q-33 12 -76 12zM641 -12q-231 0 -352 100t-121 287q-2 119 66 212q69 93 186 150
q-111 97 -111 243t72 246q141 196 448 197q195 0 304 -94t108 -274q2 -199 -197 -322q141 -102 144 -291q0 -214 -158 -334t-389 -120z" />
    <glyph glyph-name="nine" unicode="9" horiz-adv-x="1161" 
d="M710 745q94 0 160 67t68 163q-16 109 -64 155t-140 48q-92 0 -154 -68t-64 -166q0 -98 50 -148t144 -51zM233 936q-1 199 145 343t374 144q472 0 473 -575q1 -385 -185 -623t-475 -237q-203 0 -317 116t-109 289h285q-4 -71 46 -115t130 -45q127 0 217 116t119 317
q-127 -142 -303 -142t-288 106t-112 306z" />
    <glyph glyph-name="colon" unicode=":" horiz-adv-x="565" 
d="M125 135q-1 79 57 135t137 56t119 -41t41 -116q0 -75 -56 -130t-140 -55q-112 0 -148 91q-10 28 -10 60zM596 834q0 -82 -56 -136t-136 -55q-80 0 -122 41t-42 115t57 130t149 56t132 -73q18 -34 18 -78z" />
    <glyph glyph-name="semicolon" unicode=";" horiz-adv-x="583" 
d="M254 -25q-61 0 -97 41t-36 115t57 129t134 55t121 -44t44 -136q0 -174 -125 -318t-280 -141l26 138q53 0 112 51q58 51 69 112q-18 -2 -25 -2zM602 834q0 -82 -56 -136t-136 -55q-80 0 -121 41t-41 115t57 130t150 56t130 -73q17 -34 17 -78z" />
    <glyph glyph-name="less" unicode="&#x3c;" horiz-adv-x="980" 
d="M1075 1204l-47 -262l-575 -233l493 -236l-45 -246l-739 371l43 238z" />
    <glyph glyph-name="equal" unicode="=" horiz-adv-x="1040" 
d="M176 379l43 231h817l-43 -231h-817zM254 809l43 233h817l-43 -233h-817z" />
    <glyph glyph-name="greater" unicode="&#x3e;" horiz-adv-x="980" 
d="M1030 606v-8l-870 -369l47 260l575 236l-493 233l45 246l739 -368l-41 -230h-2z" />
    <glyph glyph-name="question" unicode="?" horiz-adv-x="942" 
d="M481 317q80 0 121 -41q41 -42 41 -116t-56 -128q-57 -54 -137 -54t-120 40q-40 41 -41 115q0 74 56 129t136 55zM807 1110q0 113 -125 113q-70 0 -118 -47t-62 -136l-273 -2q35 202 160 316t317 115t284 -91q93 -92 93 -238t-93 -247q-93 -100 -166 -160
q-136 -111 -152 -194l-10 -52h-263l13 78q22 122 157 248q55 51 110 98q128 111 128 199z" />
    <glyph glyph-name="at" unicode="@" horiz-adv-x="1816" 
d="M935 293q62 0 112 45q49 45 67 113l16 98q4 68 -34 116q-39 48 -111 48t-128 -71t-56 -164t36 -139t98 -46zM1120 1186q-228 0 -400 -102q-171 -102 -266 -278q-95 -177 -96 -390q0 -276 155 -436t415 -160q129 0 255 42t224 113l86 -180q-166 -124 -392 -167
q-105 -19 -212 -17q-340 6 -546 216t-206 570q0 217 75 403t204 317q129 130 309 204t387 74q342 0 544 -194t202 -519q0 -279 -142 -458t-354 -179q-110 0 -180 51t-88 140q-92 -164 -267 -164q-131 0 -213 93t-82 257q0 212 126 362t296 150t224 -111l18 99l260 2
l-98 -562q-20 -111 65 -110q90 0 153 115q62 115 60 286q2 257 -143 395t-373 138z" />
    <glyph glyph-name="A" unicode="A" horiz-adv-x="1294" 
d="M557 528h387l-84 631zM1014 0l-39 305h-526l-148 -305h-295l721 1405h334l225 -1405h-272z" />
    <glyph glyph-name="B" unicode="B" horiz-adv-x="1247" 
d="M735 219q102 0 169 57q67 58 67 150t-47 141t-125 49h-269l-69 -397h274zM809 817q100 0 161 57q60 56 60 140q0 170 -168 170h-233l-64 -367h244zM1253 424q0 -190 -141 -307t-346 -117h-619l248 1405h584q152 0 244 -89t92 -233q0 -149 -91 -240t-175 -116v-6
q84 -25 144 -99t60 -198z" />
    <glyph glyph-name="C" unicode="C" horiz-adv-x="1372" 
d="M764 -12q-283 0 -433.5 165.5t-150.5 452.5q0 236 99.5 422t271.5 288.5t368.5 102.5t324.5 -76.5t181.5 -195.5t40.5 -262h-278q4 127 -70 206.5t-203 79.5q-182 0 -313 -153.5t-131 -390.5q0 -193 89.5 -292t244.5 -99t258 120q49 58 70 131h278
q-66 -246 -234.5 -372.5t-412.5 -126.5z" />
    <glyph glyph-name="D" unicode="D" horiz-adv-x="1398" 
d="M1176 805q0 176 -95.5 270t-246.5 96h-197l-166 -938h242q129 -2 234.5 70t167 199t61.5 303zM1464 803q0 -350 -221 -576.5t-573 -226.5h-523l248 1405h482q253 0 420 -147t167 -455z" />
    <glyph glyph-name="E" unicode="E" horiz-adv-x="1177" 
d="M1288 1167h-653l-60 -336h580l-43 -229h-575l-66 -366h666l-43 -236h-947l248 1405h936z" />
    <glyph glyph-name="F" unicode="F" horiz-adv-x="1114" 
d="M1266 1171h-631l-70 -395h555l-41 -229h-553l-96 -547h-283l248 1405h914z" />
    <glyph glyph-name="G" unicode="G" horiz-adv-x="1429" 
d="M471 623q0 -180 83 -283.5t227 -103.5t237.5 81.5t132.5 202.5h-322l41 215h586l-129 -735h-197l35 186q-152 -199 -426 -196q-258 -2 -408.5 160.5t-150.5 451.5q0 236 100.5 423t273.5 290.5t403.5 103.5t376 -140t132.5 -366h-280q0 106 -72 182t-201 76
q-182 -2 -312 -156.5t-130 -391.5z" />
    <glyph glyph-name="H" unicode="H" horiz-adv-x="1431" 
d="M1247 1405h283l-248 -1405h-283l105 592h-569l-105 -592h-283l248 1405h283l-100 -565h571z" />
    <glyph glyph-name="I" unicode="I" horiz-adv-x="575" 
d="M147 0l248 1405h283l-248 -1405h-283z" />
    <glyph glyph-name="J" unicode="J" horiz-adv-x="1054" 
d="M518 236q162 0 201 219l166 950h284l-168 -950q-43 -238 -165.5 -350.5t-342.5 -112.5t-323.5 125t-65.5 346h275q-24 -153 52 -203q36 -24 87 -24z" />
    <glyph glyph-name="K" unicode="K" horiz-adv-x="1314" 
d="M1164 -10q-92 0 -151 54q-60 54 -108 165l-180 426l-223 -225l-72 -410h-283l248 1405h283l-121 -680l645 680h338l-594 -592l213 -506q20 -51 46 -70q51 -37 138 -8l-24 -219q-63 -20 -155 -20z" />
    <glyph glyph-name="L" unicode="L" horiz-adv-x="1093" 
d="M473 248h647l-45 -248h-928l248 1405h283z" />
    <glyph glyph-name="M" unicode="M" horiz-adv-x="1701" 
d="M1503 1405h299l-248 -1405h-272l121 684q18 104 59 252l-522 -936h-195l-188 940q-2 -147 -20 -252l-119 -688h-273l246 1405h273l229 -1100z" />
    <glyph glyph-name="N" unicode="N" horiz-adv-x="1429" 
d="M1253 1405h275l-248 -1405h-233l-455 971l-170 -971h-277l248 1405h234l454 -971z" />
    <glyph glyph-name="O" unicode="O" horiz-adv-x="1497" 
d="M823 236q193 0 322 153.5t129 367t-99 314t-249 100.5q-190 0 -318.5 -152.5t-128.5 -366.5t96 -315t248 -101zM814.5 -10q-205.5 0 -341 69.5t-210.5 211t-75 343.5q0 350 213 576.5t555 226.5q279 0 444 -160.5t165 -459.5q0 -229 -95.5 -412.5t-272.5 -289
t-382.5 -105.5z" />
    <glyph glyph-name="P" unicode="P" horiz-adv-x="1230" 
d="M889 1171h-252l-76 -426h254q121 1 191 65t68 164q-2 196 -185 197zM932 1405q204 0 318 -102t114 -311q0 -210 -154 -344t-432 -134h-258l-90 -514h-283l248 1405h537z" />
    <glyph glyph-name="Q" unicode="Q" horiz-adv-x="1495" 
d="M823 236q193 0 322 153.5t129 367t-99 314t-249 100.5q-190 0 -318.5 -152.5t-128.5 -366.5t96 -315t248 -101zM1565 791q0 -305 -171 -523.5t-458 -265.5q141 -113 367 -113l-15 -256q-213 0 -381 103.5t-237 261.5q-227 35 -354.5 192.5t-127.5 423.5q0 350 213 576.5
t555 226.5q279 0 444 -160.5t165 -465.5z" />
    <glyph glyph-name="R" unicode="R" horiz-adv-x="1304" 
d="M1061 974q0 197 -184 197h-240l-78 -436h242q125 2 192.5 72t67.5 167zM1216 217q40 0 76 12l-24 -219q-66 -20 -139.5 -20t-130 27.5t-89 73.5t-55.5 118l-102 307h-232l-90 -516h-283l248 1405h525q207 0 319.5 -104.5t112.5 -283.5t-89 -295t-245 -167l86 -248
q18 -51 45 -70.5t67 -19.5z" />
    <glyph glyph-name="S" unicode="S" horiz-adv-x="1196" 
d="M653 -12q-246 0 -381 112.5t-133 319.5h281q0 -94 65.5 -144.5t185.5 -50.5t183.5 43t64.5 113.5t-35 112.5t-94 66t-126 44q-172 49 -262 112q-126 90 -125 283t148.5 306.5t381.5 113.5t357.5 -120.5t123.5 -327.5h-282q0 96 -58.5 154.5t-162 58.5t-165 -43
t-62.5 -107.5t34 -101.5t92 -57.5t126 -39t137.5 -47t124.5 -70.5t91 -121t33 -187q-2 -199 -149.5 -310.5t-393.5 -111.5z" />
    <glyph glyph-name="T" unicode="T" horiz-adv-x="1159" 
d="M436 0l205 1165h-420l43 240h1125l-46 -240h-419l-205 -1165h-283z" />
    <glyph glyph-name="U" unicode="U" horiz-adv-x="1388" 
d="M754 231q139 0 216 83t105 245l148 846h284l-149 -846q-102 -573 -627 -571q-281 -2 -414 153.5t-86 421.5l150 842h283l-148 -842q-37 -216 84 -294q59 -38 154 -38z" />
    <glyph glyph-name="V" unicode="V" horiz-adv-x="1265" 
d="M1206 1405h307l-720 -1405h-312l-245 1405h288l162 -1118z" />
    <glyph glyph-name="W" unicode="W" horiz-adv-x="1873" 
d="M1823 1405h282l-612 -1405h-324l-47 1059l-420 -1059h-321l-117 1405h281l51 -1124l428 1124h305l39 -1143z" />
    <glyph glyph-name="X" unicode="X" horiz-adv-x="1232" 
d="M1460 1405l-555 -700l336 -705h-295l-229 520l-377 -520h-336l580 739l-324 666h303l215 -485l352 485h330z" />
    <glyph glyph-name="Y" unicode="Y" horiz-adv-x="1210" 
d="M1456 1405l-612 -856l-99 -549h-282l98 545l-313 860h287l200 -625l408 625h313z" />
    <glyph glyph-name="Z" unicode="Z" horiz-adv-x="1202" 
d="M1372 1405l-45 -238l-883 -934h725l-43 -233h-1060l45 236l880 933h-700l43 236h1038z" />
    <glyph glyph-name="bracketleft" unicode="[" horiz-adv-x="722" 
d="M86 -289l322 1827h538l-43 -229h-276l-236 -1366h275l-41 -232h-539z" />
    <glyph glyph-name="backslash" unicode="\" horiz-adv-x="907" 
d="M864 -41h-278l-299 1487h274z" />
    <glyph glyph-name="bracketright" unicode="]" horiz-adv-x="720" 
d="M535 -289h-539l43 232h276l236 1366h-275l41 229h539z" />
    <glyph glyph-name="asciicircum" unicode="^" horiz-adv-x="782" 
d="M248 1038l270 459h275l108 -459h-176l-88 285l-186 -285h-203z" />
    <glyph glyph-name="underscore" unicode="_" horiz-adv-x="874" 
d="M-55 -299l41 215h874l-41 -215h-874z" />
    <glyph glyph-name="grave" unicode="`" horiz-adv-x="610" 
d="M479 1141l-143 356h311l29 -356h-197z" />
    <glyph glyph-name="a" unicode="a" horiz-adv-x="1079" 
d="M381 291q1 -92 139 -92q74 0 136.5 44t80.5 107l13 78h-146q-138 0 -194 -60q-30 -32 -29 -77zM1036.5 223q20.5 0 44.5 8l-24 -221q-63 -20 -141 -20t-132.5 43t-64.5 129q-111 -172 -326 -172q-137 0 -216 68q-79 66 -79 172q0 197 180 282q158 74 386 74h112l6 30
q31 184 -137 185q-150 0 -188 -137h-258q94 350 473 350q209 0 311 -117t66 -317l-54 -295q-6 -31 7.5 -46.5t34 -15.5z" />
    <glyph glyph-name="b" unicode="b" horiz-adv-x="1163" 
d="M656 221q97 0 173 95t76 255q0 103 -46 157t-131 54t-146 -63t-84 -152l-23 -127q-8 -94 38 -156t143 -63zM848 1014q154 0 251 -102t97 -306q0 -280 -145 -448t-355 -168t-278 149l-33 -139h-270l256 1454h280l-102 -590q113 150 299 150z" />
    <glyph glyph-name="c" unicode="c" horiz-adv-x="1042" 
d="M602 223q139 0 199 156h260q-51 -184 -182 -286.5t-322 -102.5t-302.5 121.5t-111.5 324.5q0 252 160 415t374 163t316.5 -117t93.5 -287h-262q0 106 -64 148q-36 24 -87 24q-106 0 -176 -91t-70 -238q0 -230 174 -230z" />
    <glyph glyph-name="d" unicode="d" horiz-adv-x="1163" 
d="M613 221q87 0 151.5 70.5t83.5 165.5l14 71q14 104 -30 179t-146 75t-177 -95t-75 -255q0 -102 46 -156.5t133 -54.5zM143 397q0 279 146.5 448t352.5 169t280 -140l102 580h279l-256 -1454h-271l21 145q-113 -156 -305 -155q-154 0 -251.5 101.5t-97.5 305.5z" />
    <glyph glyph-name="e" unicode="e" horiz-adv-x="1077" 
d="M673 805q-83 0 -147.5 -51.5t-93.5 -151.5h428q0 102 -52 152.5t-135 50.5zM683 1014q228 0 343 -143.5t76 -376.5l-10 -54h-680v-4q2 -225 188 -225q76 0 132 36t71 83h262q-45 -150 -171 -245t-323.5 -95t-312.5 121.5t-115 328.5q0 250 156 412t384 162z" />
    <glyph glyph-name="f" unicode="f" horiz-adv-x="768" 
d="M856 1245q-74 0 -130 -48t-71 -138l-10 -55h256l-41 -224h-254l-137 -780h-281l138 780h-154l41 224h152l12 65q72 412 475 412q102 0 164 -19l-53 -231q-33 14 -107 14z" />
    <glyph glyph-name="g" unicode="g" horiz-adv-x="1161" 
d="M598 221q94 0 158.5 65.5t87.5 155.5l20 113q8 96 -35 161.5t-144.5 65.5t-178 -93t-76.5 -247q0 -221 168 -221zM509 -434q-427 0 -427 332h262q0 -59 48 -89t124 -30q207 0 250 219l25 145q-115 -154 -308 -153q-156 0 -248 103.5t-92 309.5q0 272 150.5 441.5
t355.5 169.5t275 -140l28 130h271l-174 -994q-39 -217 -182.5 -330.5t-357.5 -113.5z" />
    <glyph glyph-name="h" unicode="h" horiz-adv-x="1126" 
d="M856 1014q162 0 233.5 -109.5t40.5 -281.5l-108 -623h-283l101 578q35 193 -119 192q-84 0 -142.5 -53t-80.5 -152l-103 -565h-280l256 1454h276l-104 -606q118 166 313 166z" />
    <glyph glyph-name="i" unicode="i" horiz-adv-x="512" 
d="M115 0l178 1004h280l-178 -1004h-280zM503 1503q77 0 123 -42t46 -119.5t-60.5 -133t-137.5 -55.5t-122 41t-45 119t59.5 134t136.5 56z" />
    <glyph glyph-name="j" unicode="j" horiz-adv-x="526" 
d="M-43 -424q-100 0 -162 21l60 233q39 -20 103 -20t111 48q46 48 64 154l176 992h281l-178 -1004q-76 -424 -455 -424zM525 1503q77 0 123 -43q46 -44 46 -120t-61 -132t-137 -57q-76 0 -122 42q-44 42 -44 119t59 134t136 57z" />
    <glyph glyph-name="k" unicode="k" horiz-adv-x="1054" 
d="M1214 1006l-442 -426l291 -580h-293l-199 414l-125 -125l-51 -289h-280l256 1454h280l-151 -862l385 414h329z" />
    <glyph glyph-name="l" unicode="l" horiz-adv-x="548" 
d="M365 -12q-121 0 -175.5 75.5t-29.5 206.5l205 1184h280l-205 -1171q-10 -61 41 -62q18 0 43 8l-24 -221q-63 -20 -135 -20z" />
    <glyph glyph-name="m" unicode="m" horiz-adv-x="1701" 
d="M1448 1014q152 0 222 -106t40 -275l-111 -633h-282l100 578q33 193 -108 192q-78 0 -135 -55t-76 -150l-101 -565h-282l100 578q35 193 -108 192q-77 0 -135 -57t-78 -162l-99 -551h-280l178 1004h270l-18 -146q117 156 299 156q108 0 176 -53t88 -148q117 201 340 201z
" />
    <glyph glyph-name="n" unicode="n" horiz-adv-x="1126" 
d="M856 1014q162 0 233.5 -109.5t40.5 -281.5l-110 -623h-283l103 578q33 193 -121 192q-86 0 -145.5 -57.5t-79.5 -161.5l-99 -551h-280l178 1004h270l-18 -150q118 160 311 160z" />
    <glyph glyph-name="o" unicode="o" horiz-adv-x="1114" 
d="M687 782q-79 0 -136 -45t-89 -122.5t-32 -178t49 -158t133 -57.5q113 0 182.5 98.5t69.5 225t-49 182t-128 55.5zM700 1014q209 0 329 -118t120 -327q0 -254 -153.5 -416.5t-403.5 -162.5q-209 0 -328 118.5t-119 327.5q0 254 153.5 416t401.5 162z" />
    <glyph glyph-name="p" unicode="p" horiz-adv-x="1165" 
d="M645 221q106 0 182 95t76 255q0 103 -46 157t-131 54t-147 -66t-85 -153l-21 -117q-13 -134 71 -194q42 -31 101 -31zM846 1014q154 0 251 -102t97 -308q0 -276 -146 -445t-354 -169t-276 143l-96 -547h-281l252 1418h266l-18 -146q115 156 305 156z" />
    <glyph glyph-name="q" unicode="q" horiz-adv-x="1165" 
d="M606 221q92 0 155 65q62 65 85 156l20 117q9 133 -71 192q-43 32 -105 31q-106 0 -181 -95t-75 -245t81 -198q38 -23 91 -23zM492 -10q-154 0 -251 102t-98 305q1 279 147 448t355 169t279 -146l30 136h273l-252 -1418h-279l97 549q-111 -145 -301 -145z" />
    <glyph glyph-name="r" unicode="r" horiz-adv-x="729" 
d="M823 1014q29 0 54 -8l-52 -273q-33 8 -67 8q-98 0 -173 -62.5t-102 -180.5l-88 -498h-280l178 1004h270l-24 -162q108 172 284 172z" />
    <glyph glyph-name="s" unicode="s" horiz-adv-x="958" 
d="M465 721q0 -41 36 -64.5t90 -34t116.5 -30t117 -45t90 -83.5t35.5 -142q0 -158 -120.5 -245t-319 -87t-302.5 80t-89 247l231 -2q-2 -131 166 -131q80 0 126 29t46 69t-26.5 62.5t-69.5 35.5q-44 14 -96 26q-123 28 -197 76q-96 61 -96 207.5t122 235.5t306 89t286.5 -82
t83.5 -236h-235q4 123 -148 123q-70 0 -111.5 -28.5t-41.5 -69.5z" />
    <glyph glyph-name="t" unicode="t" horiz-adv-x="927" 
d="M596 215q111 0 133 143h244q-29 -188 -129.5 -278t-279.5 -90t-269 99t-59 263l75 428h-141l41 224h156l49 284h266l-51 -284h352l-41 -224h-350l-66 -370l-10 -66q-12 -61 9.5 -95t70.5 -34z" />
    <glyph glyph-name="u" unicode="u" horiz-adv-x="1148" 
d="M1079 223q20 0 47 8l-24 -221q-63 -20 -143 -20t-136.5 49t-68.5 131q-117 -180 -316 -180q-158 0 -226.5 104.5t-41.5 263.5l115 646h280l-102 -580q-14 -88 15.5 -139.5t99 -51.5t126 48.5t76.5 128.5l107 594h278l-125 -721q-6 -27 6.5 -43.5t32.5 -16.5z" />
    <glyph glyph-name="v" unicode="v" horiz-adv-x="1028" 
d="M893 1004h299l-520 -1004h-314l-170 1004h285l76 -621q4 -29 6 -117h6q27 84 43 117z" />
    <glyph glyph-name="w" unicode="w" horiz-adv-x="1505" 
d="M489 266h7q10 29 51 131l244 607h268l41 -607q4 -102 4 -131h8q12 43 45 131l229 607h273l-449 -1004h-301l-41 528q-4 63 2 131h-8q-23 -80 -41 -131l-219 -528h-307l-94 1004h268l18 -607q2 -98 2 -131z" />
    <glyph glyph-name="x" unicode="x" horiz-adv-x="991" 
d="M1163 1004l-422 -504l248 -500h-284l-146 328l-242 -328h-311l426 524l-239 480h294l136 -306l233 306h307z" />
    <glyph glyph-name="y" unicode="y" horiz-adv-x="1017" 
d="M150 -424q-86 0 -150 21l57 229q45 -18 101 -19q156 0 200 140l15 35l-185 1022h289l72 -627q4 -29 4 -119h6q23 70 45 119l283 627h297l-574 -1104q-97 -185 -198 -255q-101 -69 -262 -69z" />
    <glyph glyph-name="z" unicode="z" horiz-adv-x="942" 
d="M1040 1004l-36 -203l-553 -580h475l-41 -221h-819l36 205l566 577h-451l39 222h784z" />
    <glyph glyph-name="braceleft" unicode="{" horiz-adv-x="694" 
d="M184 745q51 0 95 36q43 36 55 108l49 282q29 173 151 271t314 98h65l-47 -254h-53q-95 0 -139 -72q-23 -35 -31 -81l-53 -322q-16 -88 -54 -137t-77 -62q29 -8 51 -63t10 -137l-53 -318q-16 -100 41 -138q29 -19 74 -19h51l-41 -226h-66q-190 -1 -276 97t-57 272l47 285
q12 73 -19 107t-80 34h-20l45 239h18z" />
    <glyph glyph-name="bar" unicode="|" horiz-adv-x="526" 
d="M72 -362l321 1816h254l-319 -1816h-256z" />
    <glyph glyph-name="braceright" unicode="}" horiz-adv-x="696" 
d="M729 506q-49 0 -92 -36t-55 -105l-50 -285q-28 -172 -150 -270t-314 -99h-66l47 254h53q68 0 113 41t57 115l54 317q14 90 53 140t76 59q-27 10 -49 65q-23 55 -11 138l54 317q12 74 -18 115t-97 41h-51l41 227h65q191 0 277 -97t57 -272l-47 -284q-12 -72 18 -107
t80 -35h19l-43 -239h-21z" />
    <glyph glyph-name="asciitilde" unicode="~" horiz-adv-x="1044" 
d="M503 649q-44 -1 -77 -25t-41 -67h-182q27 137 106 212q80 75 180 75q66 0 124 -24q59 -24 105 -48t81 -22q109 0 121 92h182q-16 -94 -62 -161q-87 -126 -223 -126q-76 0 -173 47t-141 47z" />
    <glyph glyph-name="exclamdown" unicode="&#xa1;" horiz-adv-x="522" 
d="M340 -414h-297l186 930h248zM231 842q1 74 57 129t136 55t121 -41t41 -115t-56 -130t-137 -56q-80 0 -121 42t-41 116z" />
    <glyph glyph-name="cent" unicode="&#xa2;" horiz-adv-x="1048" 
d="M702 969q-60 0 -114 -40t-89 -118q-34 -79 -34 -185t44 -163t124 -57q150 0 192 167h267q-38 -156 -140 -259t-260 -130l-37 -204h-233l37 213q-127 39 -203 149t-76 264q0 229 130 389t325 195l37 205h235l-39 -213q140 -34 206 -138t56 -247h-268q4 101 -64 147
q-36 24 -96 25z" />
    <glyph glyph-name="sterling" unicode="&#xa3;" horiz-adv-x="1177" 
d="M373 899q0 236 152 380q153 144 374 144q393 0 393 -454h-272q0 207 -166 207q-90 0 -144 -74t-54 -180t-5 -179h391l-32 -182h-379q-30 -199 -115 -315h612l-45 -246h-1003l45 238q88 0 131 45q42 45 62 127t30 151h-166l33 182h154q4 74 4 156z" />
    <glyph glyph-name="currency" unicode="&#xa4;" horiz-adv-x="1155" 
d="M724 858q-68 0 -118 -33t-76 -86t-26 -109q0 -114 77 -159q38 -23 89 -22q92 -1 151 67t59 156t-43 137q-45 49 -113 49zM628 205q-116 0 -204 57l-156 -137l-139 174l160 143q-25 70 -25 152q0 168 94 301l-94 123l187 162l96 -125q98 47 211 47t196 -53l156 139
l141 -176l-157 -140q27 -72 26 -157q0 -172 -94 -305l94 -123l-184 -154l-92 121q-100 -49 -216 -49z" />
    <glyph glyph-name="yen" unicode="&#xa5;" horiz-adv-x="1345" 
d="M1493 1405l-489 -684h229l-31 -182h-323l-19 -109h322l-31 -182h-324l-45 -248h-282l45 248h-312l33 182h312l18 109h-311l30 182h220l-250 684h286l201 -625l408 625h313z" />
    <glyph glyph-name="brokenbar" unicode="&#xa6;" horiz-adv-x="536" 
d="M76 -362l133 749h254l-131 -749h-256zM264 702l133 752h254l-133 -752h-254z" />
    <glyph glyph-name="section" unicode="&#xa7;" horiz-adv-x="1075" 
d="M825 552q0 66 -45 98t-133 59q-102 -12 -160 -83q-36 -44 -36 -104t39 -90q40 -30 118 -55q98 4 158 56q59 52 59 119zM938 1049q0 165 -164 165q-84 0 -133 -38t-49 -96q0 -98 100 -133q45 -15 139 -38q271 -65 271 -329q0 -100 -60 -186t-163 -140q80 -82 79 -229
q0 -173 -138 -277t-350 -104q-413 0 -415 376h240q0 -82 49 -128t139 -46t146 42q55 42 55 100q0 102 -100 139q-46 17 -100 29q-131 30 -208 85q-100 71 -100 256q0 97 57 185t156 143q-70 74 -70 209q1 174 135 280t337 105q203 0 298 -96t95 -274h-246z" />
    <glyph glyph-name="dieresis" unicode="&#xa8;" horiz-adv-x="794" 
d="M852 1464q66 0 101 -32q34 -32 34 -84q0 -105 -87 -151q-40 -21 -94 -21t-87 32t-33 96t50 112t116 48zM456 1464q134 0 134 -128q0 -64 -51 -112t-129 -48t-108 56q-15 28 -15 62q0 74 51 122q52 48 118 48z" />
    <glyph glyph-name="copyright" unicode="&#xa9;" horiz-adv-x="1492" 
d="M1044 791q0 139 -137 139q-74 0 -129 -74t-55 -192q0 -188 131 -189q113 0 158 137h235q-41 -154 -153 -250t-270 -96q-159 0 -259 104t-100 292q0 190 137 332t340 143q164 0 252 -90t88 -256h-238zM934 1270q-168 0 -307 -87t-218 -235t-79 -317q0 -223 132 -359
t353 -137q166 0 304 89q138 90 214 236t76 318q0 216 -131 354t-344 138zM961 1415q268 0 432 -171t163 -451q0 -227 -98 -411t-273 -288t-392 -104q-279 0 -445 170t-166 446q0 224 102 410t279 293q179 106 398 106z" />
    <glyph glyph-name="ordfeminine" unicode="&#xaa;" horiz-adv-x="880" 
d="M649 965q-196 0 -196 -103q0 -61 84 -61q61 0 107 29.5t61 70.5l10 64h-66zM651 1239q-114 0 -141 -96h-215q35 133 136.5 204.5t257 71.5t231 -87t49.5 -240l-80 -459h-219l12 106q-86 -115 -250 -114q-102 0 -159.5 49t-57.5 130q1 164 149 227q132 56 320 56h53l4 21
q10 61 -17.5 96t-72.5 35z" />
    <glyph glyph-name="guillemotleft" unicode="&#xab;" horiz-adv-x="1036" 
d="M541 483l2 23l270 325h289l-295 -356l172 -319h-262zM135 496l2 20l258 315h291l-285 -346l172 -329h-264z" />
    <glyph glyph-name="registered" unicode="&#xae;" horiz-adv-x="1085" 
d="M733 946q61 0 62 68q0 49 -41 49h-80l-21 -117h80zM776 1194q78 0 129 -38t51 -118q0 -127 -108 -182q6 -16 21 -85t32 -97h-162q-10 16 -22 74t-19 75h-67l-25 -149h-157l92 520h235zM1059 973q0 141 -87 234q-86 93 -208 93t-212 -53t-144 -147t-54 -224t86 -224
q87 -93 224 -91q164 0 280 117t115 295zM1184 987q0 -247 -156 -397t-387 -150q-186 0 -300 120t-114 312q0 244 156 394t387 153q186 0 300 -121t114 -311z" />
    <glyph glyph-name="macron" unicode="&#xaf;" horiz-adv-x="843" 
d="M313 1223l37 194h611l-35 -194h-613z" />
    <glyph glyph-name="degree" unicode="&#xb0;" horiz-adv-x="659" 
d="M657 1187q0 121 -104 124q-53 0 -93 -40q-40 -39 -40 -97q0 -112 104 -113q53 0 93 39t40 87zM813 1210q0 -126 -89 -216q-88 -90 -206 -89q-118 0 -187 65q-69 66 -69 192t90 214t208 88t185 -64q68 -64 68 -190z" />
    <glyph glyph-name="plusminus" unicode="&#xb1;" horiz-adv-x="1073" 
d="M188 94l43 232h818l-43 -232h-818zM883 969h280l-43 -232h-278l-56 -315h-258l56 315h-281l43 232h279l55 315h258z" />
    <glyph glyph-name="acute" unicode="&#xb4;" horiz-adv-x="610" 
d="M520 1141h-217l154 356h321z" />
    <glyph glyph-name="paragraph" unicode="&#xb6;" horiz-adv-x="1280" 
d="M571 551q-170 0 -266 97t-96 270q0 207 147 347t369 140h641l-303 -1716h-244l262 1489h-114l-260 -1489h-242l149 862h-43z" />
    <glyph glyph-name="periodcentered" unicode="&#xb7;" horiz-adv-x="522" 
d="M205 741q0 79 57 135t137 56t120 -41t40 -116t-56 -129t-141 -54q-112 0 -147 89q-10 28 -10 60z" />
    <glyph glyph-name="cedilla" unicode="&#xb8;" horiz-adv-x="581" 
d="M330 -68q135 -20 135 -174q0 -80 -74 -138q-75 -56 -183 -56t-163 26l59 148q41 -23 103 -23q102 -1 102 61t-147 68l71 183h132z" />
    <glyph glyph-name="ordmasculine" unicode="&#xba;" horiz-adv-x="894" 
d="M477 996q1 -173 133 -173q66 0 117 70t51 172q0 156 -132 156q-68 0 -118 -69q-51 -69 -51 -156zM688 1419q154 0 244 -91t90 -243q0 -195 -129 -327t-326 -133q-153 0 -243 91t-91 245q0 195 130 327t325 131z" />
    <glyph glyph-name="guillemotright" unicode="&#xbb;" horiz-adv-x="1036" 
d="M1075 492l-4 -21l-258 -315h-289l285 346l-174 329h264zM670 504l-4 -23l-269 -325h-291l297 356l-174 319h265z" />
    <glyph glyph-name="onequarter" unicode="&#xbc;" horiz-adv-x="1646" 
d="M1206 326h150l51 280h-2l-199 -278v-2zM1630 326l-31 -166h-86l-28 -160h-211l26 160h-335l28 159l365 498h272l-88 -491h88zM1239 1421h223l-841 -1421h-228zM776 782l-33 -178h-469l33 178h137l64 369q-55 -18 -143 -18l34 184q102 0 153 44q28 24 52 60h166l-113 -639
h119z" />
    <glyph glyph-name="onehalf" unicode="&#xbd;" horiz-adv-x="1611" 
d="M1370 647q-71 0 -84 -110l-209 -2q9 133 97 215t219 80t188 -68t57 -168q0 -147 -188 -309l-121 -107h246l-35 -178h-551l27 141l309 275q104 90 105 170q0 61 -60 61zM1233 1421h223l-844 -1421h-227zM776 782l-33 -178h-469l33 178h137l64 369q-55 -18 -143 -18l34 184
q102 0 153 44q28 24 52 60h166l-113 -639h119z" />
    <glyph glyph-name="threequarters" unicode="&#xbe;" horiz-adv-x="1736" 
d="M1305 326h149l51 280h-2l-198 -278v-2zM1729 326l-31 -166h-86l-29 -160h-211l27 160h-338l31 159l364 498h273l-89 -491h89zM1350 1421h223l-844 -1421h-225zM604 772q38 0 63 22q26 22 25 58q0 76 -92 76h-59l28 155h56q49 0 80 26t30 69q-2 61 -63 61q-80 0 -88 -102
h-209q8 127 100 208t216 81t191 -59q67 -58 66 -161q0 -125 -133 -196q90 -47 91 -165t-91 -189t-233 -70q-174 0 -244 128q-33 60 -33 144l213 -2q0 -40 24 -62t62 -22z" />
    <glyph glyph-name="questiondown" unicode="&#xbf;" horiz-adv-x="929" 
d="M31 -88q0 66 40 140t98 127q59 51 119 99q145 114 163 201l6 35h264l-10 -63q-21 -118 -161 -241q-56 -48 -112 -94q-132 -109 -131 -194q0 -113 127 -112q70 0 117 47t63 135l271 2q-47 -270 -248 -377q-100 -53 -229 -53q-179 -5 -299 106q-78 72 -78 242zM631 682
q-80 0 -121 41t-41 116t56 130q57 55 137 55t120 -41t41 -115q0 -74 -56 -130t-136 -56z" />
    <glyph glyph-name="Agrave" unicode="&#xc0;" horiz-adv-x="1294" 
d="M557 528h387l-84 631zM1014 0l-39 305h-526l-148 -305h-295l721 1405h334l225 -1405h-272zM1032 1495h-235l-168 283h340z" />
    <glyph glyph-name="Aacute" unicode="&#xc1;" horiz-adv-x="1294" 
d="M557 528h387l-84 631zM1014 0l-39 305h-526l-148 -305h-295l721 1405h334l225 -1405h-272zM1280 1778l-252 -283h-252l146 283h358z" />
    <glyph glyph-name="Acircumflex" unicode="&#xc2;" horiz-adv-x="1294" 
d="M557 528h387l-84 631zM1014 0l-39 305h-526l-148 -305h-295l721 1405h334l225 -1405h-272zM952 1630l-153 -133h-213l248 281h274l129 -281h-188z" />
    <glyph glyph-name="Atilde" unicode="&#xc3;" horiz-adv-x="1294" 
d="M557 528h387l-84 631zM727 1405h334l225 -1405h-272l-39 305h-526l-148 -305h-295zM820 1608q-34 0 -58.5 -24.5t-30.5 -65.5h-182q25 137 93.5 208.5t165.5 71.5q96 0 188 -68q32 -24 66 -24t56.5 25.5t28.5 64.5h182q-23 -137 -92.5 -208.5t-147 -71.5t-123.5 23.5
t-79 46t-67 22.5z" />
    <glyph glyph-name="Adieresis" unicode="&#xc4;" horiz-adv-x="1294" 
d="M557 528h387l-84 631zM727 1405h334l225 -1405h-272l-39 305h-526l-148 -305h-295zM1122 1511q-53 0 -92 36t-39 98.5t47 109.5t112.5 47t103.5 -36.5t38 -88t-20.5 -87.5t-58.5 -57.5t-91 -21.5zM731 1511h-2q-59 0 -98 36t-39 98.5t47 109.5t112.5 47t103.5 -36.5
t38 -99.5t-46 -109t-116 -46z" />
    <glyph glyph-name="Aring" unicode="&#xc5;" horiz-adv-x="1294" 
d="M557 528h387l-84 631zM1014 0l-39 305h-526l-148 -305h-295l721 1405h334l225 -1405h-272zM872 1661q0 -64 64 -64q31 0 53.5 20.5t22.5 50.5t-17.5 47.5t-48.5 17.5t-52.5 -20.5t-21.5 -51.5zM924 1464q-130 0 -176 105q-16 35 -15 78q0 96 65.5 159.5t153.5 63.5
t142.5 -49t54.5 -140.5t-64.5 -154t-160.5 -62.5z" />
    <glyph glyph-name="AE" unicode="&#xc6;" horiz-adv-x="1927" 
d="M668 528h356l111 633h-5zM2034 1157h-627l-57 -321h553l-43 -238h-551l-62 -350h641l-47 -248h-909l53 305h-481l-221 -305h-310l1033 1405h1073z" />
    <glyph glyph-name="Ccedilla" unicode="&#xc7;" horiz-adv-x="1372" 
d="M915 1171q-182 0 -313 -153.5t-131 -390.5q0 -193 89 -292t221.5 -99t226.5 69t125 182h278q-66 -246 -234.5 -372.5t-412.5 -126.5q-10 0 -21 2l-20 -56q61 -10 98 -52t37 -99q0 -101 -71 -159t-183 -58t-166 26l60 148q41 -23 102 -23q102 0 102 61.5t-149 67.5l61 156
q-211 43 -322.5 201.5t-111.5 398.5t99.5 426t271.5 288.5t368.5 102.5t324.5 -76.5t181 -195.5t41 -262h-278q4 127 -70 206.5t-203 79.5z" />
    <glyph glyph-name="Egrave" unicode="&#xc8;" horiz-adv-x="1177" 
d="M1288 1167h-653l-60 -336h580l-43 -229h-577l-64 -366h666l-43 -236h-947l248 1405h936zM997 1495h-235l-166 283h338z" />
    <glyph glyph-name="Eacute" unicode="&#xc9;" horiz-adv-x="1177" 
d="M1288 1167h-653l-60 -336h580l-43 -229h-575l-66 -366h666l-43 -236h-947l248 1405h936zM1247 1778l-254 -283h-250l146 283h358z" />
    <glyph glyph-name="Ecircumflex" unicode="&#xca;" horiz-adv-x="1177" 
d="M1288 1167h-653l-60 -336h580l-43 -229h-575l-66 -366h666l-43 -236h-947l248 1405h936zM920 1630l-154 -133h-213l248 281h274l127 -281h-186z" />
    <glyph glyph-name="Edieresis" unicode="&#xcb;" horiz-adv-x="1177" 
d="M1288 1167h-653l-60 -333h580l-43 -232h-575l-66 -364h666l-43 -238h-947l248 1405h936zM1088 1511q-53 0 -91.5 36t-38.5 98.5t47.5 109.5t111.5 47t103.5 -36.5t39.5 -88t-21.5 -87.5t-59.5 -57.5t-91 -21.5zM702.5 1511q-65.5 0 -104.5 36t-39 87q-1 51 21 88
q46 80 143 80q53 0 76.5 -18.5t42 -42t18.5 -81t-46 -103.5t-111.5 -46z" />
    <glyph glyph-name="Igrave" unicode="&#xcc;" horiz-adv-x="575" 
d="M147 0l248 1405h283l-248 -1405h-283zM438 1495l-168 283h340l64 -283h-236z" />
    <glyph glyph-name="Iacute" unicode="&#xcd;" horiz-adv-x="575" 
d="M147 0l248 1405h283l-248 -1405h-283zM670 1495h-252l145 283h359z" />
    <glyph glyph-name="Icircumflex" unicode="&#xce;" horiz-adv-x="575" 
d="M147 0l248 1405h283l-248 -1405h-283zM750 1778l129 -281h-187l-98 133l-154 -133h-213l248 281h275z" />
    <glyph glyph-name="Idieresis" unicode="&#xcf;" horiz-adv-x="575" 
d="M147 0l248 1405h283l-248 -1405h-283zM792.5 1802q65.5 0 103.5 -36.5t38 -88t-20 -87.5q-45 -79 -144 -79q-61 0 -99 36t-38 98.5t47 109.5t112.5 47zM377 1511q-65 0 -104.5 36t-39 98.5t47 109t112 47t104 -36t39.5 -99.5t-46.5 -109t-112.5 -46z" />
    <glyph glyph-name="Eth" unicode="&#xd0;" horiz-adv-x="1398" 
d="M1176 756q0 229 -99 322t-243 93h-199l-66 -378h285l-31 -183h-286l-66 -377h242q129 -2 234.5 70t167 198.5t61.5 254.5zM1464 803q0 -350 -221 -576.5t-573 -226.5h-523l107 610h-156l31 183h158l108 612h482q253 0 420 -147t167 -455z" />
    <glyph glyph-name="Ntilde" unicode="&#xd1;" horiz-adv-x="1429" 
d="M1253 1405h275l-248 -1405h-233l-455 971l-170 -971h-277l248 1405h234l454 -971zM888 1608q-34 0 -58.5 -24.5t-30.5 -65.5h-183q25 137 93.5 208.5t173.5 71.5q61 0 105 -22.5t76 -45t65.5 -22.5t56 24.5t28.5 63.5h183q-23 -137 -92.5 -207.5t-147 -70.5t-124 22.5
t-79 45t-66.5 22.5z" />
    <glyph glyph-name="Ograve" unicode="&#xd2;" horiz-adv-x="1497" 
d="M823 236q193 0 322 153.5t129 367t-99 314t-249 100.5q-190 0 -318.5 -152.5t-128.5 -366.5t96 -315t248 -101zM814.5 -10q-205.5 0 -341 69.5t-210.5 211t-75 343.5q0 350 213 576.5t555 226.5q279 0 444 -160.5t165 -459.5q0 -229 -95.5 -412.5t-272.5 -289
t-382.5 -105.5zM911 1495l-168 283h340l64 -283h-236z" />
    <glyph glyph-name="Oacute" unicode="&#xd3;" horiz-adv-x="1497" 
d="M823 236q193 0 322 153.5t129 367t-99 314t-249 100.5q-190 0 -318.5 -152.5t-128.5 -366.5t96 -315t248 -101zM814.5 -10q-205.5 0 -341 69.5t-210.5 211t-75 343.5q0 350 213 576.5t555 226.5q279 0 444 -160.5t165 -459.5q0 -229 -95.5 -412.5t-272.5 -289
t-382.5 -105.5zM1143 1495h-250l145 283h357z" />
    <glyph glyph-name="Ocircumflex" unicode="&#xd4;" horiz-adv-x="1497" 
d="M823 236q193 0 322 153.5t129 367t-99 314t-249 100.5q-190 0 -318.5 -152.5t-128.5 -366.5t96 -315t248 -101zM814.5 -10q-205.5 0 -341 69.5t-210.5 211t-75 343.5q0 350 213 576.5t555 226.5q279 0 444 -160.5t165 -459.5q0 -229 -95.5 -412.5t-272.5 -289
t-382.5 -105.5zM1223 1778l129 -281h-187l-96 133l-156 -133h-211l246 281h275z" />
    <glyph glyph-name="Otilde" unicode="&#xd5;" horiz-adv-x="1497" 
d="M823 236q193 0 322 153.5t129 367.5t-99 314t-249 100q-190 0 -318.5 -152.5t-128.5 -366.5t96 -315t248 -101zM793 -10q-279 0 -442 161.5t-163 462.5q0 350 213 576.5t555 226.5q279 0 444 -160.5t165 -459.5q0 -229 -95.5 -412.5t-272.5 -289t-404 -105.5zM940 1608
q-76 0 -94 -90h-182q25 137 93 208.5t164 71.5t190 -68q32 -24 66 -24t56 25.5t29 64.5h182q-23 -137 -92.5 -208.5t-158.5 -71.5t-189 70q-32 22 -64 22z" />
    <glyph glyph-name="Odieresis" unicode="&#xd6;" horiz-adv-x="1497" 
d="M823 236q193 0 322 154.5t129 381.5q0 290 -212 374q-62 24 -136 25q-190 0 -318.5 -152.5t-128.5 -365.5t96 -315t248 -102zM815.5 -10q-204.5 0 -340 69.5t-211.5 212t-76 342.5q0 350 213 576.5t555 226.5q279 0 444 -159.5t165 -460.5q0 -229 -95.5 -412.5
t-272.5 -289t-381.5 -105.5zM1265.5 1802q65.5 0 103.5 -36t38 -88q-1 -52 -21 -88q-45 -79 -143 -79q-59 0 -98 36t-39 98.5t47 109.5t112.5 47zM878 1802q53 0 92.5 -36.5t39.5 -99.5t-47.5 -109t-112.5 -46t-103 36t-38 87t20.5 88t58 58.5t90.5 21.5z" />
    <glyph glyph-name="multiply" unicode="&#xd7;" horiz-adv-x="956" 
d="M1055 950l-287 -254l186 -239l-186 -156l-182 234l-281 -248l-149 182l284 252l-188 242l186 157l185 -237l282 250z" />
    <glyph glyph-name="Oslash" unicode="&#xd8;" horiz-adv-x="1497" 
d="M1274 772q0 127 -45 217l-557 -723q68 -31 151 -30q193 0 322 153.5t129 382.5zM479 637q0 -147 58 -248l567 737q-78 45 -178 45q-190 0 -318.5 -152.5t-128.5 -381.5zM793 -10q-164 0 -289 57l-109 -141h-231l188 244q-164 164 -164 464q0 350 213 576.5t555 226.5
q182 0 318 -69l92 118h231l-178 -229q145 -162 146 -440q0 -229 -95.5 -412.5t-272.5 -289t-404 -105.5z" />
    <glyph glyph-name="Ugrave" unicode="&#xd9;" horiz-adv-x="1388" 
d="M752.5 231q140.5 0 217.5 83t105 245l148 846h284l-149 -846q-102 -573 -627 -571q-281 -2 -414 153.5t-86 421.5l150 842h283l-148 -842q-29 -160 33.5 -246t203 -86zM844 1495l-168 283h340l63 -283h-235z" />
    <glyph glyph-name="Uacute" unicode="&#xda;" horiz-adv-x="1388" 
d="M754 231q139 0 216 83t105 245l148 846h284l-149 -846q-102 -573 -627 -571q-281 -2 -414 153.5t-86 421.5l150 842h283l-148 -842q-37 -216 84 -294q59 -38 154 -38zM1075 1495h-250l146 283h356z" />
    <glyph glyph-name="Ucircumflex" unicode="&#xdb;" horiz-adv-x="1388" 
d="M754 231q139 0 216 83t105 245l148 846h284l-149 -846q-102 -573 -627 -571q-281 -2 -414 153.5t-86 421.5l150 842h283l-148 -842q-37 -216 84 -294q59 -38 154 -38zM1157 1778l127 -281h-186l-97 133l-155 -133h-211l246 281h276z" />
    <glyph glyph-name="Udieresis" unicode="&#xdc;" horiz-adv-x="1388" 
d="M731 -12q-279 0 -413 155.5t-87 419.5l150 842h283l-148 -842q-37 -217 84 -293q59 -37 154 -37q139 0 216 83t105 243l148 846h284l-149 -846q-100 -571 -627 -571zM1197.5 1802q65.5 0 103.5 -36t38 -88q-1 -52 -21 -88q-45 -79 -142 -79q-59 0 -98.5 36t-39.5 98.5
t47 109.5t112.5 47zM799.5 1802q64.5 0 103.5 -36.5t39 -99.5t-47 -109t-112.5 -46t-103.5 36t-38 98.5t47 109.5t111.5 47z" />
    <glyph glyph-name="Yacute" unicode="&#xdd;" horiz-adv-x="1210" 
d="M1456 1405l-612 -856l-99 -549h-282l98 545l-313 860h287l200 -625l408 625h313zM1239 1778l-252 -283h-250l146 283h356z" />
    <glyph glyph-name="Thorn" unicode="&#xde;" horiz-adv-x="1253" 
d="M774 500q119 0 189 66q69 66 69 165t-50 147t-136 48h-254l-74 -426h256zM889 1159q201 0 317 -101t116 -311q1 -209 -153 -345t-434 -134h-258l-47 -268h-283l248 1405h283l-45 -246h256z" />
    <glyph glyph-name="germandbls" unicode="&#xdf;" horiz-adv-x="1126" 
d="M1147 463q1 -211 -147 -337t-404 -126h-94l41 221h73q109 1 177 59t69 169q0 151 -113 192q-30 10 -67 10h-39l41 211h4q100 0 155 71q54 71 54 152t-36 121t-99 41q-147 0 -184 -215l-181 -1032h-282l182 1032q39 219 167 334t328 115q200 1 296 -97q98 -98 98 -249
t-97 -269q-48 -57 -116 -98q174 -94 174 -305z" />
    <glyph glyph-name="agrave" unicode="&#xe0;" horiz-adv-x="1079" 
d="M381 291q1 -92 139 -92q74 0 136.5 44t80.5 107l13 78h-146q-138 0 -194 -60q-30 -32 -29 -77zM1036.5 223q20.5 0 44.5 8l-24 -221q-63 -20 -141 -20t-132.5 43t-64.5 129q-111 -172 -326 -172q-137 0 -216 68q-79 66 -79 172q0 197 180 282q158 74 386 74h112l6 30
q31 184 -137 185q-150 0 -188 -137h-258q94 350 473 350q209 0 311 -117t66 -317l-54 -295q-6 -31 7.5 -46.5t34 -15.5zM848 1141h-197l-143 356h311z" />
    <glyph glyph-name="aacute" unicode="&#xe1;" horiz-adv-x="1079" 
d="M381 291q1 -92 139 -92q74 0 136.5 44t80.5 107l13 78h-146q-138 0 -194 -60q-30 -32 -29 -77zM672 1014q209 0 311 -117t66 -317l-54 -295q-6 -31 7.5 -46.5t34 -15.5t44.5 8l-24 -221q-63 -20 -141 -20t-132.5 43t-64.5 129q-111 -172 -326 -172q-137 0 -216 68
q-79 66 -79 172q0 200 180 283q160 73 386 73h112l6 30q31 184 -137 185q-150 0 -188 -137h-258q92 350 473 350zM1087 1497l-256 -356h-219l154 356h321z" />
    <glyph glyph-name="acircumflex" unicode="&#xe2;" horiz-adv-x="1079" 
d="M381 291q1 -92 139 -92q74 0 136.5 44t80.5 107l13 78h-146q-171 0 -212 -86q-11 -23 -11 -51zM672 1014q209 0 311 -117t66 -317l-54 -295q-6 -31 7.5 -46.5t34 -15.5t44.5 8l-24 -221q-63 -20 -141 -20t-132.5 43t-64.5 129q-111 -172 -326 -172q-137 0 -216 68
q-79 66 -79 172q0 197 180 282q158 74 386 74h112l6 30q31 184 -137 185q-150 0 -188 -137h-258q92 350 473 350zM778 1337l-170 -194h-200l254 356h272l127 -356h-180z" />
    <glyph glyph-name="atilde" unicode="&#xe3;" horiz-adv-x="1079" 
d="M381 291q1 -92 139 -92q74 0 136.5 44t80.5 107l13 78h-146q-138 0 -194 -60q-30 -32 -29 -77zM672 1014q209 0 311 -117t66 -317l-54 -295q-6 -31 7.5 -46.5t34 -15.5t44.5 8l-24 -221q-63 -20 -141 -20t-132.5 43t-64.5 129q-111 -172 -326 -172q-137 0 -216 68
q-79 66 -79 172q0 197 180 282q158 74 386 74h112l6 30q31 184 -137 185q-150 0 -188 -137h-258q92 350 473 350zM624 1268q-34 0 -58.5 -24.5t-30.5 -65.5h-183q23 137 92.5 208.5t166.5 71.5t189 -68q32 -24 59 -24q77 0 91 90h183q-25 -137 -93.5 -208.5t-158.5 -71.5
q-91 0 -191 70q-32 22 -66 22z" />
    <glyph glyph-name="adieresis" unicode="&#xe4;" horiz-adv-x="1079" 
d="M381 291q1 -92 139 -92q74 0 136.5 44t80.5 107l13 78h-146q-138 0 -194 -60q-30 -32 -29 -77zM672 1014q209 0 311 -117t66 -317l-54 -295q-6 -31 7.5 -46.5t34 -15.5t44.5 8l-24 -221q-63 -20 -141 -20t-132.5 43t-64.5 129q-111 -172 -326 -172q-137 0 -216 68
q-79 66 -79 172q0 197 180 282q158 74 386 74h112l6 30q31 184 -137 185q-150 0 -188 -137h-258q92 350 473 350zM988 1464q134 0 134 -128q0 -64 -51 -112t-117 -48q-132 0 -133 128q0 64 50.5 112t116.5 48zM543 1176q-53 0 -87 32.5t-34 96t51 111.5t117.5 48
t100.5 -32.5t34 -83.5t-23.5 -90t-64.5 -60.5t-94 -21.5z" />
    <glyph glyph-name="aring" unicode="&#xe5;" horiz-adv-x="1079" 
d="M381 291q1 -92 139 -92q74 0 136.5 44t80.5 107l13 78h-146q-138 0 -194 -60q-30 -32 -29 -77zM1036.5 223q20.5 0 44.5 8l-24 -221q-63 -20 -141 -20t-132.5 43t-64.5 129q-111 -172 -326 -172q-137 0 -216 68q-79 66 -79 172q0 197 180 282q158 74 386 74h112l6 30
q31 184 -137 185q-150 0 -188 -137h-258q94 350 473 350q209 0 311 -117t66 -317l-54 -295q-6 -31 7.5 -46.5t34 -15.5zM834 1320q0 64 -64 64q-30 0 -52 -22q-22 -20 -22 -50q0 -64 64 -65q31 0 52.5 21.5t21.5 51.5zM753 1116q-88 0 -142 48t-54 138t64.5 154t168.5 64
t156 -84q26 -43 27 -101q0 -94 -66 -156.5t-154 -62.5z" />
    <glyph glyph-name="ae" unicode="&#xe6;" horiz-adv-x="1671" 
d="M506 199q98 0 171 54t89 122q-2 27 -4 53h-160q-104 0 -162 -36t-59 -99q0 -94 125 -94zM1266 805q-62 0 -124 -53t-91 -150h403q-2 68 -27 115t-63 67q-36 20 -98 21zM1206 211q70 0 123 36t68 83h260q-43 -148 -166 -244t-301 -96q-246 0 -359 182h-6
q-57 -74 -162 -128t-253 -54t-230 66t-82 188q0 88 46 156t124 107q150 77 375 79h135l4 32q31 182 -135 183q-152 0 -190 -137h-258q43 170 163 260q121 90 314 90t293 -115q143 115 342 115t311 -146q111 -146 72 -374l-8 -54h-656q6 -229 176 -229z" />
    <glyph glyph-name="ccedilla" unicode="&#xe7;" horiz-adv-x="1042" 
d="M825 610q0 106 -64 148q-36 24 -87 24q-106 0 -176 -91t-70 -238q0 -229 174 -230q139 0 199 156h260q-51 -184 -180 -284.5t-306 -104.5l-20 -58q61 -10 97 -52t36 -99q0 -104 -72 -160.5t-182 -56.5t-166 26l62 148q39 -23 100 -23q102 0 105 62q-2 61 -150 67l61 160
q-145 35 -224 148.5t-79 283.5q0 252 160 415t374 163t316 -117t94 -287h-262z" />
    <glyph glyph-name="egrave" unicode="&#xe8;" horiz-adv-x="1077" 
d="M673 805q-83 0 -147.5 -51.5t-93.5 -151.5h428q0 102 -52 152.5t-135 50.5zM683 1014q228 0 343 -143.5t76 -376.5l-10 -54h-680v-4q2 -225 188 -225q76 0 132 36t71 83h262q-45 -150 -171 -245t-323.5 -95t-312.5 121.5t-115 328.5q0 250 156 412t384 162zM856 1141
h-197l-143 356h311z" />
    <glyph glyph-name="eacute" unicode="&#xe9;" horiz-adv-x="1077" 
d="M673 805q-83 0 -147.5 -51.5t-93.5 -151.5h428q0 102 -52 152.5t-135 50.5zM683 1014q228 0 343 -143.5t76 -376.5l-10 -54h-680v-4q2 -225 188 -225q76 0 132 36t71 83h262q-45 -150 -171 -245t-323.5 -95t-312.5 123t-115 327q0 250 156 412t384 162zM1096 1497
l-256 -356h-219l153 356h322z" />
    <glyph glyph-name="ecircumflex" unicode="&#xea;" horiz-adv-x="1077" 
d="M673 805q-83 0 -147.5 -51.5t-93.5 -151.5h428q0 102 -52 152.5t-135 50.5zM683 1014q228 0 343 -143.5t76 -376.5l-10 -54h-680v-4q2 -225 188 -225q102 -1 167 61q28 26 36 58h262q-45 -150 -171 -245t-323.5 -95t-312.5 121.5t-115 328.5q0 250 156 412t384 162z
M786 1337l-170 -194h-200l254 356h272l127 -356h-180z" />
    <glyph glyph-name="edieresis" unicode="&#xeb;" horiz-adv-x="1077" 
d="M673 805q-83 0 -147.5 -51.5t-93.5 -151.5h428q0 102 -52 152.5t-135 50.5zM683 1014q228 0 343 -143.5t76 -376.5l-10 -54h-680v-4q2 -225 188 -225q120 1 180 75q18 22 23 44h262q-45 -150 -171 -245t-323.5 -95t-312.5 121.5t-115 328.5q0 250 156 412t384 162z
M998 1464q132 0 132 -128q0 -64 -50 -112t-116 -48q-134 0 -135 128q0 64 51.5 112t117.5 48zM551 1176q-53 0 -87 32.5t-34 96t51 111.5t117.5 48t100.5 -32.5t34 -83.5t-23.5 -90t-64.5 -60.5t-94 -21.5z" />
    <glyph glyph-name="igrave" unicode="&#xec;" horiz-adv-x="512" 
d="M115 0l178 1004h280l-178 -1004h-280zM346 1139l-143 358h311l29 -358h-197z" />
    <glyph glyph-name="iacute" unicode="&#xed;" horiz-adv-x="512" 
d="M115 0l178 1004h280l-178 -1004h-280zM532 1139h-219l154 358h321z" />
    <glyph glyph-name="icircumflex" unicode="&#xee;" horiz-adv-x="512" 
d="M115 0l178 1004h280l-178 -1004h-280zM131 1141l252 356h274l125 -356h-178l-102 196l-172 -196h-199z" />
    <glyph glyph-name="idieresis" unicode="&#xef;" horiz-adv-x="512" 
d="M115 0l178 1004h280l-178 -1004h-280zM711.5 1464q66.5 0 100.5 -32.5t34 -84t-24 -89.5q-51 -84 -154 -84q-57 0 -90 32.5t-33 96t50 112.5t116.5 49zM314 1464q132 0 132 -129q0 -64 -50 -112.5t-116 -48.5q-134 0 -135 128q0 64 51.5 113t117.5 49z" />
    <glyph glyph-name="eth" unicode="&#xf0;" horiz-adv-x="1122" 
d="M426 425q0 -89 48 -147t136 -57q88 0 156 68q68 67 88 183t-31 188t-131 71q-80 0 -139 -40q-59 -41 -93 -109t-34 -157zM139 406q0 172 79 296t204 191q125 65 275 65t229 -102q-18 172 -140 287l-186 -144l-84 125l135 105q-78 33 -172 39l111 198q145 -18 260 -84
l143 109l84 -123l-104 -82q195 -197 195 -548t-154 -550t-428 -198q-205 0 -326 122t-121 294z" />
    <glyph glyph-name="ntilde" unicode="&#xf1;" horiz-adv-x="1126" 
d="M856 1014q162 0 233.5 -109.5t40.5 -281.5l-110 -623h-283l103 578q33 193 -121 192q-86 0 -145.5 -57.5t-79.5 -161.5l-99 -551h-280l178 1004h270l-18 -150q118 160 311 160zM663 1268q-34 0 -58.5 -24.5t-31.5 -65.5h-182q25 137 93.5 208.5t165.5 71.5q96 0 188 -68
q32 -24 60 -24q77 0 91 90h182q-23 -137 -92 -208.5t-146.5 -71.5t-124 23.5t-79 46t-66.5 22.5z" />
    <glyph glyph-name="ograve" unicode="&#xf2;" horiz-adv-x="1114" 
d="M687 782q-79 0 -136 -45t-89 -122.5t-32 -178t49 -158t133 -57.5q113 0 182.5 98.5t69.5 225t-49 182t-128 55.5zM700 1014q209 0 329 -118t120 -327q0 -254 -153.5 -416.5t-403.5 -162.5q-209 0 -328 118.5t-119 327.5q0 254 153.5 416t401.5 162zM676 1139l-144 358
h312l28 -358h-196z" />
    <glyph glyph-name="oacute" unicode="&#xf3;" horiz-adv-x="1114" 
d="M687 782q-79 0 -136 -45t-89 -122.5t-32 -178t49 -158t133 -57.5q113 0 182.5 98.5t69.5 225t-49 182t-128 55.5zM700 1014q209 0 329 -118t120 -327q0 -254 -153.5 -416.5t-403.5 -162.5q-209 0 -328 118.5t-119 327.5q0 254 153.5 416t401.5 162zM854 1139h-219
l156 358h319z" />
    <glyph glyph-name="ocircumflex" unicode="&#xf4;" horiz-adv-x="1114" 
d="M687 782q-79 0 -136 -45t-89 -122.5t-32 -178t49 -158t133 -57.5q113 0 182.5 98.5t69.5 225t-49 182t-128 55.5zM700 1014q209 0 329 -118t120 -327q0 -254 -153.5 -416.5t-403.5 -162.5q-209 0 -328 118.5t-119 327.5q0 254 153.5 416t401.5 162zM432 1141l252 356h274
l125 -356h-178l-102 196l-172 -196h-199z" />
    <glyph glyph-name="otilde" unicode="&#xf5;" horiz-adv-x="1114" 
d="M684 782q-113 0 -183.5 -97t-70.5 -223t49 -183.5t133 -57.5q113 0 182.5 98.5t69.5 225t-49 182t-131 55.5zM700 1014q209 0 329 -118t120 -327q0 -254 -153.5 -416.5t-403.5 -162.5q-209 0 -328 118.5t-119 327.5q0 254 153.5 416t401.5 162zM651 1268q-76 0 -94 -90
h-182q25 135 94.5 207.5t173.5 72.5q61 0 104.5 -23.5t76 -46t65.5 -22.5t56.5 24.5t29.5 65.5h180q-23 -137 -91.5 -208.5t-160.5 -71.5t-188 68q-33 24 -64 24z" />
    <glyph glyph-name="odieresis" unicode="&#xf6;" horiz-adv-x="1114" 
d="M687 782q-79 0 -136 -45t-89 -122.5t-32 -178t49 -158t133 -57.5q113 0 182.5 98.5t69.5 225t-49 182t-128 55.5zM700 1014q209 0 329 -118t120 -327q0 -254 -153.5 -416.5t-403.5 -162.5q-209 0 -328 118.5t-119 327.5q0 254 153.5 416t401.5 162zM978 1174
q-134 0 -134 128q0 64 51 113t117 49q134 0 135 -129q0 -64 -51.5 -112.5t-117.5 -48.5zM615.5 1464q66.5 0 99.5 -32.5t33 -84t-23 -89.5q-50 -84 -154 -84q-75 0 -109 56q-16 26 -16 64q0 72 51.5 121t118 49z" />
    <glyph glyph-name="divide" unicode="&#xf7;" horiz-adv-x="1028" 
d="M530 485q64 -1 97 -33t33 -75q-1 -115 -96 -153q-30 -11 -76 -11t-80 33q-33 33 -33 92t46 103q45 44 109 44zM152 594l43 231h817l-43 -231h-817zM650 1206q138 0 138 -114q0 -70 -45 -114t-109 -44t-97 33t-33 92t46 103t100 44z" />
    <glyph glyph-name="oslash" unicode="&#xf8;" horiz-adv-x="1114" 
d="M612 221q113 0 182.5 98.5t69.5 245.5q0 55 -14 99l-324 -422q37 -21 86 -21zM430 442q0 -57 14 -100l326 422q-37 18 -88 18q-111 0 -181.5 -97.5t-70.5 -242.5zM1149 569q0 -254 -153.5 -416.5t-403.5 -162.5q-127 0 -223 47l-76 -98h-160l131 170q-119 119 -119 327
q0 254 154 416t401 162q131 0 228 -47l67 86h156l-121 -158h-2q121 -117 121 -326z" />
    <glyph glyph-name="ugrave" unicode="&#xf9;" horiz-adv-x="1148" 
d="M1079 223q20 0 47 8l-24 -221q-63 -20 -143 -20t-136.5 49t-68.5 131q-117 -180 -316 -180q-158 0 -226.5 104.5t-41.5 263.5l115 646h280l-102 -580q-14 -88 15.5 -139.5t99 -51.5t126 48.5t76.5 128.5l107 594h278l-125 -721q-6 -27 6.5 -43.5t32.5 -16.5zM862 1141
h-196l-144 356h312z" />
    <glyph glyph-name="uacute" unicode="&#xfa;" horiz-adv-x="1148" 
d="M1079 223q20 0 47 8l-24 -221q-63 -18 -143 -18t-136.5 48t-68.5 130q-117 -180 -316 -180q-158 0 -226.5 104.5t-41.5 263.5l115 646h280l-102 -580q-14 -88 15.5 -139.5t99 -51.5t126 48.5t76.5 128.5l107 594h278l-125 -721q-6 -27 6.5 -43.5t32.5 -16.5zM1102 1497
l-256 -356h-219l153 356h322z" />
    <glyph glyph-name="ucircumflex" unicode="&#xfb;" horiz-adv-x="1148" 
d="M1079 223q20 0 47 8l-24 -221q-63 -20 -128.5 -20t-111.5 22q-92 46 -108 158q-117 -180 -316 -180q-158 0 -226.5 104.5t-41.5 263.5l115 646h280l-102 -580q-14 -88 15.5 -139.5t99 -51.5t126 48.5t76.5 128.5l107 594h278l-125 -721q-6 -27 6.5 -43.5t32.5 -16.5z
M793 1337l-170 -194h-201l254 356h272l127 -356h-178z" />
    <glyph glyph-name="udieresis" unicode="&#xfc;" horiz-adv-x="1148" 
d="M1079 223q20 0 47 8l-24 -221q-63 -20 -143 -20t-136.5 49t-68.5 131q-117 -180 -316 -180q-158 0 -226.5 104.5t-41.5 263.5l115 646h280l-102 -580q-14 -88 15.5 -139.5t99 -51.5t126 48.5t76.5 128.5l107 594h278l-125 -721q-6 -27 6.5 -43.5t32.5 -16.5zM1004 1464
q132 0 133 -128q0 -64 -50.5 -112t-116.5 -48q-134 0 -134 128q0 64 51 112t117 48zM557 1176q-53 0 -86 32.5t-33 96t50.5 111.5t128 48t107.5 -56q15 -28 15 -69.5t-23.5 -80.5t-64.5 -60.5t-94 -21.5z" />
    <glyph glyph-name="yacute" unicode="&#xfd;" horiz-adv-x="1017" 
d="M156 -424q-92 0 -156 21l57 229q45 -18 101 -19q156 0 200 140l15 35l-185 1022h289l72 -627q4 -29 4 -119h6q23 70 45 119l283 627h297l-574 -1104q-94 -182 -196.5 -253t-257.5 -71zM1061 1497l-256 -356h-219l153 356h322z" />
    <glyph glyph-name="thorn" unicode="&#xfe;" horiz-adv-x="1165" 
d="M653 221q98 0 174 95t76 255q0 103 -46 157t-131 54t-147 -66t-85 -153l-21 -117q-10 -98 36 -162t144 -63zM846 1014q154 0 251 -102t97 -308q0 -276 -146 -445t-354 -169t-276 143l-96 -547h-281l332 1868h276l-104 -592q113 152 301 152z" />
    <glyph glyph-name="ydieresis" unicode="&#xff;" horiz-adv-x="1017" 
d="M150 -424q-86 0 -150 21l57 229q45 -18 101 -19q156 0 200 140l15 35l-185 1022h289l72 -627q4 -29 4 -119h6q23 70 45 119l283 627h297l-574 -1104q-97 -185 -198 -254.5t-262 -69.5zM964 1464q132 0 132 -128q0 -64 -50 -112t-116 -48q-134 0 -135 128q0 64 51.5 112
t117.5 48zM516 1176q-53 0 -86 32.5t-33 96t50.5 111.5t128 48t107.5 -56q15 -28 15 -69.5t-23.5 -80.5t-64.5 -60.5t-94 -21.5z" />
    <glyph glyph-name="Amacron" unicode="&#x100;" horiz-adv-x="1294" 
d="M557 528h387l-84 631zM1014 0l-39 305h-526l-148 -305h-295l721 1405h334l225 -1405h-272zM1264 1733l-37 -193h-613l37 193h613z" />
    <glyph glyph-name="amacron" unicode="&#x101;" horiz-adv-x="1079" 
d="M381 291q1 -92 139 -92q74 0 136.5 44t80.5 107l13 78h-146q-138 0 -194 -60q-30 -32 -29 -77zM672 1014q209 0 311 -117t66 -317l-54 -295q-6 -31 7.5 -46.5t34 -15.5t44.5 8l-24 -221q-63 -20 -141 -20t-132.5 43t-64.5 129q-111 -172 -326 -172q-137 0 -216 68
q-79 66 -79 172q0 197 180 282q158 74 386 74h112l6 30q31 184 -137 185q-150 0 -188 -137h-258q92 350 473 350zM1094 1417l-37 -194h-613l37 194h613z" />
    <glyph glyph-name="Abreve" unicode="&#x102;" horiz-adv-x="1294" 
d="M557 528h387l-84 631zM1014 0l-39 305h-526l-148 -305h-295l721 1405h334l225 -1405h-272zM920 1493q-135 0 -208 82t-53 203h199q-8 -53 14.5 -83t68.5 -30t78 29.5t40 83.5h203q-25 -133 -116 -209t-226 -76z" />
    <glyph glyph-name="abreve" unicode="&#x103;" horiz-adv-x="1079" 
d="M381 291q1 -92 139 -92q74 0 136.5 44t80.5 107l13 78h-146q-138 0 -194 -60q-30 -32 -29 -77zM672 1014q209 0 311 -117t66 -317l-54 -295q-6 -31 7.5 -46.5t34 -15.5t44.5 8l-24 -221q-63 -20 -141 -20t-132.5 43t-64.5 129q-111 -172 -326 -172q-137 0 -216 68
q-79 66 -79 172q0 197 180 282q158 74 386 74h114l4 30q31 184 -137 185q-150 0 -188 -137h-258q92 350 473 350zM750 1137q-145 0 -218 95t-47 259h203q-14 -88 5.5 -126t72.5 -38t85 37t46 127h205q-14 -115 -64 -196q-96 -158 -288 -158z" />
    <glyph glyph-name="Aogonek" unicode="&#x104;" horiz-adv-x="1294" 
d="M557 528h387l-84 631zM1110 -205q0 -74 84 -74q43 0 92 41l45 -122q-74 -76 -198 -76q-125 0 -175 88q-24 43 -24 102q0 141 143 246h-63l-39 305h-526l-148 -305h-295l721 1405h334l225 -1405q-176 -100 -176 -205z" />
    <glyph glyph-name="aogonek" unicode="&#x105;" horiz-adv-x="1079" 
d="M381 291q-1 -92 137 -92q74 0 137.5 44t81.5 107l13 78h-146q-138 0 -194 -60q-30 -32 -29 -77zM672 1014q209 0 311 -117t66 -317l-54 -295q-6 -31 7.5 -46.5t34 -15.5t44.5 8l-24 -221q-176 -100 -176 -203q-1 -51 35 -67q18 -8 38 -8q54 0 103 41l45 -123
q-74 -76 -181.5 -76t-161.5 50t-54 140q0 137 133 240q-104 37 -119 158q-111 -172 -326 -172q-137 0 -216 68q-79 66 -79 172q0 197 180 282q158 74 386 74h112l6 30q31 184 -137 185q-150 0 -188 -137h-258q92 350 473 350z" />
    <glyph glyph-name="Cacute" unicode="&#x106;" horiz-adv-x="1372" 
d="M764 -12q-283 0 -433.5 165.5t-150.5 452.5q0 236 99.5 422t271.5 288.5t368.5 102.5t324.5 -76.5t181.5 -195.5t40.5 -262h-278q4 127 -70 206.5t-203 79.5q-182 0 -313 -153.5t-131 -390.5q0 -193 89.5 -292t244.5 -99t258 120q49 58 70 131h278
q-66 -246 -234.5 -372.5t-412.5 -126.5zM1087 1485h-249l145 282h356z" />
    <glyph glyph-name="cacute" unicode="&#x107;" horiz-adv-x="1042" 
d="M602 223q139 0 199 156h260q-51 -184 -182 -286.5t-322 -102.5t-302.5 121.5t-111.5 324.5q0 252 160 415t374 163t316.5 -117t93.5 -287h-262q-1 112 -75 155q-29 17 -76 17q-106 0 -176 -91t-70 -238q0 -230 174 -230zM844 1141h-219l153 356h322z" />
    <glyph glyph-name="Ccircumflex" unicode="&#x108;" horiz-adv-x="1372" 
d="M764 -12q-283 0 -433.5 165.5t-150.5 452.5q0 236 99.5 422t271.5 288.5t368.5 102.5t324.5 -76.5t181.5 -195.5t40.5 -262h-278q4 127 -70 206.5t-203 79.5q-182 0 -313 -153.5t-131 -390.5q0 -193 89.5 -292t244.5 -99t258 120q49 58 70 131h278
q-66 -246 -234.5 -372.5t-412.5 -126.5zM1169 1767l127 -282h-186l-96 133l-156 -133h-211l246 282h276z" />
    <glyph glyph-name="ccircumflex" unicode="&#x109;" horiz-adv-x="1042" 
d="M602 223q139 0 199 156h260q-51 -184 -182 -286.5t-322 -102.5t-302.5 121.5t-111.5 324.5q0 252 160 415t374 163t316.5 -117t93.5 -287h-262q0 106 -64 148q-36 24 -87 24q-106 0 -176 -91t-70 -238q0 -230 174 -230zM420 1143l254 356h272l127 -356h-178l-104 194
l-170 -194h-201z" />
    <glyph glyph-name="Cdotaccent" unicode="&#x10a;" horiz-adv-x="1372" 
d="M764 -12q-283 0 -433.5 165.5t-150.5 452.5q0 236 99.5 422t271.5 288.5t368.5 102.5t324.5 -76.5t181.5 -195.5t40.5 -262h-278q4 127 -70 206.5t-203 79.5q-182 0 -313 -153.5t-131 -390.5q0 -193 89.5 -292t244.5 -99t258 120q49 58 70 131h278
q-66 -246 -234.5 -372.5t-412.5 -126.5zM1029.5 1819q54.5 0 98 -42t43.5 -115t-53 -126t-129 -53t-120 42t-44 95t14.5 87t39 58.5t60.5 39t90.5 14.5z" />
    <glyph glyph-name="cdotaccent" unicode="&#x10b;" horiz-adv-x="1042" 
d="M602 223q139 0 199 156h260q-51 -184 -182 -286.5t-322 -102.5t-302.5 121.5t-111.5 324.5q0 252 160 415t374 163t316.5 -117t93.5 -287h-262q0 106 -64 148q-36 24 -87 24q-106 0 -176 -91t-70 -238q0 -230 174 -230zM802 1499q156 -1 156 -151q0 -74 -59 -131.5
t-155 -57.5q-96 1 -130 85q-10 26 -10 56q0 84 59.5 141.5t138.5 57.5z" />
    <glyph glyph-name="Ccaron" unicode="&#x10c;" horiz-adv-x="1372" 
d="M781 236q131 0 226 69.5t126 181.5h278q-66 -246 -234.5 -372.5t-412.5 -126.5q-283 0 -433.5 165.5t-150.5 452.5q0 236 99.5 422t271.5 288.5t368.5 102.5t324.5 -76.5t181.5 -195.5t40.5 -262h-278q4 127 -70 206.5t-203 79.5q-182 0 -313 -153.5t-131 -390.5
q0 -193 89.5 -292t220.5 -99zM1108 1485h-268l-144 282h191l104 -133l148 133h209z" />
    <glyph glyph-name="ccaron" unicode="&#x10d;" horiz-adv-x="1042" 
d="M602 223q139 0 199 156h260q-51 -184 -182 -286.5t-322 -102.5t-302.5 121.5t-111.5 324.5q0 252 160 415t374 163t316.5 -117t93.5 -287h-262q0 76 -37.5 124t-113.5 48q-106 0 -176 -91t-70 -238q0 -230 174 -230zM483 1499h191l104 -182l170 182h189l-252 -356h-275z
" />
    <glyph glyph-name="Dcaron" unicode="&#x10e;" horiz-adv-x="1398" 
d="M1176 756q0 229 -99 322t-243 93h-197l-166 -938h242q129 -2 234.5 70t167 198.5t61.5 254.5zM1464 803q0 -350 -221 -576.5t-573 -226.5h-523l248 1405h482q253 0 420 -147t167 -455zM1057 1497h-269l-143 281h191l102 -133l149 133h209z" />
    <glyph glyph-name="dcaron" unicode="&#x10f;" horiz-adv-x="1249" 
d="M604 225q82 0 152.5 67.5t93.5 160.5l16 96q10 90 -37 159.5t-146 69.5t-175 -96t-76 -242q0 -98 45 -156.5t127 -58.5zM483 -10q-160 0 -250 112t-90 272q0 303 162.5 471.5t360 168.5t258.5 -135l102 575h279l-256 -1454h-271l21 150q-115 -160 -316 -160zM1503 1520
q48 0 75.5 -12.5t48 -49.5t20.5 -94q0 -147 -99.5 -264t-222.5 -115l21 115q43 0 86 39t55 100q-53 0 -86 36t-33 96.5t43.5 104.5t91.5 44z" />
    <glyph glyph-name="Dcroat" unicode="&#x110;" horiz-adv-x="1398" 
d="M1176 784q0 286 -210 364q-60 22 -132 23h-197l-68 -378h299l-32 -183h-299l-66 -377h242q197 -2 330 156t133 395zM1464 803q0 -350 -221 -576.5t-573 -226.5h-523l107 610h-164l31 183h166l108 612h482q253 0 420 -147t167 -455z" />
    <glyph glyph-name="dcroat" unicode="&#x111;" horiz-adv-x="1163" 
d="M613 221q87 0 151.5 70.5t83.5 165.5l14 71q14 104 -30 179t-146 75t-177 -95t-75 -255q0 -102 46 -156.5t133 -54.5zM143 397q0 279 146.5 448t352.5 169t280 -140l51 293h-244l29 162h243l23 125h279l-21 -125h131l-29 -162h-131l-206 -1167h-271l21 145
q-113 -156 -305 -155q-154 0 -251.5 101.5t-97.5 305.5z" />
    <glyph glyph-name="Emacron" unicode="&#x112;" horiz-adv-x="1177" 
d="M1288 1167h-653l-60 -336h580l-43 -229h-575l-66 -366h666l-43 -236h-947l248 1405h936zM1229 1733l-35 -193h-612l36 193h611z" />
    <glyph glyph-name="emacron" unicode="&#x113;" horiz-adv-x="1077" 
d="M673 805q-83 0 -147.5 -51.5t-93.5 -151.5h428q0 102 -52 152.5t-135 50.5zM683 1014q228 0 343 -143.5t76 -376.5l-10 -54h-680v-4q2 -225 188 -225q76 0 132 36t71 83h262q-45 -152 -171 -246t-323.5 -94t-312.5 121.5t-115 328.5q0 250 156 412t384 162zM1102 1417
l-37 -194h-612l36 194h613z" />
    <glyph glyph-name="Ebreve" unicode="&#x114;" horiz-adv-x="1177" 
d="M1288 1167h-653l-60 -336h580l-43 -229h-575l-66 -366h666l-43 -236h-947l248 1405h936zM887 1493q-135 0 -208 82t-52 203h198q-8 -53 14.5 -83t68.5 -30t77 29.5t41 83.5h203q-25 -133 -116 -209t-226 -76z" />
    <glyph glyph-name="ebreve" unicode="&#x115;" horiz-adv-x="1077" 
d="M673 805q-83 0 -147.5 -51.5t-93.5 -151.5h428q0 102 -52 152.5t-135 50.5zM683 1014q228 0 343 -143.5t76 -376.5l-10 -54h-680v-4q2 -225 188 -225q76 0 132 36t71 83h262q-45 -150 -171 -245t-323.5 -95t-312.5 121.5t-115 328.5q0 250 156 412t384 162zM760 1137
q-147 0 -220 95t-46 259h202q-14 -88 5.5 -126t72.5 -38t85 37t46 127h205q-14 -115 -64 -196q-96 -158 -286 -158z" />
    <glyph glyph-name="Edotaccent" unicode="&#x116;" horiz-adv-x="1177" 
d="M1288 1167h-653l-60 -336h580l-43 -229h-575l-66 -366h666l-43 -236h-947l248 1405h936zM731 1651q0 72 54.5 125t130.5 53t119.5 -42t43.5 -114t-54 -126t-129 -53t-120 43t-45 114z" />
    <glyph glyph-name="edotaccent" unicode="&#x117;" horiz-adv-x="1077" 
d="M673 805q-83 0 -147.5 -51.5t-93.5 -151.5h428q0 102 -52 152.5t-135 50.5zM683 1014q228 0 343 -143.5t76 -376.5l-10 -54h-680v-4q2 -225 188 -225q76 0 132 36t71 83h262q-45 -150 -171 -245t-323.5 -95t-312.5 121.5t-115 328.5q0 250 156 412t384 162zM600 1300
q0 84 59.5 141.5t150.5 57.5q91 -1 127 -67q17 -32 17 -72q0 -86 -59.5 -143.5t-149.5 -57.5q-89 0 -127 69q-18 32 -18 72z" />
    <glyph glyph-name="Eogonek" unicode="&#x118;" horiz-adv-x="1177" 
d="M918 -205q0 -74 83 -74q43 0 93 41l45 -122q-74 -76 -181.5 -76t-162 50t-54.5 140q0 141 144 246h-738l248 1405h936l-43 -238h-653l-60 -336h580l-43 -229h-577l-64 -366h666l-43 -236q-176 -100 -176 -205z" />
    <glyph glyph-name="eogonek" unicode="&#x119;" horiz-adv-x="1077" 
d="M673 805q-83 0 -147.5 -51.5t-93.5 -151.5h428q0 102 -52 152.5t-135 50.5zM683 1014q228 0 343 -143.5t76 -376.5l-10 -54h-680v-4q2 -225 188 -225q76 0 132 36t71 83h262q-33 -109 -107.5 -190t-185.5 -120q-127 -82 -127 -172q0 -73 76 -73q53 0 102 39l45 -121
q-74 -78 -181 -78t-161.5 51t-54.5 146t76 180q-195 12 -299.5 132t-104.5 316q0 250 156 412t384 162z" />
    <glyph glyph-name="Ecaron" unicode="&#x11a;" horiz-adv-x="1177" 
d="M1288 1167h-653l-60 -336h580l-43 -229h-575l-66 -366h666l-43 -236h-947l248 1405h936zM1016 1497h-268l-144 281h191l102 -133l147 133h209z" />
    <glyph glyph-name="ecaron" unicode="&#x11b;" horiz-adv-x="1077" 
d="M673 805q-83 0 -147.5 -51.5t-93.5 -151.5h428q0 102 -52 152.5t-135 50.5zM683 1014q228 0 343 -143.5t76 -376.5l-10 -54h-680v-4q2 -225 188 -225q76 0 132 36t71 83h262q-45 -150 -171 -245t-323.5 -95t-312.5 121.5t-115 328.5q0 250 156 412t384 162zM879 1143
h-273l-127 356h191l104 -182l170 182h189z" />
    <glyph glyph-name="Gcircumflex" unicode="&#x11c;" horiz-adv-x="1429" 
d="M471 623q0 -180 83 -283.5t234 -103.5q92 0 169 42q141 76 194 242h-322l41 215h586l-129 -735h-197l35 186q-152 -199 -426 -196q-258 -2 -408.5 160.5t-150.5 451.5q0 236 100.5 423t273.5 290.5t403.5 103.5t376 -140t132.5 -366h-280q0 106 -72 182t-201 76
q-182 -2 -312 -156.5t-130 -391.5zM1008 1630l-154 -133h-213l248 283h274l127 -283h-186z" />
    <glyph glyph-name="gcircumflex" unicode="&#x11d;" horiz-adv-x="1161" 
d="M598 221q94 0 158.5 65.5t87.5 155.5l20 113q8 96 -35 161.5t-144.5 65.5t-178 -93t-76.5 -247q0 -221 168 -221zM82 -102h262q0 -59 48 -89t124 -30q207 0 250 219l25 145q-115 -154 -308 -153q-156 0 -248 103.5t-92 309.5q0 272 150.5 441.5t355.5 169.5t275 -140
l28 130h271l-174 -994q-83 -444 -579 -444q-175 0 -281.5 84t-106.5 248zM850 1337l-172 -196h-199l252 356h275l124 -356h-178z" />
    <glyph glyph-name="Gbreve" unicode="&#x11e;" horiz-adv-x="1429" 
d="M471 623q0 -180 83 -283.5t227 -103.5t237.5 81.5t132.5 202.5h-322l41 215h586l-129 -735h-197l35 186q-152 -199 -426 -196q-258 -2 -408.5 160.5t-150.5 451.5q0 236 100.5 423t273.5 290.5t403.5 103.5t376 -140t132.5 -366h-280q0 106 -72 182t-201 76
q-182 -2 -312 -156.5t-130 -391.5zM975 1495q-135 0 -208 82t-52 203h198q-8 -53 14.5 -83t68.5 -30t77 29.5t41 83.5h201q-23 -135 -114 -210t-226 -75z" />
    <glyph glyph-name="gbreve" unicode="&#x11f;" horiz-adv-x="1161" 
d="M598 221q94 0 158.5 65.5t87.5 155.5l20 113q8 96 -35 161.5t-144.5 65.5t-178 -93t-76.5 -247q0 -221 168 -221zM509 -434q-427 0 -427 332h262q0 -59 48 -89t124 -30q207 0 250 219l27 145q-117 -154 -310 -153q-156 0 -248 103.5t-92 309.5q0 272 150.5 441.5
t355.5 169.5t275 -140l28 130h271l-174 -994q-39 -217 -182.5 -330.5t-357.5 -113.5zM818 1135q-144 0 -217 96t-44 258h203q-26 -162 68 -162q44 -1 68 13q51 30 73 149h205q-23 -172 -117.5 -263t-238.5 -91z" />
    <glyph glyph-name="Gdotaccent" unicode="&#x120;" horiz-adv-x="1429" 
d="M471 623q0 -180 83 -283.5t227 -103.5t237.5 81.5t132.5 202.5h-322l41 215h586l-129 -735h-197l35 186q-152 -199 -426 -196q-258 -2 -408.5 160.5t-150.5 451.5q0 236 100.5 423t273.5 290.5t403.5 103.5t376 -140t132.5 -366h-280q0 106 -72 182t-201 76
q-182 -2 -312 -156.5t-130 -391.5zM984 1495q-75 0 -120 42t-45 115t54.5 126t130.5 53t119.5 -43t43.5 -115t-54 -125t-129 -53z" />
    <glyph glyph-name="gdotaccent" unicode="&#x121;" horiz-adv-x="1161" 
d="M598 221q94 0 158.5 65.5t87.5 155.5l20 113q8 96 -35 161.5t-144.5 65.5t-178 -93t-76.5 -247q0 -221 168 -221zM509 -434q-427 0 -427 332h262q0 -59 48 -89t124 -30q207 0 250 219l25 145q-115 -154 -308 -153q-156 0 -248 103.5t-92 309.5q0 272 150.5 441.5
t355.5 169.5t275 -140l28 130h271l-174 -994q-39 -217 -182.5 -330.5t-357.5 -113.5zM819 1159q-155 1 -155 151q0 74 59 131.5t149 57.5q90 -1 128 -69q18 -32 18 -72q0 -86 -60.5 -142.5t-138.5 -56.5z" />
    <glyph glyph-name="Gcommaaccent" unicode="&#x122;" horiz-adv-x="1429" 
d="M673 -86q48 0 86 -36t38 -126t-46 -178t-121 -141.5t-155 -53.5l21 115q43 0 86 39t55 100q-53 0 -86 36t-33 85t19.5 85t53.5 55.5t82 19.5zM471 623q0 -180 83 -283.5t227 -103.5t237.5 81.5t132.5 202.5h-322l41 215h586l-129 -735h-197l35 186q-152 -199 -426 -196
q-258 -2 -408.5 160.5t-150.5 451.5q0 236 100.5 423t273.5 290.5t403.5 103.5t376 -140t132.5 -366h-280q0 106 -72 182t-201 76q-182 -2 -312 -156.5t-130 -391.5z" />
    <glyph glyph-name="gcommaaccent" unicode="&#x123;" horiz-adv-x="1183" 
d="M598 221q94 0 158.5 65.5t87.5 155.5l20 113q8 96 -35 161.5t-144.5 65.5t-178 -93t-76.5 -247q0 -221 168 -221zM509 -434q-427 0 -427 332h262q0 -80 85 -107q38 -12 87 -12q207 0 250 219l25 145q-115 -154 -308 -153q-156 0 -248 103.5t-92 309.5q0 272 150.5 441.5
t355.5 169.5t275 -140l28 130h271l-174 -994q-39 -217 -182.5 -330.5t-357.5 -113.5zM827 1389q119 0 119 -142q0 -51 -42 -95t-101 -44t-97 37t-38 121q0 145 100 262t223 117l-20 -115q-43 0 -87 -40t-57 -101z" />
    <glyph glyph-name="Hcircumflex" unicode="&#x124;" horiz-adv-x="1431" 
d="M1247 1405h283l-248 -1405h-283l105 592h-569l-105 -592h-283l248 1405h283l-100 -565h571zM1026 1630l-154 -133h-213l248 281h275l129 -281h-187z" />
    <glyph glyph-name="hcircumflex" unicode="&#x125;" horiz-adv-x="1126" 
d="M856 1014q162 0 233.5 -109.5t40.5 -281.5l-108 -623h-283l101 578q35 193 -119 192q-84 0 -142.5 -53t-80.5 -152l-103 -565h-280l256 1454h276l-104 -606q118 166 313 166zM563 1659l-155 -133h-211l245 280h277l127 -280h-187z" />
    <glyph glyph-name="Hbar" unicode="&#x126;" horiz-adv-x="1431" 
d="M1149 840l39 225h-572l-38 -225h571zM1604 1247l-35 -182h-99l-188 -1065h-283l105 592h-569l-105 -592h-283l187 1065h-90l32 182h91l28 158h283l-29 -158h572l26 158h283l-27 -158h101z" />
    <glyph glyph-name="hbar" unicode="&#x127;" horiz-adv-x="1126" 
d="M856 1014q162 0 233.5 -109.5t40.5 -281.5l-108 -623h-283l101 578q35 193 -119 192q-84 0 -142.5 -53t-80.5 -152l-103 -565h-280l207 1167h-129l28 162h129l21 125h276l-22 -125h252l-31 -162h-248l-55 -319q118 166 313 166z" />
    <glyph glyph-name="Itilde" unicode="&#x128;" horiz-adv-x="575" 
d="M147 0l248 1405h283l-248 -1405h-283zM468 1608q-81 0 -95 -90h-183q25 137 93.5 208.5t165 71.5t189.5 -68q32 -24 65.5 -24t56 25.5t28.5 64.5h183q-31 -184 -143 -250q-52 -30 -113 -30t-107.5 23.5t-79 46t-60.5 22.5z" />
    <glyph glyph-name="itilde" unicode="&#x129;" horiz-adv-x="512" 
d="M115 0l178 1004h280l-178 -1004h-280zM347 1268q-34 0 -58.5 -24.5t-30.5 -65.5h-182q23 135 92.5 207.5t173.5 72.5q61 0 105.5 -23.5t76 -46t64.5 -22.5t56.5 24.5t29.5 65.5h182q-25 -137 -93.5 -208.5t-161.5 -71.5t-187 68q-32 24 -67 24z" />
    <glyph glyph-name="Imacron" unicode="&#x12a;" horiz-adv-x="575" 
d="M147 0l248 1405h283l-248 -1405h-283zM256 1540l37 193h612l-37 -193h-612z" />
    <glyph glyph-name="imacron" unicode="&#x12b;" horiz-adv-x="512" 
d="M115 0l178 1004h280l-178 -1004h-280zM168 1221l37 194h610l-35 -194h-612z" />
    <glyph glyph-name="Ibreve" unicode="&#x12c;" horiz-adv-x="575" 
d="M147 0l248 1405h283l-248 -1405h-283zM565 1493q-139 0 -211.5 82t-52.5 203h199q-13 -113 91 -113q38 0 69.5 29.5t39.5 83.5h203q-33 -183 -181 -252q-71 -33 -157 -33z" />
    <glyph glyph-name="ibreve" unicode="&#x12d;" horiz-adv-x="512" 
d="M115 0l178 1004h280l-178 -1004h-280zM471 1135q-143 0 -217 96t-45 258h203q-20 -115 22 -147q20 -16 65 -15q91 0 122 162h204q-23 -172 -117 -263t-237 -91z" />
    <glyph glyph-name="Iogonek" unicode="&#x12e;" horiz-adv-x="575" 
d="M252 -205q0 -74 86 -74q43 0 92 41l45 -122q-74 -76 -181 -76t-161.5 50t-54.5 140q0 141 141 246h-72l248 1405h283l-248 -1405q-178 -100 -178 -205z" />
    <glyph glyph-name="iogonek" unicode="&#x12f;" horiz-adv-x="512" 
d="M219 -205q0 -74 84 -74q43 0 92 41l47 -122q-76 -76 -200 -76t-174 88q-24 43 -25 102q0 141 143 246h-71l178 1004h280l-178 -1004q-176 -100 -176 -205zM503 1503q77 0 123 -42t46 -119.5t-60.5 -133t-137.5 -55.5t-122 41t-45 119t59.5 134t136.5 56z" />
    <glyph glyph-name="Idotaccent" unicode="&#x130;" horiz-adv-x="575" 
d="M147 0l248 1405h283l-248 -1405h-283zM604.5 1829q61.5 0 105.5 -42t44 -114t-53.5 -126t-129.5 -53t-119.5 43t-43.5 100.5t23.5 100.5t67.5 66.5t105.5 24.5z" />
    <glyph glyph-name="dotlessi" unicode="&#x131;" horiz-adv-x="512" 
d="M115 0l178 1004h280l-178 -1004h-280z" />
    <glyph glyph-name="IJ" unicode="&#x132;" horiz-adv-x="1630" 
d="M147 0l248 1405h283l-248 -1405h-283zM1096 236q160 0 198 219l166 950h285l-168 -950q-43 -238 -166 -350.5t-343 -112.5t-323.5 125t-64.5 346h274q-18 -115 21 -171t121 -56z" />
    <glyph glyph-name="ij" unicode="&#x133;" horiz-adv-x="1038" 
d="M469 -424q-98 0 -160 21l60 233q37 -20 101.5 -20t111.5 48t65 154l174 992h281l-178 -1004q-74 -424 -455 -424zM115 0l178 1004h280l-178 -1004h-280zM672 1348q0 -84 -60.5 -139.5t-136 -55.5t-122 39t-46.5 119t59.5 136t149.5 56q90 -1 134 -73q22 -36 22 -82z
M1208 1348q0 -84 -61.5 -140.5t-137.5 -56.5t-121.5 42t-45.5 119t60 134t150 57q90 -1 134 -73q22 -36 22 -82z" />
    <glyph glyph-name="Jcircumflex" unicode="&#x134;" horiz-adv-x="1054" 
d="M518 236q162 0 201 219l166 950h284l-168 -950q-43 -238 -165.5 -350.5t-342.5 -112.5t-323.5 125t-65.5 346h275q-18 -115 20.5 -171t118.5 -56zM1233 1767l127 -280h-186l-97 133l-153 -133h-213l247 280h275z" />
    <glyph glyph-name="jcircumflex" unicode="&#x135;" horiz-adv-x="548" 
d="M-43 -424q-100 0 -162 21l60 233q39 -20 103 -20t111 48q46 48 64 154l176 992h281l-178 -1004q-76 -424 -455 -424zM133 1143l254 356h272l125 -356h-178l-102 194l-172 -194h-199z" />
    <glyph glyph-name="Kcommaaccent" unicode="&#x136;" horiz-adv-x="1368" 
d="M801 -248q0 -90 -47 -178t-122 -142t-155 -53l21 115q43 0 87 39t54 100q-53 0 -86 36t-33 85t20 85q40 75 135 75q48 0 87 -36t39 -126zM1164 -10q-92 0 -151 54q-60 54 -108 165l-180 426l-223 -225l-72 -410h-283l248 1405h283l-121 -680l645 680h338l-594 -592
l213 -506q20 -51 46 -70q51 -37 138 -8l-24 -219q-63 -20 -155 -20z" />
    <glyph glyph-name="kcommaaccent" unicode="&#x137;" horiz-adv-x="1054" 
d="M504 -86q49 0 76.5 -12.5t48 -49t20.5 -94.5q0 -147 -100 -264t-223 -115l22 115q58 0 108 66q24 32 33 73q-84 -1 -110 77q-8 24 -8 50q0 66 42 110t91 44zM1214 1006l-442 -426l291 -580h-293l-199 414l-125 -125l-51 -289h-280l256 1454h280l-151 -862l385 414h329z
" />
    <glyph glyph-name="kgreenlandic" unicode="&#x138;" horiz-adv-x="1075" 
d="M1229 1006l-418 -404l276 -602h-315l-178 393l-156 -149l-43 -244h-280l178 1004h280l-71 -400l397 402h330z" />
    <glyph glyph-name="Lacute" unicode="&#x139;" horiz-adv-x="1093" 
d="M473 248h647l-45 -248h-928l248 1405h283zM915 1778l-251 -283h-250l145 283h356z" />
    <glyph glyph-name="lacute" unicode="&#x13a;" horiz-adv-x="548" 
d="M365 -12q-121 0 -175.5 75.5t-29.5 206.5l205 1184h280l-205 -1171q-10 -61 41 -62q18 0 43 8l-24 -221q-63 -20 -135 -20zM870 1806l-252 -280h-249l145 280h356z" />
    <glyph glyph-name="Lcommaaccent" unicode="&#x13b;" horiz-adv-x="1093" 
d="M612 -86q43 0 81 -36t38 -120q0 -147 -100.5 -264t-222.5 -115l22 115q43 0 86 39t55 100q-84 -1 -110 77q-8 24 -8 53.5t11 58t30.5 49t47 32t70.5 11.5zM473 248h647l-45 -248h-928l248 1405h283z" />
    <glyph glyph-name="lcommaaccent" unicode="&#x13c;" horiz-adv-x="548" 
d="M256 -86q59 0 97 -36t38 -120q0 -147 -100.5 -264t-222.5 -115l22 115q41 0 85 39t56 100q-53 0 -85.5 36t-32.5 96.5t42 104.5t101 44zM365 -12q-121 0 -175.5 75.5t-29.5 206.5l205 1184h280l-205 -1171q-10 -61 41 -62q18 0 43 8l-24 -221q-63 -20 -135 -20z" />
    <glyph glyph-name="Lcaron" unicode="&#x13d;" horiz-adv-x="1093" 
d="M678 1405l-205 -1157h647l-45 -248h-928l248 1405h283zM1200 1288q0 -145 -99.5 -262t-221.5 -117l20 115q61 0 109 66q24 32 32 73q-53 0 -85.5 36t-32.5 97.5t42 105.5t101 44t97 -37t38 -121z" />
    <glyph glyph-name="lcaron" unicode="&#x13e;" horiz-adv-x="548" 
d="M365 -12q-121 0 -175.5 75.5t-29.5 206.5l205 1184h280l-205 -1171q-10 -61 41 -62q18 0 43 8l-24 -221q-63 -20 -135 -20zM979 1372q0 -145 -99.5 -262t-222.5 -117l21 115q43 0 86 40t55 99q-53 0 -86 36t-33 97.5t43.5 105.5t105 44t96 -41t34.5 -117z" />
    <glyph glyph-name="Ldot" unicode="&#x13f;" horiz-adv-x="1093" 
d="M786 739q0 80 57.5 135.5t137.5 55.5t120 -41t40 -116t-56.5 -130t-148.5 -55t-132 72q-18 34 -18 79zM678 1405l-205 -1157h647l-45 -248h-928l248 1405h283z" />
    <glyph glyph-name="ldot" unicode="&#x140;" horiz-adv-x="806" 
d="M782 883q172 0 172 -143q0 -89 -56 -143t-135 -54t-121 41t-42 114.5t57 129t125 55.5zM365 -12q-121 0 -175.5 75.5t-29.5 206.5l205 1184h280l-205 -1171q-10 -61 41 -62q18 0 43 8l-24 -221q-63 -20 -135 -20z" />
    <glyph glyph-name="Lslash" unicode="&#x141;" horiz-adv-x="1093" 
d="M473 248h647l-45 -248h-928l78 444l-129 -71l-67 174l237 131l129 727h283l-98 -555l221 121l65 -172l-327 -181z" />
    <glyph glyph-name="lslash" unicode="&#x142;" horiz-adv-x="681" 
d="M455 -12q-119 0 -174.5 75.5t-30.5 206.5l53 299l-131 -71l-51 143l215 117l121 696h280l-92 -528l135 73l51 -141l-219 -121l-80 -454q-10 -61 41 -62q18 0 43 8l-24 -221q-66 -20 -137 -20z" />
    <glyph glyph-name="Nacute" unicode="&#x143;" horiz-adv-x="1429" 
d="M1253 1405h275l-248 -1405h-233l-455 971l-170 -971h-277l248 1405h234l454 -971zM1348 1778l-252 -281h-252l145 281h359z" />
    <glyph glyph-name="nacute" unicode="&#x144;" horiz-adv-x="1126" 
d="M856 1014q162 0 233.5 -109.5t40.5 -281.5l-110 -623h-283l103 578q33 193 -121 192q-86 0 -145.5 -57.5t-79.5 -161.5l-99 -551h-280l178 1004h270l-18 -150q118 160 311 160zM1126 1497l-256 -356h-219l154 356h321z" />
    <glyph glyph-name="Ncommaaccent" unicode="&#x145;" horiz-adv-x="1429" 
d="M685 -86q48 0 86 -36t38 -120q0 -147 -99.5 -264t-222.5 -115l21 115q43 0 86 39t55 100q-53 0 -86 36t-33 85t19.5 85t53.5 55.5t82 19.5zM1253 1405h275l-248 -1405h-233l-455 971l-170 -971h-277l248 1405h234l454 -971z" />
    <glyph glyph-name="ncommaaccent" unicode="&#x146;" horiz-adv-x="1126" 
d="M539 -86q48 0 86.5 -36t38.5 -120q0 -147 -100.5 -264t-221.5 -115l20 115q59 0 109 66q25 32 33 73q-85 -1 -111 77q-8 24 -8 58.5t19.5 70.5t53 55.5t81.5 19.5zM856 1014q162 0 233.5 -109.5t40.5 -281.5l-110 -623h-283l103 578q33 193 -121 192q-86 0 -145.5 -57.5
t-79.5 -161.5l-99 -551h-280l178 1004h270l-18 -150q118 160 311 160z" />
    <glyph glyph-name="Ncaron" unicode="&#x147;" horiz-adv-x="1429" 
d="M1253 1405h275l-248 -1405h-233l-455 971l-170 -971h-277l248 1405h234l454 -971zM1116 1497h-268l-143 281h190l102 -133l150 133h207z" />
    <glyph glyph-name="ncaron" unicode="&#x148;" horiz-adv-x="1126" 
d="M856 1014q162 0 233.5 -109.5t40.5 -281.5l-110 -623h-283l103 578q33 193 -121 192q-86 0 -145.5 -57.5t-79.5 -161.5l-99 -551h-280l178 1004h270l-18 -150q118 160 311 160zM911 1143h-274l-127 356h190l105 -182l170 182h188z" />
    <glyph glyph-name="napostrophe" unicode="&#x149;" horiz-adv-x="1126" 
d="M856 1014q162 0 233.5 -109.5t40.5 -281.5l-110 -623h-283l103 578q33 193 -121 192q-86 0 -145.5 -57.5t-79.5 -161.5l-99 -551h-280l178 1004h270l-18 -150q118 160 311 160zM375 1348q0 -145 -100.5 -262t-223.5 -115l21 114q43 0 87 39t54 101q-51 0 -85 35.5
t-34 96.5t43 104.5t105 43.5q88 -1 120 -81q12 -32 13 -76z" />
    <glyph glyph-name="Eng" unicode="&#x14a;" horiz-adv-x="1503" 
d="M1278 0v-18q-53 -286 -239 -367q-89 -39 -200.5 -39t-172.5 21l59 233q37 -20 103.5 -20t111.5 40.5t64 145.5l12 72l-424 903l-170 -971h-277l248 1405h234l454 -971l172 971h275l-248 -1405h-2z" />
    <glyph glyph-name="eng" unicode="&#x14b;" horiz-adv-x="1126" 
d="M856 1014q162 0 234 -110t40 -281l-110 -623q-74 -424 -455 -424q-98 0 -159 21l53 206q37 -20 99 -20t112 52q49 52 67 165l103 578q33 193 -121 192q-85 0 -145 -57t-80 -162l-99 -551h-280l178 1004h270l-18 -150q118 160 311 160z" />
    <glyph glyph-name="Omacron" unicode="&#x14c;" horiz-adv-x="1497" 
d="M823 236q193 0 322 153.5t129 367t-99 314t-249 100.5q-190 0 -318.5 -152.5t-128.5 -366.5t96 -315t248 -101zM814.5 -10q-205.5 0 -341 69.5t-210.5 211t-75 343.5q0 350 213 576.5t555 226.5q279 0 444 -160.5t165 -459.5q0 -229 -95.5 -412.5t-272.5 -289
t-382.5 -105.5zM731 1540l35 193h612l-37 -193h-610z" />
    <glyph glyph-name="omacron" unicode="&#x14d;" horiz-adv-x="1114" 
d="M687 782q-79 0 -136 -45t-89 -122.5t-32 -178t49 -158t133 -57.5q113 0 182.5 98.5t69.5 225t-49 182t-128 55.5zM700 1014q209 0 329 -118t120 -327q0 -254 -153.5 -416.5t-403.5 -162.5q-209 0 -328 118.5t-119 327.5q0 254 153.5 416t401.5 162zM469 1221l35 194h612
l-35 -194h-612z" />
    <glyph glyph-name="Obreve" unicode="&#x14e;" horiz-adv-x="1497" 
d="M823 236q193 0 322 153.5t129 367t-99 314t-249 100.5q-190 0 -318.5 -152.5t-128.5 -366.5t96 -315t248 -101zM814.5 -10q-205.5 0 -341 69.5t-210.5 211t-75 343.5q0 350 213 576.5t555 226.5q279 0 444 -160.5t165 -459.5q0 -229 -95.5 -412.5t-272.5 -289
t-382.5 -105.5zM1038 1493q-139 0 -210.5 82t-51.5 203h199q-19 -113 89 -113q38 0 69.5 29.5t40.5 83.5h202q-36 -204 -216 -266q-56 -20 -122 -19z" />
    <glyph glyph-name="obreve" unicode="&#x14f;" horiz-adv-x="1114" 
d="M687 782q-79 0 -136 -45t-89 -122.5t-32 -178t49 -158t133 -57.5q113 0 182.5 98.5t69.5 225t-49 182t-128 55.5zM700 1014q209 0 329 -118t120 -327q0 -254 -153.5 -416.5t-403.5 -162.5q-209 0 -328 118.5t-119 327.5q0 254 153.5 416t401.5 162zM774 1135
q-96 0 -162.5 43t-93 123.5t-8.5 187.5h203q-14 -86 5 -124t71.5 -38t84 36t48.5 126h204q-23 -172 -117 -263t-235 -91z" />
    <glyph glyph-name="Ohungarumlaut" unicode="&#x150;" horiz-adv-x="1497" 
d="M823 236q193 0 322 153.5t129 367t-99 314t-249 100.5q-190 0 -318.5 -152.5t-128.5 -366.5t96 -315t248 -101zM814.5 -10q-205.5 0 -341 69.5t-210.5 211t-75 343.5q0 350 213 576.5t555 226.5q279 0 444 -160.5t165 -459.5q0 -229 -95.5 -412.5t-272.5 -289
t-382.5 -105.5zM1268 1495h-211l160 283h311zM889 1495h-211l160 283h313z" />
    <glyph glyph-name="ohungarumlaut" unicode="&#x151;" horiz-adv-x="1114" 
d="M687 782q-79 0 -136 -45t-89 -122.5t-32 -178t49 -158t133 -57.5q113 0 182.5 98.5t69.5 225t-49 182t-128 55.5zM700 1014q209 0 329 -118t120 -327q0 -254 -153.5 -416.5t-403.5 -162.5q-209 0 -328 118.5t-119 327.5q0 254 153.5 416t401.5 162zM1038 1139h-231
l154 358h337zM618 1139h-231l154 358h340z" />
    <glyph glyph-name="OE" unicode="&#x152;" horiz-adv-x="2187" 
d="M823 236q193 0 322 153.5t129 367t-99 314t-249 100.5q-190 0 -318.5 -152.5t-128.5 -366.5t96 -315t248 -101zM805 -10q-196 0 -331.5 69.5t-210.5 211t-75 343.5q0 350 213 576.5t555 226.5q266 0 426 -143l23 131h936l-43 -238h-653l-58 -336h578l-43 -229h-576
l-63 -366h665l-45 -236h-946l14 80q-170 -90 -366 -90z" />
    <glyph glyph-name="oe" unicode="&#x153;" horiz-adv-x="1802" 
d="M612 221q113 0 182.5 98.5t69.5 225t-49 182t-131 55.5q-113 0 -183.5 -97t-70.5 -223t49 -183.5t133 -57.5zM1399 805q-82 0 -147.5 -51.5t-94.5 -151.5h428q0 102 -52 152.5t-134 50.5zM1409 1014q152 0 255 -65.5t146 -183.5t17 -271l-8 -54h-682v-4q2 -225 190 -225
q76 0 132.5 36t68.5 83h262q-43 -150 -170 -245t-311 -95q-221 0 -338 139q-152 -139 -370 -139t-337 118.5t-119 327.5q0 254 154 416t392 162t358 -140q149 140 360 140z" />
    <glyph glyph-name="Racute" unicode="&#x154;" horiz-adv-x="1304" 
d="M1061 974q0 197 -184 197h-240l-78 -436h242q125 2 192.5 72t67.5 167zM1216 217q40 0 76 12l-24 -219q-66 -20 -135 -20q-115 0 -179.5 55t-99.5 164l-102 307h-232l-90 -516h-283l248 1405h525q207 0 319.5 -104.5t112.5 -283.5t-89 -295t-245 -167l86 -248
q18 -51 45 -70.5t67 -19.5zM1241 1778l-252 -281h-252l148 281h356z" />
    <glyph glyph-name="racute" unicode="&#x155;" horiz-adv-x="729" 
d="M823 1014q29 0 54 -8l-52 -273q-33 8 -67 8q-98 0 -173 -62.5t-102 -180.5l-88 -498h-280l178 1004h270l-24 -162q109 172 284 172zM973 1497l-256 -356h-219l155 356h320z" />
    <glyph glyph-name="Rcommaaccent" unicode="&#x156;" horiz-adv-x="1304" 
d="M633 -86q43 0 81 -36t38 -126t-46.5 -178t-121 -142.5t-154.5 -52.5l21 115q43 0 86 39t55 100q-53 0 -86 36t-33 80t11.5 72.5t31 49t47 32t70.5 11.5zM1061 974q0 197 -184 197h-240l-78 -436h242q125 2 192.5 72t67.5 167zM1216 217q40 0 76 12l-24 -219
q-66 -20 -139.5 -20t-130 27.5t-89 73.5t-55.5 118l-102 307h-232l-90 -516h-283l248 1405h525q207 0 319.5 -104.5t112.5 -283.5t-89 -295t-245 -167l86 -248q18 -51 45 -70.5t67 -19.5z" />
    <glyph glyph-name="rcommaaccent" unicode="&#x157;" horiz-adv-x="729" 
d="M232 -86q48 0 86 -36t38 -120q0 -147 -100 -264t-221 -115l20 115q43 0 86 39t56 100q-53 0 -86 36t-33 85t19.5 85t53 55.5t81.5 19.5zM823 1014q29 0 54 -8l-52 -273q-33 8 -67 8q-98 0 -173 -62.5t-102 -180.5l-88 -498h-280l178 1004h270l-24 -162q108 172 284 172z
" />
    <glyph glyph-name="Rcaron" unicode="&#x158;" horiz-adv-x="1304" 
d="M1061 974q0 197 -184 197h-240l-78 -436h242q125 2 192.5 72t67.5 167zM1216 217q40 0 76 12l-24 -219q-66 -20 -139.5 -20t-130 27.5t-89 73.5t-55.5 118l-102 307h-232l-90 -516h-283l248 1405h525q280 0 382 -183q50 -89 50 -236.5t-89 -263.5t-245 -167l86 -248
q18 -51 45 -70.5t67 -19.5zM1010 1497h-269l-143 281h190l103 -133l149 133h207z" />
    <glyph glyph-name="rcaron" unicode="&#x159;" horiz-adv-x="729" 
d="M823 1014q29 0 54 -8l-52 -273q-33 8 -67 8q-98 0 -173 -62.5t-102 -180.5l-88 -498h-280l178 1004h270l-24 -162q109 172 284 172zM758 1143h-275l-127 356h191l104 -182l170 182h189z" />
    <glyph glyph-name="Sacute" unicode="&#x15a;" horiz-adv-x="1196" 
d="M650 225q268 0 268 166q4 115 -128 169q-58 24 -126 44q-172 49 -262 112q-126 90 -125 283t148.5 306.5t381.5 113.5t357.5 -120.5t123.5 -327.5h-282q0 96 -58.5 154.5t-162 58.5t-165 -43t-62.5 -107.5t34 -101.5t92 -57.5t126 -39t137.5 -47t124.5 -70.5t91 -121
t33 -187q-2 -199 -149.5 -310.5t-393.5 -111.5t-381 112.5t-133 319.5h281q0 -94 65 -144.5t165 -50.5zM1229 1778l-252 -283h-252l147 283h357z" />
    <glyph glyph-name="sacute" unicode="&#x15b;" horiz-adv-x="958" 
d="M465 710q0 -30 36 -53.5t90 -34t116.5 -30t117 -45t90 -83.5t35.5 -142q0 -158 -120.5 -245t-319 -87t-302.5 80t-89 247l231 -2q-2 -131 166 -131q80 0 126 29t46 69t-26.5 62.5t-69.5 35.5q-44 14 -96 26q-123 28 -197 76q-96 61 -96 207.5t122 235.5t306 89t286.5 -82
t83.5 -236h-235q4 123 -148 123q-105 1 -142 -61q-11 -18 -11 -48zM786 1141h-219l154 356h321z" />
    <glyph glyph-name="Scircumflex" unicode="&#x15c;" horiz-adv-x="1196" 
d="M653 -12q-246 0 -381 112.5t-133 319.5h281q0 -94 65.5 -144.5t185.5 -50.5t183.5 43t64.5 113.5t-35 112.5t-94 66t-126 44q-172 49 -262 112q-126 90 -125 283t148.5 306.5t381.5 113.5t357.5 -120.5t123.5 -327.5h-282q0 96 -58.5 154.5t-162 58.5t-165 -43
t-62.5 -107.5t34 -101.5t92 -57.5t126 -39t137.5 -47t124.5 -70.5t91 -121t33 -187q-2 -199 -149.5 -310.5t-393.5 -111.5zM901 1630l-153 -133h-213l247 281h275l129 -281h-187z" />
    <glyph glyph-name="scircumflex" unicode="&#x15d;" horiz-adv-x="958" 
d="M465 712q0 -32 36 -55.5t90 -34t116.5 -30t117 -45t90 -83.5t35.5 -142q0 -158 -120.5 -245t-319 -87t-302.5 80t-89 247l231 -2q-2 -131 166 -131q80 0 126 29t46 69t-26.5 62.5t-69.5 35.5q-44 14 -96 26q-123 28 -197 76q-96 61 -96 207.5t122 235.5t306 89t286.5 -82
t83.5 -236h-235q4 123 -148 123q-96 0 -134 -50q-18 -25 -19 -57zM362 1141l254 358h273l127 -358h-178l-105 196l-170 -196h-201z" />
    <glyph glyph-name="Scedilla" unicode="&#x15e;" horiz-adv-x="1196" 
d="M651 -12h-16l-21 -56q61 -10 98.5 -52t37.5 -122.5t-74 -137t-182.5 -56.5t-163.5 26l59 148q41 -23 103 -23q102 0 102 61.5t-150 67.5l62 156q-176 31 -272.5 138.5t-94.5 281.5h281q0 -94 65.5 -144.5t185.5 -50.5t183.5 43t64.5 113.5t-35 112.5t-94 66t-126 44
q-172 49 -262 112q-126 90 -125 283t148.5 306.5t381.5 113.5t357.5 -120.5t123.5 -327.5h-282q0 96 -58.5 154.5t-162 58.5t-165 -43t-62.5 -107.5t34 -101.5t92 -57.5t126 -39t137.5 -47t124.5 -70.5t91 -121t33 -187q-2 -199 -149.5 -310.5t-395.5 -111.5z" />
    <glyph glyph-name="scedilla" unicode="&#x15f;" horiz-adv-x="958" 
d="M465 721q0 -41 36 -64.5t90 -34t116.5 -30t117 -45t90 -83.5t35.5 -142q0 -150 -107.5 -235t-293.5 -95l-23 -60q61 -10 98.5 -52t37.5 -122.5t-74 -137t-182.5 -56.5t-163.5 26l59 148q41 -23 102 -23q102 0 102.5 61.5t-147.5 67.5l58 152q-152 16 -231 95t-66 226
l231 -2q-2 -131 166 -131q80 0 126 29t46 69t-26.5 62.5t-69.5 35.5q-44 14 -96 26q-123 28 -197 76q-96 61 -96 207.5t121.5 235.5t306 89t286.5 -82t84 -236h-235q4 123 -148 123q-70 0 -111.5 -28.5t-41.5 -69.5z" />
    <glyph glyph-name="Scaron" unicode="&#x160;" horiz-adv-x="1196" 
d="M653 -12q-246 0 -381 112.5t-133 319.5h281q0 -94 65.5 -144.5t185.5 -50.5t183.5 43t64.5 113.5t-35 112.5t-94 66t-126 44q-172 49 -262 112q-126 90 -125 283t148.5 306.5t381.5 113.5t357.5 -120.5t123.5 -327.5h-282q0 96 -58.5 154.5t-162 58.5t-165 -43
t-62.5 -107.5t34 -101.5t92 -57.5t126 -39t137.5 -47t124.5 -70.5t91 -121t33 -187q-2 -199 -149.5 -310.5t-393.5 -111.5zM997 1497h-268l-143 281h190l103 -133l149 133h207z" />
    <glyph glyph-name="scaron" unicode="&#x161;" horiz-adv-x="958" 
d="M465 710q0 -30 36 -53.5t90 -34t116.5 -30t117 -45t90 -83.5t35.5 -142q0 -158 -120.5 -245t-319 -87t-302.5 80t-89 247l231 -2q-2 -131 166 -131q80 0 126 29t46 69t-26.5 62.5t-69.5 35.5q-44 14 -96 26q-123 28 -197 76q-96 61 -96 207.5t122 235.5t306 89t286.5 -82
t83.5 -236h-235q4 123 -148 123q-105 1 -142 -61q-11 -18 -11 -48zM426 1499h190l105 -184l170 184h188l-254 -358h-272z" />
    <glyph glyph-name="uni0162" unicode="&#x162;" horiz-adv-x="1159" 
d="M723 -219q0 -104 -72.5 -160.5t-182.5 -56.5t-165 26l59 148q41 -23 103 -23q102 0 104 62q-2 61 -149 67l59 156h-43l205 1165h-420l43 240h1125l-46 -240h-419l-205 -1165h-105l-24 -68q61 -10 97 -52t36 -99z" />
    <glyph glyph-name="uni0163" unicode="&#x163;" horiz-adv-x="927" 
d="M504 -68q135 -22 135 -174q0 -80 -75 -137t-183.5 -57t-161.5 26l60 148q41 -23 102 -23q102 0 102 61.5t-149 67.5l67 174q-98 39 -143 126t-22 208l75 428h-141l41 224h156l49 284h266l-51 -284h352l-41 -224h-350l-66 -370l-10 -66q-12 -61 9.5 -95t70.5 -34
q111 0 133 143h244q-29 -188 -129.5 -278t-282.5 -90q-18 0 -35 2z" />
    <glyph glyph-name="Tcaron" unicode="&#x164;" horiz-adv-x="1159" 
d="M436 0l205 1165h-420l43 240h1125l-46 -240h-419l-205 -1165h-283zM985 1497h-268l-144 281h191l102 -133l150 133h209z" />
    <glyph glyph-name="tcaron" unicode="&#x165;" horiz-adv-x="927" 
d="M596 215q111 0 133 143h244q-29 -188 -129.5 -278t-279.5 -90t-269 99t-59 263l75 426h-141l41 226h156l49 284h266l-51 -284h352l-41 -224h-350l-66 -370l-10 -66q-12 -61 9.5 -95t70.5 -34zM766 1413.5q0 63.5 42 106.5t104 43q130 0 130 -147.5t-98 -250t-215 -98.5
l21 113q43 0 83.5 29.5t49.5 72.5q-53 0 -85 34t-32 97.5z" />
    <glyph glyph-name="Tbar" unicode="&#x166;" horiz-adv-x="1159" 
d="M1343 1165h-419l-66 -368h252l-33 -183h-250l-108 -614h-283l109 614h-252l33 183h249l66 368h-420l43 240h1125z" />
    <glyph glyph-name="tbar" unicode="&#x167;" horiz-adv-x="927" 
d="M596 215q111 0 133 143h244q-29 -188 -129.5 -278t-279.5 -90t-269 99t-59 263l20 113h-127l29 162h127l26 153h-141l41 224h156l49 284h266l-51 -284h352l-41 -224h-350l-27 -153h248l-29 -162h-247l-11 -55l-10 -66q-12 -61 9.5 -95t70.5 -34z" />
    <glyph glyph-name="Utilde" unicode="&#x168;" horiz-adv-x="1388" 
d="M754 231q139 0 216 83t105 245l148 846h284l-149 -846q-102 -573 -627 -571q-281 0 -414 154.5t-86 420.5l150 842h283l-148 -842q-37 -216 84 -294q59 -38 154 -38zM878 1608q-82 0 -100 -90h-182q25 137 94.5 208.5t164.5 71.5t189 -68q32 -24 65.5 -24t57 25.5
t27.5 64.5h182q-23 -137 -91.5 -208.5t-162.5 -71.5q-61 0 -107 23.5t-79.5 46t-57.5 22.5z" />
    <glyph glyph-name="utilde" unicode="&#x169;" horiz-adv-x="1148" 
d="M1079 223q20 0 47 8l-24 -221q-63 -20 -143 -20t-136.5 49t-68.5 131q-117 -180 -316 -180q-158 0 -226.5 104.5t-41.5 263.5l115 646h280l-102 -580q-14 -88 15.5 -139.5t99 -51.5t126 48.5t76.5 128.5l107 594h278l-125 -721q-6 -27 6.5 -43.5t32.5 -16.5zM638 1268
q-34 0 -58.5 -24.5t-30.5 -65.5h-182q25 137 93 208.5t164.5 71.5t189.5 -68q32 -24 66 -24t56 25.5t29 64.5h182q-25 -137 -93.5 -208.5t-146 -71.5t-124 23.5t-79 46t-66.5 22.5z" />
    <glyph glyph-name="Umacron" unicode="&#x16a;" horiz-adv-x="1388" 
d="M754 231q139 0 216 83t105 245l148 846h284l-149 -846q-102 -573 -627 -571q-281 -2 -414 153.5t-86 421.5l150 842h283l-148 -842q-37 -216 84 -294q59 -38 154 -38zM664 1540l34 193h613l-37 -193h-610z" />
    <glyph glyph-name="umacron" unicode="&#x16b;" horiz-adv-x="1148" 
d="M1079 223q20 0 47 8l-24 -221q-63 -20 -128.5 -20t-111.5 22q-92 46 -108 158q-117 -180 -316 -180q-158 0 -226.5 104.5t-41.5 263.5l115 646h280l-102 -580q-14 -88 15.5 -139.5t99 -51.5t126 48.5t76.5 128.5l107 594h278l-125 -721q-6 -27 6.5 -43.5t32.5 -16.5z
M1108 1417l-37 -194h-612l37 194h612z" />
    <glyph glyph-name="Ubreve" unicode="&#x16c;" horiz-adv-x="1388" 
d="M752.5 231q140.5 0 217.5 83t105 245l148 846h284l-149 -846q-102 -573 -627 -571q-281 -2 -414 153.5t-86 421.5l150 842h283l-148 -842q-29 -160 33.5 -246t203 -86zM973 1493q-141 0 -213 82t-51 203h198q-12 -70 31 -100q20 -14 58 -13.5t70 30t42 83.5h201
q-37 -204 -217 -266q-56 -20 -119 -19z" />
    <glyph glyph-name="ubreve" unicode="&#x16d;" horiz-adv-x="1148" 
d="M1079 223q20 0 47 8l-24 -221q-63 -20 -128.5 -20t-111.5 22q-92 46 -108 158q-117 -180 -316 -180q-158 0 -226.5 104.5t-41.5 263.5l115 646h280l-102 -580q-14 -88 15.5 -139.5t99 -51.5t126 48.5t76.5 128.5l107 594h278l-125 -721q-6 -27 6.5 -43.5t32.5 -16.5z
M766 1137q-147 0 -220 95t-46 259h202q-14 -88 5.5 -126t72.5 -38t85 37t46 127h205q-14 -115 -63 -196q-96 -158 -287 -158z" />
    <glyph glyph-name="Uring" unicode="&#x16e;" horiz-adv-x="1388" 
d="M754 231q139 0 216 83t105 245l148 846h284l-149 -846q-102 -573 -627 -571q-281 -2 -414 153.5t-86 421.5l150 842h283l-148 -842q-37 -216 84 -294q59 -38 154 -38zM920 1661q0 -64 65 -64q31 0 52.5 20.5t21.5 50.5q1 65 -63 65q-30 0 -53 -20.5t-23 -51.5zM978 1464
q-89 0 -142.5 48.5t-53.5 139.5t64.5 154.5t153 63.5t143.5 -49t55 -140.5t-65.5 -154t-154.5 -62.5z" />
    <glyph glyph-name="uring" unicode="&#x16f;" horiz-adv-x="1148" 
d="M1079 223q20 0 47 8l-24 -221q-63 -20 -143 -20t-136.5 49t-68.5 131q-117 -180 -316 -180q-158 0 -226.5 104.5t-41.5 263.5l115 646h280l-102 -580q-14 -88 15.5 -139.5t99 -51.5t126 48.5t76.5 128.5l107 594h278l-125 -721q-6 -27 6.5 -43.5t32.5 -16.5zM848 1320
q0 64 -64 64q-31 0 -52 -22q-21 -20 -21 -50q0 -64 63 -65q31 0 52.5 21.5t21.5 51.5zM760 1116q-136 0 -178 118q-10 30 -11 64q0 94 64.5 158t168.5 64t156 -84q26 -43 27 -101q0 -94 -65.5 -156.5t-161.5 -62.5z" />
    <glyph glyph-name="Uhungarumlaut" unicode="&#x170;" horiz-adv-x="1388" 
d="M754 231q139 0 216 83t105 245l148 846h284l-149 -846q-102 -573 -627 -571q-281 -2 -414 153.5t-86 421.5l150 842h283l-148 -842q-37 -216 84 -294q59 -38 154 -38zM1200 1495h-211l160 283h311zM821 1495h-211l160 283h313z" />
    <glyph glyph-name="uhungarumlaut" unicode="&#x171;" horiz-adv-x="1148" 
d="M1079 223q20 0 47 8l-24 -221q-63 -18 -143 -18t-136.5 48t-68.5 130q-117 -180 -316 -180q-158 0 -226.5 104.5t-41.5 263.5l115 646h280l-102 -580q-14 -88 15.5 -139.5t99 -51.5t126 48.5t76.5 128.5l107 594h278l-125 -721q-6 -27 6.5 -43.5t32.5 -16.5zM1028 1141
h-231l153 356h338zM870 1497l-260 -356h-231l153 356h338z" />
    <glyph glyph-name="Uogonek" unicode="&#x172;" horiz-adv-x="1388" 
d="M817 -256q53 0 103 39l45 -121q-74 -78 -181.5 -78t-162 51.5t-54.5 139.5q0 121 103 215q-250 16 -367 169.5t-72 403.5l150 842h283l-148 -842q-37 -216 84 -294q59 -38 154 -38q139 0 216 83t105 245l148 846h284l-149 -846q-86 -481 -473 -557q-141 -90 -142 -184
q0 -74 74 -74z" />
    <glyph glyph-name="uogonek" unicode="&#x173;" horiz-adv-x="1148" 
d="M999 -268q53 0 103 41l45 -123q-74 -76 -181.5 -76t-161.5 50t-54 140q0 137 133 240q-113 39 -129 166q-117 -180 -316 -180q-158 0 -226.5 104.5t-41.5 263.5l115 646h280l-102 -580q-14 -88 15.5 -139.5t99 -51.5t126 48.5t76.5 128.5l107 594h278l-125 -721
q-6 -27 6.5 -43.5t32.5 -16.5t47 8l-24 -221q-176 -100 -176 -203q0 -51 36 -67q18 -8 37 -8z" />
    <glyph glyph-name="Wcircumflex" unicode="&#x174;" horiz-adv-x="1873" 
d="M1823 1405h282l-612 -1405h-324l-47 1059l-420 -1059h-321l-117 1405h281l51 -1124l428 1124h305l39 -1143zM1245 1630l-153 -133h-213l247 281h275l127 -281h-187z" />
    <glyph glyph-name="wcircumflex" unicode="&#x175;" horiz-adv-x="1505" 
d="M489 266h7q10 29 51 131l244 607h268l41 -607q4 -102 4 -131h8q12 43 45 131l229 607h273l-449 -1004h-301l-41 528q-4 63 2 131h-8q-23 -80 -41 -131l-219 -528h-307l-94 1004h268l18 -607q2 -98 2 -131zM997 1337l-170 -194h-200l254 356h272l127 -356h-178z" />
    <glyph glyph-name="Ycircumflex" unicode="&#x176;" horiz-adv-x="1210" 
d="M1456 1405l-612 -856l-99 -549h-282l98 545l-313 860h287l200 -625l408 625h313zM913 1630l-155 -133h-211l246 281h274l129 -281h-186z" />
    <glyph glyph-name="ycircumflex" unicode="&#x177;" horiz-adv-x="1017" 
d="M150 -424q-86 0 -150 21l57 229q45 -18 101 -19q156 0 200 140l15 35l-185 1022h289l72 -627q4 -29 4 -119h6q23 70 45 119l283 627h297l-574 -1104q-97 -185 -198 -255q-101 -69 -262 -69zM752 1337l-170 -194h-201l254 356h272l127 -356h-178z" />
    <glyph glyph-name="Ydieresis" unicode="&#x178;" horiz-adv-x="1210" 
d="M1456 1405l-612 -854l-96 -551h-283l96 545l-311 860h285l200 -625l408 625h313zM1081 1511q-53 0 -92 36t-39 98.5t47 109.5t112.5 47t103.5 -36.5t38 -88t-20.5 -87.5t-58.5 -57.5t-91 -21.5zM694.5 1511q-65.5 0 -104.5 36t-39 98.5t47 109.5t112.5 47t104.5 -36.5
t39 -99.5t-47 -109t-112.5 -46z" />
    <glyph glyph-name="Zacute" unicode="&#x179;" horiz-adv-x="1202" 
d="M1372 1405l-45 -238l-883 -934h725l-43 -233h-1060l45 236l880 933h-700l43 236h1038zM1217 1778l-252 -283h-250l145 283h357z" />
    <glyph glyph-name="zacute" unicode="&#x17a;" horiz-adv-x="942" 
d="M1040 1004l-36 -203l-553 -580h475l-41 -221h-819l36 205l566 577h-451l39 222h784zM1034 1497l-256 -356h-219l156 356h319z" />
    <glyph glyph-name="Zdotaccent" unicode="&#x17b;" horiz-adv-x="1202" 
d="M1372 1405l-45 -238l-883 -934h725l-43 -233h-1060l45 236l880 933h-700l43 236h1038zM702 1651q0 72 54.5 125t129.5 53t119 -42t45 -114t-53.5 -126t-130.5 -53t-120 43t-44 114z" />
    <glyph glyph-name="zdotaccent" unicode="&#x17c;" horiz-adv-x="942" 
d="M1040 1004l-36 -203l-553 -580h475l-41 -221h-819l36 205l566 577h-451l39 222h784zM539 1300q0 84 60 141.5t151 57.5q92 -1 128 -67q18 -32 17 -72q0 -86 -60.5 -143.5t-151 -57.5t-127.5 69q-17 32 -17 72z" />
    <glyph glyph-name="Zcaron" unicode="&#x17d;" horiz-adv-x="1202" 
d="M1372 1405l-45 -238l-883 -934h725l-43 -233h-1060l45 236l880 933h-700l43 236h1038zM985 1497h-268l-142 281h189l104 -133l148 133h209z" />
    <glyph glyph-name="zcaron" unicode="&#x17e;" horiz-adv-x="942" 
d="M217 782l39 222h784l-36 -203l-553 -580h475l-41 -221h-819l36 205l566 577h-451zM819 1143h-274l-125 356h188l105 -182l170 182h188z" />
    <glyph glyph-name="uni018F" unicode="&#x18f;" horiz-adv-x="1400" 
d="M731 233q137 0 249 78t161 236h-690q-5 -160 69 -237t211 -77zM911 1419q256 0 401 -157q144 -158 144 -465q0 -190 -56 -344q-107 -294 -389 -412q-134 -55 -292 -55q-209 0 -341 96q-259 188 -181 627l8 51h966v20q0 393 -299 394q-120 0 -206 -62t-125 -164h-285
q63 215 231 343t424 128z" />
    <glyph glyph-name="uni019D" unicode="&#x19d;" horiz-adv-x="1503" 
d="M-20.5 -424q-112.5 0 -174.5 21l60 233q39 -20 105 -20q141 0 173 176l4 14h-2l248 1405h234l454 -971l172 971h275l-248 -1405h-233l-455 971l-170 -971h-2q-16 -144 -84 -245t-156 -140t-200.5 -39z" />
    <glyph glyph-name="Gcaron" unicode="&#x1e6;" horiz-adv-x="1429" 
d="M471 623q0 -180 83 -283.5t227 -103.5t237.5 81.5t132.5 202.5h-322l41 215h586l-129 -735h-197l35 186q-152 -199 -426 -196q-258 -2 -408.5 160.5t-150.5 451.5q0 236 100.5 423t273.5 290.5t403.5 103.5t376 -140t132.5 -366h-280q0 106 -72 182t-201 76
q-182 -2 -312 -156.5t-130 -391.5zM1104 1497h-268l-144 283h191l102 -133l148 133h208z" />
    <glyph glyph-name="gcaron" unicode="&#x1e7;" horiz-adv-x="1161" 
d="M598 221q94 0 158.5 65.5t87.5 155.5l20 113q8 96 -35 161.5t-144.5 65.5t-178 -93t-76.5 -247q0 -221 168 -221zM509 -434q-427 0 -427 332h262q0 -59 48 -89t124 -30q207 0 250 219l25 145q-115 -154 -308 -153q-156 0 -248 103.5t-92 309.5q0 272 150.5 441.5
t355.5 169.5t275 -140l28 130h271l-174 -994q-39 -217 -182.5 -330.5t-357.5 -113.5zM942 1141h-272l-127 356h188l105 -182l170 182h188z" />
    <glyph glyph-name="uni01EA" unicode="&#x1ea;" horiz-adv-x="1497" 
d="M479 652q0 -214 96.5 -315t247.5 -101q193 0 322 153.5t129 367t-99 314t-249 100.5q-190 0 -318.5 -152.5t-128.5 -366.5zM780 -186q0 -76 92 -76q38 0 86 41l46 -123q-74 -76 -181.5 -76t-162 50.5t-54.5 140.5q0 125 113 221q-248 23 -389.5 182.5t-141.5 439.5
q0 350 213 576.5t555 226.5q279 0 444 -160.5t165 -466.5t-173 -525.5t-462 -264.5q-150 -90 -150 -186z" />
    <glyph glyph-name="uni01EB" unicode="&#x1eb;" horiz-adv-x="1114" 
d="M430 461.5q0 -125.5 49 -183t133 -57.5q113 0 182.5 98.5t69.5 225t-49 182t-131 55.5q-113 0 -183.5 -97.5t-70.5 -223zM586 -176q0 -74 76 -74q53 0 102 39l45 -121q-74 -78 -198 -78q-125 0 -175 88q-24 43 -24 103q0 121 102 215q-174 20 -271.5 136t-97.5 304
q0 254 154 416t401 162q209 0 329 -118t120 -331t-114.5 -366.5t-311.5 -194.5q-137 -88 -137 -180z" />
    <glyph glyph-name="Aringacute" unicode="&#x1fa;" horiz-adv-x="1353" 
d="M557 528h387l-84 631zM838 1490q0 -65 63 -65q31 0 53.5 21.5t22.5 51.5t-17.5 47.5t-48.5 17.5t-52 -21.5t-21 -51.5zM921.5 1698q92.5 0 145.5 -56l80 136h196l-229 -277q-4 -74 -49 -127l221 -1374h-272l-41 305h-524l-148 -305h-295l713 1389q-20 39 -21 88
q0 94 65.5 157.5t158 63.5z" />
    <glyph glyph-name="aringacute" unicode="&#x1fb;" horiz-adv-x="1079" 
d="M381 291q1 -92 139 -92q74 0 136.5 44t80.5 107l13 78h-146q-100 0 -161.5 -35t-61.5 -102zM672 1014q209 0 311 -117t66 -317l-54 -295q-6 -31 7.5 -46.5t34 -15.5t44.5 8l-24 -221q-63 -20 -141 -20t-132.5 43t-64.5 129q-111 -172 -326 -172q-137 0 -216 68
q-79 66 -79 172q0 197 180 282q158 74 386 74h112l6 30q31 184 -137 185q-150 0 -188 -137h-258q92 350 473 350zM829 1320q0 64 -63 64q-31 0 -53.5 -21.5t-22.5 -51t17.5 -47t48.5 -17.5t52 21.5t21 51.5zM737 1116q-78 0 -131 48t-53 138t64.5 154t159.5 64t149 -64
l86 152h205l-263 -348q-23 -66 -81 -105t-136 -39z" />
    <glyph glyph-name="AEacute" unicode="&#x1fc;" horiz-adv-x="1927" 
d="M668 528h356l111 633h-5zM2034 1157h-627l-57 -321h553l-43 -238h-551l-62 -350h641l-47 -248h-909l53 305h-481l-221 -305h-310l1033 1405h1073zM1630 1778l-252 -283h-252l146 283h358z" />
    <glyph glyph-name="aeacute" unicode="&#x1fd;" horiz-adv-x="1755" 
d="M506 199q98 0 171 54t89 124q-2 25 -4 51h-160q-104 0 -162 -36t-59 -99q0 -94 125 -94zM1279 805q-75 0 -137 -53t-91 -150h403q-2 100 -51 152t-124 51zM1298 1014q138 0 238 -65t142 -183t16 -272l-8 -54h-656q6 -229 176 -229q76 0 126 37q43 29 65 82h260
q-43 -148 -166 -244t-301 -96q-246 0 -359 182h-6q-57 -74 -162 -128t-253 -54t-230 66t-82 188q0 88 46 156t124 107q150 77 375 79h135l4 32q31 182 -135 183q-152 0 -190 -137h-258q43 170 163 260q121 90 314 90t293 -115q143 115 329 115zM1339 1497l-256 -356h-219
l154 356h321z" />
    <glyph glyph-name="Oslashacute" unicode="&#x1fe;" horiz-adv-x="1497" 
d="M1274 772q0 127 -45 217l-557 -723q68 -31 151 -30q193 0 322 153.5t129 382.5zM479 637q0 -147 58 -248l567 737q-78 45 -178 45q-190 0 -318.5 -152.5t-128.5 -381.5zM793 -10q-164 0 -289 57l-109 -141h-231l188 244q-164 164 -164 464q0 350 213 576.5t555 226.5
q182 0 318 -69l92 118h231l-178 -229q145 -162 146 -440q0 -229 -95.5 -412.5t-272.5 -289t-404 -105.5zM1120 1755l-252 -280h-250l146 280h356z" />
    <glyph glyph-name="oslashacute" unicode="&#x1ff;" horiz-adv-x="1114" 
d="M612 221q113 0 182.5 98.5t69.5 245.5q0 55 -14 99l-324 -422q37 -21 86 -21zM430 442q0 -57 14 -100l326 422q-37 18 -88 18q-111 0 -181.5 -97.5t-70.5 -242.5zM1149 569q0 -254 -153.5 -416.5t-403.5 -162.5q-127 0 -223 47l-76 -98h-160l131 170q-119 119 -119 327
q0 254 154 416t401 162q131 0 228 -47l67 86h156l-121 -158h-2q121 -117 121 -326zM967 1497l-256 -356h-217l153 356h320z" />
    <glyph glyph-name="Scommaaccent" unicode="&#x218;" horiz-adv-x="1196" 
d="M556 -86q58 0 96 -36t38 -120q0 -147 -99 -264t-222 -115l20 115q43 0 86 39t55 100q-53 0 -85.5 36t-32.5 96.5t43 104.5t101 44zM653 -12q-246 0 -381 112.5t-133 319.5h281q0 -94 65.5 -144.5t185.5 -50.5t183.5 43t64.5 113.5t-35 112.5t-94 66t-126 44
q-172 49 -262 112q-126 90 -125 283t148.5 306.5t381.5 113.5t357.5 -120.5t123.5 -327.5h-282q0 96 -58.5 154.5t-162 58.5t-165 -43t-62.5 -107.5t34 -101.5t92 -57.5t126 -39t137.5 -47t124.5 -70.5t91 -121t33 -187q-2 -199 -149.5 -310.5t-393.5 -111.5z" />
    <glyph glyph-name="scommaaccent" unicode="&#x219;" horiz-adv-x="958" 
d="M324 -246q0 49 19 85q40 75 128 75q55 0 93 -36t38 -120q0 -147 -99.5 -264t-221.5 -115l20 115q43 0 86 39t55 100q-53 0 -85.5 36t-32.5 85zM465 721q0 -41 36 -64.5t90 -34t116.5 -30t117 -45t90 -83.5t35.5 -142q0 -158 -120.5 -245t-319 -87t-302.5 80t-89 247
l231 -2q-2 -131 166 -131q80 0 126 29t46 69t-26.5 62.5t-69.5 35.5q-44 14 -96 26q-123 28 -197 76q-96 61 -96 207.5t122 235.5t306 89t286.5 -82t83.5 -236h-235q4 123 -148 123q-70 0 -111.5 -28.5t-41.5 -69.5z" />
    <glyph glyph-name="uni021A" unicode="&#x21a;" horiz-adv-x="1159" 
d="M387 -234.5q0 60.5 42 104.5t101.5 44t97.5 -36t38 -120q0 -147 -100.5 -264t-223.5 -115l20 115q43 0 87.5 39t56.5 100q-53 0 -86 36t-33 96.5zM436 0l205 1165h-420l43 240h1125l-46 -240h-419l-205 -1165h-283z" />
    <glyph glyph-name="uni021B" unicode="&#x21b;" horiz-adv-x="927" 
d="M456 -86q48 0 86 -36t38 -120q0 -147 -99.5 -264t-222.5 -115l21 115q43 0 86 39t55 100q-53 0 -86 36t-33 85t19.5 85t53.5 55.5t82 19.5zM596 215q111 0 133 143h244q-29 -188 -129.5 -278t-279.5 -90t-269 99t-59 263l75 428h-141l41 224h156l49 284h266l-51 -284h352
l-41 -224h-350l-66 -370l-10 -66q-12 -61 9.5 -95t70.5 -34z" />
    <glyph glyph-name="uni0232" unicode="&#x232;" horiz-adv-x="1210" 
d="M1456 1405l-612 -856l-99 -549h-282l98 545l-313 860h287l200 -625l408 625h313zM1223 1733l-37 -193h-611l35 193h613z" />
    <glyph glyph-name="uni0233" unicode="&#x233;" horiz-adv-x="1017" 
d="M156 -424q-92 0 -156 21l57 229q45 -18 101 -19q156 0 200 140l15 35l-185 1022h289l72 -627q4 -29 4 -119h6q23 70 45 119l283 627h297l-574 -1104q-94 -182 -196.5 -253t-257.5 -71zM1067 1417l-37 -194h-610l35 194h612z" />
    <glyph glyph-name="uni0237" unicode="&#x237;" horiz-adv-x="526" 
d="M-43 -424q-100 0 -162 21l60 233q39 -20 103 -20t111 48q46 48 64 154l176 992h281l-178 -1004q-76 -424 -455 -424z" />
    <glyph glyph-name="uni0259" unicode="&#x259;" horiz-adv-x="1077" 
d="M404 199q83 0 147.5 51t93.5 151h-428q0 -102 52 -152t135 -50zM507.5 1014q197.5 0 312 -122t114.5 -329q0 -164 -71.5 -297t-195.5 -204.5t-274 -71.5q-227 0 -341.5 143t-76.5 377l11 53h680v4q0 225 -189 226q-76 0 -132 -36t-71 -83h-260q43 150 169.5 245t324 95z
" />
    <glyph glyph-name="uni0272" unicode="&#x272;" horiz-adv-x="1126" 
d="M856 1014q162 0 234 -110t40 -281l-110 -623h-281l101 578q33 193 -121 192q-134 0 -195 -125q-20 -41 -30 -92l-101 -563q-41 -223 -153 -319q-113 -95 -293 -95q-92 0 -154 21l53 202q30 -16 92 -16q135 0 175 207l180 1014h270l-18 -150q118 160 311 160z" />
    <glyph glyph-name="circumflex" unicode="&#x2c6;" horiz-adv-x="778" 
d="M250 1141l252 356h274l125 -356h-178l-102 196l-172 -196h-199z" />
    <glyph glyph-name="caron" unicode="&#x2c7;" horiz-adv-x="735" 
d="M301 1497h191l104 -182l170 182h188l-254 -356h-272z" />
    <glyph glyph-name="breve" unicode="&#x2d8;" horiz-adv-x="718" 
d="M582 1327q54 0 84 37q31 37 47 127h205q-14 -115 -64 -196q-97 -158 -289 -158q-145 0 -218 95t-46 259h203q-14 -88 5 -126t73 -38z" />
    <glyph glyph-name="dotaccent" unicode="&#x2d9;" horiz-adv-x="473" 
d="M492 1499q155 -1 155 -151q0 -74 -59 -131t-155 -57t-130 83q-10 27 -10 57q0 84 60 142q61 57 139 57z" />
    <glyph glyph-name="ring" unicode="&#x2da;" horiz-adv-x="575" 
d="M436 1312q0 -64 64 -65q30 0 52 22q22 21 22 51t-17 47q-16 17 -47 17q-30 0 -52 -22q-22 -20 -22 -50zM713 1335q0 -95 -65 -157t-154 -62t-143 48t-54 138t65 154q66 64 170 64t155 -84q26 -43 26 -101z" />
    <glyph glyph-name="ogonek" unicode="&#x2db;" horiz-adv-x="573" 
d="M195 -203q0 -73 75 -73q52 -1 103 38l45 -120q-74 -78 -182 -78t-162 51t-54 125t29 130q75 143 258 208l2 2l64 -80q-178 -100 -178 -203z" />
    <glyph glyph-name="tilde" unicode="&#x2dc;" horiz-adv-x="894" 
d="M604 1246q-32 22 -66 22t-59 -25t-30 -65h-183q22 136 92 208t166 72t190 -68q32 -24 66 -24t56 26q23 26 28 64h183q-25 -136 -93 -208t-159 -72q-89 0 -191 70z" />
    <glyph glyph-name="hungarumlaut" unicode="&#x2dd;" horiz-adv-x="1038" 
d="M930 1141h-232l154 356h338zM510 1141h-231l155 356h338z" />
    <glyph glyph-name="gravecomb" unicode="&#x300;" 
d="M-86 1141l-143 356h311l29 -356h-197z" />
    <glyph glyph-name="acutecomb" unicode="&#x301;" 
d="M-68 1141h-217l154 356h321z" />
    <glyph glyph-name="uni0302" unicode="&#x302;" 
d="M-502 1141l252 356h275l125 -356h-179l-102 196l-172 -196h-199z" />
    <glyph glyph-name="tildecomb" unicode="&#x303;" 
d="M-319.5 1268q-39.5 0 -64 -24.5t-30.5 -65.5h-182q23 137 92.5 208.5t166.5 71.5t189 -68q32 -24 59.5 -24t45.5 12q37 26 45 78h182q-25 -137 -93.5 -208.5t-163 -71.5t-151 46t-96 46z" />
    <glyph glyph-name="uni0304" unicode="&#x304;" 
d="M-496 1223l35 194h613l-37 -194h-611z" />
    <glyph glyph-name="uni0306" unicode="&#x306;" 
d="M-127 1137q-147 0 -220 95t-44 259h203q-30 -164 76 -164q52 0 84 37t48 127h205q-33 -233 -187 -315q-73 -38 -165 -39z" />
    <glyph glyph-name="uni0307" unicode="&#x307;" 
d="M-22 1159q-156 -1 -156 151q0 74 59.5 131.5t138.5 57.5q156 -1 156 -151q0 -74 -59.5 -131.5t-138.5 -57.5z" />
    <glyph glyph-name="uni0308" unicode="&#x308;" 
d="M10 1176q-134 0 -135 128q0 64 51 112t128.5 48t107.5 -56q14 -28 14 -62q0 -74 -50 -122t-116 -48zM-354 1464q132 0 133 -128q0 -64 -50.5 -112t-129.5 -48t-107 56q-14 28 -14 62q0 74 51 122t117 48z" />
    <glyph glyph-name="uni030A" unicode="&#x30a;" 
d="M-113 1316q1 -69 71 -69q26 0 47.5 21.5t21.5 51.5q0 64 -64 64q-31 0 -53.5 -21.5t-22.5 -46.5zM-54 1116q-89 0 -142.5 48t-53.5 138t64.5 154t152.5 64t143.5 -49.5t55.5 -139.5t-65.5 -152.5t-154.5 -62.5z" />
    <glyph glyph-name="uni030B" unicode="&#x30b;" 
d="M-57 1141h-232l154 356h340zM-475 1141h-232l154 356h338z" />
    <glyph glyph-name="uni030C" unicode="&#x30c;" 
d="M-426 1497h190l105 -182l170 182h188l-252 -356h-274z" />
    <glyph glyph-name="dotbelowcomb" unicode="&#x323;" 
d="M-264 -102q155 0 155 -151q0 -75 -59 -132t-149.5 -57t-128.5 68q-18 32 -17 73q0 86 60.5 142.5t138.5 56.5z" />
    <glyph glyph-name="uni0326" unicode="&#x326;" 
d="M-406 -234.5q0 60.5 42 104.5t101.5 44t97.5 -36t38 -120q0 -147 -100.5 -264t-221.5 -115l21 115q58 0 108 66q24 32 33 73q-53 0 -86 36t-33 96.5z" />
    <glyph glyph-name="uni0327" unicode="&#x327;" 
d="M-352 -285q102 0 104 62q-2 61 -149 67l71 183h133l-34 -95q57 -8 95 -50t38 -123.5t-74 -138t-182.5 -56.5t-163.5 26l59 148q41 -23 103 -23z" />
    <glyph glyph-name="uni0328" unicode="&#x328;" 
d="M-356 -203q0 -73 75 -73q52 -1 103 38l45 -120q-74 -78 -182.5 -78t-161.5 51t-53 125t28 130q47 92 147 154q67 41 111 54l2 2l64 -80q-178 -100 -178 -203z" />
    <glyph glyph-name="uni0335" unicode="&#x335;" 
d="M-641 496h655l-30 -162h-654z" />
    <glyph glyph-name="uni0336" unicode="&#x336;" 
d="M-731 516h784l-33 -182h-784z" />
    <glyph glyph-name="uni0337" unicode="&#x337;" 
d="M-588 729l660 358l53 -141l-662 -360z" />
    <glyph glyph-name="uni0338" unicode="&#x338;" 
d="M-88 1073h156l-859 -1116h-159z" />
    <glyph glyph-name="Wgrave" unicode="&#x1e80;" horiz-adv-x="1873" 
d="M1823 1405h280l-610 -1405h-324l-47 1059l-420 -1059h-321l-117 1405h281l51 -1124l428 1124h305l39 -1143zM1323 1495h-236l-165 283h338z" />
    <glyph glyph-name="wgrave" unicode="&#x1e81;" horiz-adv-x="1505" 
d="M1104 266h8q12 43 45 131l229 607h273l-449 -1004h-301l-41 528q-4 63 2 131h-8q-23 -80 -41 -131l-219 -528h-307l-94 1004h268l18 -607q4 -98 2 -131h7q10 29 51 131l244 607h268l41 -607q4 -102 4 -131zM1067 1141h-197l-143 356h311z" />
    <glyph glyph-name="Wacute" unicode="&#x1e82;" horiz-adv-x="1873" 
d="M1823 1405h282l-612 -1405h-324l-47 1059l-420 -1059h-321l-117 1405h281l51 -1124l428 1124h305l39 -1143zM1573 1778l-254 -283h-250l145 283h359z" />
    <glyph glyph-name="wacute" unicode="&#x1e83;" horiz-adv-x="1505" 
d="M489 266h7q10 29 51 131l244 607h268l41 -607q4 -102 4 -131h8q12 43 45 131l229 607h273l-449 -1004h-301l-41 528q-4 63 2 131h-8q-23 -80 -41 -131l-219 -528h-307l-94 1004h268l18 -607q2 -98 2 -131zM1307 1497l-256 -356h-220l154 356h322z" />
    <glyph glyph-name="Wdieresis" unicode="&#x1e84;" horiz-adv-x="1873" 
d="M1825 1405h280l-612 -1405h-324l-47 1059l-420 -1059h-321l-117 1405h281l51 -1124l430 1124h303l41 -1143zM1413 1511q-53 0 -91 36t-38 98.5t47 109.5t111.5 47t103.5 -36.5t39 -88t-21.5 -87.5t-59.5 -57.5t-91 -21.5zM1028.5 1511q-65.5 0 -104.5 36t-39 98.5
t47 109.5t112.5 47t103.5 -36.5t38 -99.5t-46 -109t-111.5 -46z" />
    <glyph glyph-name="wdieresis" unicode="&#x1e85;" horiz-adv-x="1505" 
d="M489 266h7q10 29 51 131l244 607h268l41 -607q4 -102 4 -131h8q12 43 45 131l229 607h273l-449 -1004h-301l-41 528q-4 63 2 131h-8q-23 -80 -41 -131l-219 -528h-307l-94 1004h268l18 -607q2 -98 2 -131zM1174.5 1176q-66.5 0 -100.5 32.5t-34 83.5t24 90q49 82 153 82
q59 0 91.5 -32.5t32.5 -96t-50 -111.5t-116.5 -48zM763 1176q-54 0 -87 32.5t-33 96t50 111.5t127.5 48t107.5 -56q16 -28 16 -69.5t-23.5 -80.5t-63.5 -60.5t-94 -21.5z" />
    <glyph glyph-name="uni1E9E" unicode="&#x1e9e;" horiz-adv-x="1320" 
d="M1329 440q-1 -204 -151 -322t-416 -118h-123l39 221h115q109 -1 179 57t68 150q0 92 -45 143t-127 52h-86l35 194l242 352h-254q-109 4 -173 -85q-30 -42 -38 -97l-174 -987h-283l174 993q35 199 162 305t334 107h620l-34 -180l-308 -437q154 -55 213 -189
q31 -71 31 -159z" />
    <glyph glyph-name="uni1EA0" unicode="&#x1ea0;" horiz-adv-x="1353" 
d="M581 -442q-157 0 -157 152q0 75 60.5 131.5t138.5 56.5q157 0 157 -151q0 -75 -60.5 -132t-138.5 -57zM557 528h387l-84 631zM1286 0h-272l-39 305h-526l-148 -305h-295l721 1405h334z" />
    <glyph glyph-name="uni1EA1" unicode="&#x1ea1;" horiz-adv-x="1079" 
d="M462 -442q-157 0 -157 152q0 75 59.5 131.5t138.5 56.5q156 0 156 -151q0 -75 -59 -132t-138 -57zM381 291q1 -92 139 -92q74 0 136.5 44t80.5 107l13 78h-146q-138 0 -194 -60q-30 -32 -29 -77zM1036.5 223q20.5 0 44.5 8l-24 -221q-63 -20 -141 -20t-132.5 43
t-64.5 129q-111 -172 -326 -172q-137 0 -216 68q-79 66 -79 172q0 197 180 282q158 74 386 74h112l6 30q31 184 -137 185q-150 0 -188 -137h-258q94 350 473 350q209 0 311 -117t66 -317l-54 -295q-6 -31 7.5 -46.5t34 -15.5z" />
    <glyph glyph-name="uni1EB8" unicode="&#x1eb8;" horiz-adv-x="1177" 
d="M568 -442q-156 0 -156 152q0 75 59.5 131.5t138.5 56.5q156 0 156 -151q0 -75 -59.5 -132t-138.5 -57zM1288 1167h-653l-60 -336h580l-43 -229h-575l-66 -366h666l-43 -236h-947l248 1405h936z" />
    <glyph glyph-name="uni1EB9" unicode="&#x1eb9;" horiz-adv-x="1077" 
d="M521 -102q157 0 157 -151q0 -75 -59.5 -132t-150.5 -57t-127 68q-17 32 -17 73q0 86 59 142.5t138 56.5zM673 805q-83 0 -147.5 -51.5t-93.5 -151.5h428q0 102 -52 152.5t-135 50.5zM683 1014q228 0 343 -143.5t76 -376.5l-10 -54h-680v-4q2 -225 188 -225q76 0 132 36
t71 83h262q-45 -150 -171 -245t-323.5 -95t-312.5 121.5t-115 328.5q0 250 156 412t384 162z" />
    <glyph glyph-name="uni1EBC" unicode="&#x1ebc;" horiz-adv-x="1177" 
d="M1288 1167h-653l-60 -336h580l-43 -229h-575l-66 -364h666l-43 -238h-947l248 1405h936zM788 1608q-34 0 -58.5 -24.5t-31.5 -65.5h-182q23 137 92.5 208.5t166.5 71.5t189 -68q32 -24 65.5 -24t56 25.5t28.5 64.5h182q-25 -137 -93 -208.5t-146 -71.5t-124 23.5
t-78.5 46t-66.5 22.5z" />
    <glyph glyph-name="uni1EBD" unicode="&#x1ebd;" horiz-adv-x="1077" 
d="M673 805q-83 0 -147.5 -51.5t-93.5 -151.5h428q0 102 -52 152.5t-135 50.5zM683 1014q228 0 343 -143.5t76 -376.5l-10 -54h-680v-4q2 -225 188 -225q76 0 132 36t71 83h262q-45 -150 -171 -245t-323.5 -95t-312.5 121.5t-115 328.5q0 250 156 412t384 162zM632 1268
q-34 0 -58.5 -24.5t-30.5 -65.5h-183q23 137 92.5 208.5t166 71.5t189.5 -68q32 -24 65.5 -24t56 25.5t28.5 64.5h183q-25 -137 -93.5 -208.5t-146 -71.5t-124 23.5t-79 46t-66.5 22.5z" />
    <glyph glyph-name="uni1ECA" unicode="&#x1eca;" horiz-adv-x="575" 
d="M260 -102q78 0 118 -38t40 -98.5t-28 -105.5t-76 -71.5t-110.5 -26.5t-102.5 38.5t-40 113.5t60.5 131.5t138.5 56.5zM147 0l248 1405h283l-248 -1405h-283z" />
    <glyph glyph-name="uni1ECB" unicode="&#x1ecb;" horiz-adv-x="512" 
d="M187 -442q-156 0 -156 152q0 75 59.5 131.5t138.5 56.5q156 0 156 -151q0 -75 -59.5 -132t-138.5 -57zM115 0l178 1004h280l-178 -1004h-280zM472 1159q-157 1 -157 151q0 74 59.5 131.5t149.5 57.5q90 -1 128 -69q18 -32 18 -72q0 -86 -59.5 -142.5t-138.5 -56.5z" />
    <glyph glyph-name="uni1ECC" unicode="&#x1ecc;" horiz-adv-x="1497" 
d="M670 -442q-158 0 -158 152q0 75 60.5 131.5t138.5 56.5q157 0 157 -151q0 -75 -60 -132t-138 -57zM823 236q193 0 322 153.5t129 367t-99 314t-249 100.5q-190 0 -318.5 -152.5t-128.5 -366.5t96 -315t248 -101zM814.5 -10q-205.5 0 -341 69.5t-210.5 211t-75 343.5
q0 350 213 576.5t555 226.5q279 0 444 -160.5t165 -459.5q0 -229 -95.5 -412.5t-272.5 -289t-382.5 -105.5z" />
    <glyph glyph-name="uni1ECD" unicode="&#x1ecd;" horiz-adv-x="1114" 
d="M527 -102q155 0 155 -151q0 -75 -59.5 -132t-156 -57t-128.5 84q-10 26 -10 57q0 86 60.5 142.5t138.5 56.5zM687 782q-79 0 -136 -45t-89 -122.5t-32 -178t49 -158t133 -57.5q113 0 182.5 98.5t69.5 225t-49 182t-128 55.5zM700 1014q209 0 329 -118t120 -327
q0 -254 -153.5 -416.5t-403.5 -162.5q-209 0 -328 118.5t-119 327.5q0 254 153.5 416t401.5 162z" />
    <glyph glyph-name="uni1EE4" unicode="&#x1ee4;" horiz-adv-x="1388" 
d="M667 -102q156 0 156 -151q0 -75 -59 -132t-149.5 -57t-128.5 68q-18 32 -17 73q0 86 59.5 142.5t138.5 56.5zM754 231q139 0 216 83t105 245l148 846h284l-149 -846q-102 -573 -627 -571q-281 -2 -414 153.5t-86 421.5l150 842h283l-148 -842q-37 -216 84 -294
q59 -38 154 -38z" />
    <glyph glyph-name="uni1EE5" unicode="&#x1ee5;" horiz-adv-x="1148" 
d="M490 -442q-156 0 -156 152q0 75 59.5 131.5t138.5 56.5q156 0 156 -151q0 -75 -59.5 -132t-138.5 -57zM1079 223q20 0 47 8l-24 -221q-63 -20 -143 -20t-136.5 49t-68.5 131q-117 -180 -316 -180q-158 0 -226.5 104.5t-41.5 263.5l115 646h280l-102 -580
q-14 -88 15.5 -139.5t99 -51.5t126 48.5t76.5 128.5l107 594h278l-125 -721q-6 -27 6.5 -43.5t32.5 -16.5z" />
    <glyph glyph-name="Ygrave" unicode="&#x1ef2;" horiz-adv-x="1210" 
d="M1456 1405l-612 -856l-99 -549h-282l98 545l-313 860h287l200 -625l408 625h313zM991 1495h-235l-168 283h340z" />
    <glyph glyph-name="ygrave" unicode="&#x1ef3;" horiz-adv-x="1017" 
d="M150 -424q-86 0 -150 21l57 229q45 -18 101 -19q156 0 200 140l15 35l-185 1022h289l72 -627q4 -29 4 -119h6q23 70 45 119l283 627h297l-574 -1104q-97 -185 -198 -255q-101 -69 -262 -69zM821 1141h-196l-144 356h312z" />
    <glyph glyph-name="uni1EF8" unicode="&#x1ef8;" horiz-adv-x="1210" 
d="M1456 1405l-612 -856l-99 -549h-282l98 545l-313 860h287l200 -625l408 625h313zM784 1608q-76 0 -94 -90h-182q25 137 93.5 208.5t165.5 71.5t189 -68q32 -24 59.5 -24t45.5 12q37 26 45 78h182q-23 -137 -92.5 -208.5t-147 -71.5t-122.5 23.5t-78 46t-64 22.5z" />
    <glyph glyph-name="uni1EF9" unicode="&#x1ef9;" horiz-adv-x="1017" 
d="M150 -424q-86 0 -150 21l57 229q45 -18 101 -19q156 0 200 140l15 35l-185 1022h289l72 -627q4 -29 4 -119h6q23 70 45 119l283 627h297l-574 -1104q-97 -185 -198 -254.5t-262 -69.5zM597 1268q-34 0 -58.5 -24.5t-30.5 -65.5h-182q25 137 93 208.5t164.5 71.5
t189.5 -68q32 -24 66 -24t56.5 25.5t28.5 64.5h182q-25 -137 -93.5 -208.5t-146 -71.5t-124 23.5t-79 46t-66.5 22.5z" />
    <glyph glyph-name="endash" unicode="&#x2013;" horiz-adv-x="1087" 
d="M190 483l39 215h877l-41 -215h-875z" />
    <glyph glyph-name="emdash" unicode="&#x2014;" horiz-adv-x="1591" 
d="M190 483l39 215h1381l-41 -215h-1379z" />
    <glyph glyph-name="quoteleft" unicode="&#x2018;" horiz-adv-x="503" 
d="M498 1245q24 0 54 -18q62 -37 62 -124t-56 -142t-134 -55t-122 43q-44 44 -44 136q0 175 125 319t281 140l-25 -137q-53 0 -113 -51t-69 -115q17 4 41 4z" />
    <glyph glyph-name="quoteright" unicode="&#x2019;" horiz-adv-x="505" 
d="M417 1206q-23 0 -53 18q-62 37 -63 123q0 87 56 142q57 55 135 55q166 0 165 -177q0 -177 -125 -321t-280 -141l24 137q52 0 112 52t71 114q-18 -2 -42 -2z" />
    <glyph glyph-name="quotesinglbase" unicode="&#x201a;" horiz-adv-x="528" 
d="M246 8q-59 0 -95 41t-36 101q0 117 95 173q44 25 108 25t107 -44q44 -44 44 -138q0 -172 -125 -316t-281 -141l27 137q54 0 112 52t70 112q-20 -2 -26 -2z" />
    <glyph glyph-name="quotedblleft" unicode="&#x201c;" horiz-adv-x="942" 
d="M949 1245q48 0 84 -41t36 -115q0 -73 -56 -128t-133 -55t-121 43q-44 44 -44 136q0 175 125 319t278 140l-24 -137q-75 0 -144 -84q-31 -39 -39 -80q20 2 38 2zM515 1245q23 0 53 -18q60 -37 62 -124q0 -87 -56 -142t-133 -55t-121 43q-44 44 -44 136q0 175 125 319
t279 140l-25 -137q-53 0 -111 -51t-71 -113q18 2 42 2z" />
    <glyph glyph-name="quotedblright" unicode="&#x201d;" horiz-adv-x="944" 
d="M868 1206q-24 0 -54 18q-62 36 -62 123t57 142t134 55t121 -44t44 -136q0 -174 -125 -318t-281 -141l25 137q55 0 113 52t69 114q-17 -2 -41 -2zM429 1206q-23 0 -53 18q-60 36 -62 123q0 87 56 142t134 55t122 -44t44 -136q0 -174 -125 -318t-281 -141l25 137
q53 0 112 52t70 114q-18 -2 -42 -2z" />
    <glyph glyph-name="quotedblbase" unicode="&#x201e;" horiz-adv-x="964" 
d="M893 137q0 -174 -125 -318t-281 -141l25 138q55 0 114 51q58 51 68 113q-18 -2 -26 -3q-59 0 -96 41q-36 42 -36 102q1 117 97 172q45 26 109 26t107 -45q44 -44 44 -136zM98 120q0 60 26 103t71 69t109 26t107 -45q44 -44 44 -136q0 -174 -125 -318t-281 -141l25 138
q53 0 112 51t70 113l-27 -3q-59 0 -95 41q-36 42 -36 102z" />
    <glyph glyph-name="dagger" unicode="&#x2020;" horiz-adv-x="804" 
d="M928 1221l-37 -205h-203l-117 -654h-213l115 654h-201l37 205h201l41 233h215l-41 -233h203z" />
    <glyph glyph-name="daggerdbl" unicode="&#x2021;" horiz-adv-x="802" 
d="M889 1016h-201l-39 -217h201l-37 -203h-201l-41 -234h-215l43 234h-202l36 203h201l39 217h-201l35 205h203l41 233h213l-41 -233h203z" />
    <glyph glyph-name="bullet" unicode="&#x2022;" horiz-adv-x="749" 
d="M472 465q-230 0 -230 225q0 111 87 196t203 85q230 1 230 -225q0 -110 -88 -196q-88 -85 -202 -85z" />
    <glyph glyph-name="ellipsis" unicode="&#x2026;" horiz-adv-x="1386" 
d="M1136 -14q-80 0 -122 42t-41 116q0 74 57 128q57 56 137 56t120 -41t40 -116t-56 -130q-55 -55 -135 -55zM698 -14q-80 0 -122 42t-41 116q0 74 57 128q57 56 137 56t120 -41t40 -116t-56 -130q-55 -55 -135 -55zM96 144q0 74 58 128q58 56 137 56q80 0 120 -41t40 -116
q-1 -75 -57 -130t-136 -55t-121 42t-41 116z" />
    <glyph glyph-name="perthousand" unicode="&#x2030;" horiz-adv-x="2390" 
d="M1911 170q75 0 113 84t38 199q0 174 -98 174q-74 0 -113 -85t-39 -200q1 -172 99 -172zM1454 170q76 0 114 84t38 199q0 174 -99 174q-75 0 -113 -85t-38 -200q0 -172 98 -172zM1985 805q286 1 286 -355q0 -186 -105 -321t-282 -135q-143 0 -215 92q-99 -92 -237 -92
q-284 0 -285 334q0 205 105 341t282 136q141 0 213 -94q101 94 238 94zM508 793q49 0 84 43q63 77 63 245t-100 168q-72 0 -110 -85t-37 -199q0 -172 100 -172zM1333 1421h207l-840 -1421h-208zM580 1427q132 0 208 -86q76 -87 76 -271t-103 -318t-278 -136q-131 0 -209 84
t-78 270t105 321q104 136 279 136z" />
    <glyph glyph-name="guilsinglleft" unicode="&#x2039;" horiz-adv-x="628" 
d="M135 496l2 20l258 315h291l-285 -346l172 -329h-264z" />
    <glyph glyph-name="guilsinglright" unicode="&#x203a;" horiz-adv-x="628" 
d="M670 504l-4 -23l-269 -325h-291l297 356l-174 319h265z" />
    <glyph glyph-name="fraction" unicode="&#x2044;" horiz-adv-x="382" 
d="M-215 0l842 1421h209l-840 -1421h-211z" />
    <glyph glyph-name="Euro" unicode="&#x20ac;" horiz-adv-x="1413" 
d="M864 236q184 0 266 184h287q-160 -430 -596 -430q-201 0 -332 125t-157 346h-182l34 182h144q4 57 12 111h-137l33 182h151q82 227 256 355t399 128t346 -116q120 -117 130 -318h-291q-11 88 -69 137t-142 49q-230 0 -338 -235h323l-32 -182h-342q-8 -53 -11 -111h334
l-32 -182h-289q28 -146 128 -200q48 -25 107 -25z" />
    <glyph glyph-name="trademark" unicode="&#x2122;" horiz-adv-x="1411" 
d="M1335 1405h203l-104 -592h-168l61 317l-170 -317h-129l-55 317l-49 -317h-168l104 592h203l72 -356zM807 1405l-31 -160h-166l-75 -432h-170l73 432h-166l29 160h506z" />
    <glyph glyph-name="oneeighth" unicode="&#x215b;" horiz-adv-x="1665" 
d="M1354 340q-41 0 -68 -27t-29 -71q0 -78 90 -78q33 0 59 24t28 68q2 84 -80 84zM1412 659q-36 -1 -60 -25t-23 -59q-2 -74 68 -73q37 0 61 22t23 62q4 31 -15 52q-18 21 -54 21zM1680 602q0 -112 -111 -180q71 -57 71 -172t-90 -187q-90 -71 -222 -71t-206 58t-73 165
q0 139 139 213q-57 55 -58 141q0 87 44 147q87 118 264 115q114 0 178 -58q64 -59 64 -171zM1243 1421h223l-843 -1421h-228zM776 782l-33 -178h-469l33 178h137l64 369q-55 -18 -143 -18l34 184q102 0 153 44q28 24 52 60h166l-113 -639h119z" />
    <glyph glyph-name="threeeighths" unicode="&#x215c;" horiz-adv-x="1771" 
d="M1448 164q40 0 66 24t26 68q2 84 -80 84q-38 0 -66 -27t-30 -71q0 -78 84 -78zM1520 659q-35 -1 -60 -25t-24 -59q-2 -74 69 -73q37 0 60 22t24 62q0 73 -69 73zM1747 250q0 -115 -90 -187q-91 -71 -223 -71t-204 58t-73 165q0 139 137 213q-55 55 -55 141q0 87 43 147
q84 118 262 115q114 0 178 -58q64 -59 64 -171t-111 -180q72 -57 72 -172zM1337 1421h224l-844 -1421h-225zM901 845q0 -118 -92 -189q-92 -70 -227 -70t-209 74t-74 198l213 -2q0 -40 24 -62t62 -22t65 22q26 22 23 58q0 76 -92 76h-57l28 155h56q49 0 79 26t29 69
q0 61 -61 61q-82 0 -88 -102h-211q8 127 100 208t236 81t207 -103q30 -49 30 -117q0 -125 -131 -196q90 -47 90 -165z" />
    <glyph glyph-name="fiveeighths" unicode="&#x215d;" horiz-adv-x="1781" 
d="M1468 340q-40 0 -68 -27t-28 -79q0 -70 94 -70q28 0 54 24q27 24 26 68q4 84 -78 84zM1592 616q-14 43 -74 43q-26 -1 -51 -25q-24 -24 -25 -59q0 -74 69 -73q37 0 61 22t23 62q2 16 -3 30zM1755 250q0 -115 -90 -187q-90 -71 -222 -71t-206 58t-74 165q0 137 140 213
q-57 55 -57 141q0 87 43 147q86 118 261 115q115 0 180 -58q64 -59 64 -171t-111 -180q72 -57 72 -172zM913 866q0 -127 -92 -207t-229 -79q-174 0 -246 118q-35 57 -35 136h213q0 -36 23 -54t61 -18t67 28q27 28 27 72q-2 88 -86 86q-40 0 -75 -35l-170 64l121 428h466
l-32 -180h-297l-33 -111q37 8 72 8q109 0 177 -64t68 -192zM1352 1421h207l-838 -1421h-211z" />
    <glyph glyph-name="seveneighths" unicode="&#x215e;" horiz-adv-x="1662" 
d="M1247 246q0 -82 83 -82q38 0 65 24t26 68q4 84 -78 84q-41 0 -69 -27t-27 -67zM1403 659q-76 0 -86 -84q0 -74 69 -73q50 0 73 39q11 18 12 49t-17 50t-51 19zM1038 215q0 139 140 213q-57 55 -58 141q0 127 88 195t210 68t187 -59t65 -171t-111 -180q71 -57 71 -172
t-90 -187q-90 -71 -222 -71t-206 58t-74 165zM311 586l381 637l2 2h-334l33 180h568l-31 -172l-381 -647h-238zM1210 1421h207l-837 -1421h-211z" />
    <glyph glyph-name="minus" unicode="&#x2212;" horiz-adv-x="1040" 
d="M215 594l43 231h817l-43 -231h-817z" />
    <glyph glyph-name="approxequal" unicode="&#x2248;" horiz-adv-x="1050" 
d="M461 641q69 0 187 -33t175 -33q129 0 228 70l-41 -227q-104 -59 -228 -58q-68 0 -190 33t-179 33q-56 0 -125 -20t-108 -50l43 230q101 55 238 55zM535 1055q69 0 187 -33t175 -33q129 0 227 70l-41 -232q-102 -55 -227 -55q-68 0 -190 33t-180 33q-56 0 -125 -20
t-107 -50l43 229q99 58 238 58z" />
    <glyph glyph-name="notequal" unicode="&#x2260;" horiz-adv-x="1095" 
d="M1071 809h-283l-90 -199h338l-43 -233h-399l-90 -205h-203l90 205h-215l43 233h277l88 199h-330l43 233h391l88 193h203l-88 -193h223z" />
    <glyph glyph-name="uniF8FF" unicode="&#xf8ff;" horiz-adv-x="2957" 
d="M2384 33q10 0 8 8q0 4 -8 4h-14v-12h14zM2370 23v-19h-11v49h23q20 0 22 -10q4 -20 -16 -20l14 -19h-14l-8 19h-10zM2380 66q-43 -1 -37 -39t37 -37q47 0 39 47q-4 29 -39 29zM2333 20q-9 56 57 56q35 0 41 -39q4 -27 -10 -42t-41 -15q-41 -1 -47 40zM1530 281
q-59 0 -43 -95l8 -32q39 0 67 33q17 22 11 58t-43 36zM2050 231h82q6 57 -35 58q-47 0 -47 -58zM2160 158q77 0 117 24v-159q-45 -33 -159 -33q-252 0 -289 207q-25 143 43 232t213 89q95 0 157 -51t75 -129t1 -141h-258q23 -39 100 -39zM1626 518q64 0 106 -46t58 -130
q29 -170 -41 -261t-242 -91q2 -33 2 -84h-245q0 295 20 602h164q12 -80 12 -164q35 174 166 174zM997 508h213q0 -4 16 -86q54 -284 -36 -423q-68 -105 -272 -105q-133 0 -183 36v176q53 -34 121 -34q135 1 135 59q-33 -23 -113 -23q-168 1 -171 177l-2 28h-113l6 -139
q12 -8 34 -8t32 10v-156q-36 -30 -126 -30t-128 28t-48 78q-10 51 3 217h-37v170l241 62l-4 -37h369v-254q0 -35 6 -46t24 -11t26 12q7 12 7 45v254zM2652 854q-57 0 -45 -72q8 -47 45 -47q56 0 43 80q-6 39 -43 39zM868 854q-55 0 -43 -76q8 -43 43 -43q28 -1 42 21t8 57
q-6 41 -50 41zM2652 565q-213 0 -250 205q-4 39 -7 83q-6 86 53 164q58 79 208 79q207 0 244 -199q33 -208 -81 -288q-62 -44 -167 -44zM1837 575q0 373 21 508h165q12 -94 13 -161q15 119 96 158q31 15 70 16q86 0 120 -54t37 -174l6 -293h-235l4 186q0 75 -31 75
q-23 0 -29 -16t-8 -46l7 -199h-236zM791 565q-154 0 -185 176q-29 164 36 259t235 96q129 0 193 -65t65 -185v-271h-172l-17 130q-14 -68 -50 -104t-105 -36zM1548 575q0 195 6 314h-127l7 -139q8 -8 32 -8t35 10v-158q-29 -31 -139 -31q-150 0 -170 113q-4 59 2 134t6 79
h-45v168l246 63l2 -37h369q20 -135 20 -508h-244zM565 575h-246q0 291 19 668h207q20 -420 20 -668zM1659 1374q75 0 119 -67q12 -20 16 -45q10 -62 -29 -106t-92 -44t-89 32t-44 79q-13 87 56 131q32 20 63 20z" />
    <glyph glyph-name="J.ss01" horiz-adv-x="1005" 
d="M402.5 244q103.5 0 177 55t92.5 164l164 942h284l-166 -942q-41 -229 -194.5 -346t-374.5 -117q-129 0 -246 10l43 244q117 -10 220.5 -10z" />
    <glyph glyph-name="Jcircumflex.ss01" horiz-adv-x="1005" 
d="M402.5 244q103.5 0 177 55t92.5 164l164 942h284l-166 -942q-28 -155 -110 -261q-157 -203 -459 -202q-129 0 -246 10l43 244q117 -10 220.5 -10zM1184 1767l129 -280h-187l-96 133l-156 -133h-210l245 280h275z" />
    <glyph glyph-name="K.ss01" horiz-adv-x="1314" 
d="M1540 1405l-596 -594l383 -811h-311l-293 633l-221 -223l-72 -410h-283l248 1405h283l-121 -680l645 680h338z" />
    <glyph glyph-name="Kcommaaccent.ss01" horiz-adv-x="1368" 
d="M799 -242q1 -147 -99 -264t-223 -115l21 115q43 0 87 39t54 100q-53 0 -86 36t-33 85t20 85q40 75 135 75q48 0 86 -36t38 -120zM1540 1405l-596 -594l383 -811h-311l-293 633l-221 -223l-72 -410h-283l248 1405h283l-121 -680l645 680h338z" />
    <glyph glyph-name="R.ss01" horiz-adv-x="1267" 
d="M1061 972q0 198 -184 199h-240l-78 -434h246q119 2 187.5 67.5t68.5 167.5zM1352 1020.5q0 -182.5 -89 -298.5t-245 -169l192 -553h-290l-170 516h-230l-90 -516h-283l248 1405h525q203 0 317.5 -101t114.5 -283.5z" />
    <glyph glyph-name="Racute.ss01" horiz-adv-x="1267" 
d="M1061 972q0 198 -184 199h-240l-78 -434h246q119 2 187.5 67.5t68.5 167.5zM1352 1020.5q0 -182.5 -89 -298.5t-245 -169l192 -553h-290l-170 516h-230l-90 -516h-283l248 1405h525q203 0 317.5 -101t114.5 -283.5zM1241 1778l-252 -281h-252l148 281h356z" />
    <glyph glyph-name="Rcaron.ss01" horiz-adv-x="1267" 
d="M1061 972q0 198 -184 199h-240l-78 -434h246q119 2 187.5 67.5t68.5 167.5zM1352 1020.5q0 -182.5 -89 -298.5t-245 -169l192 -553h-290l-170 516h-230l-90 -516h-283l248 1405h525q203 0 317.5 -101t114.5 -283.5zM1010 1497h-269l-143 281h190l103 -133l149 133h207z
" />
    <glyph glyph-name="Rcommaaccent.ss01" horiz-adv-x="1267" 
d="M617 -86q59 0 97 -36t38 -120q0 -147 -99.5 -264t-222.5 -115l21 115q41 0 85 38.5t56 100.5q-53 0 -86 36t-33 96.5t42.5 104.5t101.5 44zM1061 972q0 198 -184 199h-240l-78 -434h246q119 2 187.5 67.5t68.5 167.5zM1352 1020.5q0 -182.5 -89 -298.5t-245 -169
l192 -553h-290l-170 516h-230l-90 -516h-283l248 1405h525q203 0 317.5 -101t114.5 -283.5z" />
    <glyph glyph-name="i.loclTRK" horiz-adv-x="512" 
d="M115 0l178 1004h280l-178 -1004h-280zM472 1159q-157 1 -157 151q0 74 59.5 131.5t149.5 57.5q90 -1 128 -69q18 -32 18 -72q0 -86 -59.5 -142.5t-138.5 -56.5z" />
    <glyph glyph-name="a.ss01" horiz-adv-x="1052" 
d="M508 199q90 0 150.5 47t78.5 112l13 70h-148q-104 0 -162.5 -36t-58.5 -99q0 -94 127 -94zM684 1014q200 0 299.5 -118t65.5 -316l-103 -580h-258l19 145q-111 -156 -314 -155q-137 0 -216 66q-79 68 -79 172q0 192 162 275t383 83h133l6 32q33 182 -137 183
q-150 0 -188 -137h-258q91 350 485 350z" />
    <glyph glyph-name="aacute.ss01" horiz-adv-x="1052" 
d="M508 199q90 0 150.5 47t78.5 112l13 70h-148q-104 0 -162.5 -36t-58.5 -99q0 -94 127 -94zM684 1014q200 0 299.5 -118t65.5 -316l-103 -580h-258l19 145q-111 -156 -314 -155q-137 0 -216 66q-79 68 -79 172q0 192 162 275t383 83h133l6 32q33 182 -137 183
q-150 0 -188 -137h-258q91 350 485 350zM1067 1497l-256 -356h-219l156 356h319z" />
    <glyph glyph-name="abreve.ss01" horiz-adv-x="1052" 
d="M508 199q62 1 112 25q91 44 117 134l13 70h-148q-104 0 -162.5 -36t-58.5 -99q0 -94 127 -94zM684 1014q200 0 299.5 -118t65.5 -316l-103 -580h-258l19 145q-111 -156 -314 -155q-137 0 -216 66q-79 68 -79 172q0 192 162 275t383 83h133l6 32q33 182 -137 183
q-150 0 -188 -137h-258q91 350 485 350zM729 1137q-143 0 -217 95t-45 259h203q-14 -88 5 -126t72.5 -38t84 37t47.5 127h204q-23 -172 -117 -263t-237 -91z" />
    <glyph glyph-name="acircumflex.ss01" horiz-adv-x="1052" 
d="M508 199q90 0 150.5 47t78.5 112l13 70h-148q-104 0 -162.5 -36t-58.5 -99q0 -94 127 -94zM684 1014q200 0 299.5 -118t65.5 -316l-103 -580h-258l19 145q-111 -156 -314 -155q-137 0 -216 66q-79 68 -79 172q0 192 162 275t383 83h133l6 32q33 182 -137 183
q-150 0 -188 -137h-258q92 350 485 350zM760 1337l-172 -194h-199l252 356h274l125 -356h-178z" />
    <glyph glyph-name="adieresis.ss01" horiz-adv-x="1052" 
d="M508 199q90 0 150.5 47t78.5 112l13 70h-148q-104 0 -162.5 -36t-58.5 -99q0 -94 127 -94zM666 1014q219 0 318 -118t65 -316l-103 -580h-258l19 145q-111 -156 -314 -155q-137 0 -216 66q-79 68 -79 172q0 192 162 275t383 83h133l6 32q33 182 -137 183
q-150 0 -188 -137h-258q61 230 251 310q94 40 216 40zM935.5 1176q-66.5 0 -99.5 32.5t-33 83.5q1 51 23 90q47 82 153 82q57 0 91 -32.5t34 -96t-51 -111.5t-117.5 -48zM582 1464q123 0 123 -126q0 -42 -23 -80.5t-64 -60t-85 -21.5q-43 0 -71 14q-58 30 -58.5 104t51 122
t127.5 48z" />
    <glyph glyph-name="uni1EA1.ss01" horiz-adv-x="1052" 
d="M461 -442q-158 0 -158 152q0 75 60.5 131.5t139.5 56.5q156 0 156 -151q0 -75 -60 -132t-138 -57zM508 199q90 0 150.5 47t78.5 112l13 70h-148q-104 0 -162.5 -36t-58.5 -99q0 -94 127 -94zM684 1014q200 0 299.5 -118t65.5 -316l-103 -580h-258l19 145
q-111 -156 -314 -155q-137 0 -216 66q-79 68 -79 172q0 192 162 275t383 83h133l6 32q33 182 -137 183q-150 0 -188 -137h-258q91 350 485 350z" />
    <glyph glyph-name="agrave.ss01" horiz-adv-x="1052" 
d="M508 199q90 0 150.5 47t78.5 112l13 70h-148q-104 0 -162.5 -36t-58.5 -99q0 -94 127 -94zM684 1014q200 0 299.5 -118t65.5 -316l-103 -580h-258l19 145q-111 -156 -314 -155q-137 0 -216 66q-79 68 -79 172q0 192 162 275t383 83h133l6 32q33 182 -137 183
q-150 0 -188 -137h-258q91 350 485 350zM829 1141h-196l-144 356h312z" />
    <glyph glyph-name="amacron.ss01" horiz-adv-x="1052" 
d="M508 199q90 0 150.5 47t78.5 112l13 70h-148q-104 0 -162.5 -36t-58.5 -99q0 -94 127 -94zM666 1014q219 0 318 -118t65 -316l-103 -580h-258l19 145q-111 -156 -314 -155q-137 0 -216 66q-79 68 -79 172q0 192 162 275t383 83h133l6 32q33 182 -137 183
q-150 0 -188 -137h-258q61 230 251 310q94 40 216 40zM1073 1417l-35 -194h-612l37 194h610z" />
    <glyph glyph-name="aogonek.ss01" horiz-adv-x="1052" 
d="M508 199q62 1 112 25q91 44 117 134l13 70h-148q-104 0 -162.5 -36t-58.5 -99q0 -94 127 -94zM684 1014q200 0 299.5 -118t65.5 -316l-103 -580q-176 -100 -176 -205q0 -47 36 -65q18 -8 38 -9q53 0 102 41l45 -122q-74 -76 -181 -76t-161.5 50t-54.5 140q0 141 143 246
h-49l19 145q-111 -156 -314 -155q-137 0 -216 66q-79 68 -79 172q0 192 162 275t383 83h133l6 32q33 182 -137 183q-150 0 -188 -137h-258q92 350 485 350z" />
    <glyph glyph-name="aring.ss01" horiz-adv-x="1052" 
d="M508 199q62 1 112 25q91 44 117 134l13 70h-148q-104 0 -162.5 -36t-58.5 -99q0 -94 127 -94zM684 1014q200 0 299.5 -118t65.5 -316l-103 -580h-258l19 145q-111 -156 -314 -155q-137 0 -216 66q-79 68 -79 172q0 192 162 275t383 83h133l6 32q33 182 -137 183
q-150 0 -188 -137h-258q91 350 485 350zM815 1320q1 64 -63 64q-30 0 -53 -21.5t-23 -51t17.5 -47t48 -17.5t52 21.5t21.5 51.5zM734 1116q-89 0 -142 48t-53 138t64.5 154t168.5 64t156 -84q26 -43 26 -101q0 -94 -65.5 -156.5t-154.5 -62.5z" />
    <glyph glyph-name="aringacute.ss01" horiz-adv-x="1056" 
d="M508 199q62 1 112 25q91 44 117 134l13 70h-148q-104 0 -162.5 -36t-58.5 -99q0 -94 127 -94zM684 1014q200 0 299.5 -118t65.5 -316l-103 -580h-258l19 145q-111 -156 -314 -155q-137 0 -216 66q-79 68 -79 172q0 192 162 275t383 83h133l6 32q33 182 -137 183
q-150 0 -188 -137h-258q91 350 485 350zM829 1320q0 64 -63 64q-30 0 -52 -22q-22 -20 -22 -50q0 -64 64 -65q31 0 52 21.5t21 51.5zM553 1302q0 90 64.5 154t156.5 64t146 -56l104 187h201l-258 -351q-19 -101 -101 -151q-55 -33 -130 -33t-129 48t-54 138z" />
    <glyph glyph-name="atilde.ss01" horiz-adv-x="1052" 
d="M508 199q90 0 150.5 47t78.5 112l13 70h-148q-104 0 -162.5 -36t-58.5 -99q0 -94 127 -94zM684 1014q200 0 299.5 -118t65.5 -316l-103 -580h-258l19 145q-111 -156 -314 -155q-137 0 -216 66q-79 68 -79 172q0 192 162 275t383 83h133l6 32q33 182 -137 183
q-150 0 -188 -137h-258q91 350 485 350zM605 1268q-34 0 -58.5 -24.5t-30.5 -65.5h-182q23 137 92.5 208.5t166.5 71.5t189 -68q32 -24 59.5 -24t45.5 12q37 26 45 78h182q-25 -137 -93.5 -208.5t-162.5 -71.5q-61 0 -107 23.5t-79 46t-67 22.5z" />
    <glyph glyph-name="f.ss01" horiz-adv-x="835" 
d="M797 1481q236 0 305 -197q20 -59 20 -131h-248q0 102 -92 102t-110 -104l-27 -147h299l-39 -224h-299l-139 -780h-279l138 780h-152l41 224h150l22 120q25 170 132 264q108 93 278 93z" />
    <glyph glyph-name="g.ss01" horiz-adv-x="1161" 
d="M598 221q92 0 157.5 65.5t88.5 153.5l20 117q13 131 -67 193q-41 32 -103 32q-111 0 -187.5 -93t-76.5 -247q0 -221 168 -221zM399 -434q-170 0 -317 65l37 215q150 -68 302 -67.5t240.5 71t110.5 193.5l19 100q-117 -154 -308 -153q-156 0 -248 103.5t-92 309.5
q0 272 150.5 441.5t355.5 169.5t275 -140l28 130h271l-168 -951q-43 -244 -211 -365.5t-445 -121.5z" />
    <glyph glyph-name="gbreve.ss01" horiz-adv-x="1161" 
d="M598 221q92 0 157.5 65.5t88.5 153.5l20 117q13 131 -67 193q-41 32 -103 32q-111 0 -187.5 -93t-76.5 -247q0 -221 168 -221zM383 -434q-154 0 -301 65l37 215q150 -68 302 -67.5t240.5 71t110.5 193.5l19 100q-117 -154 -308 -153q-156 0 -248 103.5t-92 309.5
q0 272 150.5 441.5t355.5 169.5t275 -140l28 130h271l-168 -951q-79 -487 -672 -487zM818 1135q-144 0 -217 96t-44 258h203q-26 -162 68 -162q44 -1 68 13q51 30 73 149h205q-23 -172 -117.5 -263t-238.5 -91z" />
    <glyph glyph-name="gcaron.ss01" horiz-adv-x="1161" 
d="M598 221q92 0 157.5 65.5t88.5 153.5l20 117q13 131 -67 193q-41 32 -103 32q-111 0 -187.5 -93t-76.5 -247q0 -221 168 -221zM399 -434q-170 0 -317 65l37 215q150 -68 302 -67.5t240.5 71t110.5 193.5l19 100q-117 -154 -308 -153q-156 0 -248 103.5t-92 309.5
q0 272 150.5 441.5t355.5 169.5t275 -140l28 130h271l-168 -951q-43 -244 -211 -365.5t-445 -121.5zM942 1141h-272l-127 356h188l105 -182l170 182h188z" />
    <glyph glyph-name="gcircumflex.ss01" horiz-adv-x="1161" 
d="M598 221q92 0 157.5 65.5t88.5 153.5l20 117q13 131 -67 193q-41 32 -103 32q-111 0 -187.5 -93t-76.5 -247q0 -221 168 -221zM399 -434q-170 0 -317 65l37 215q150 -68 302 -67.5t240.5 71t110.5 193.5l19 100q-117 -154 -308 -153q-156 0 -248 103.5t-92 309.5
q0 272 150.5 441.5t355.5 169.5t275 -140l28 130h271l-168 -951q-43 -244 -211 -365.5t-445 -121.5zM850 1337l-172 -196h-199l252 356h275l124 -356h-178z" />
    <glyph glyph-name="gcommaaccent.ss01" horiz-adv-x="1161" 
d="M598 221q92 0 157.5 65.5t88.5 153.5l20 117q8 96 -36 160.5t-144.5 64.5t-177 -93t-76.5 -247q0 -221 168 -221zM399 -434q-170 0 -317 65l37 215q150 -68 302 -67.5t240.5 71t110.5 193.5l19 100q-117 -154 -308 -153q-156 0 -248 103.5t-92 309.5q0 272 150.5 441.5
t355.5 169.5t275 -140l28 130h271l-168 -951q-43 -244 -211 -365.5t-445 -121.5zM791 1108q-132 0 -132 151.5t99.5 268.5t222.5 117l-20 -115q-43 0 -86.5 -40t-55.5 -101q53 0 86 -36t33 -96.5t-43 -104.5t-104 -44z" />
    <glyph glyph-name="gdotaccent.ss01" horiz-adv-x="1161" 
d="M598 221q92 0 157.5 64.5t88.5 154.5l20 117q13 131 -67 193q-41 32 -103 32q-111 0 -187.5 -93t-76.5 -247q0 -221 168 -221zM399 -434q-170 0 -317 65l37 215q150 -68 302 -67.5t240.5 71t110.5 193.5l19 100q-117 -154 -308 -153q-156 0 -248 103.5t-92 309.5
q0 272 150.5 441.5t355.5 169.5t275 -140l28 130h271l-168 -951q-43 -244 -211 -365.5t-445 -121.5zM819 1159q-155 1 -155 151q0 74 59 131.5t149 57.5q90 -1 128 -69q18 -32 18 -72q0 -86 -60.5 -142.5t-138.5 -56.5z" />
    <glyph glyph-name="j.ss01" horiz-adv-x="608" 
d="M90 -424q-148 0 -240 85q-90 85 -90 243h246q0 -53 25 -79t63 -26q84 0 103 109l194 1096h279l-189 -1080q-31 -166 -137 -257t-254 -91zM607 1503q77 0 123 -43q46 -44 46 -120t-61 -132t-137 -57q-76 0 -122 42q-44 42 -44 119t59 134t136 57z" />
    <glyph glyph-name="uni0237.ss01" horiz-adv-x="608" 
d="M90 -424q-148 0 -240 85q-90 85 -90 243h246q0 -53 25 -79t63 -26q84 0 103 109l194 1096h279l-189 -1080q-31 -166 -137 -257t-254 -91z" />
    <glyph glyph-name="jcircumflex.ss01" horiz-adv-x="608" 
d="M80 -424q-193 0 -278 145q-44 76 -44 183h248q0 -53 25 -79t63 -26q84 0 103 109l194 1096h279l-189 -1080q-31 -166 -137 -257t-264 -91zM213 1143l254 356h272l127 -356h-178l-104 194l-170 -194h-201z" />
    <glyph glyph-name="l.ss01" horiz-adv-x="512" 
d="M115 0l256 1454h280l-256 -1454h-280z" />
    <glyph glyph-name="lacute.ss01" horiz-adv-x="512" 
d="M115 0l256 1454h280l-256 -1454h-280zM635 1526h-250l145 280h357z" />
    <glyph glyph-name="lcaron.ss01" horiz-adv-x="598" 
d="M115 0l256 1454h280l-256 -1454h-280zM989 1354q0 -90 -46 -178t-121 -142t-154 -53l20 115q43 0 86 39t55 100q-53 0 -86 36q-33 37 -33 97t43 104q42 44 101 44t97 -36t38 -126z" />
    <glyph glyph-name="lcommaaccent.ss01" horiz-adv-x="512" 
d="M61 -234.5q0 60.5 43 104.5t91.5 44t76 -12.5t48 -49t20.5 -94.5q0 -147 -99.5 -264t-222.5 -115l21 115q43 0 86 39t55 100q-53 0 -86 36t-33 96.5zM115 0l256 1454h280l-256 -1454h-280z" />
    <glyph glyph-name="ldot.ss01" horiz-adv-x="804" 
d="M803 881q80 0 120 -41t40 -116t-56.5 -129t-135.5 -54t-121 41t-42 114.5t57.5 129t137.5 55.5zM115 0l256 1454h280l-256 -1454h-280z" />
    <glyph glyph-name="lslash.ss01" horiz-adv-x="681" 
d="M831 858l-219 -121l-131 -737h-280l100 569l-129 -71l-51 143l213 117l123 696h280l-92 -528l135 73z" />
    <glyph glyph-name="t.ss01" horiz-adv-x="778" 
d="M650 225q72 0 126 19l-35 -234q-70 -20 -159 -20q-195 0 -283 110.5t-55 296.5l67 383h-141l41 224h154l51 284h264l-51 -284h280l-41 -224h-278l-64 -372q-30 -183 124 -183z" />
    <glyph glyph-name="tbar.ss01" horiz-adv-x="778" 
d="M650 225q72 0 126 19l-35 -234q-70 -20 -159 -20q-195 0 -283 110.5t-55 296.5l12 68h-127l29 162h127l26 153h-141l41 224h154l51 284h264l-51 -284h280l-41 -224h-278l-27 -153h250l-29 -162h-247l-11 -57q-30 -183 124 -183z" />
    <glyph glyph-name="tcaron.ss01" horiz-adv-x="778" 
d="M650 225q72 0 126 19l-35 -234q-70 -20 -159 -20q-195 0 -283 110.5t-55 296.5l67 381h-141l41 226h154l51 284h264l-51 -284h280l-41 -224h-278l-64 -372q-30 -183 124 -183zM902 1563q52 1 80 -15q60 -34 60 -157t-98 -225.5t-215 -98.5l21 113q43 0 83.5 29.5
t49.5 72.5q-53 0 -85 34t-32 97.5t42 106.5t94 43z" />
    <glyph glyph-name="uni0163.ss01" horiz-adv-x="778" 
d="M650 225q72 0 126 19l-35 -234q-70 -20 -129 -20t-86 4l-22 -62q61 -10 98 -52t37 -99q0 -102 -72 -159.5t-183.5 -57.5t-164.5 26l60 148q41 -23 102 -23q102 0 102 61.5t-149 67.5l69 179q-102 45 -143 142t-16 232l67 383h-141l41 224h154l51 284h264l-51 -284h280
l-41 -224h-278l-64 -372q-30 -183 124 -183z" />
    <glyph glyph-name="uni021B.ss01" horiz-adv-x="778" 
d="M456 -86q48 0 86 -36t38 -120q0 -147 -99.5 -264t-222.5 -115l21 115q41 0 85 38.5t56 100.5q-85 -1 -111 77q-8 24 -8 58.5t19.5 70.5t53.5 55.5t82 19.5zM650 225q72 0 126 19l-35 -234q-70 -20 -159 -20q-195 0 -283 110.5t-55 296.5l67 383h-141l41 224h154l51 284
h264l-51 -284h280l-41 -224h-278l-64 -372q-30 -183 124 -183z" />
    <glyph glyph-name="u.ss01" horiz-adv-x="1105" 
d="M575 233q78 0 135.5 57.5t77.5 162.5l99 551h278l-176 -1004h-270l18 147q-115 -158 -299 -157q-154 0 -224.5 109.5t-41.5 281.5l111 623h282l-102 -578q-33 -193 112 -193z" />
    <glyph glyph-name="uacute.ss01" horiz-adv-x="1105" 
d="M575 233q109 0 169 101q30 49 44 119l99 551h278l-176 -1004h-270l18 147q-115 -158 -299 -157q-154 0 -224.5 109.5t-41.5 281.5l111 623h282l-102 -578q-33 -193 112 -193zM1102 1497l-256 -356h-219l153 356h322z" />
    <glyph glyph-name="ubreve.ss01" horiz-adv-x="1105" 
d="M575 233q78 0 135.5 57.5t77.5 162.5l99 551h278l-176 -1004h-270l18 147q-115 -158 -299 -157q-154 0 -224.5 109.5t-41.5 281.5l111 623h282l-102 -578q-33 -193 112 -193zM766 1137q-147 0 -220 95t-46 259h202q-14 -88 5.5 -126t72.5 -38t85 37t46 127h205
q-14 -115 -63 -196q-96 -158 -287 -158z" />
    <glyph glyph-name="ucircumflex.ss01" horiz-adv-x="1105" 
d="M575 233q107 0 169 101q30 49 44 119l99 551h278l-176 -1004h-270l18 147q-115 -158 -299 -157q-156 0 -225.5 109.5t-40.5 281.5l111 623h282l-102 -578q-33 -193 112 -193zM793 1337l-170 -194h-201l254 356h272l127 -356h-178z" />
    <glyph glyph-name="udieresis.ss01" horiz-adv-x="1105" 
d="M575 233q78 0 135.5 57.5t77.5 162.5l99 551h278l-176 -1004h-270l18 147q-115 -158 -299 -157q-156 0 -225.5 109.5t-40.5 281.5l111 623h282l-102 -578q-33 -193 112 -193zM1004 1464q132 0 133 -128q0 -64 -50.5 -112t-116.5 -48q-134 0 -134 128q0 64 51 112t117 48z
M557 1176q-53 0 -86 32.5t-33 96t50.5 111.5t128 48t107.5 -56q15 -28 15 -69.5t-23.5 -80.5t-64.5 -60.5t-94 -21.5z" />
    <glyph glyph-name="uni1EE5.ss01" horiz-adv-x="1105" 
d="M540 -102q156 0 156 -151q0 -75 -59 -132t-149 -57t-128 68q-18 32 -18 73q0 86 59.5 142.5t138.5 56.5zM575 233q78 0 135.5 57.5t77.5 162.5l99 551h278l-176 -1004h-270l18 147q-115 -158 -299 -157q-154 0 -224.5 109.5t-41.5 281.5l111 623h282l-102 -578
q-33 -193 112 -193z" />
    <glyph glyph-name="ugrave.ss01" horiz-adv-x="1105" 
d="M575 233q78 0 135.5 57.5t77.5 162.5l99 551h278l-176 -1004h-270l18 147q-115 -158 -299 -157q-154 0 -224.5 109.5t-41.5 281.5l111 623h282l-102 -578q-33 -193 112 -193zM862 1141h-196l-144 356h312z" />
    <glyph glyph-name="uhungarumlaut.ss01" horiz-adv-x="1105" 
d="M575 233q78 0 135.5 58t77.5 162l99 551h278l-176 -1004h-270l18 147q-115 -158 -299 -157q-154 0 -224.5 109.5t-41.5 281.5l111 623h282l-102 -578q-33 -193 112 -193zM1028 1141h-231l153 356h338zM870 1497l-260 -356h-231l153 356h338z" />
    <glyph glyph-name="umacron.ss01" horiz-adv-x="1105" 
d="M575 233q109 0 169 101q30 49 44 119l99 551h278l-176 -1004h-270l18 147q-115 -158 -299 -157q-154 0 -224.5 109.5t-41.5 281.5l111 623h282l-102 -578q-33 -193 112 -193zM1108 1417l-37 -194h-612l37 194h612z" />
    <glyph glyph-name="uogonek.ss01" horiz-adv-x="1105" 
d="M902 -279q38 0 87 41l45 -122q-74 -76 -181 -76t-161.5 50t-54.5 140q0 141 143 246h-61l18 147q-115 -158 -299 -157q-156 0 -225.5 109.5t-40.5 281.5l111 623h282l-102 -578q-33 -193 112 -193q78 0 135.5 57.5t77.5 162.5l99 551h278l-176 -1004q-176 -100 -176 -205
q0 -74 89 -74z" />
    <glyph glyph-name="uring.ss01" horiz-adv-x="1105" 
d="M575 233q78 0 135.5 57.5t77.5 162.5l99 551h278l-176 -1004h-270l18 147q-115 -158 -299 -157q-154 0 -224.5 109.5t-41.5 281.5l111 623h282l-102 -578q-33 -193 112 -193zM848 1320q0 64 -64 64q-31 0 -52 -22q-21 -20 -21 -50q0 -64 63 -65q31 0 52.5 21.5t21.5 51.5
zM760 1116q-136 0 -178 118q-10 30 -11 64q0 94 64.5 158t168.5 64t156 -84q26 -43 27 -101q0 -94 -65.5 -156.5t-161.5 -62.5z" />
    <glyph glyph-name="utilde.ss01" horiz-adv-x="1105" 
d="M575 233q78 0 135.5 57.5t77.5 162.5l99 551h278l-176 -1004h-270l18 147q-115 -158 -299 -157q-154 0 -224.5 109.5t-41.5 281.5l111 623h282l-102 -578q-33 -193 112 -193zM638 1268q-34 0 -58.5 -24.5t-30.5 -65.5h-182q25 137 93 208.5t164.5 71.5t189.5 -68
q32 -24 66 -24t56 25.5t29 64.5h182q-25 -137 -93.5 -208.5t-146 -71.5t-124 23.5t-79 46t-66.5 22.5z" />
    <glyph glyph-name="y.ss01" horiz-adv-x="1105" 
d="M492 -434q-180 0 -283 85t-103 247h256q0 -80 73 -107q32 -12 73 -12q162 0 201 219l24 145q-115 -154 -295 -153q-154 0 -224.5 109.5t-41.5 281.5l111 623h282l-102 -578q-33 -193 112 -193q78 0 135.5 57.5t77.5 162.5l99 551h278l-174 -994q-78 -444 -499 -444z" />
    <glyph glyph-name="yacute.ss01" horiz-adv-x="1105" 
d="M492 -434q-180 0 -283 85t-103 247h256q0 -80 73 -107q32 -12 73 -12q162 0 201 219l24 145q-115 -154 -295 -153q-154 0 -224.5 109.5t-41.5 281.5l111 623h282l-102 -578q-33 -193 112 -193q78 0 135.5 57.5t77.5 162.5l99 551h278l-174 -994q-78 -444 -499 -444z
M1075 1497l-256 -356h-219l156 356h319z" />
    <glyph glyph-name="ycircumflex.ss01" horiz-adv-x="1105" 
d="M492 -434q-180 0 -283 85t-103 247h256q0 -59 41 -89t105 -30q162 0 201 219l24 145q-115 -154 -283 -153.5t-237.5 110t-40.5 281.5l111 623h282l-102 -578q-33 -193 112 -193q78 0 135.5 57.5t77.5 162.5l99 551h278l-174 -994q-78 -444 -499 -444zM768 1337l-172 -194
h-201l254 356h275l125 -356h-179z" />
    <glyph glyph-name="ydieresis.ss01" horiz-adv-x="1105" 
d="M492 -434q-180 0 -283 85t-103 247h256q0 -80 73 -107q32 -12 73 -12q162 0 201 219l24 145q-113 -154 -295 -153q-154 0 -224.5 109.5t-41.5 281.5l111 623h282l-102 -578q-33 -193 112 -193q78 0 135.5 57.5t77.5 162.5l99 551h278l-174 -994q-78 -444 -499 -444z
M978 1464q132 0 132 -128q0 -64 -50 -112t-116 -48q-134 0 -135 128q0 64 51.5 112t117.5 48zM412 1294q0 74 51 122t129 48t106 -56q14 -28 15 -62q0 -74 -50 -122t-129.5 -48t-107.5 56q-14 28 -14 62z" />
    <glyph glyph-name="ygrave.ss01" horiz-adv-x="1105" 
d="M492 -434q-180 0 -283 85t-103 247h256q0 -80 73 -107q32 -12 73 -12q162 0 201 219l24 145q-115 -154 -295 -153q-154 0 -224.5 109.5t-41.5 281.5l111 623h282l-102 -578q-33 -193 112 -193q78 0 135.5 57.5t77.5 162.5l99 551h278l-174 -994q-78 -444 -499 -444z
M838 1141h-199l-143 356h311z" />
    <glyph glyph-name="uni0233.ss01" horiz-adv-x="1105" 
d="M492 -434q-180 0 -283 85t-103 247h256q0 -80 73 -107q32 -12 73 -12q162 0 201 219l24 145q-115 -154 -295 -153q-154 0 -224.5 109.5t-41.5 281.5l111 623h282l-102 -578q-33 -193 112 -193q78 0 135.5 57.5t77.5 162.5l99 551h278l-174 -994q-78 -444 -499 -444z
M1079 1417l-35 -194h-612l37 194h610z" />
    <glyph glyph-name="uni1EF9.ss01" horiz-adv-x="1105" 
d="M492 -434q-180 0 -283 85t-103 247h256q0 -80 73 -107q32 -12 73 -12q162 0 201 219l24 145q-115 -154 -295 -153q-154 0 -224.5 109.5t-41.5 281.5l111 623h282l-102 -578q-33 -193 112 -193q78 0 135.5 57.5t77.5 162.5l99 551h278l-174 -994q-78 -444 -499 -444z
M616 1268q-76 0 -94 -90h-182q25 137 93.5 208.5t164.5 71.5t190 -68q32 -24 65.5 -24t56 25.5t28.5 64.5h182q-14 -92 -53 -155.5t-89 -94t-111.5 -30.5t-107.5 23.5t-79 46t-64 22.5z" />
    <glyph glyph-name="f.ss02" horiz-adv-x="768" 
d="M858 1221q-92 0 -141 -45t-66 -138l-6 -34h256l-41 -224h-254l-137 -780h-281l138 780h-154l41 224h152l8 45q37 209 153 307q117 98 332 98q72 0 156 -6l-51 -234q-60 7 -105 7z" />
    <glyph glyph-name="g.ss02" horiz-adv-x="1161" 
d="M598 221q94 0 158.5 65.5t87.5 155.5l20 115q13 131 -67 193q-41 32 -103 32q-111 0 -187.5 -93t-76.5 -247q0 -221 168 -221zM377 -414q-133 0 -287 15l37 215q145 -16 293 -16q301 -1 356 263l15 80q-115 -154 -308 -153q-156 0 -248 103.5t-92 309.5
q0 272 150.5 441.5t355.5 169.5t275 -140l28 130h271l-164 -930q-47 -252 -216 -370t-466 -118z" />
    <glyph glyph-name="gbreve.ss02" horiz-adv-x="1161" 
d="M598 221q62 0 116 34q96 61 130 187l20 115q13 131 -67 193q-41 32 -103 32q-111 0 -187.5 -93t-76.5 -247q0 -221 168 -221zM377 -414q-133 0 -287 15l37 215q145 -16 293 -16q301 -1 356 263l15 80q-115 -154 -308 -153q-156 0 -248 103.5t-92 309.5q0 272 150.5 441.5
t355.5 169.5t275 -140l28 130h271l-164 -930q-47 -252 -216 -370t-466 -118zM818 1135q-144 0 -217 96t-44 258h203q-26 -162 68 -162q44 -1 68 13q51 30 73 149h205q-23 -172 -117.5 -263t-238.5 -91z" />
    <glyph glyph-name="gcaron.ss02" horiz-adv-x="1161" 
d="M598 221q94 0 158.5 65.5t87.5 155.5l20 115q13 131 -67 193q-41 32 -103 32q-111 0 -187.5 -93t-76.5 -247q0 -221 168 -221zM377 -414q-133 0 -287 15l37 215q145 -16 293 -16q301 -1 356 263l15 80q-115 -154 -308 -153q-156 0 -248 103.5t-92 309.5
q0 272 150.5 441.5t355.5 169.5t275 -140l28 130h271l-164 -930q-47 -252 -216 -370t-466 -118zM942 1141h-272l-127 356h188l105 -182l170 182h188z" />
    <glyph glyph-name="gcircumflex.ss02" horiz-adv-x="1161" 
d="M598 221q62 0 116 34q96 61 130 187l20 115q13 131 -67 193q-41 32 -103 32q-111 0 -187.5 -93t-76.5 -247q0 -221 168 -221zM377 -414q-133 0 -287 15l37 215q145 -16 293 -16q301 -1 356 263l15 80q-117 -154 -308 -153q-156 0 -248 103.5t-92 309.5q0 272 150.5 441.5
t355.5 169.5t275 -140l28 130h271l-164 -930q-47 -252 -216 -370t-466 -118zM850 1337l-172 -196h-199l252 356h275l124 -356h-178z" />
    <glyph glyph-name="gcommaaccent.ss02" horiz-adv-x="1161" 
d="M598 221q94 0 158.5 65.5t87.5 155.5l20 115q13 131 -67 193q-41 32 -103 32q-111 0 -187.5 -93t-76.5 -247q0 -221 168 -221zM377 -414q-133 0 -287 15l37 215q145 -16 293 -16q301 -1 356 263l15 80q-117 -154 -308 -153q-156 0 -248 103.5t-92 309.5
q0 272 150.5 441.5t355.5 169.5t275 -140l28 130h271l-164 -930q-47 -252 -216 -370t-466 -118zM791 1108q-132 0 -132 151.5t99.5 268.5t222.5 117l-20 -115q-43 0 -86.5 -40t-55.5 -101q53 0 86 -36t33 -96.5t-43 -104.5t-104 -44z" />
    <glyph glyph-name="gdotaccent.ss02" horiz-adv-x="1161" 
d="M598 221q94 0 158.5 65.5t87.5 155.5l20 115q13 131 -67 193q-41 32 -103 32q-111 0 -187.5 -93t-76.5 -247q0 -221 168 -221zM377 -414q-133 0 -287 15l37 215q145 -16 293 -16q301 -1 356 263l15 80q-115 -154 -308 -153q-156 0 -248 103.5t-92 309.5
q0 272 150.5 441.5t355.5 169.5t275 -140l28 130h271l-164 -930q-47 -252 -216 -370t-466 -118zM819 1159q-155 1 -155 151q0 74 59 131.5t149 57.5q90 -1 128 -69q18 -32 18 -72q0 -86 -60.5 -142.5t-138.5 -56.5z" />
    <glyph glyph-name="j.ss02" horiz-adv-x="526" 
d="M-41 -414q-80 0 -162 6l60 234q45 -6 109 -6q136 0 165 182l178 1002h281l-180 -1014q-39 -212 -152 -308t-299 -96zM525 1503q77 0 123 -43q46 -44 46 -120t-61 -132t-137 -57q-76 0 -122 42q-44 42 -44 119t59 134t136 57z" />
    <glyph glyph-name="uni0237.ss02" horiz-adv-x="526" 
d="M-41 -414q-80 0 -162 6l60 234q45 -6 109 -6q136 0 165 182l178 1002h281l-180 -1014q-37 -212 -151 -308t-300 -96z" />
    <glyph glyph-name="jcircumflex.ss02" horiz-adv-x="548" 
d="M-41 -414q-80 0 -162 6l60 234q45 -6 109 -6q136 0 165 182l178 1002h281l-180 -1014q-39 -212 -152 -308t-299 -96zM133 1143l254 356h272l125 -356h-178l-102 194l-172 -194h-199z" />
    <glyph glyph-name="t.ss02" horiz-adv-x="778" 
d="M578 -4q-199 0 -285 98.5t-53 276.5l71 409h-141l41 224h154l51 284h264l-51 -284h280l-41 -224h-278l-70 -397q-23 -154 124 -154q69 0 132 7l-35 -234q-88 -6 -163 -6z" />
    <glyph glyph-name="tbar.ss02" horiz-adv-x="778" 
d="M578 -4q-199 0 -285 98.5t-53 276.5l16 94h-127l29 162h127l26 153h-141l41 224h154l51 284h264l-51 -284h280l-41 -224h-278l-27 -153h250l-29 -162h-249l-15 -82q-23 -154 124 -154q69 0 132 7l-35 -234q-88 -6 -163 -6z" />
    <glyph glyph-name="tcaron.ss02" horiz-adv-x="778" 
d="M578 -4q-199 0 -285 98.5t-53 276.5l71 407h-141l41 226h154l51 284h264l-51 -284h280l-41 -224h-278l-70 -397q-23 -154 124 -154q69 0 132 7l-35 -234q-88 -6 -163 -6zM902 1563q52 1 80 -15q60 -34 60 -157t-98 -225.5t-215 -98.5l21 113q43 0 83.5 29.5t49.5 72.5
q-53 0 -85 34t-32 97.5t42 106.5t94 43z" />
    <glyph glyph-name="uni0163.ss02" horiz-adv-x="778" 
d="M602 -4q-51 0 -74 2l-24 -66q82 -12 118 -82q18 -34 17 -79q0 -94 -75 -150.5t-183.5 -56.5t-161.5 26l60 148q41 -23 102 -23q102 0 102 61.5t-149 67.5l69 179q-213 76 -163 348l71 409h-141l41 224h154l51 284h264l-51 -284h280l-41 -224h-278l-70 -397
q-23 -154 124 -154q69 0 132 7l-35 -234q-88 -6 -139 -6z" />
    <glyph glyph-name="uni021B.ss02" horiz-adv-x="778" 
d="M456 -86q48 0 86 -36t38 -120q0 -147 -99.5 -264t-222.5 -115l21 115q43 0 86 39t55 100q-53 0 -86 36t-33 85t19.5 85t53.5 55.5t82 19.5zM578 -4q-199 0 -285 98.5t-53 276.5l71 409h-141l41 224h154l51 284h264l-51 -284h280l-41 -224h-278l-70 -397
q-23 -154 124 -154q69 0 132 7l-35 -234q-88 -6 -163 -6z" />
    <glyph glyph-name="y.ss02" horiz-adv-x="1105" 
d="M575 233q78 0 135.5 57.5t77.5 162.5l99 551h278l-164 -930q-90 -487 -630 -488q-133 0 -287 15l37 215q145 -16 276 -16q265 -1 322 263l14 80q-113 -154 -295 -153q-154 0 -224.5 109.5t-41.5 281.5l111 623h282l-102 -578q-33 -193 112 -193z" />
    <glyph glyph-name="yacute.ss02" horiz-adv-x="1105" 
d="M575 233q78 0 135.5 57.5t77.5 162.5l99 551h278l-164 -930q-90 -487 -630 -488q-133 0 -287 15l37 215q145 -16 276 -16q265 -1 322 263l14 80q-113 -154 -295 -153q-154 0 -224.5 109.5t-41.5 281.5l111 623h282l-102 -578q-33 -193 112 -193zM1075 1497l-256 -356
h-219l156 356h319z" />
    <glyph glyph-name="ycircumflex.ss02" horiz-adv-x="1105" 
d="M575 233q78 0 135.5 57.5t77.5 162.5l99 551h278l-164 -930q-90 -487 -630 -488q-133 0 -287 15l37 215q145 -16 276 -16q265 -1 322 263l14 80q-115 -154 -283 -153.5t-237.5 110t-40.5 281.5l111 623h282l-102 -578q-33 -193 112 -193zM768 1337l-172 -194h-201
l254 356h275l125 -356h-179z" />
    <glyph glyph-name="ydieresis.ss02" horiz-adv-x="1105" 
d="M575 233q78 0 135.5 57.5t77.5 162.5l99 551h278l-164 -930q-90 -487 -630 -488q-133 0 -287 15l37 215q145 -16 276 -16q265 -1 322 263l14 80q-113 -154 -295 -153q-154 0 -224.5 109.5t-41.5 281.5l111 623h282l-102 -578q-33 -193 112 -193zM978 1464q132 0 132 -128
q0 -64 -50 -112t-116 -48q-134 0 -135 128q0 64 51.5 112t117.5 48zM412 1294q0 74 51 122t129 48t106 -56q14 -28 15 -62q0 -74 -50 -122t-129.5 -48t-107.5 56q-14 28 -14 62z" />
    <glyph glyph-name="ygrave.ss02" horiz-adv-x="1105" 
d="M575 233q78 0 135.5 57.5t77.5 162.5l99 551h278l-164 -930q-90 -487 -630 -488q-133 0 -287 15l37 215q145 -16 276 -16q265 -1 322 263l14 80q-113 -154 -295 -153q-154 0 -224.5 109.5t-41.5 281.5l111 623h282l-102 -578q-33 -193 112 -193zM838 1141h-199l-143 356
h311z" />
    <glyph glyph-name="uni0233.ss02" horiz-adv-x="1105" 
d="M575 233q78 0 135.5 57.5t77.5 162.5l99 551h278l-164 -930q-90 -487 -630 -488q-133 0 -287 15l37 215q145 -16 276 -16q265 -1 322 263l14 80q-113 -154 -295 -153q-154 0 -224.5 109.5t-41.5 281.5l111 623h282l-102 -578q-33 -193 112 -193zM1079 1417l-35 -194h-612
l37 194h610z" />
    <glyph glyph-name="uni1EF9.ss02" horiz-adv-x="1105" 
d="M575 233q78 0 135.5 57.5t77.5 162.5l99 551h278l-164 -930q-90 -487 -630 -488q-133 0 -287 15l37 215q145 -16 276 -16q265 -1 322 263l14 80q-113 -154 -295 -153q-154 0 -224.5 109.5t-41.5 281.5l111 623h282l-102 -578q-33 -193 112 -193zM616 1268q-76 0 -94 -90
h-182q25 137 93.5 208.5t164.5 71.5t190 -68q32 -24 65.5 -24t56 25.5t28.5 64.5h182q-14 -92 -53 -155.5t-89 -94t-111.5 -30.5t-107.5 23.5t-79 46t-64 22.5z" />
    <glyph glyph-name="y.ss03" horiz-adv-x="1105" 
d="M379 -434q-154 0 -303 65l39 215q150 -68 278.5 -67.5t212.5 68t109 196.5l18 100q-115 -154 -295 -153q-154 0 -224.5 109.5t-41.5 281.5l111 623h282l-102 -578q-33 -193 112 -193q78 0 135.5 57.5t77.5 162.5l99 551h278l-168 -951q-43 -248 -206.5 -367.5
t-411.5 -119.5z" />
    <glyph glyph-name="yacute.ss03" horiz-adv-x="1105" 
d="M379 -434q-154 0 -303 65l39 215q150 -68 278.5 -67.5t212.5 68t109 196.5l18 100q-115 -154 -295 -153q-154 0 -224.5 109.5t-41.5 281.5l111 623h282l-102 -578q-33 -193 112 -193q78 0 135.5 57.5t77.5 162.5l99 551h278l-168 -951q-43 -248 -206.5 -367.5
t-411.5 -119.5zM1075 1497l-256 -356h-219l156 356h319z" />
    <glyph glyph-name="ycircumflex.ss03" horiz-adv-x="1105" 
d="M383 -434q-158 0 -307 65l39 215q150 -68 278.5 -67.5t212.5 68t109 196.5l18 100q-115 -154 -283 -153.5t-237.5 110t-40.5 281.5l111 623h282l-102 -578q-33 -193 112 -193q78 0 135.5 57.5t77.5 162.5l99 551h278l-168 -951q-29 -168 -116.5 -278.5t-213.5 -159.5
t-284 -49zM768 1337l-172 -194h-201l254 356h275l125 -356h-179z" />
    <glyph glyph-name="ydieresis.ss03" horiz-adv-x="1105" 
d="M379 -434q-154 0 -303 65l39 215q150 -68 278.5 -67.5t212.5 68t109 196.5l18 100q-115 -154 -295 -153q-154 0 -224.5 109.5t-41.5 281.5l111 623h282l-102 -578q-33 -193 112 -193q78 0 135.5 57.5t77.5 162.5l99 551h278l-168 -951q-43 -248 -206.5 -367.5
t-411.5 -119.5zM978 1464q132 0 132 -128q0 -64 -50 -112t-116 -48q-134 0 -135 128q0 64 51.5 112t117.5 48zM412 1294q0 74 51 122t129 48t106 -56q14 -28 15 -62q0 -74 -50 -122t-129.5 -48t-107.5 56q-14 28 -14 62z" />
    <glyph glyph-name="ygrave.ss03" horiz-adv-x="1105" 
d="M379 -434q-154 0 -303 65l39 215q150 -68 278.5 -67.5t212.5 68t109 196.5l18 100q-115 -154 -295 -153q-154 0 -224.5 109.5t-41.5 281.5l111 623h282l-102 -578q-33 -193 112 -193q78 0 135.5 57.5t77.5 162.5l99 551h278l-168 -951q-43 -248 -206.5 -367.5
t-411.5 -119.5zM838 1141h-199l-143 356h311z" />
    <glyph glyph-name="uni0233.ss03" horiz-adv-x="1105" 
d="M379 -434q-154 0 -303 65l39 215q150 -68 278.5 -67.5t212.5 68t109 196.5l18 100q-115 -154 -295 -153q-154 0 -224.5 109.5t-41.5 281.5l111 623h282l-102 -578q-33 -193 112 -193q78 0 135.5 57.5t77.5 162.5l99 551h278l-168 -951q-43 -248 -206.5 -367.5
t-411.5 -119.5zM1079 1417l-35 -194h-612l37 194h610z" />
    <glyph glyph-name="uni1EF9.ss03" horiz-adv-x="1105" 
d="M379 -434q-154 0 -303 65l39 215q150 -68 278.5 -67.5t212.5 68t109 196.5l18 100q-115 -154 -295 -153q-154 0 -224.5 109.5t-41.5 281.5l111 623h282l-102 -578q-33 -193 112 -193q78 0 135.5 57.5t77.5 162.5l99 551h278l-168 -951q-43 -248 -206.5 -367.5
t-411.5 -119.5zM616 1268q-76 0 -94 -90h-182q25 137 93.5 208.5t164.5 71.5t190 -68q32 -24 65.5 -24t56 25.5t28.5 64.5h182q-14 -92 -53 -155.5t-89 -94t-111.5 -30.5t-107.5 23.5t-79 46t-64 22.5z" />
    <glyph glyph-name="a.sc" horiz-adv-x="1114" 
d="M487 403h297l-71 439zM848 0l-31 199h-436l-102 -199h-279l582 1055h321l209 -1055h-264z" />
    <glyph glyph-name="aacute.sc" horiz-adv-x="1114" 
d="M487 403h297l-71 439zM582 1055h321l209 -1055h-264l-31 199h-436l-102 -199h-279zM1122 1563l-256 -357h-219l154 357h321z" />
    <glyph glyph-name="abreve.sc" horiz-adv-x="1114" 
d="M487 403h297l-71 439zM582 1055h321l209 -1055h-264l-31 199h-436l-102 -199h-279zM782 1202q-143 0 -215.5 95.5t-46.5 258.5h203q-14 -88 5.5 -125.5t72.5 -37.5t85 35.5t46 127.5h207q-25 -172 -119.5 -263t-237.5 -91z" />
    <glyph glyph-name="acircumflex.sc" horiz-adv-x="1114" 
d="M487 403h297l-71 439zM848 0l-31 199h-436l-102 -199h-279l582 1055h319l211 -1055h-264zM813 1403l-170 -195h-201l254 357h273l127 -357h-178z" />
    <glyph glyph-name="adieresis.sc" horiz-adv-x="1114" 
d="M487 403h297l-71 439zM582 1055h321l209 -1055h-264l-31 199h-436l-102 -199h-279zM990 1239q-134 -1 -134 131q0 64 51 112t117 48t99.5 -32.5t33.5 -96.5t-50.5 -113t-116.5 -49zM589 1239q-44 -1 -73 15q-57 30 -57 105t50 123t126 48q75 0 109 -58q16 -26 16 -68
t-23.5 -81t-63.5 -61.5t-84 -22.5z" />
    <glyph glyph-name="uni1EA1.sc" horiz-adv-x="1112" 
d="M496 -442q-156 0 -156 152q0 75 59.5 131.5t138.5 56.5q156 0 156 -151q0 -75 -59.5 -132t-138.5 -57zM487 403h297l-71 439zM1112 0h-264l-31 199h-436l-102 -199h-279l582 1055h319z" />
    <glyph glyph-name="agrave.sc" horiz-adv-x="1114" 
d="M487 403h297l-71 439zM848 0l-31 199h-436l-102 -199h-279l582 1055h319l211 -1055h-264zM883 1206h-197l-143 357h311z" />
    <glyph glyph-name="amacron.sc" horiz-adv-x="1114" 
d="M487 403h297l-71 437zM582 1055h321l209 -1055h-264l-31 199h-436l-102 -199h-279zM1128 1481l-36 -193h-611l35 193h612z" />
    <glyph glyph-name="aogonek.sc" horiz-adv-x="1114" 
d="M487 403h297l-71 437zM760 -246q0 141 143 246h-55l-31 199h-436l-102 -199h-279l582 1055h319l211 -1055q-176 -100 -176 -205q0 -47 36 -65q18 -8 38 -9q53 0 102 41l45 -122q-74 -76 -198 -76q-125 0 -175 88q-24 43 -24 102z" />
    <glyph glyph-name="aring.sc" horiz-adv-x="1114" 
d="M487 403h297l-71 439zM848 0l-31 199h-436l-102 -199h-279l582 1055h321l209 -1055h-264zM868 1386q0 64 -63 64q-31 0 -52.5 -21.5t-21.5 -51.5q0 -64 64 -64q31 0 52 21.5t21 51.5zM788 1180q-88 0 -142 49t-54 139t64.5 153.5t167 63.5t157.5 -85q27 -42 27 -99
q0 -96 -66 -158.5t-154 -62.5z" />
    <glyph glyph-name="aringacute.sc" horiz-adv-x="1112" 
d="M487 403h297l-71 437zM582 1055h321l209 -1055h-264l-31 199h-436l-102 -199h-279zM868 1389q0 59 -63 59q-31 0 -53.5 -20.5t-22.5 -50.5t17.5 -47t48.5 -17t52 20.5t21 55.5zM788.5 1180q-61.5 0 -103.5 20.5t-67.5 62.5t-25.5 99q0 96 64.5 159.5t151.5 63.5t138 -45
l45 98h207l-211 -329q-27 -59 -82 -94t-116.5 -35z" />
    <glyph glyph-name="atilde.sc" horiz-adv-x="1114" 
d="M487 403h297l-71 437zM582 1055h321l209 -1055h-264l-31 199h-436l-102 -199h-279zM659 1333q-34 0 -59 -24.5t-31 -65.5h-182q25 137 93.5 209t165.5 72q96 0 188 -68q32 -24 60 -24t46 12q37 25 45 78h182q-25 -137 -93 -209t-146 -72t-124 23.5t-78.5 46t-66.5 22.5z
" />
    <glyph glyph-name="ae.sc" horiz-adv-x="1636" 
d="M590 403h264l76 426zM1708 831h-520l-35 -194h449l-35 -215h-453l-35 -199h525l-37 -223h-783l35 199h-393l-158 -199h-293l832 1055h938z" />
    <glyph glyph-name="aeacute.sc" horiz-adv-x="1636" 
d="M590 403h264l76 426zM1708 831h-520l-35 -194h449l-35 -215h-453l-35 -199h525l-37 -223h-783l35 199h-393l-158 -199h-293l832 1055h938zM1421 1563l-258 -357h-217l154 357h321z" />
    <glyph glyph-name="b.sc" horiz-adv-x="1069" 
d="M629 195q80 1 126 35t46 100q0 117 -131 116h-213l-45 -251h217zM676 623q80 -1 124 33t44 94q0 111 -135 110h-179l-43 -237h189zM1071 305q0 -141 -112 -223t-293 -82h-549l186 1055h516q90 0 157 -31q136 -63 136 -213q0 -78 -35 -137q-62 -105 -190 -131l-2 -6
q78 -19 132 -75t54 -157z" />
    <glyph glyph-name="c.sc" horiz-adv-x="1173" 
d="M663.5 223q106.5 0 178 44t96.5 116h264q-51 -195 -197.5 -294t-375 -99t-359.5 133t-131 348q0 260 179.5 429t455.5 169q233 0 357 -120t112 -298h-264q0 82 -60.5 132.5t-159.5 50.5t-176 -43t-122 -123t-45 -195t70.5 -182.5t177 -67.5z" />
    <glyph glyph-name="cacute.sc" horiz-adv-x="1173" 
d="M663.5 223q106.5 0 178 44t96.5 116h264q-51 -195 -197.5 -294t-375 -99t-359.5 133t-131 348q0 260 179.5 429t455.5 169q233 0 357 -120t112 -298h-264q0 82 -60.5 132.5t-159.5 50.5t-176 -43t-122 -123t-45 -195t70.5 -182.5t177 -67.5zM911 1204h-219l154 357h321z
" />
    <glyph glyph-name="ccaron.sc" horiz-adv-x="1173" 
d="M663.5 223q106.5 0 178 44t96.5 116h264q-51 -195 -197.5 -294t-375 -99t-359.5 133t-131 348q0 260 179.5 429t455.5 169q233 0 357 -120t112 -298h-264q0 82 -60.5 132.5t-159.5 50.5t-176 -43t-122 -123t-45 -195t70.5 -182.5t177 -67.5zM551 1563h190l105 -185
l170 185h188l-254 -359h-272z" />
    <glyph glyph-name="ccedilla.sc" horiz-adv-x="1173" 
d="M979 651q0 82 -60.5 132.5t-159.5 50.5t-176 -43t-122 -123t-45 -195t70.5 -182.5t177 -67.5t178 44t96.5 116h264q-51 -195 -197.5 -294t-355.5 -99h-10l-18 -53q61 -12 97 -54.5t36 -107.5q0 -96 -74 -152.5t-182.5 -56.5t-163.5 28l61 146q39 -23 101 -23
q102 0 104 62q-2 63 -149 67l59 156q-180 35 -275.5 161t-95.5 308q0 260 179.5 428t455.5 168q233 0 357 -119t112 -297h-264z" />
    <glyph glyph-name="ccircumflex.sc" horiz-adv-x="1173" 
d="M663.5 223q106.5 0 178 44t96.5 116h264q-51 -195 -197.5 -294t-375 -99t-359.5 133t-131 348q0 260 179.5 428t455.5 168q233 0 357 -119t112 -297h-264q0 82 -60.5 132.5t-164.5 50.5q-143 0 -240.5 -97.5t-97.5 -238t70.5 -208t177 -67.5zM487 1204l254 359h273
l127 -359h-178l-105 197l-170 -197h-201z" />
    <glyph glyph-name="cdotaccent.sc" horiz-adv-x="1173" 
d="M663.5 223q106.5 0 178 44t96.5 116h264q-51 -195 -197.5 -294t-375 -99t-359.5 133t-131 348q0 260 179.5 428t455.5 168q233 0 357 -119t112 -297h-264q0 82 -60.5 132.5t-164.5 50.5q-143 0 -240.5 -97.5t-97.5 -238t70.5 -208t177 -67.5zM870 1563q156 0 156 -152
q0 -74 -60 -131t-156 -57q-96 1 -128 83q-10 26 -10 56q0 86 59.5 143.5t138.5 57.5z" />
    <glyph glyph-name="d.sc" horiz-adv-x="1189" 
d="M606 217q150 0 252.5 101.5t102.5 245.5t-76 209t-197 63h-153l-109 -619h180zM1237 590q0 -260 -180 -425t-475 -165h-465l186 1055h420q229 0 371.5 -120t142.5 -345z" />
    <glyph glyph-name="eth.sc" horiz-adv-x="1187" 
d="M606 217q150 0 252.5 101.5t102.5 245.5t-76 209t-197 63h-153l-39 -224h209l-31 -161h-207l-41 -234h180zM1237 590q0 -260 -180 -425t-475 -165h-465l80 451h-177l29 161h174l80 443h420q229 0 371.5 -120t142.5 -345z" />
    <glyph glyph-name="dcaron.sc" horiz-adv-x="1189" 
d="M606 217q98 0 179 46t129 128q48 81 47.5 199t-76.5 183t-197 63h-153l-109 -619h180zM1237 590q0 -260 -180 -425t-475 -165h-465l186 1055h420q229 0 371.5 -120t142.5 -345zM907 1206h-272l-127 359h190l105 -185l168 185h188z" />
    <glyph glyph-name="dcroat.sc" horiz-adv-x="1187" 
d="M606 217q150 0 252.5 101.5t102.5 245.5t-76 209t-197 63h-153l-39 -224h209l-31 -161h-207l-41 -234h180zM1237 590q0 -260 -180 -425t-475 -165h-465l80 451h-177l29 161h174l80 443h420q229 0 371.5 -120t142.5 -345z" />
    <glyph glyph-name="e.sc" horiz-adv-x="999" 
d="M1075 842h-538l-37 -205h465l-33 -203h-469l-39 -223h543l-35 -211h-815l186 1055h807z" />
    <glyph glyph-name="eacute.sc" horiz-adv-x="999" 
d="M1075 842h-538l-37 -205h465l-33 -203h-469l-39 -223h543l-35 -211h-815l186 1055h807zM1083 1563l-256 -357h-219l154 357h321z" />
    <glyph glyph-name="ebreve.sc" horiz-adv-x="999" 
d="M1075 842h-538l-37 -205h465l-33 -203h-469l-39 -223h543l-35 -211h-815l186 1055h807zM744 1202q-143 0 -216 95.5t-47 258.5h203q-14 -88 5.5 -125.5t72.5 -37.5t85 35.5t46 127.5h205q-23 -172 -117 -263t-237 -91z" />
    <glyph glyph-name="ecaron.sc" horiz-adv-x="999" 
d="M117 0l186 1055h807l-35 -213h-538l-37 -205h465l-33 -203h-469l-39 -223h543l-35 -211h-815zM866 1208h-272l-127 357h190l105 -183l170 183h188z" />
    <glyph glyph-name="ecircumflex.sc" horiz-adv-x="999" 
d="M1075 842h-538l-37 -205h465l-33 -203h-469l-39 -223h543l-35 -211h-815l186 1055h807zM774 1403l-170 -195h-201l254 357h273l127 -357h-178z" />
    <glyph glyph-name="edieresis.sc" horiz-adv-x="999" 
d="M117 0l186 1055h807l-35 -213h-538l-37 -205h465l-33 -203h-469l-39 -223h543l-35 -211h-815zM952 1239q-134 -1 -135 131q0 64 51.5 112t117 48t99 -32.5t33.5 -96.5t-50 -113t-116 -49zM549 1239q-43 -1 -71 15q-58 31 -58 105.5t50 122.5t126 48t110 -58
q16 -26 15.5 -68t-24 -81t-64.5 -61.5t-84 -22.5z" />
    <glyph glyph-name="edotaccent.sc" horiz-adv-x="999" 
d="M1075 842h-538l-37 -205h465l-33 -203h-469l-39 -223h543l-35 -211h-815l186 1055h807zM744 1225q-156 -1 -156 151q0 74 59.5 131.5t150 57.5t126.5 -67q18 -32 18 -75q0 -84 -59.5 -141t-138.5 -57z" />
    <glyph glyph-name="uni1EB9.sc" horiz-adv-x="999" 
d="M471 -442q-158 0 -158 152q0 75 60.5 131.5t138.5 56.5q158 0 158 -151q0 -75 -60.5 -132t-138.5 -57zM1075 842h-538l-37 -205h465l-33 -203h-469l-39 -223h543l-35 -211h-815l186 1055h807z" />
    <glyph glyph-name="egrave.sc" horiz-adv-x="999" 
d="M1075 842h-538l-37 -205h465l-33 -203h-469l-39 -223h543l-35 -211h-815l186 1055h807zM844 1206h-197l-143 357h311z" />
    <glyph glyph-name="emacron.sc" horiz-adv-x="999" 
d="M1075 842h-538l-37 -205h465l-33 -203h-469l-39 -223h543l-35 -211h-815l186 1055h807zM1090 1481l-37 -193h-611l35 193h613z" />
    <glyph glyph-name="eogonek.sc" horiz-adv-x="999" 
d="M756 -205q0 -47 36 -65q16 -8 37 -9q53 0 103 41l47 -122q-76 -76 -183.5 -76t-161.5 50t-54 140q0 141 143 246h-606l186 1055h807l-35 -213h-538l-37 -205h465l-33 -203h-469l-39 -223h543l-35 -211q-176 -100 -176 -205z" />
    <glyph glyph-name="uni1EBD.sc" horiz-adv-x="999" 
d="M117 0l186 1055h807l-35 -213h-538l-37 -205h465l-33 -203h-469l-39 -223h543l-35 -211h-815zM620 1333q-34 0 -58.5 -24.5t-31.5 -65.5h-182q25 137 93.5 209t165.5 72t189 -68q32 -24 65.5 -24t56 24.5t28.5 65.5h182q-25 -137 -93 -209t-146 -72t-124 23.5t-78.5 46
t-66.5 22.5z" />
    <glyph glyph-name="uni0259.sc" horiz-adv-x="1198" 
d="M399 414q1 -100 63 -150t170 -49q108 0 190 49q81 49 118 150h-541zM747 1067q221 0 353 -130t133 -359q0 -186 -83 -322q-164 -270 -527 -268q-254 0 -383 156t-88 384l8 60h805q-6 127 -72 188q-66 62 -170 62t-171 -38t-89 -102h-273q52 166 194 268t363 101z" />
    <glyph glyph-name="f.sc" horiz-adv-x="950" 
d="M1057 834h-522l-43 -250h456l-35 -211h-460l-66 -373h-270l186 1055h791z" />
    <glyph glyph-name="g.sc" horiz-adv-x="1224" 
d="M738.5 836q-121.5 0 -222 -99.5t-100.5 -237t66.5 -207t177 -69.5t189.5 48t109 116h-253l30 176h496v-2l8 2l-98 -563h-183l29 156q-129 -166 -381 -166q-207 0 -337 126t-130 347q0 264 181.5 434t457.5 170q217 0 346 -110.5t121 -288.5h-268q-2 72 -59.5 120t-179 48
z" />
    <glyph glyph-name="gbreve.sc" horiz-adv-x="1224" 
d="M738.5 836q-121.5 0 -222 -99.5t-100.5 -237t66.5 -207t177 -69.5t189.5 48t109 116h-253l30 176h496v-2l8 2l-98 -563h-183l29 156q-129 -166 -381 -166q-207 0 -337 126t-130 347q0 264 181.5 434t457.5 170q217 0 346 -110.5t121 -288.5h-268q-2 72 -59.5 120t-179 48
zM830 1202q-143 0 -216 95.5t-47 258.5h203q-14 -88 5.5 -125.5t72.5 -37.5t85 35.5t46 127.5h205q-23 -172 -117 -263t-237 -91z" />
    <glyph glyph-name="gcaron.sc" horiz-adv-x="1224" 
d="M738.5 836q-121.5 0 -222 -99.5t-100.5 -237t66.5 -207t177 -69.5t189.5 48t109 116h-253l30 176h496v-2l8 2l-98 -563h-183l29 156q-129 -166 -381 -166q-207 0 -337 126t-130 347q0 264 181.5 434t457.5 170q217 0 346 -110.5t121 -288.5h-268q-2 72 -59.5 120t-179 48
zM952 1208h-272l-127 357h190l105 -183l170 183h188z" />
    <glyph glyph-name="gcircumflex.sc" horiz-adv-x="1224" 
d="M754 836q-137 0 -237.5 -99.5t-100.5 -237t66.5 -207t177 -69.5t189.5 48t109 116h-253l30 176h496v-2l8 2l-98 -563h-183l29 156q-129 -166 -381 -166q-207 0 -337 126t-130 347q0 264 181.5 434t457.5 170q217 0 346 -110.5t121 -288.5h-268q-4 99 -100 144
q-51 24 -123 24zM860 1403l-170 -195h-201l254 357h273l127 -357h-178z" />
    <glyph glyph-name="gcommaaccent.sc" horiz-adv-x="1224" 
d="M566 -86q48 0 86 -36t38 -120q0 -147 -99 -264t-222 -115l20 115q43 0 86 39t55 100q-53 0 -85.5 36t-32.5 85t19.5 85t53 55.5t81.5 19.5zM738.5 836q-121.5 0 -222 -99.5t-100.5 -237t66.5 -207t177 -69.5t189.5 48t109 116h-253l30 176h496v-2l8 2l-98 -563h-183
l29 156q-129 -166 -381 -166q-207 0 -337 126t-130 347q0 264 181.5 434t457.5 170q217 0 346 -110.5t121 -288.5h-268q-2 72 -59.5 120t-179 48z" />
    <glyph glyph-name="gdotaccent.sc" horiz-adv-x="1224" 
d="M738.5 836q-121.5 0 -222 -99.5t-100.5 -237t66.5 -207t177 -69.5t189.5 48t109 116h-253l30 176h496v-2l8 2l-98 -563h-183l29 156q-129 -166 -381 -166q-207 0 -337 126t-130 347q0 264 181.5 434t457.5 170q217 0 346 -110.5t121 -288.5h-268q-2 72 -59.5 120t-179 48
zM674 1364q0 86 59.5 143.5t150 57.5t126.5 -67q18 -32 18 -75q0 -84 -60 -141t-150 -57q-90 1 -126 67q-18 32 -18 72z" />
    <glyph glyph-name="h.sc" horiz-adv-x="1220" 
d="M1020 1055h270l-186 -1055h-270l71 412h-446l-72 -412h-270l186 1055h270l-71 -406h446z" />
    <glyph glyph-name="hbar.sc" horiz-adv-x="1220" 
d="M948 649l25 146h-447l-24 -146h446zM1378 956l-30 -161h-105l-139 -795h-270l73 412h-448l-72 -412h-270l139 795h-100l28 161h101l18 99h270l-18 -99h446l19 99h270l-18 -99h106z" />
    <glyph glyph-name="hcircumflex.sc" horiz-adv-x="1220" 
d="M1020 1055h270l-186 -1055h-270l71 412h-446l-72 -412h-270l186 1055h270l-71 -406h446zM872 1403l-172 -197h-198l254 357h272l125 -357h-178z" />
    <glyph glyph-name="i.sc" horiz-adv-x="503" 
d="M117 0l186 1055h270l-186 -1055h-270z" />
    <glyph glyph-name="iacute.sc" horiz-adv-x="503" 
d="M117 0l186 1055h270l-186 -1055h-270zM561 1206h-219l154 357h321z" />
    <glyph glyph-name="ibreve.sc" horiz-adv-x="503" 
d="M117 0l186 1055h270l-186 -1055h-270zM481 1202q-201 0 -257 165q-28 81 -9 189h203q-20 -114 22 -147q20 -16 65 -16q95 0 122 163h204q-23 -172 -116.5 -263t-233.5 -91z" />
    <glyph glyph-name="icircumflex.sc" horiz-adv-x="503" 
d="M117 0l186 1055h270l-186 -1055h-270zM137 1208l254 357h273l127 -357h-181l-102 195l-170 -195h-201z" />
    <glyph glyph-name="idieresis.sc" horiz-adv-x="503" 
d="M117 0l186 1055h270l-186 -1055h-270zM718.5 1530q65.5 0 99.5 -33t34 -84t-22 -90q-48 -84 -156 -84q-55 0 -89 34t-34 97.5t51 111.5t116.5 48zM286 1239q-134 -1 -134 131q0 64 51 112t117 48q134 0 135 -130q0 -64 -51.5 -112.5t-117.5 -48.5z" />
    <glyph glyph-name="i.sc.loclTRK" horiz-adv-x="503" 
d="M117 0l186 1055h270l-186 -1055h-270zM478 1225q-156 -1 -156 151q0 74 59 131.5t138 57.5q157 0 157 -152q0 -74 -59.5 -131t-138.5 -57z" />
    <glyph glyph-name="uni1ECB.sc" horiz-adv-x="503" 
d="M182 -442q-155 0 -155 152q0 75 59 131.5t138 56.5q157 0 157 -151q0 -75 -60.5 -132t-138.5 -57zM117 0l186 1055h270l-186 -1055h-270z" />
    <glyph glyph-name="igrave.sc" horiz-adv-x="503" 
d="M117 0l186 1055h270l-186 -1055h-270zM381 1206l-143 357h311l29 -357h-197z" />
    <glyph glyph-name="ij.sc" horiz-adv-x="1411" 
d="M960 225q47 0 86 33t50 94l127 701h268l-125 -701q-63 -358 -444 -358q-184 0 -277.5 97t-64.5 271h262q-16 -88 44 -122q26 -14 74 -15zM117 0l186 1055h270l-186 -1055h-270z" />
    <glyph glyph-name="imacron.sc" horiz-adv-x="503" 
d="M117 0l186 1055h270l-186 -1055h-270zM174 1288l37 193h612l-37 -193h-612z" />
    <glyph glyph-name="iogonek.sc" horiz-adv-x="503" 
d="M209 -205q0 -74 86 -74q43 0 92 41l45 -122q-74 -76 -181 -76t-161.5 50t-54.5 140q0 141 141 246h-59l186 1055h270l-186 -1055q-178 -100 -178 -205z" />
    <glyph glyph-name="itilde.sc" horiz-adv-x="503" 
d="M117 0l186 1055h270l-186 -1055h-270zM622.5 1241q-77.5 0 -123.5 23.5t-79 46t-67 22.5t-58.5 -24.5t-30.5 -65.5h-182q23 137 92.5 209t166.5 72t189 -68q32 -24 59.5 -24t45.5 12q37 25 45 78h182q-25 -137 -93.5 -209t-146 -72z" />
    <glyph glyph-name="j.sc" horiz-adv-x="907" 
d="M418 -6q-184 0 -277.5 97t-64.5 271h264q-24 -137 118 -137q48 0 86 33t48 94l127 701h268l-125 -701q-63 -358 -444 -358z" />
    <glyph glyph-name="jcircumflex.sc" horiz-adv-x="907" 
d="M447.5 225q58.5 0 96.5 33t48 94l127 701h268l-125 -701q-63 -358 -444 -358q-184 0 -277.5 97t-64.5 271h264q-12 -68 18.5 -102.5t89 -34.5zM549 1208l252 357h274l125 -357h-178l-102 195l-172 -195h-199z" />
    <glyph glyph-name="k.sc" horiz-adv-x="1134" 
d="M1088 195q36 0 67 6l-20 -191q-63 -18 -143 -18t-140 44q-59 44 -104 140l-132 283l-178 -164l-51 -295h-270l186 1055h270l-86 -484l500 484h318l-484 -457l164 -334q20 -39 43 -54q24 -15 60 -15z" />
    <glyph glyph-name="kcommaaccent.sc" horiz-adv-x="1134" 
d="M570 -86q58 0 98 -36t39 -120q-1 -147 -101 -264t-223 -115l20 115q43 0 87 39t55 100q-78 0 -110 77q-9 24 -9 50q0 66 43 110t101 44zM1088 195q36 0 67 6l-20 -191q-63 -18 -143 -18t-140 44q-59 44 -104 140l-132 283l-178 -164l-51 -295h-270l186 1055h270l-86 -484
l500 484h318l-484 -457l164 -334q20 -39 43 -54q24 -15 60 -15z" />
    <glyph glyph-name="l.sc" horiz-adv-x="931" 
d="M426 223h526l-34 -223h-801l186 1055h270z" />
    <glyph glyph-name="lacute.sc" horiz-adv-x="931" 
d="M426 223h526l-34 -223h-801l186 1055h270zM817 1563l-256 -357h-219l154 357h321z" />
    <glyph glyph-name="lcaron.sc" horiz-adv-x="931" 
d="M573 1055l-147 -832h526l-34 -223h-801l186 1055h270zM1020 928q0 -145 -99.5 -262t-222.5 -115l21 115q54 0 94 45q39 45 47 94q-53 0 -86 36t-33 96.5t43 104t101.5 43.5t96.5 -35.5t38 -121.5z" />
    <glyph glyph-name="lcommaaccent.sc" horiz-adv-x="931" 
d="M496 -86q59 0 97 -36t38 -120q0 -147 -99.5 -264t-222.5 -115l21 115q62 0 110 66q24 32 31 73q-53 0 -86 36t-33 96.5t42.5 104.5t101.5 44zM426 223h526l-34 -223h-801l186 1055h270z" />
    <glyph glyph-name="ldot.sc" horiz-adv-x="931" 
d="M801 420q-80 0 -121 42t-41 115.5t56.5 129t136.5 55.5t120.5 -41t40.5 -116t-56 -130t-136 -55zM573 1055l-147 -832h526l-34 -223h-801l186 1055h270z" />
    <glyph glyph-name="lslash.sc" horiz-adv-x="931" 
d="M426 223h526l-34 -223h-801l78 440l-177 -94l-49 143l258 140l76 426h270l-47 -264l103 57l51 -141l-188 -103z" />
    <glyph glyph-name="m.sc" horiz-adv-x="1466" 
d="M1239 1055h297l-188 -1055h-258l86 465q18 92 51 209l-412 -674h-174l-166 678q2 -121 -14 -207l-84 -471h-262l184 1055h272l199 -776z" />
    <glyph glyph-name="n.sc" horiz-adv-x="1220" 
d="M1026 1055h262l-184 -1055h-223l-381 688l-123 -688h-262l186 1055h221l383 -688z" />
    <glyph glyph-name="nacute.sc" horiz-adv-x="1220" 
d="M1026 1055h262l-184 -1055h-223l-381 688l-123 -688h-262l186 1055h221l383 -688zM1176 1563l-256 -357h-220l154 357h322z" />
    <glyph glyph-name="ncaron.sc" horiz-adv-x="1220" 
d="M1026 1055h262l-184 -1055h-223l-381 688l-123 -688h-262l186 1055h221l383 -688zM958 1208h-272l-127 357h191l104 -183l170 183h188z" />
    <glyph glyph-name="ncommaaccent.sc" horiz-adv-x="1220" 
d="M570 -86q58 0 96.5 -36t38.5 -120q0 -147 -99.5 -264t-222.5 -115l20 115q43 0 86 39t56 100q-53 0 -86 36t-33 96.5t43 104.5t101 44zM1026 1055h262l-184 -1055h-223l-381 688l-123 -688h-262l186 1055h221l383 -688z" />
    <glyph glyph-name="eng.sc" horiz-adv-x="1220" 
d="M697.5 -408q-99.5 0 -160.5 23l59 233q37 -18 100.5 -18t105.5 45t60 158l-362 655l-123 -688h-262l186 1055h221l383 -688l121 688h262l-184 -1055q-27 -141 -87.5 -234.5t-140 -133.5t-179 -40z" />
    <glyph glyph-name="uni0272.sc" horiz-adv-x="1220" 
d="M-26.5 -408q-100.5 0 -161.5 23l59 233q41 -20 94 -20q119 0 150 172l186 1055h221l383 -688l121 688h262l-184 -1055h-223l-381 688l-121 -688q-27 -141 -87.5 -234.5t-139 -133.5t-179 -40z" />
    <glyph glyph-name="ntilde.sc" horiz-adv-x="1220" 
d="M1026 1055h262l-184 -1055h-223l-381 688l-123 -688h-262l186 1055h221l383 -688zM948 1432q77 0 90 90h183q-25 -137 -93.5 -209t-146 -72t-124 23.5t-79 46t-66.5 22.5t-58.5 -24.5t-30.5 -65.5h-183q23 137 92.5 209t166 72t189.5 -68q32 -24 60 -24z" />
    <glyph glyph-name="o.sc" horiz-adv-x="1275" 
d="M422 500q0 -277 288 -277q138 0 235 97.5t97 237.5t-77.5 208t-214 68t-232.5 -95.5t-96 -238.5zM672 -10q-233 0 -381 134t-148 353q0 262 177.5 425t467.5 163q233 0 383 -131t150 -350q0 -260 -178 -427t-471 -167z" />
    <glyph glyph-name="oacute.sc" horiz-adv-x="1275" 
d="M710.5 223q137.5 0 234.5 97.5t97 237.5t-77.5 208t-188 68t-188.5 -43t-122 -121t-44 -195.5t75.5 -184.5t213 -67zM672 -10q-233 0 -381 134t-148 353q0 262 177.5 425t467.5 163q233 0 383 -131t150 -350q0 -260 -178 -427t-471 -167zM950 1206h-219l156 357h319z" />
    <glyph glyph-name="obreve.sc" horiz-adv-x="1275" 
d="M422 500q0 -277 288 -277q138 0 236 97.5t98 237.5t-78.5 208t-215 68t-232.5 -95.5t-96 -238.5zM672 -10q-233 0 -381 134t-148 353q0 262 177.5 425t467.5 163q233 0 383 -131t150 -350q0 -260 -178 -427t-471 -167zM870 1202q-96 0 -162.5 42t-93 123t-8.5 189h203
q-14 -88 5.5 -125.5t72.5 -37.5t83.5 35.5t47.5 127.5h205q-23 -172 -117 -263t-236 -91z" />
    <glyph glyph-name="ocircumflex.sc" horiz-adv-x="1275" 
d="M422 500q0 -277 288 -277q138 0 235 97.5t97 244.5q0 89 -38 151q-72 117 -231 117.5t-255 -95t-96 -238.5zM672 -10q-233 0 -381 134t-148 353q0 262 177.5 425t467.5 163q233 0 383 -131t150 -350q0 -260 -178 -427t-471 -167zM528 1208l252 357h275l125 -357h-179
l-102 195l-172 -195h-199z" />
    <glyph glyph-name="odieresis.sc" horiz-adv-x="1275" 
d="M710.5 223q137.5 0 234.5 97.5t97 237.5t-77.5 208t-188 68t-188.5 -43t-122 -121t-44 -195.5t75.5 -184.5t213 -67zM672 -10q-233 0 -381 134t-148 353q0 262 177.5 425t467.5 163q233 0 383 -131t150 -350q0 -260 -178 -427t-471 -167zM1074 1239q-132 -1 -132 131
q0 64 50 112t116 48q134 0 135 -130q0 -64 -51.5 -112.5t-117.5 -48.5zM711.5 1530q66.5 0 99.5 -33t33 -84t-22 -90q-48 -84 -154 -84q-57 0 -91 34t-34 97.5t51 111.5t117.5 48z" />
    <glyph glyph-name="uni1ECD.sc" horiz-adv-x="1275" 
d="M558 -442q-157 0 -157 152q0 75 59.5 131.5t138.5 56.5q157 0 157 -151q0 -75 -59.5 -132t-138.5 -57zM422 500q0 -277 288 -277q138 0 235 97.5t97 237.5t-77.5 208t-214 68t-232.5 -95.5t-96 -238.5zM672 -10q-233 0 -381 134t-148 353q0 262 177.5 425t467.5 163
q233 0 383 -131t150 -350q0 -260 -178 -427t-471 -167z" />
    <glyph glyph-name="ograve.sc" horiz-adv-x="1275" 
d="M422 500q0 -277 288 -277q138 0 235 97.5t97 244.5q0 89 -38 151q-72 117 -231 117.5t-255 -95t-96 -238.5zM672 -10q-233 0 -381 134t-148 353q0 262 177.5 425t467.5 163q233 0 383 -131t150 -350q0 -260 -178 -427t-471 -167zM772 1206l-143 357h311l29 -357h-197z
" />
    <glyph glyph-name="ohungarumlaut.sc" horiz-adv-x="1275" 
d="M422 500q0 -277 288 -277q138 0 235 97.5t97 244.5q0 89 -38 151q-72 117 -231 117.5t-255 -95t-96 -238.5zM672 -10q-233 0 -381 134t-148 353q0 262 177.5 425t467.5 163q233 0 383 -131t150 -350q0 -260 -178 -427t-471 -167zM1135 1206h-232l154 357h338zM715 1206
h-232l156 357h338z" />
    <glyph glyph-name="omacron.sc" horiz-adv-x="1275" 
d="M422 500q0 -277 288 -277q138 0 235 97.5t97 237.5t-77.5 208t-214 68t-232.5 -95.5t-96 -238.5zM672 -10q-233 0 -381 134t-148 353q0 262 177.5 425t467.5 163q233 0 383 -131t150 -350q0 -260 -178 -427t-471 -167zM565 1288l37 193h610l-34 -193h-613z" />
    <glyph glyph-name="uni01EB.sc" horiz-adv-x="1275" 
d="M422 500.5q0 -143.5 75.5 -210.5t187 -67t190.5 44t123 123t44 193.5t-77.5 182.5t-214 68t-232.5 -95t-96 -238.5zM727 -260q53 0 102 39l45 -121q-74 -78 -181 -78t-161.5 51.5t-54.5 139.5q0 127 115 225q-203 23 -326 153t-123 328q0 262 177.5 425t467.5 163
q233 0 383 -131t150 -355t-141 -384t-379 -195q-147 -90 -148 -186q-1 -51 37 -67q16 -7 37 -7z" />
    <glyph glyph-name="oslash.sc" horiz-adv-x="1275" 
d="M696 223q152 0 250 97.5t98 227.5t-59 197l-391 -507q47 -15 102 -15zM422 508.5q0 -135.5 63 -205.5l396 512q-53 18 -117 19q-150 0 -246 -95t-96 -230.5zM1321 572.5q0 -248.5 -178 -415.5t-471 -167q-129 0 -236 43l-53 -70h-160l103 133q-182 135 -182.5 389
t177 417t467.5 163q137 0 250 -47l47 61h156l-96 -125q176 -133 176 -381.5z" />
    <glyph glyph-name="oslashacute.sc" horiz-adv-x="1275" 
d="M696 223q152 0 250 97.5t98 227.5t-59 197l-391 -507q47 -15 102 -15zM422 508.5q0 -135.5 63 -205.5l396 512q-53 18 -117 19q-150 0 -246 -95t-96 -230.5zM1321 572.5q0 -248.5 -178 -415.5t-471 -167q-129 0 -236 43l-53 -70h-160l103 133q-182 135 -182.5 389
t177 417t467.5 163q137 0 250 -47l47 61h156l-96 -125q176 -133 176 -381.5zM1206 1563l-256 -357h-219l156 357h319z" />
    <glyph glyph-name="otilde.sc" horiz-adv-x="1275" 
d="M422 500q0 -277 288 -277q138 0 236 97.5t98 237.5t-78.5 208t-215 68t-232.5 -95.5t-96 -238.5zM672 -10q-233 0 -381 134t-148 353q0 262 177.5 425t467.5 163q233 0 383 -131t150 -350q0 -260 -178 -427t-471 -167zM997 1241q-61 0 -107 23.5t-79 46t-66.5 22.5
t-58 -24.5t-31.5 -65.5h-182q23 137 92.5 209t166.5 72q96 0 188 -68q32 -24 60 -24t46 12q37 25 45 78h182q-25 -137 -93.5 -209t-162.5 -72z" />
    <glyph glyph-name="oe.sc" horiz-adv-x="1835" 
d="M711.5 223q134.5 0 231.5 96.5t97 235.5t-77.5 209t-187 70t-187.5 -44.5t-122 -122t-44 -192t77.5 -183.5t212 -69zM143 490.5q0 248.5 177.5 411.5t467.5 163q215 0 345 -104l16 94h797l-37 -221h-539l-35 -197h467l-35 -213h-471l-36 -203h544l-37 -221h-804l12 63
q-143 -74 -316 -73q-231 0 -373.5 126t-142.5 374.5z" />
    <glyph glyph-name="p.sc" horiz-adv-x="1062" 
d="M688 563q90 0 143 39q53 38 51 104q-3 127 -143 132h-204l-50 -275h203zM774 1055q180 0 283 -86q102 -87 104 -234q2 -187 -128 -289t-380 -100h-204l-62 -346h-270l186 1055h471z" />
    <glyph glyph-name="thorn.sc" horiz-adv-x="1081" 
d="M657 399q94 0 146 39q51 39 49 113q-4 121 -143 123h-203l-49 -275h200zM743 891q181 0 283 -86t104 -236q2 -186 -128 -286t-379 -101h-205l-31 -182h-270l186 1055h270l-28 -164h198z" />
    <glyph glyph-name="q.sc" horiz-adv-x="1271" 
d="M422 500q0 -277 288 -277q138 0 236 97.5t98 237.5t-78.5 208t-215 68t-232.5 -95.5t-96 -238.5zM1321 585.5q0 -223.5 -132 -380t-360 -199.5q113 -63 283 -63l-10 -240q-188 0 -334.5 85t-206.5 210q-261 36 -367 244q-52 102 -51 233q0 264 178.5 427t473.5 163
q238 0 382 -128t144 -351.5z" />
    <glyph glyph-name="r.sc" horiz-adv-x="1093" 
d="M676 559q96 0 147 42q51 43 50 109q-2 135 -146 134h-192l-50 -285h191zM1030 195q39 0 68 6l-19 -191q-63 -18 -144 -18q-168 0 -243 184l-74 182h-167l-64 -358h-270l186 1055h459q184 0 286 -84q102 -83 103 -223q0 -273 -281 -359l56 -125q16 -39 40.5 -54t63.5 -15z
" />
    <glyph glyph-name="racute.sc" horiz-adv-x="1093" 
d="M676 559q96 0 147 42q51 43 50 109q-2 135 -146 134h-192l-50 -285h191zM1030 195q39 0 68 6l-19 -191q-63 -18 -144 -18q-168 0 -243 184l-74 182h-167l-64 -358h-270l186 1055h459q184 0 286 -84q102 -83 103 -223q0 -273 -281 -359l56 -125q16 -39 40.5 -54t63.5 -15z
M1090 1563l-256 -357h-220l156 357h320z" />
    <glyph glyph-name="rcaron.sc" horiz-adv-x="1093" 
d="M676 559q96 0 147 42q51 43 50 109q-2 135 -146 134h-192l-50 -285h191zM1030 195q39 0 68 6l-19 -191q-63 -18 -144 -18q-168 0 -243 184l-74 182h-167l-64 -358h-270l186 1055h459q184 0 286 -84q102 -83 103 -223q0 -273 -281 -359l56 -125q16 -39 40.5 -54t63.5 -15z
M874 1208h-274l-127 357h191l104 -183l170 183h188z" />
    <glyph glyph-name="rcommaaccent.sc" horiz-adv-x="1093" 
d="M527 -86q58 0 97.5 -36t39.5 -122q0 -145 -100.5 -262t-223.5 -115l20 115q43 0 87.5 39t56.5 100q-85 -1 -111 77q-8 24 -8 50q0 66 42 110t100 44zM676 559q96 0 147 42q51 43 50 109q-2 135 -146 134h-192l-50 -285h191zM1030 195q39 0 68 6l-19 -191
q-63 -18 -144 -18q-168 0 -243 184l-74 182h-167l-64 -358h-270l186 1055h459q184 0 286 -84q102 -83 103 -223q0 -273 -281 -359l56 -125q16 -39 40.5 -54t63.5 -15z" />
    <glyph glyph-name="s.sc" horiz-adv-x="1017" 
d="M467 761q0 -46 41 -72.5t101.5 -38t132 -33t132 -50t101.5 -92t41 -156.5q2 -158 -123 -245.5t-335 -87.5t-328.5 87t-120.5 251h260q2 -61 54 -96t150 -35q193 0 191 108q0 45 -41 75t-102.5 43t-133 34.5t-132 49t-102.5 89t-42 153.5q-2 145 123 233.5t327.5 88.5
t310 -94t111.5 -256h-262q0 66 -48 104.5t-132 38.5t-129 -26.5t-45 -72.5z" />
    <glyph glyph-name="sacute.sc" horiz-adv-x="1017" 
d="M467 761q0 -46 41 -72.5t101.5 -38t132 -33t132 -50t101.5 -92t41 -156.5q2 -158 -123 -245.5t-335 -87.5t-328.5 87t-120.5 251h260q2 -61 54 -96t150 -35q193 0 191 108q0 45 -41 75t-102.5 43t-133 34.5t-132 49t-102.5 89t-42 153.5q-2 145 123 233.5t327.5 88.5
t310 -94t111.5 -256h-262q0 66 -48 104.5t-132 38.5t-129 -26.5t-45 -72.5zM1071 1561l-256 -357h-219l154 357h321z" />
    <glyph glyph-name="scaron.sc" horiz-adv-x="1017" 
d="M641 860q-174 0 -174 -104q0 -78 145 -106q146 -26 262 -82q60 -28 101 -92t41 -157q2 -158 -123 -245.5t-336 -87.5q-283 0 -392 153q-54 76 -56 185h260q2 -61 54 -96t150 -35q193 0 191 108q0 75 -110 109q-48 14 -108 28q-138 30 -224 84q-110 68 -111.5 218
t123.5 238.5t327.5 88.5t310 -94t111.5 -256h-262q0 66 -48 104.5t-132 38.5zM854 1204h-272l-127 359h190l105 -185l170 185h188z" />
    <glyph glyph-name="scedilla.sc" horiz-adv-x="1017" 
d="M467 761q0 -46 41 -72.5t101.5 -38t132 -33t132 -50t101.5 -92t41 -156.5q2 -158 -123 -245.5t-336 -87.5h-16l-19 -54q85 -12 117 -82q16 -34 16 -80q0 -93 -71.5 -149.5t-182 -56.5t-163.5 26l59 148q41 -23 100 -23q104 0 104.5 61.5t-149.5 67.5l60 154
q-143 29 -222 110.5t-81 215.5h260q2 -61 54 -96t150 -35q193 0 191 108q0 45 -41 75t-102.5 43t-133 34.5t-132 49t-102.5 89t-42 153.5q-2 145 123 233.5t327.5 88.5t310 -94t111.5 -256h-262q0 66 -48 104.5t-132 38.5t-129 -26.5t-45 -72.5z" />
    <glyph glyph-name="scircumflex.sc" horiz-adv-x="1017" 
d="M467 761q0 -46 41 -72.5t101.5 -38t132 -33t132 -50t101.5 -92t41 -156.5q2 -158 -123 -245.5t-338 -87.5q-281 0 -390 153q-54 76 -56 185h260q2 -61 54 -96t148 -35q195 0 193 108q0 45 -41 75t-102.5 43t-133 34.5t-132 49t-102.5 89t-42 153.5q-2 145 123 233.5
t327.5 88.5t310 -94t111.5 -256h-262q0 66 -48 104.5t-132 38.5t-129 -26.5t-45 -72.5zM762 1401l-170 -197h-201l254 359h273l126 -359h-178z" />
    <glyph glyph-name="scommaaccent.sc" horiz-adv-x="1017" 
d="M463 -86q59 0 97 -36t38 -120q0 -147 -100.5 -264t-221.5 -115l21 115q43 0 86 39t55 100q-53 0 -86 36t-33 96.5t42.5 104.5t101.5 44zM467 761q0 -46 41 -72.5t101.5 -38t132 -33t132 -50t101.5 -92t41 -156.5q2 -158 -123 -245.5t-335 -87.5t-328.5 87t-120.5 251h260
q2 -61 54 -96t150 -35q193 0 191 108q0 45 -41 75t-102.5 43t-133 34.5t-132 49t-102.5 89t-42 153.5q-2 145 123 233.5t327.5 88.5t310 -94t111.5 -256h-262q0 66 -48 104.5t-132 38.5t-129 -26.5t-45 -72.5z" />
    <glyph glyph-name="germandbls.sc" horiz-adv-x="1130" 
d="M657 0h-108l35 205h94q82 0 132 33t50 83q0 49 -15 75q-31 52 -116 55h-72l29 172l154 208h-162q-68 1 -114 -35t-58 -102l-125 -694h-272l127 711q59 344 440 344h520l-29 -174l-221 -287q188 -68 189 -264q0 -154 -126 -242t-352 -88z" />
    <glyph glyph-name="t.sc" horiz-adv-x="1001" 
d="M365 0l149 831h-350l35 224h972l-34 -224h-353l-149 -831h-270z" />
    <glyph glyph-name="tbar.sc" horiz-adv-x="1001" 
d="M1137 831h-353l-43 -233h232l-29 -182h-233l-76 -416h-270l73 416h-207l31 182h209l43 233h-350l35 224h972z" />
    <glyph glyph-name="tcaron.sc" horiz-adv-x="1001" 
d="M365 0l149 831h-350l35 224h972l-34 -224h-353l-149 -831h-270zM453 1565h190l105 -183l170 183h188l-252 -357h-274z" />
    <glyph glyph-name="uni0163.sc" horiz-adv-x="1001" 
d="M645 -230q0 -90 -71.5 -148t-182 -58t-166.5 26l60 148q41 -23 102 -23q102 0 102 61.5t-149 67.5l61 156h-36l149 831h-350l35 224h972l-34 -224h-353l-149 -831h-100l-25 -68q82 -12 118 -82q18 -34 17 -80z" />
    <glyph glyph-name="uni021B.sc" horiz-adv-x="1001" 
d="M307 -246q-1 49 19 85q41 75 129 75q55 0 93 -36t38 -120q0 -147 -99.5 -264t-222.5 -115l21 115q61 0 109 66q24 32 32 73q-53 0 -86 36t-33 85zM365 0l149 831h-350l35 224h972l-34 -224h-353l-149 -831h-270z" />
    <glyph glyph-name="u.sc" horiz-adv-x="1183" 
d="M614 -12q-234 0 -351.5 125t-80.5 336l109 604h270l-108 -609q-20 -109 29.5 -166t158.5 -57t168 56.5t80 164.5l108 611h271l-109 -615q-41 -229 -176 -339.5t-369 -110.5z" />
    <glyph glyph-name="uacute.sc" horiz-adv-x="1183" 
d="M614 -12q-234 0 -351.5 125t-80.5 336l109 604h270l-108 -609q-20 -109 29.5 -166t158.5 -57t168 56.5t80 164.5l108 611h271l-109 -615q-41 -229 -176 -339.5t-369 -110.5zM901 1206h-219l156 357h319z" />
    <glyph glyph-name="ubreve.sc" horiz-adv-x="1183" 
d="M614 -12q-234 0 -351.5 125t-80.5 336l109 604h270l-108 -609q-20 -109 29.5 -166t158.5 -57t168 56.5t80 164.5l110 611h269l-109 -615q-41 -229 -176 -339.5t-369 -110.5zM821 1202q-96 0 -162.5 42t-93 123t-8.5 189h203q-26 -163 68 -163q44 0 68 14q51 30 73 149
h205q-23 -172 -117 -263t-236 -91z" />
    <glyph glyph-name="ucircumflex.sc" horiz-adv-x="1183" 
d="M614 -12q-234 0 -351.5 125t-80.5 336l109 604h270l-108 -609q-20 -109 29.5 -166t158.5 -57t168 56.5t80 164.5l108 611h271l-109 -615q-41 -229 -176 -339.5t-369 -110.5zM479 1208l252 357h275l124 -357h-178l-102 195l-172 -195h-199z" />
    <glyph glyph-name="udieresis.sc" horiz-adv-x="1183" 
d="M614 -12q-234 0 -351.5 125t-80.5 336l109 604h270l-108 -609q-20 -109 29.5 -166t158.5 -57t168 56.5t80 164.5l108 611h271l-109 -615q-41 -229 -176 -339.5t-369 -110.5zM1026 1239q-134 -1 -135 131q0 64 51 112q52 48 118 48q134 0 134 -130q0 -64 -51 -112.5
t-117 -48.5zM662.5 1530q66.5 0 99.5 -33t33 -84q-1 -51 -23 -90q-48 -84 -154 -84q-57 0 -90.5 34t-33.5 97.5t51 111.5t117.5 48z" />
    <glyph glyph-name="uni1EE5.sc" horiz-adv-x="1183" 
d="M565 -102q156 0 156 -151q0 -75 -59.5 -132t-156 -57t-128.5 84q-10 26 -10 57q0 86 60 142.5t138 56.5zM614 -12q-234 0 -351.5 125t-80.5 336l109 604h270l-108 -609q-20 -109 29.5 -166t158.5 -57t168 56.5t80 164.5l108 611h271l-109 -615q-41 -229 -176 -339.5
t-369 -110.5z" />
    <glyph glyph-name="ugrave.sc" horiz-adv-x="1183" 
d="M614 -12q-234 0 -351.5 125t-80.5 336l109 604h270l-108 -609q-20 -109 29.5 -166t158.5 -57t168 56.5t80 164.5l108 611h271l-109 -615q-41 -229 -176 -339.5t-369 -110.5zM723 1206l-143 357h311l29 -357h-197z" />
    <glyph glyph-name="uhungarumlaut.sc" horiz-adv-x="1183" 
d="M614 -12q-234 0 -351.5 125t-80.5 336l109 604h270l-108 -609q-20 -109 29.5 -166t158.5 -57t168 56.5t80 164.5l108 611h271l-109 -615q-41 -229 -176 -339.5t-369 -110.5zM1085 1206h-231l154 357h338zM666 1206h-232l154 357h340z" />
    <glyph glyph-name="umacron.sc" horiz-adv-x="1183" 
d="M614 -12q-234 0 -351.5 125t-80.5 336l109 604h270l-108 -609q-20 -109 29.5 -166t158.5 -57t168 56.5t80 164.5l108 611h271l-109 -615q-41 -229 -176 -339.5t-369 -110.5zM516 1288l37 193h610l-35 -193h-612z" />
    <glyph glyph-name="uogonek.sc" horiz-adv-x="1183" 
d="M610 -188q0 -49 36 -66q18 -8 38 -8q53 0 102 39l45 -121q-74 -78 -198 -78q-125 0 -175 88q-24 43 -24 103q0 127 113 223q-203 18 -301.5 140t-63.5 317l109 604h270l-108 -609q-20 -109 29.5 -166t158.5 -57t168 56.5t80 164.5l108 611h271l-109 -615
q-68 -377 -397 -436q-152 -92 -152 -190z" />
    <glyph glyph-name="uring.sc" horiz-adv-x="1183" 
d="M614 -12q-234 0 -351.5 125t-80.5 336l109 604h270l-108 -609q-20 -109 29.5 -166t158.5 -57t168 56.5t80 164.5l108 611h271l-109 -615q-41 -229 -176 -339.5t-369 -110.5zM830 1313q30 0 52.5 21.5t22.5 51.5t-17.5 47t-47 17t-52 -21.5t-22.5 -51.5t17 -47t47 -17z
M629 1375q0 83 64.5 146.5t152.5 63.5t142 -49t54 -140t-64.5 -153.5t-161 -62.5t-152.5 68q-36 44 -35 127z" />
    <glyph glyph-name="utilde.sc" horiz-adv-x="1183" 
d="M614 -12q-234 0 -351.5 125t-80.5 336l109 604h270l-108 -609q-20 -109 29.5 -166t158.5 -57t168 56.5t80 164.5l108 611h271l-109 -615q-41 -229 -176 -339.5t-369 -110.5zM711 1333q-90 0 -107 -90h-182q25 137 94.5 209t173.5 72q61 0 104.5 -22.5t76 -46t65.5 -23.5
t56.5 24.5t29.5 65.5h180q-23 -137 -91.5 -209t-162 -72t-150 46t-87.5 46z" />
    <glyph glyph-name="v.sc" horiz-adv-x="1091" 
d="M981 1055h301l-582 -1055h-301l-233 1055h276l146 -803z" />
    <glyph glyph-name="w.sc" horiz-adv-x="1601" 
d="M1509 1055h269l-486 -1055h-315l-43 752l-311 -752h-314l-112 1055h266l49 -817l322 817h290l35 -832z" />
    <glyph glyph-name="wacute.sc" horiz-adv-x="1601" 
d="M1509 1055h269l-486 -1055h-315l-43 752l-311 -752h-314l-112 1055h266l49 -817l322 817h290l35 -832zM1368 1563l-256 -357h-219l154 357h321z" />
    <glyph glyph-name="wcircumflex.sc" horiz-adv-x="1601" 
d="M1509 1055h267l-484 -1055h-315l-43 752l-311 -752h-314l-112 1055h266l49 -817l322 817h290l35 -832zM1059 1403l-170 -195h-201l254 357h272l127 -357h-178z" />
    <glyph glyph-name="wdieresis.sc" horiz-adv-x="1601" 
d="M1509 1055h269l-486 -1055h-315l-43 752l-311 -752h-314l-112 1055h266l49 -817l322 817h290l35 -832zM1236 1239q-134 -1 -134 131q0 64 51 112t119 48t91 -24q40 -43 40 -106t-50.5 -112t-116.5 -49zM834 1239q-44 -1 -72 15q-56 31 -56.5 105.5t50.5 122.5t116.5 48
t99.5 -33t34 -84t-24 -90t-64 -61.5t-84 -22.5z" />
    <glyph glyph-name="wgrave.sc" horiz-adv-x="1601" 
d="M1509 1055h269l-486 -1055h-315l-43 752l-311 -752h-314l-112 1055h266l49 -817l322 817h290l35 -832zM1128 1206h-196l-144 357h312z" />
    <glyph glyph-name="x.sc" horiz-adv-x="1067" 
d="M1241 1055l-446 -533l280 -522h-291l-186 367l-287 -367h-315l463 563l-269 492h297l175 -340l270 340h309z" />
    <glyph glyph-name="y.sc" horiz-adv-x="1040" 
d="M1229 1055l-506 -660l-68 -395h-270l70 401l-273 654h277l159 -437l308 437h303z" />
    <glyph glyph-name="yacute.sc" horiz-adv-x="1040" 
d="M1229 1055l-506 -660l-68 -395h-270l70 401l-273 654h277l159 -437l308 437h303zM1085 1563l-256 -357h-219l156 357h319z" />
    <glyph glyph-name="ycircumflex.sc" horiz-adv-x="1040" 
d="M1229 1055l-506 -660l-68 -395h-270l70 401l-273 654h277l159 -437l308 437h303zM776 1403l-170 -195h-200l253 357h275l125 -357h-178z" />
    <glyph glyph-name="ydieresis.sc" horiz-adv-x="1040" 
d="M1229 1055l-506 -660l-68 -395h-270l70 401l-273 654h277l159 -437l308 437h303zM953.5 1239q-66.5 0 -100.5 34t-34 84q-1 50 23 90q49 83 146.5 83t123.5 -70q8 -22 8 -49q0 -74 -50 -123t-116.5 -49zM552 1239q-44 -1 -72 15q-58 31 -58 105.5t51 122.5t127 48
t108 -58q14 -26 14.5 -68t-22 -81t-63.5 -61.5t-85 -22.5z" />
    <glyph glyph-name="ygrave.sc" horiz-adv-x="1040" 
d="M1229 1055l-506 -660l-68 -395h-270l70 401l-273 654h277l159 -437l308 437h303zM848 1206h-199l-143 357h311z" />
    <glyph glyph-name="uni0233.sc" horiz-adv-x="1040" 
d="M1229 1055l-506 -660l-68 -395h-270l70 401l-273 654h277l159 -437l308 437h303zM1092 1481l-35 -193h-613l35 193h613z" />
    <glyph glyph-name="uni1EF9.sc" horiz-adv-x="1040" 
d="M1229 1055l-506 -660l-68 -395h-270l70 401l-273 654h277l159 -437l308 437h303zM627 1333q-75 0 -95 -90h-182q25 137 93.5 209t164.5 72t190 -68q32 -24 65.5 -24t56 24.5t28.5 65.5h182q-23 -137 -92 -209t-158 -72q-90 -1 -190 69q-32 22 -63 23z" />
    <glyph glyph-name="z.sc" horiz-adv-x="1038" 
d="M1157 1055l-37 -232l-698 -612h588l-35 -211h-920l37 229l696 613h-565l35 213h899z" />
    <glyph glyph-name="zacute.sc" horiz-adv-x="1038" 
d="M1157 1055l-37 -232l-698 -612h588l-35 -211h-920l37 229l696 613h-565l35 213h899zM1069 1563l-256 -357h-219l156 357h319z" />
    <glyph glyph-name="zcaron.sc" horiz-adv-x="1038" 
d="M1157 1055l-37 -232l-698 -612h588l-35 -211h-920l37 229l696 613h-565l35 213h899zM854 1208h-272l-127 357h188l105 -183l170 183h188z" />
    <glyph glyph-name="zdotaccent.sc" horiz-adv-x="1038" 
d="M1157 1055l-37 -232l-698 -612h588l-35 -211h-920l37 229l696 613h-565l35 213h899zM731 1225q-158 -1 -158 151q0 74 60.5 131.5t151.5 57.5t127 -67q18 -32 18 -75q0 -84 -60.5 -141t-138.5 -57z" />
    <glyph glyph-name="k.sc.ss01" horiz-adv-x="1134" 
d="M1305 1055l-478 -449l318 -606h-291l-240 457l-176 -162l-51 -295h-270l186 1055h270l-86 -484l500 484h318z" />
    <glyph glyph-name="kcommaaccent.sc.ss01" horiz-adv-x="1130" 
d="M570 -86q58 0 98 -36t39 -120q-1 -147 -101 -264t-223 -115l20 115q43 0 87 39t55 100q-53 0 -86 36q-33 37 -33 97t43 104t101 44zM1305 1055l-478 -449l318 -606h-291l-240 457l-176 -162l-51 -295h-270l186 1055h270l-86 -484l500 484h318z" />
    <glyph glyph-name="r.sc.ss01" horiz-adv-x="1093" 
d="M676 559q96 0 147 42q51 43 50 109q-2 135 -146 134h-192l-50 -285h191zM1151 749q0 -264 -266 -356l166 -393h-275l-145 358h-180l-64 -358h-270l186 1055h459q184 0 286.5 -84.5t102.5 -221.5z" />
    <glyph glyph-name="racute.sc.ss01" horiz-adv-x="1093" 
d="M676 559q96 0 147 42q51 43 50 109q-2 135 -146 134h-192l-50 -285h191zM1151 749q0 -264 -266 -356l166 -393h-275l-145 358h-180l-64 -358h-270l186 1055h459q184 0 286.5 -84.5t102.5 -221.5zM1090 1563l-256 -357h-220l156 357h320z" />
    <glyph glyph-name="rcaron.sc.ss01" horiz-adv-x="1093" 
d="M676 559q96 0 147 42q51 43 50 109q-2 135 -146 134h-192l-50 -285h191zM1151 749q0 -264 -266 -356l166 -393h-275l-145 358h-180l-64 -358h-270l186 1055h459q184 0 286.5 -84.5t102.5 -221.5zM874 1208h-274l-127 357h191l104 -183l170 183h188z" />
    <glyph glyph-name="rcommaaccent.sc.ss01" horiz-adv-x="1093" 
d="M527 -86q58 0 97.5 -36t39.5 -122q0 -145 -100.5 -262t-223.5 -115l20 115q43 0 87.5 39t56.5 100q-53 0 -86 36t-33 96.5t42 104.5t100 44zM676 559q96 0 147 42q51 43 50 109q-2 135 -146 134h-192l-50 -285h191zM1151 749q0 -264 -266 -356l166 -393h-275l-145 358
h-180l-64 -358h-270l186 1055h459q184 0 286.5 -84.5t102.5 -221.5z" />
    <glyph glyph-name="zero.sinf" horiz-adv-x="776" 
d="M406 23q82 0 122 90t39 213q0 186 -104 186q-78 0 -120 -91t-42 -214q1 -184 105 -184zM377 -172q-143 0 -224 90t-81 293t115 349q116 146 305 147q138 0 222 -90q83 -91 83 -294t-115 -349t-305 -146z" />
    <glyph glyph-name="one.sinf" horiz-adv-x="552" 
d="M418 25h123l-35 -189h-490l35 189h142l67 385q-57 -20 -149 -21l36 193q104 0 159 47q30 25 54 63h177z" />
    <glyph glyph-name="two.sinf" horiz-adv-x="661" 
d="M434 707q258 1 258 -265q0 -138 -198 -309l-127 -108h256l-35 -189h-576l27 150l323 284q109 96 109 179q0 63 -59 63q-37 0 -61 -30t-27 -85h-222q10 139 102 225t230 85z" />
    <glyph glyph-name="three.sinf" horiz-adv-x="688" 
d="M262 113q0 -90 96 -90q33 1 60 23t26 60q0 78 -96 78h-61l28 166h60q51 0 83 26t31 73q-2 63 -65 63q-86 0 -92 -106h-219q8 132 104 217q97 84 227 84q130 1 200 -61t69 -169q-1 -131 -140 -205q93 -51 95 -174q2 -122 -94 -196t-239 -74q-142 0 -219 77t-77 208h223z
" />
    <glyph glyph-name="four.sinf" horiz-adv-x="724" 
d="M272 178h156l53 293h-2l-207 -291v-2zM717 178l-33 -176h-92l-29 -166h-221l29 166h-355l31 170l383 520h285l-90 -514h92z" />
    <glyph glyph-name="five.sinf" horiz-adv-x="669" 
d="M428 397q54 1 111 -27t92 -89t37 -152q0 -133 -98 -217t-235 -84q-138 0 -219 73t-81 195l223 -2q0 -72 90 -74q40 0 68 29t28 75q-1 94 -90 92q-43 0 -78 -38l-178 68l127 446h488l-33 -186h-313l-33 -119q40 10 94 10z" />
    <glyph glyph-name="six.sinf" horiz-adv-x="720" 
d="M393 18q43 0 72 27t29 71t-25 70t-67 24q-42 -1 -72 -29t-29 -75q9 -48 29 -68t63 -20zM466 377q98 0 172 -68q74 -69 75 -191q0 -122 -87 -206t-239 -84q-313 0 -313 377q0 219 111 360q112 141 296 142q131 0 208 -78t77 -191l-223 2q0 28 -25 50q-26 22 -74 22
t-88 -50t-53 -143q65 58 163 58z" />
    <glyph glyph-name="seven.sinf" horiz-adv-x="643" 
d="M465 506h-348l35 186h593l-32 -178l-400 -678h-247l399 668v2z" />
    <glyph glyph-name="eight.sinf" horiz-adv-x="698" 
d="M360 8q41 0 69 26t28 70q2 88 -82 89q-43 0 -72 -28t-30 -71q-1 -42 23 -64t64 -22zM508 449q0 79 -73 79q-35 0 -61 -26t-26 -64q-2 -76 72 -76q40 0 64 24t24 63zM674 98q0 -120 -94 -195t-232 -75t-216 60q-77 60 -77 173q0 145 146 224q-59 57 -60 147q0 133 92 204
q91 71 219 71q262 0 263 -242q0 -114 -117 -186q76 -61 76 -181z" />
    <glyph glyph-name="nine.sinf" horiz-adv-x="720" 
d="M319 418q0 -44 24 -68t56 -24q111 0 111 104q-8 48 -28 68t-63 20q-42 0 -71 -28t-29 -72zM426 707q311 0 311 -379q0 -229 -108 -365q-109 -135 -291 -135q-137 0 -212 78t-77 190h225q0 -33 24 -53t72 -20t87 50t53 144q-66 -57 -164 -57t-174 66q-74 66 -74 188
q0 172 151 253q75 40 177 40z" />
    <glyph glyph-name="zero.tf" horiz-adv-x="1249" 
d="M688 233q82 -1 149 49q124 92 172 317q22 103 21 218q0 360 -219 361q-109 0 -189 -85q-154 -163 -155 -497q0 -363 221 -363zM641 -12q-213 0 -338 144t-123 441q0 242 80 435q80 194 234 306t366 112t336 -147q123 -146 121 -443q0 -240 -79 -430t-231 -305
q-153 -113 -366 -113z" />
    <glyph glyph-name="one.tf" horiz-adv-x="1249" 
d="M864 238h271l-33 -238h-889l31 238h342l155 815q-131 -51 -338 -52l33 236q142 0 240 39t176 131h217z" />
    </font>
</defs>
</svg>
