<?xml version="1.0" encoding="UTF-8"?>
<svg width="181px" height="137px" viewBox="0 0 181 137" version="1.1" xmlns="http://www.w3.org/2000/svg" xmlns:xlink="http://www.w3.org/1999/xlink">
    <!-- Generator: Sketch 50.2 (55047) - http://www.bohemiancoding.com/sketch -->
    <title>Group 16</title>
    <desc>Created with Sketch.</desc>
    <defs>
        <rect id="path-1" x="0" y="0" width="60.2405845" height="16.9725602"></rect>
        <path d="M16.2089682,0 L23.295,-3.55271368e-15 C32.246966,-5.19716315e-15 39.5039683,7.25700226 39.5039683,16.2089682 L0,16.2089682 L0,16.2089682 C-1.09629965e-15,7.25700226 7.25700226,1.64444947e-15 16.2089682,0 Z" id="path-3"></path>
        <path d="M16.2089682,0 L23.295,-3.55271368e-15 C32.246966,-5.19716315e-15 39.5039683,7.25700226 39.5039683,16.2089682 L0,16.2089682 L0,16.2089682 C-1.09629965e-15,7.25700226 7.25700226,1.64444947e-15 16.2089682,0 Z" id="path-5"></path>
        <rect id="path-7" x="0" y="0" width="60.2405845" height="16.9725602"></rect>
    </defs>
    <g id="home-page" stroke="none" stroke-width="1" fill="none" fill-rule="evenodd">
        <g id="dsx_home_v4" transform="translate(-1025.000000, -1886.000000)">
            <g id="Group-22" transform="translate(161.000000, 1881.000000)">
                <g id="Group-16" transform="translate(864.000000, 5.000000)">
                    <g id="Group-21">
                        <g id="Group-20" transform="translate(58.532338, 60.474026)" fill="#FFFFFF">
                            <rect id="Rectangle-11" x="18.0099502" y="0" width="9.90547264" height="6.31818182"></rect>
                            <rect id="Rectangle-11-Copy-2" x="54.9303483" y="0" width="9.90547264" height="6.31818182"></rect>
                            <rect id="Rectangle-11-Copy" x="0" y="0" width="9.90547264" height="6.31818182"></rect>
                            <rect id="Rectangle-11-Copy-3" x="36.920398" y="0" width="9.90547264" height="6.31818182"></rect>
                        </g>
                        <g id="Group-19">
                            <g id="Group-17">
                                <g id="Group-Copy-2" transform="translate(34.294189, 87.716833) scale(-1, 1) translate(-34.294189, -87.716833) translate(0.075284, 53.869430)" fill="#FFCF00">
                                    <path d="M0.0020010163,33.9451203 C0.000668139,33.8222879 0,33.6992972 0,33.5761516 C0,15.0325551 15.1501678,0 33.8388468,0 C52.5275259,0 67.6776937,15.0325551 67.6776937,33.5761516 C67.6776937,33.6992972 67.6770255,33.8222879 67.6756926,33.9451203 L67.6776937,67.1523033 L0,67.1523033 L0,33.9451203 Z" id="Combined-Shape"></path>
                                </g>
                                <ellipse id="Oval-3-Copy" fill="#FF8F73" cx="34.6742481" cy="33.5761516" rx="33.8388468" ry="33.5761516"></ellipse>
                            </g>
                            <g id="Group-17-Copy" transform="translate(111.661692, 0.000000)">
                                <g id="Group-Copy-2" transform="translate(34.294189, 87.716833) scale(-1, 1) translate(-34.294189, -87.716833) translate(0.075284, 53.869430)" fill="#5BE2F3">
                                    <path d="M0.0020010163,33.9451203 C0.000668139,33.8222879 0,33.6992972 0,33.5761516 C0,15.0325551 15.1501678,0 33.8388468,0 C52.5275259,0 67.6776937,15.0325551 67.6776937,33.5761516 C67.6776937,33.6992972 67.6770255,33.8222879 67.6756926,33.9451203 L67.6776937,67.1523033 L0,67.1523033 L0,33.9451203 Z" id="Combined-Shape"></path>
                                </g>
                                <ellipse id="Oval-3-Copy" fill="#0D0CE2" cx="34.6742481" cy="33.5761516" rx="33.8388468" ry="33.5761516"></ellipse>
                                <g id="Oval-3-Copy-2" transform="translate(4.338308, 23.000000)">
                                    <mask id="mask-2" fill="white">
                                        <use xlink:href="#path-1"></use>
                                    </mask>
                                    <use id="Mask" fill="#0D0CE2" xlink:href="#path-1"></use>
                                    <ellipse id="Oval-3-Copy" fill="#FF8F73" mask="url(#mask-2)" cx="29.6742481" cy="10.5761516" rx="28.7229801" ry="28.5"></ellipse>
                                </g>
                            </g>
                            <g id="Group-18" transform="translate(35.119403, 72.207792)">
                                <g id="Group-11">
                                    <g id="Group-8" transform="translate(0.000000, 25.655716)">
                                        <rect id="Rectangle-18" fill="#0D0CE2" x="0" y="0" width="49.5273632" height="38.4835735"></rect>
                                        <g id="Group-5" transform="translate(17.287853, 9.027011)" fill="#5BE2F3">
                                            <g id="Group-2" transform="translate(0.934479, 8.551905)">
                                                <polygon id="Rectangle-5" points="2.57089219 0 10.5953663 0 14.0171783 20.9046572 0 20.9046572"></polygon>
                                            </g>
                                            <ellipse id="Oval-4" cx="7.47582841" cy="8.07679937" rx="7.47582841" ry="8.07679937"></ellipse>
                                        </g>
                                    </g>
                                    <g id="Group-10">
                                        <path d="M49.5273632,25.6557157 C49.5273632,11.4864552 38.4402853,0 24.7636816,0 C11.0870779,0 0,11.4864552 0,25.6557157 C0,25.6557157 49.5273632,25.6557157 49.5273632,25.6557157 Z" id="Oval-5" fill="#5BE2F3"></path>
                                        <g id="Group-9" transform="translate(5.011697, 4.275953)">
                                            <mask id="mask-4" fill="white">
                                                <use xlink:href="#path-3"></use>
                                            </mask>
                                            <g id="Mask"></g>
                                            <g mask="url(#mask-4)" fill="#FFFFFF" id="Combined-Shape">
                                                <g transform="translate(0.299272, 0.300166)">
                                                    <path d="M19.4527116,39.0215902 C8.70927566,39.0215902 0,30.2863097 0,19.5107951 C0,8.7352805 8.70927566,0 19.4527116,0 C30.1961476,0 38.9054233,8.7352805 38.9054233,19.5107951 C38.9054233,30.2863097 30.1961476,39.0215902 19.4527116,39.0215902 Z M19.4527116,38.1210919 C29.7002967,38.1210919 38.0076058,29.7889782 38.0076058,19.5107951 C38.0076058,9.23261194 29.7002967,0.900498235 19.4527116,0.900498235 C9.20512655,0.900498235 0.89781746,9.23261194 0.89781746,19.5107951 C0.89781746,29.7889782 9.20512655,38.1210919 19.4527116,38.1210919 Z"></path>
                                                    <path d="M19.4527116,34.2189329 C11.3538137,34.2189329 4.78835979,27.6338753 4.78835979,19.5107951 C4.78835979,11.3877149 11.3538137,4.80265725 19.4527116,4.80265725 C27.5516095,4.80265725 34.1170635,11.3877149 34.1170635,19.5107951 C34.1170635,27.6338753 27.5516095,34.2189329 19.4527116,34.2189329 Z M19.3030754,33.0182686 C26.8234806,33.0182686 32.9199735,26.9035722 32.9199735,19.360712 C32.9199735,11.8178518 26.8234806,5.70315549 19.3030754,5.70315549 C11.7826702,5.70315549 5.68617725,11.8178518 5.68617725,19.360712 C5.68617725,26.9035722 11.7826702,33.0182686 19.3030754,33.0182686 Z"></path>
                                                    <path d="M19.4527116,29.4162757 C13.9983518,29.4162757 9.57671958,24.9814409 9.57671958,19.5107951 C9.57671958,14.0401492 13.9983518,9.6053145 19.4527116,9.6053145 C24.9070714,9.6053145 29.3287037,14.0401492 29.3287037,19.5107951 C29.3287037,24.9814409 24.9070714,29.4162757 19.4527116,29.4162757 Z M19.6023479,28.8159435 C24.6434986,28.8159435 28.7301587,24.7170811 28.7301587,19.6608781 C28.7301587,14.6046751 24.6434986,10.5058127 19.6023479,10.5058127 C14.5611972,10.5058127 10.474537,14.6046751 10.474537,19.6608781 C10.474537,24.7170811 14.5611972,28.8159435 19.6023479,28.8159435 Z"></path>
                                                </g>
                                            </g>
                                        </g>
                                    </g>
                                </g>
                            </g>
                            <g id="Group-18-Copy" transform="translate(100.855721, 72.207792)">
                                <g id="Group-11">
                                    <g id="Group-8" transform="translate(0.000000, 25.655716)">
                                        <rect id="Rectangle-18" fill="#FF8D70" x="0" y="0" width="49.5273632" height="38.4835735"></rect>
                                        <g id="Group-5" transform="translate(17.287853, 9.027011)" fill="#FFCF00">
                                            <g id="Group-2" transform="translate(0.934479, 8.551905)">
                                                <polygon id="Rectangle-5" points="2.57089219 0 10.5953663 0 14.0171783 20.9046572 0 20.9046572"></polygon>
                                            </g>
                                            <ellipse id="Oval-4" cx="7.47582841" cy="8.07679937" rx="7.47582841" ry="8.07679937"></ellipse>
                                        </g>
                                    </g>
                                    <g id="Group-10">
                                        <path d="M49.5273632,25.6557157 C49.5273632,11.4864552 38.4402853,0 24.7636816,0 C11.0870779,0 0,11.4864552 0,25.6557157 C0,25.6557157 49.5273632,25.6557157 49.5273632,25.6557157 Z" id="Oval-5" fill="#FFCF00"></path>
                                        <g id="Group-9" transform="translate(5.011697, 4.275953)">
                                            <mask id="mask-6" fill="white">
                                                <use xlink:href="#path-5"></use>
                                            </mask>
                                            <g id="Mask"></g>
                                            <g mask="url(#mask-6)" fill="#FFFFFF" id="Combined-Shape">
                                                <g transform="translate(0.299272, 0.300166)">
                                                    <path d="M19.4527116,39.0215902 C8.70927566,39.0215902 0,30.2863097 0,19.5107951 C0,8.7352805 8.70927566,0 19.4527116,0 C30.1961476,0 38.9054233,8.7352805 38.9054233,19.5107951 C38.9054233,30.2863097 30.1961476,39.0215902 19.4527116,39.0215902 Z M19.4527116,38.1210919 C29.7002967,38.1210919 38.0076058,29.7889782 38.0076058,19.5107951 C38.0076058,9.23261194 29.7002967,0.900498235 19.4527116,0.900498235 C9.20512655,0.900498235 0.89781746,9.23261194 0.89781746,19.5107951 C0.89781746,29.7889782 9.20512655,38.1210919 19.4527116,38.1210919 Z"></path>
                                                    <path d="M19.4527116,34.2189329 C11.3538137,34.2189329 4.78835979,27.6338753 4.78835979,19.5107951 C4.78835979,11.3877149 11.3538137,4.80265725 19.4527116,4.80265725 C27.5516095,4.80265725 34.1170635,11.3877149 34.1170635,19.5107951 C34.1170635,27.6338753 27.5516095,34.2189329 19.4527116,34.2189329 Z M19.3030754,33.0182686 C26.8234806,33.0182686 32.9199735,26.9035722 32.9199735,19.360712 C32.9199735,11.8178518 26.8234806,5.70315549 19.3030754,5.70315549 C11.7826702,5.70315549 5.68617725,11.8178518 5.68617725,19.360712 C5.68617725,26.9035722 11.7826702,33.0182686 19.3030754,33.0182686 Z"></path>
                                                    <path d="M19.4527116,29.4162757 C13.9983518,29.4162757 9.57671958,24.9814409 9.57671958,19.5107951 C9.57671958,14.0401492 13.9983518,9.6053145 19.4527116,9.6053145 C24.9070714,9.6053145 29.3287037,14.0401492 29.3287037,19.5107951 C29.3287037,24.9814409 24.9070714,29.4162757 19.4527116,29.4162757 Z M19.6023479,28.8159435 C24.6434986,28.8159435 28.7301587,24.7170811 28.7301587,19.6608781 C28.7301587,14.6046751 24.6434986,10.5058127 19.6023479,10.5058127 C14.5611972,10.5058127 10.474537,14.6046751 10.474537,19.6608781 C10.474537,24.7170811 14.5611972,28.8159435 19.6023479,28.8159435 Z"></path>
                                                </g>
                                            </g>
                                        </g>
                                    </g>
                                </g>
                            </g>
                        </g>
                    </g>
                    <g id="Oval-3-Copy" transform="translate(5.000000, 23.000000)">
                        <mask id="mask-8" fill="white">
                            <use xlink:href="#path-7"></use>
                        </mask>
                        <use id="Mask" fill="#FF8D70" xlink:href="#path-7"></use>
                        <ellipse fill="#0D0CE2" mask="url(#mask-8)" cx="29.6742481" cy="10.5761516" rx="28.7229801" ry="28.5"></ellipse>
                    </g>
                </g>
            </g>
        </g>
    </g>
</svg>