<?xml version="1.0" encoding="UTF-8"?>
<svg width="245px" height="133px" viewBox="0 0 245 133" version="1.1" xmlns="http://www.w3.org/2000/svg" xmlns:xlink="http://www.w3.org/1999/xlink">
    <!-- Generator: Sketch 50.2 (55047) - http://www.bohemiancoding.com/sketch -->
    <title>secure-communications</title>
    <desc>Created with Sketch.</desc>
    <defs>
        <path d="M54.149042,0 L80.747801,-7.10542736e-15 C110.653491,-1.25990135e-14 134.896843,24.2433519 134.896843,54.149042 L0,54.149042 L0,54.149042 C-3.66239077e-15,24.2433519 24.2433519,-1.6118412e-15 54.149042,-7.10542736e-15 Z" id="path-1"></path>
        <path d="M54.149042,0 L80.747801,-7.10542736e-15 C110.653491,-1.25990135e-14 134.896843,24.2433519 134.896843,54.149042 L0,54.149042 L0,54.149042 C-3.66239077e-15,24.2433519 24.2433519,-1.6118412e-15 54.149042,-7.10542736e-15 Z" id="path-3"></path>
        <rect id="path-5" x="0" y="0" width="76.4879007" height="49.2895126" rx="24.6447563"></rect>
        <rect id="path-7" x="0.429157965" y="0.0939520759" width="97.3482372" height="62.666739" rx="31.3333695"></rect>
    </defs>
    <g id="home-page" stroke="none" stroke-width="1" fill="none" fill-rule="evenodd">
        <g id="dsx_home_v4" transform="translate(-594.000000, -1884.000000)">
            <g id="Group-22" transform="translate(161.000000, 1881.000000)">
                <g id="secure-communications" transform="translate(432.000000, 0.000000)">
                    <g id="Group-9" transform="translate(28.113528, 68.500000) rotate(-90.000000) translate(-28.113528, -68.500000) translate(-39.495961, 41.050000)">
                        <mask id="mask-2" fill="white">
                            <use xlink:href="#path-1"></use>
                        </mask>
                        <g id="Mask"></g>
                        <g mask="url(#mask-2)" fill="#FFFFFF" id="Combined-Shape">
                            <g transform="translate(0.848408, 0.833062)">
                                <path d="M66.439028,130.907367 C29.745766,130.907367 0,101.602755 0,65.4536834 C0,29.3046123 29.745766,0 66.439028,0 C103.13229,0 132.878056,29.3046123 132.878056,65.4536834 C132.878056,101.602755 103.13229,130.907367 66.439028,130.907367 Z M66.439028,127.886428 C101.438755,127.886428 129.811639,99.934336 129.811639,65.4536834 C129.811639,30.9730309 101.438755,3.02093924 66.439028,3.02093924 C31.4393012,3.02093924 3.06641667,30.9730309 3.06641667,65.4536834 C3.06641667,99.934336 31.4393012,127.886428 66.439028,127.886428 Z"></path>
                                <path d="M66.439028,114.795691 C38.7779536,114.795691 16.3542223,92.7045217 16.3542223,65.4536834 C16.3542223,38.2028452 38.7779536,16.1116759 66.439028,16.1116759 C94.1001023,16.1116759 116.523834,38.2028452 116.523834,65.4536834 C116.523834,92.7045217 94.1001023,114.795691 66.439028,114.795691 Z M65.9279585,110.767772 C91.6132419,110.767772 112.435278,90.2545434 112.435278,64.9501936 C112.435278,39.6458437 91.6132419,19.1326152 65.9279585,19.1326152 C40.2426752,19.1326152 19.4206389,39.6458437 19.4206389,64.9501936 C19.4206389,90.2545434 40.2426752,110.767772 65.9279585,110.767772 Z"></path>
                                <path d="M66.439028,98.684015 C47.8101411,98.684015 32.7084445,83.8062888 32.7084445,65.4536834 C32.7084445,47.1010781 47.8101411,32.2233519 66.439028,32.2233519 C85.0679148,32.2233519 100.169611,47.1010781 100.169611,65.4536834 C100.169611,83.8062888 85.0679148,98.684015 66.439028,98.684015 Z M66.9500974,96.6700556 C84.1677049,96.6700556 98.1253336,82.9194298 98.1253336,65.9571733 C98.1253336,48.9949168 84.1677049,35.2442911 66.9500974,35.2442911 C49.7324899,35.2442911 35.7748612,48.9949168 35.7748612,65.9571733 C35.7748612,82.9194298 49.7324899,96.6700556 66.9500974,96.6700556 Z"></path>
                            </g>
                        </g>
                    </g>
                    <g id="Group-9-Copy" transform="translate(219.223017, 68.500000) scale(-1, 1) rotate(-90.000000) translate(-219.223017, -68.500000) translate(151.613528, 41.050000)">
                        <mask id="mask-4" fill="white">
                            <use xlink:href="#path-3"></use>
                        </mask>
                        <g id="Mask"></g>
                        <g id="Group-9" mask="url(#mask-4)" fill="#FFFFFF">
                            <g transform="translate(0.848408, 0.833062)" id="Combined-Shape">
                                <path d="M66.439028,130.907367 C29.745766,130.907367 0,101.602755 0,65.4536834 C0,29.3046123 29.745766,0 66.439028,0 C103.13229,0 132.878056,29.3046123 132.878056,65.4536834 C132.878056,101.602755 103.13229,130.907367 66.439028,130.907367 Z M66.439028,127.886428 C101.438755,127.886428 129.811639,99.934336 129.811639,65.4536834 C129.811639,30.9730309 101.438755,3.02093924 66.439028,3.02093924 C31.4393012,3.02093924 3.06641667,30.9730309 3.06641667,65.4536834 C3.06641667,99.934336 31.4393012,127.886428 66.439028,127.886428 Z"></path>
                                <path d="M66.439028,114.795691 C38.7779536,114.795691 16.3542223,92.7045217 16.3542223,65.4536834 C16.3542223,38.2028452 38.7779536,16.1116759 66.439028,16.1116759 C94.1001023,16.1116759 116.523834,38.2028452 116.523834,65.4536834 C116.523834,92.7045217 94.1001023,114.795691 66.439028,114.795691 Z M65.9279585,110.767772 C91.6132419,110.767772 112.435278,90.2545434 112.435278,64.9501936 C112.435278,39.6458437 91.6132419,19.1326152 65.9279585,19.1326152 C40.2426752,19.1326152 19.4206389,39.6458437 19.4206389,64.9501936 C19.4206389,90.2545434 40.2426752,110.767772 65.9279585,110.767772 Z"></path>
                                <path d="M66.439028,98.684015 C47.8101411,98.684015 32.7084445,83.8062888 32.7084445,65.4536834 C32.7084445,47.1010781 47.8101411,32.2233519 66.439028,32.2233519 C85.0679148,32.2233519 100.169611,47.1010781 100.169611,65.4536834 C100.169611,83.8062888 85.0679148,98.684015 66.439028,98.684015 Z M66.9500974,96.6700556 C84.1677049,96.6700556 98.1253336,82.9194298 98.1253336,65.9571733 C98.1253336,48.9949168 84.1677049,35.2442911 66.9500974,35.2442911 C49.7324899,35.2442911 35.7748612,48.9949168 35.7748612,65.9571733 C35.7748612,82.9194298 49.7324899,96.6700556 66.9500974,96.6700556 Z"></path>
                            </g>
                        </g>
                    </g>
                    <g id="Group-12" transform="translate(86.540146, 55.900000)">
                        <ellipse id="Oval-6-Copy-2" fill="#0D0CE2" cx="41.3730008" cy="39.917563" rx="41.3730008" ry="39.917563"></ellipse>
                        <ellipse id="Oval-6-Copy-2" fill="#FFCF00" cx="41.3730008" cy="40.2646723" rx="19.8173197" ry="19.4381176"></ellipse>
                    </g>
                    <g id="Group-14" transform="translate(115.633311, 42.573882)">
                        <rect id="Rectangle-9-Copy" fill="#FF8D70" transform="translate(46.481248, 30.520277) scale(-1, 1) translate(-46.481248, -30.520277) " x="0.0977828275" y="0.603007299" width="92.7669307" height="59.8345394" rx="29.9172697"></rect>
                        <polygon id="Rectangle-20-Copy" fill="#FF8D70" transform="translate(75.493831, 58.368109) rotate(-46.000000) translate(-75.493831, -58.368109) " points="66.6314247 41.2549987 84.3562364 59.1774418 67.0661049 75.4812195"></polygon>
                        <g id="Group-15-Copy" transform="translate(9.734824, 5.553748)">
                            <mask id="mask-6" fill="white">
                                <use xlink:href="#path-5"></use>
                            </mask>
                            <g id="Mask"></g>
                            <g id="Group-15" mask="url(#mask-6)" fill="#FFCF00">
                                <g transform="translate(-6.258101, 6.942185)">
                                    <rect id="Rectangle-22" x="0" y="0" width="91.0901362" height="2.2023483"></rect>
                                    <rect id="Rectangle-22-Copy" x="0" y="9.71905882" width="91.0901362" height="2.2023483"></rect>
                                    <rect id="Rectangle-22-Copy-2" x="0" y="27.074521" width="91.0901362" height="2.2023483"></rect>
                                    <rect id="Rectangle-22-Copy-3" x="0" y="17.3554622" width="91.0901362" height="2.2023483"></rect>
                                </g>
                            </g>
                        </g>
                    </g>
                    <g id="Group" transform="translate(46.794200, 17.582017)">
                        <rect id="Rectangle-9" fill="#5BE2F3" transform="translate(57.447411, 36.981069) scale(-1, 1) translate(-57.447411, -36.981069) " x="0" y="0" width="114.894822" height="73.962139" rx="36.9810695"></rect>
                        <polygon id="Rectangle-20" fill="#5BE2F3" transform="translate(29.761391, 74.534949) rotate(-24.000000) translate(-29.761391, -74.534949) " points="20.6240822 61.9306592 50.3928998 74.8725428 9.12988267 87.1392379"></polygon>
                        <g id="Group-15" transform="translate(8.344135, 5.553748)">
                            <mask id="mask-8" fill="white">
                                <use xlink:href="#path-7"></use>
                            </mask>
                            <use id="Mask" fill="#5BE2F3" xlink:href="#path-7"></use>
                            <g mask="url(#mask-8)" fill="#0D0CE2">
                                <g transform="translate(-8.344135, 9.024840)">
                                    <rect id="Rectangle-22" x="0" y="0" width="115.427196" height="2.77687395"></rect>
                                    <rect id="Rectangle-22-Copy" x="0" y="8.33062185" width="115.427196" height="2.77687395"></rect>
                                    <rect id="Rectangle-22-Copy-2" x="0" y="37.4877983" width="115.427196" height="2.77687395"></rect>
                                    <rect id="Rectangle-22-Copy-3" x="0" y="22.9092101" width="115.427196" height="2.77687395"></rect>
                                </g>
                            </g>
                        </g>
                    </g>
                </g>
            </g>
        </g>
    </g>
</svg>