<?xml version="1.0" standalone="no"?>
<!DOCTYPE svg PUBLIC "-//W3C//DTD SVG 20010904//EN"
 "http://www.w3.org/TR/2001/REC-SVG-20010904/DTD/svg10.dtd">
<svg version="1.0" xmlns="http://www.w3.org/2000/svg"
 width="700.000000pt" height="700.000000pt" viewBox="0 0 700.000000 700.000000"
 preserveAspectRatio="xMidYMid meet">
<metadata>
Created by potrace 1.11, written by Peter Selinger 2001-2013
</metadata>
<g transform="translate(0.000000,700.000000) scale(0.100000,-0.100000)"
fill="#000000" stroke="none">
<path d="M3298 6995 c-1 -1 -48 -6 -102 -9 -55 -4 -102 -9 -105 -10 -3 -2 -37
-7 -76 -11 -38 -4 -72 -8 -75 -10 -3 -2 -23 -6 -45 -9 -38 -6 -60 -10 -115
-22 -14 -3 -36 -7 -50 -10 -48 -9 -246 -66 -335 -96 -531 -181 -1001 -478
-1390 -879 -368 -379 -642 -826 -813 -1324 -41 -119 -86 -278 -106 -376 -3
-13 -8 -35 -11 -49 -3 -14 -7 -36 -9 -50 -2 -14 -9 -52 -15 -85 -15 -87 -18
-114 -36 -267 -3 -24 -7 -98 -10 -165 l-6 -123 3501 0 3501 0 -6 118 c-8 171
-14 224 -40 402 -33 219 -111 521 -175 675 -4 11 -25 63 -45 115 -79 199 -212
448 -345 645 -133 197 -240 325 -430 516 -295 296 -583 503 -935 673 -111 53
-135 64 -205 94 -14 5 -41 17 -61 26 -185 81 -587 181 -849 211 -30 4 -68 8
-85 11 -35 5 -522 14 -527 9z"/>
<path d="M3447 2624 c-1 -1 -33 -5 -72 -8 -88 -8 -112 -12 -205 -37 -332 -88
-540 -287 -598 -574 -13 -61 -5 -259 13 -325 19 -74 64 -175 92 -207 11 -12
28 -33 39 -48 31 -42 127 -112 210 -155 102 -52 306 -118 444 -144 102 -19
297 -68 373 -95 192 -67 280 -176 264 -326 -18 -177 -190 -274 -482 -270 -154
2 -253 22 -334 69 -102 58 -154 134 -164 238 -2 21 -6 41 -10 44 -5 5 -374 9
-484 5 -20 -1 -23 -6 -23 -40 0 -62 29 -200 57 -271 80 -201 261 -354 503
-423 199 -57 524 -71 725 -33 17 4 45 9 64 12 50 8 172 50 247 84 127 57 241
154 317 271 101 153 124 393 58 609 -36 115 -115 228 -216 306 -104 81 -345
174 -565 218 -491 98 -633 185 -624 387 5 127 77 211 219 255 87 26 325 29
415 5 73 -20 132 -50 173 -89 38 -36 78 -121 86 -184 l6 -53 256 -3 256 -2 -2
42 c-9 158 -49 284 -126 393 -152 218 -425 338 -792 348 -64 2 -118 2 -120 1z"/>
<path d="M0 1311 l0 -1289 568 3 c312 1 592 6 622 9 128 17 296 68 410 125
341 170 557 496 616 926 10 71 11 357 1 435 -65 543 -398 931 -892 1040 -145
33 -228 37 -772 38 l-553 2 0 -1289z m1148 846 c53 -14 70 -19 122 -39 190
-73 333 -240 398 -464 35 -118 43 -183 43 -344 1 -301 -77 -521 -238 -676 -87
-84 -174 -129 -334 -171 -13 -3 -160 -8 -326 -10 l-302 -5 0 862 -1 862 308
-5 c169 -2 317 -7 330 -10z"/>
<path d="M4700 2593 c0 -3 15 -29 33 -57 19 -28 93 -148 167 -266 73 -118 147
-237 165 -265 18 -27 119 -189 224 -358 l192 -309 -48 -79 c-26 -44 -52 -88
-58 -97 -5 -10 -49 -80 -96 -157 -47 -77 -191 -311 -319 -520 -127 -209 -243
-397 -256 -417 -13 -21 -24 -39 -24 -41 0 -3 128 -5 285 -5 l284 0 77 132
c364 622 509 866 514 866 3 0 10 -10 16 -23 6 -12 86 -150 178 -307 93 -157
178 -303 191 -325 65 -114 187 -321 196 -331 11 -13 569 -16 569 -3 0 7 -128
219 -480 794 -37 61 -124 203 -193 317 l-126 207 154 253 c85 139 159 260 164
268 120 193 441 720 441 724 0 3 -127 4 -283 4 l-284 0 -169 -291 c-93 -160
-172 -298 -177 -306 -4 -9 -16 -29 -26 -46 -11 -16 -29 -48 -41 -70 -41 -74
-131 -225 -135 -225 -3 0 -180 291 -241 397 -41 71 -268 451 -296 495 l-29 46
-284 0 c-157 0 -285 -2 -285 -5z"/>
</g>
</svg>
