<?xml version="1.0" standalone="no"?>
<!DOCTYPE svg PUBLIC "-//W3C//DTD SVG 1.1//EN" "http://www.w3.org/Graphics/SVG/1.1/DTD/svg11.dtd" >
<svg xmlns="http://www.w3.org/2000/svg">
<metadata>
Created by FontPrep 20130207 at Thu Jul 13 15:40:10 2017
 By Louise Stroud
Copyright (c) 2017 by Daniel Hernandez. All rights reserved.
</metadata>
<defs>
<font id="a321d0f09c937f36ba71fc19d90e9573" horiz-adv-x='1024' >
  <font-face 
    font-family="LotaGrotesqueAlt1-Regular"
    font-weight="400"
    font-stretch="normal"
    units-per-em="2048"
    panose-1="0 0 5 0 0 0 0 0 0 0"
    ascent="1638"
    descent="-410"
    x-height="1004"
    cap-height="1405"
    bbox="-1081 -561.178 2712 1835"
    underline-thickness="102"
    underline-position="-102"
    unicode-range="U+0020-FB02"
  />
<missing-glyph horiz-adv-x="831" 
 />
    <glyph glyph-name="fi" unicode="fi" horiz-adv-x="1210" 
d="M975 1454q53 0 89 -36t36 -88t-36 -87t-89 -35t-89 35t-36 87t36 88t89 36zM1061 1004v-1004h-182v852h-486v-852h-180v852h-141v152h141v131q0 151 103 245t262 95q109 0 149 -19l-8 -158q-45 18 -136 18t-141 -50q-50 -51 -49 -131v-131h668z" />
    <glyph glyph-name="fl" unicode="fl" horiz-adv-x="1222" 
d="M893 1454h180v-1454h-180v1454zM213 1135q0 151 103 245t262 95q109 0 149 -19l-8 -158q-45 18 -136 18t-141 -50q-50 -51 -49 -131v-131h320v-152h-320v-852h-180v852h-141v152h141v131z" />
    <glyph glyph-name=".notdef" horiz-adv-x="831" 
 />
    <glyph glyph-name=".null" 
 />
    <glyph glyph-name="nonmarkingreturn" horiz-adv-x="681" 
 />
    <glyph glyph-name="space" unicode=" " horiz-adv-x="471" 
 />
    <glyph glyph-name="exclam" unicode="!" horiz-adv-x="530" 
d="M260 217q57 0 92 -35t35 -90t-35 -89t-92 -34t-92 34t-35 89t35 90t92 35zM362 1454l-20 -1036h-154l-20 1036h194z" />
    <glyph glyph-name="quotedbl" unicode="&#x22;" horiz-adv-x="647" 
d="M393 1114l-8 414h152l-9 -414h-135zM119 1114l-8 414h151l-8 -414h-135z" />
    <glyph glyph-name="numbersign" unicode="#" horiz-adv-x="1294" 
d="M745 590l41 264h-231l-39 -264h229zM1231 854h-289l-41 -264h258v-152h-280l-68 -438h-156l68 438h-231l-66 -438h-156l66 438h-270v152h294l39 264h-264v152h287l61 399h156l-61 -399h231l61 399h156l-61 -399h266v-152z" />
    <glyph glyph-name="dollar" unicode="$" horiz-adv-x="1185" 
d="M1112 367q0 -150 -112.5 -250.5t-303.5 -122.5v-207h-188v205q-211 18 -326.5 124.5t-115.5 286.5h178q0 -121 94 -188.5t258 -67.5t250 57.5t84 162.5q0 80 -46 132t-119 76.5t-161 44t-176 44t-160.5 63.5t-119 118t-46.5 193q0 154 110 253.5t296 119.5v205h188v-203
q188 -23 294 -127t104 -274h-179q0 123 -83.5 184t-233.5 61q-313 0 -313 -215q0 -76 46 -125t118.5 -73.5t160.5 -43t176 -45t161 -67.5t119 -122.5t46 -198.5z" />
    <glyph glyph-name="percent" unicode="%" horiz-adv-x="1718" 
d="M1190 385q0 -238 142 -238t143 238q-1 238 -143 238t-142 -238zM1333 -10q-153 0 -239 103t-86 291t86 292t240 104t238 -103q85 -103 85 -291t-85 -292t-239 -104zM387 782q141 0 141 238t-141 237q-141 1 -141 -237t141 -238zM387 625q-154 0 -240 103q-86 104 -86 292
t86 292t240 103q154 0 240 -103q86 -104 86 -292t-86 -292t-240 -103zM471 0l606 1417h172l-604 -1417h-174z" />
    <glyph glyph-name="ampersand" unicode="&#x26;" horiz-adv-x="1257" 
d="M570 152q144 0 245 77l-381 412q-88 -57 -125 -113t-37 -135q-2 -113 76 -177t222 -64zM580 1262q-86 0 -140 -50t-53 -148q0 -98 96 -216l115 63q158 86 158 197q0 74 -45 114t-131 40zM552 -10q-210 0 -336 110t-126 293q0 117 53 199t185 168q-123 150 -123 310
t105 256q104 95 270 95t262 -85t96 -228q0 -184 -248 -322l-102 -57l332 -371q53 106 53 254h178q0 -219 -117 -381l207 -231h-213l-104 113q-162 -123 -372 -123z" />
    <glyph glyph-name="quotesingle" unicode="'" horiz-adv-x="372" 
d="M119 1114l-8 414h151l-8 -414h-135z" />
    <glyph glyph-name="parenleft" unicode="(" horiz-adv-x="591" 
d="M100 636q0 310 77 550t183 379h179q-88 -117 -170 -355t-82 -573q0 -236 51 -447t100 -312t101 -169h-179q-106 139 -183 378t-77 549z" />
    <glyph glyph-name="parenright" unicode=")" horiz-adv-x="591" 
d="M489 636q-1 -310 -77 -549t-183 -378h-178q51 68 101 169q49 101 100 312t51 447q0 335 -82 573t-170 355h178q106 -139 183 -379t77 -550z" />
    <glyph glyph-name="asterisk" unicode="*" horiz-adv-x="747" 
d="M668 1253l-183 -51l123 -153l-123 -91l-110 170l-113 -170l-123 91l123 155l-182 49l47 146l180 -68l-8 197h152l-11 -197l181 68z" />
    <glyph glyph-name="plus" unicode="+" horiz-adv-x="950" 
d="M881 784v-149h-320v-338h-172v338h-319v149h319v338h172v-338h320z" />
    <glyph glyph-name="comma" unicode="," horiz-adv-x="473" 
d="M104 -195q56 1 104 51t48 111h-10q-8 -2 -17 -2q-57 0 -91 35t-34 91t37 91t94 35t97 -43t41 -137q0 -141 -86 -239t-183 -95v102z" />
    <glyph glyph-name="hyphen" unicode="-" horiz-adv-x="899" 
d="M131 514v135h637v-135h-637z" />
    <glyph glyph-name="period" unicode="." horiz-adv-x="452" 
d="M225 238q57 0 92 -35t35 -90t-35 -89t-92 -34t-92 34t-35 89t35 90t92 35z" />
    <glyph glyph-name="slash" unicode="/" horiz-adv-x="862" 
d="M45 -41l594 1487h180l-590 -1487h-184z" />
    <glyph glyph-name="zero" unicode="0" horiz-adv-x="1263" 
d="M633 150q168 0 256 140t88 412t-89 416t-255 144t-256 -144t-90 -416t89 -412t257 -140zM633 -10q-250 0 -389 184q-140 184 -140 529t140 531t389 187q250 0 388 -186q138 -187 138 -533t-138 -529t-388 -183z" />
    <glyph glyph-name="one" unicode="1" horiz-adv-x="804" 
d="M543 160h223v-160h-674v160h270v981q-92 -57 -270 -58v156q227 0 318 166h133v-1245z" />
    <glyph glyph-name="two" unicode="2" horiz-adv-x="1103" 
d="M274 971h-180q-2 203 131 327t329 123q196 1 320 -109t126 -310q1 -200 -236 -447l-387 -395h657v-160h-925v131l483 494q119 121 173 203t52 182q0 250 -260 252q-127 0 -205 -77t-78 -214z" />
    <glyph glyph-name="three" unicode="3" horiz-adv-x="1153" 
d="M84 397h178q2 -127 87 -187t221 -60t217 60t81 177q-2 252 -325 252h-113v160h92q139 0 226 56q86 56 87 173t-73 175q-74 59 -196 59t-198 -64t-77 -203l-178 -2q-2 199 130 314q131 115 329 115t322 -108t123 -298t-175 -287q207 -100 209 -336q1 -186 -139 -295
q-140 -108 -353 -108t-344 108t-131 299z" />
    <glyph glyph-name="four" unicode="4" horiz-adv-x="1175" 
d="M240 512h499v715h-2l-497 -713v-2zM1102 512v-160h-182v-352h-181v352h-694v160l617 893h258v-893h182z" />
    <glyph glyph-name="five" unicode="5" horiz-adv-x="1130" 
d="M592 909q205 0 331 -122t126 -335q-1 -214 -141 -338t-347 -124t-343 116t-136 312h178q2 -133 87 -201q85 -67 217 -67t217 78t85 224q0 148 -81 223t-219 75t-257 -91l-170 74l49 672h791v-160h-627l-30 -403q123 67 270 67z" />
    <glyph glyph-name="six" unicode="6" horiz-adv-x="1185" 
d="M623 150q125 0 205 78t81 212q0 133 -76 209q-77 76 -219 76t-242 -108q-99 -108 -34 -293q76 -174 285 -174zM629 885q201 0 332 -123t131 -323q0 -201 -132 -325t-337 -124q-246 0 -381 180q-136 180 -136 529t138 533t383 185q195 -1 319 -109t121 -278h-178
q-2 113 -74 170t-182 57q-170 0 -262 -140t-92 -415v-8q57 86 149 138t201 53z" />
    <glyph glyph-name="seven" unicode="7" horiz-adv-x="991" 
d="M752 1245h-717v160h915v-139l-538 -1266h-197l537 1243v2z" />
    <glyph glyph-name="eight" unicode="8" horiz-adv-x="1183" 
d="M279 406q0 -120 87 -188t227 -68t226 68t86 189q0 119 -86 187t-226 68t-227 -68t-87 -188zM592 1262q-115 0 -189 -64t-71 -162q-2 -98 71 -162q74 -63 189 -63q114 0 188 62q74 61 74 161t-74 164t-188 64zM1085 406q0 -201 -139 -309q-139 -107 -354 -107t-354 108
t-140 308q0 233 219 339q-167 105 -167 287t129 286t313 103q184 0 313 -103t129 -285t-168 -288q219 -106 219 -339z" />
    <glyph glyph-name="nine" unicode="9" horiz-adv-x="1185" 
d="M542 682q112 0 194 44q81 44 121 134t-9 223q-76 174 -285 174q-125 -1 -206 -79t-81 -211t77 -209t189 -76zM563 1417q516 0 516 -710q0 -349 -137 -533t-383 -184q-195 0 -319 108t-121 279h178q2 -113 74 -170t182 -57q170 0 262 140t92 415v8q-57 -87 -149 -139
t-201 -52q-201 0 -332 123t-131 323t132 324t337 125z" />
    <glyph glyph-name="colon" unicode=":" horiz-adv-x="520" 
d="M260 238q57 0 92 -35t35 -90t-35 -89t-92 -34t-92 34t-35 89t35 90t92 35zM256 942q57 0 92 -35t35 -90t-35 -89t-92 -34t-92 34t-35 89t35 90t92 35z" />
    <glyph glyph-name="semicolon" unicode=";" horiz-adv-x="548" 
d="M137 -195q55 1 103 51t49 111h-10q-8 -2 -17 -2q-57 0 -91 35t-34 91t37 91t94 35q58 0 98 -43t40 -137q0 -141 -86 -239t-183 -95v102zM285 942q57 0 92 -35t35 -90t-35 -89t-92 -34t-92 34t-35 89t35 90t92 35z" />
    <glyph glyph-name="less" unicode="&#x3c;" horiz-adv-x="1021" 
d="M879 1176v-175l-641 -282l641 -285v-174l-811 369v178z" />
    <glyph glyph-name="equal" unicode="=" horiz-adv-x="1089" 
d="M139 430v150h811v-150h-811zM139 840v149h811v-149h-811z" />
    <glyph glyph-name="greater" unicode="&#x3e;" horiz-adv-x="1021" 
d="M143 1176l811 -369v-178l-811 -369v174l641 285l-641 282v175z" />
    <glyph glyph-name="question" unicode="?" horiz-adv-x="935" 
d="M426 217q55 0 91 -36t36 -89t-36 -88t-93 -35t-91 34t-34 89t36 90t91 35zM476 1464q188 0 292 -98q102 -98 102 -250t-127 -276q-53 -54 -106 -104q-127 -121 -127 -226v-92h-166v98q0 134 122 261q50 53 100 103q122 123 122 223q0 101 -59 151t-161 50t-166 -60
q-64 -62 -66 -185l-179 -2q-1 187 115 297t304 110z" />
    <glyph glyph-name="at" unicode="@" horiz-adv-x="1861" 
d="M887 229q100 0 169 73t68 179v41q0 106 -68 180q-69 74 -169 74q-99 0 -163 -76t-64 -198t63 -198q64 -75 164 -75zM1124 918h181v-611q0 -104 92 -104t148 99t54 267q-2 297 -180 473t-478 176t-495 -197q-194 -197 -194 -519t192 -518t510 -197q316 0 539 168l82 -129
q-115 -90 -291 -141t-352 -50q-371 6 -604 244q-232 237 -236 609t235 627t609 255t595 -224q226 -224 230 -579q2 -219 -98 -363t-262 -155q-98 -4 -171 45t-95 135q-79 -151 -263 -151t-289 118t-105 307t106 307t281 118t259 -129v119z" />
    <glyph glyph-name="A" unicode="A" horiz-adv-x="1296" 
d="M397 516h502l-250 688zM1087 0l-129 356h-620l-129 -356h-182l518 1405h207l518 -1405h-183z" />
    <glyph glyph-name="B" unicode="B" horiz-adv-x="1273" 
d="M739 156q117 0 184 63t67 185t-69 186q-69 63 -194 63h-360v-497h372zM938 1029q0 103 -62 161t-171 57h-338v-446h335q115 0 176 62q60 63 60 166zM743 0h-557v1405h553q177 0 279 -98q102 -97 102 -239t-60 -221t-128 -104v-4q100 -27 170 -117t69 -233
q0 -180 -115 -285q-116 -104 -313 -104z" />
    <glyph glyph-name="C" unicode="C" horiz-adv-x="1409" 
d="M728.5 147q192.5 0 293 95.5t121.5 253.5h184q-27 -236 -176.5 -372t-425 -136t-450.5 191.5t-175 518t177.5 523t448.5 196.5t424 -139t177 -375h-184q-20 162 -120.5 258t-292.5 96t-319.5 -151.5t-127.5 -406.5t126.5 -403.5t319 -148.5z" />
    <glyph glyph-name="D" unicode="D" horiz-adv-x="1458" 
d="M698 158q215 0 346.5 145.5t131.5 399t-131.5 398t-346.5 144.5h-331v-1087h331zM698 1405q297 0 478.5 -187.5t181.5 -515t-181.5 -515t-478.5 -187.5h-512v1405h512z" />
    <glyph glyph-name="E" unicode="E" horiz-adv-x="1232" 
d="M367 160h763v-160h-944v1405h934v-162h-753v-432h688v-162h-688v-489z" />
    <glyph glyph-name="F" unicode="F" horiz-adv-x="1146" 
d="M1090 1251h-723v-483h632v-156h-632v-612h-181v1405h904v-154z" />
    <glyph glyph-name="G" unicode="G" horiz-adv-x="1470" 
d="M756 731h592v-731h-140v244q-143 -256 -473 -256q-287 0 -461 194q-174 192 -174 518t182 522q180 196 458 195.5t428.5 -131.5t172.5 -342h-184q-20 137 -117.5 225t-295.5 88t-329.5 -150.5t-131.5 -404.5t126 -404q125 -150 327 -150.5t325 116.5t137 273v41h-442v153
z" />
    <glyph glyph-name="H" unicode="H" horiz-adv-x="1476" 
d="M1110 1405h180v-1405h-180v647h-743v-647h-181v1405h181v-596h743v596z" />
    <glyph glyph-name="I" unicode="I" horiz-adv-x="552" 
d="M186 0v1405h181v-1405h-181z" />
    <glyph glyph-name="J" unicode="J" horiz-adv-x="1056" 
d="M466 150q106 0 171 72.5t65 211.5v971h181v-959q0 -209 -108.5 -331.5t-311.5 -122.5t-311.5 116.5t-108.5 325.5h180q2 -145 69.5 -214.5t173.5 -69.5z" />
    <glyph glyph-name="K" unicode="K" horiz-adv-x="1314" 
d="M1188 -10q-82 0 -154 50t-149 177l-277 438l-241 -270v-385h-181v1405h181v-791l690 791h225l-543 -604l342 -549q59 -98 148 -98q57 0 82 10l14 -158q-55 -16 -137 -16z" />
    <glyph glyph-name="L" unicode="L" horiz-adv-x="1132" 
d="M367 160h743v-160h-924v1405h181v-1245z" />
    <glyph glyph-name="M" unicode="M" horiz-adv-x="1712" 
d="M1350 0v1247l-414 -1247h-162l-414 1241v-1241h-174l-2 1405h287l383 -1186l383 1186h289l-2 -1405h-174z" />
    <glyph glyph-name="N" unicode="N" horiz-adv-x="1472" 
d="M1106 1405h180v-1405h-184l-735 1124v-1124h-181v1405h185l735 -1122v1122z" />
    <glyph glyph-name="O" unicode="O" horiz-adv-x="1556" 
d="M778 147q213 0 355.5 151t142.5 403.5t-142.5 404t-355.5 151.5t-355 -151.5t-142 -404.5t142 -403.5t355 -150.5zM777 -12q-294 0 -486.5 191.5t-192.5 517t193.5 523t487.5 197.5t486.5 -191.5t192.5 -517t-193.5 -523t-487.5 -197.5z" />
    <glyph glyph-name="P" unicode="P" horiz-adv-x="1232" 
d="M719 739q131 0 202 72q71 73 71 183t-71 182t-202 71h-352v-508h352zM719 1405q203 0 329 -108q126 -107 126 -301t-127 -304t-328 -110h-352v-582h-181v1405h533z" />
    <glyph glyph-name="Q" unicode="Q" horiz-adv-x="1556" 
d="M778 147q213 0 355.5 151t142.5 403.5t-142.5 404t-355.5 151.5t-355 -151.5t-142 -404.5t142 -403.5t355 -150.5zM1458 725.5q0 -309.5 -156.5 -500t-408.5 -229.5q121 -129 328 -129l10 -176q-172 0 -307.5 78.5t-221.5 222.5q-266 25 -435 213t-169 502.5t193.5 512
t487.5 197.5t486.5 -191t192.5 -500.5z" />
    <glyph glyph-name="R" unicode="R" horiz-adv-x="1314" 
d="M367 715h333q133 -1 204 73t71 193t-71 193t-204 73h-333v-532zM1159 -10q-123 0 -193 55t-132 172l-187 348h-280v-565h-181v1405h514q203 0 330 -112t127 -312q0 -156 -80 -257t-219 -138l172 -334q53 -98 148 -98q55 0 82 10l14 -158q-55 -16 -115 -16z" />
    <glyph glyph-name="S" unicode="S" horiz-adv-x="1228" 
d="M305 1042q0 -76 46 -125t119 -73.5t161 -43t176 -45t160.5 -67.5t119 -123t46.5 -198q0 -170 -143.5 -274.5t-384.5 -104.5t-380 108.5t-139 306.5h178q0 -121 94.5 -188.5t258.5 -67.5t249.5 57.5t83.5 162.5q0 80 -46 132t-118.5 76.5t-160.5 44t-176.5 44t-161 63.5
t-118.5 118t-46 193q0 172 137 275.5t364.5 103.5t359.5 -107.5t130 -297.5h-178q0 123 -84 184t-234 61q-313 0 -313 -215z" />
    <glyph glyph-name="T" unicode="T" horiz-adv-x="1150" 
d="M485 0v1243h-460v162h1101v-162h-460v-1243h-181z" />
    <glyph glyph-name="U" unicode="U" horiz-adv-x="1439" 
d="M1087 1405h181v-860q0 -258 -148.5 -407.5t-404.5 -149.5t-400.5 147.5t-144.5 409.5v860h180v-860q0 -197 95.5 -297.5t273.5 -100.5t273 100.5t95 297.5v860z" />
    <glyph glyph-name="V" unicode="V" horiz-adv-x="1271" 
d="M1065 1405h182l-518 -1405h-186l-518 1405h182l430 -1178z" />
    <glyph glyph-name="W" unicode="W" horiz-adv-x="1923" 
d="M1706 1405h182l-411 -1405h-191l-323 1174l-324 -1174h-193l-411 1405h182l324 -1204l327 1204h187l327 -1204z" />
    <glyph glyph-name="X" unicode="X" horiz-adv-x="1222" 
d="M1204 0h-207l-387 608l-389 -608h-201l469 715l-454 688h207l366 -578l367 578h201l-445 -680z" />
    <glyph glyph-name="Y" unicode="Y" horiz-adv-x="1234" 
d="M707 0h-181v569l-501 836h198l395 -670l394 670h198l-503 -838v-567z" />
    <glyph glyph-name="Z" unicode="Z" horiz-adv-x="1196" 
d="M1116 160v-160h-1042v145l821 1098h-801v162h1020l-2 -145l-821 -1100h825z" />
    <glyph glyph-name="bracketleft" unicode="[" horiz-adv-x="653" 
d="M174 -287v1848h424v-156h-250v-1536h250v-156h-424z" />
    <glyph glyph-name="backslash" unicode="\" horiz-adv-x="862" 
d="M817 -41h-184l-590 1487h180z" />
    <glyph glyph-name="bracketright" unicode="]" horiz-adv-x="653" 
d="M479 -287h-424v156h250v1536h-250v156h424v-1848z" />
    <glyph glyph-name="asciicircum" unicode="^" horiz-adv-x="765" 
d="M88 1055l195 430h200l195 -430h-154l-141 291l-141 -291h-154z" />
    <glyph glyph-name="underscore" unicode="_" horiz-adv-x="841" 
d="M0 -238v136h842v-136h-842z" />
    <glyph glyph-name="grave" unicode="`" horiz-adv-x="548" 
d="M248 1157l-187 328h228l106 -328h-147z" />
    <glyph glyph-name="a" unicode="a" horiz-adv-x="1118" 
d="M459 135q139 0 226 77t87 157v69h-221q-285 0 -285 -168q0 -135 193 -135zM951.5 -10q-68.5 0 -118 45t-59.5 119q-104 -164 -352 -164q-166 0 -253 73.5t-87 198.5q0 156 129 231.5t350 75.5h211v66q0 106 -64.5 165.5t-178.5 59.5t-177 -49t-71 -139h-177
q12 162 129 252t310 90t301 -100.5t108 -282.5v-410q0 -31 16.5 -49t42 -18t50.5 10l14 -158q-55 -16 -123.5 -16z" />
    <glyph glyph-name="b" unicode="b" horiz-adv-x="1218" 
d="M330 481q0 -129 82 -233t226 -105t225 101t81 264t-79 257t-223 95t-228 -104t-84 -230v-45zM659 1014q217 0 343 -136t126 -366t-130 -376t-349 -146t-319 164l-4 -154h-176v1454h180v-618q111 178 329 178z" />
    <glyph glyph-name="c" unicode="c" horiz-adv-x="1085" 
d="M543 -10q-209 0 -332 140t-123 367.5t133 372t336 144.5t317.5 -100.5t135.5 -276.5h-193q-16 100 -77.5 161.5t-183.5 61.5t-203 -97t-81 -261t78 -261.5t202 -97.5t186.5 60.5t78.5 156.5h193q-25 -172 -141.5 -271t-325.5 -99z" />
    <glyph glyph-name="d" unicode="d" horiz-adv-x="1216" 
d="M573.5 143q143.5 0 228.5 104.5t85 229.5v45q0 129 -83 233.5t-226.5 104.5t-224.5 -101.5t-81 -263t79 -257t222.5 -95.5zM887 1454h180v-1454h-176l-4 168q-111 -178 -329 -178t-344 136t-126 366t130 376t349 146t320 -164v604z" />
    <glyph glyph-name="e" unicode="e" horiz-adv-x="1112" 
d="M569.5 860q-114.5 0 -191.5 -72.5t-99 -199.5h563q-16 133 -87 202.5t-185.5 69.5zM1024 500v-45h-750q10 -145 89 -228.5t205 -83.5t188.5 50.5t79.5 123.5h182q-31 -147 -143.5 -237t-303.5 -90q-229 0 -356 141t-127 367t134 371t345 145t334 -136t123 -378z" />
    <glyph glyph-name="f" unicode="f" horiz-adv-x="745" 
d="M583 1317q-91 0 -141 -51t-49 -131v-131h320v-152h-320v-852h-180v852h-141v152h141v131q0 151 103 245t262 95q109 0 149 -19l-8 -158q-45 19 -136 19z" />
    <glyph glyph-name="g" unicode="g" horiz-adv-x="1208" 
d="M573.5 143q141.5 0 223.5 104.5t82 233.5v41q0 129 -82 233.5t-222.5 104.5t-221.5 -98t-81 -259t80 -260.5t221.5 -99.5zM1059 1004v-1024q0 -180 -127 -295t-357 -115q-416 0 -452 321h180q16 -90 82 -128.5t202 -38.5t214 71.5t78 184.5v174q-100 -164 -317.5 -164
t-345.5 141t-128 371.5t129 371t345 140.5t319 -168l8 158h170z" />
    <glyph glyph-name="h" unicode="h" horiz-adv-x="1150" 
d="M649 1014q166 0 264.5 -98.5t98.5 -262.5v-653h-183v614q0 115 -59 180.5t-175 65.5t-189.5 -73.5t-73.5 -202.5v-584h-182v1454h178v-598q108 158 321 158z" />
    <glyph glyph-name="i" unicode="i" horiz-adv-x="481" 
d="M150 0v1004h182v-1004h-182zM371 1330q0 -52 -36 -87t-89 -35t-89 35t-36 87t36 88t89 36t89 -36t36 -88z" />
    <glyph glyph-name="j" unicode="j" horiz-adv-x="495" 
d="M12 -420q-94 0 -149 25l14 159q49 -20 96 -20q90 0 142 53q51 53 51 150v1057h180v-1063q0 -169 -91 -265t-243 -96zM385 1330q0 -52 -37 -87t-90 -35t-88 35t-35 88t35 88t88 35t90 -36t37 -88z" />
    <glyph glyph-name="k" unicode="k" horiz-adv-x="1026" 
d="M330 0h-180v1454h180v-928l432 478h227l-393 -431l432 -573h-211l-338 449l-149 -164v-285z" />
    <glyph glyph-name="l" unicode="l" horiz-adv-x="512" 
d="M318.5 -10q-72.5 0 -124 54t-51.5 142v1268h181v-1233q0 -31 17 -49t40.5 -18t50.5 10l14 -158q-55 -16 -127.5 -16z" />
    <glyph glyph-name="m" unicode="m" horiz-adv-x="1800" 
d="M1300 1014q168 0 264 -102t97 -273v-639h-182v602q-1 125 -61 192q-60 66 -172 66t-182 -74t-69 -202v-584h-182v602q0 125 -60 192q-60 66 -172 66t-182 -74t-69 -202v-584h-180v1004h169l9 -146q106 156 307 156q246 0 330 -205q43 93 129 149t206 56z" />
    <glyph glyph-name="n" unicode="n" horiz-adv-x="1150" 
d="M829 596q0 264 -234 264q-118 0 -191.5 -74.5t-73.5 -201.5v-584h-180v1004h169l9 -150q110 160 321 160q168 0 265.5 -99.5t97.5 -281.5v-633h-183v596z" />
    <glyph glyph-name="o" unicode="o" horiz-adv-x="1169" 
d="M585 860q-140 0 -226.5 -101.5t-86.5 -260t86 -257t226.5 -98.5t226.5 97.5t86 258.5t-86 261t-226 100zM586 1014q223 0 359 -140.5t136 -370t-136 -371.5t-360 -142t-360.5 137t-136.5 365.5t137.5 375t360.5 146.5z" />
    <glyph glyph-name="p" unicode="p" horiz-adv-x="1218" 
d="M330 481q0 -129 82 -233t226 -105t225 101t81 264t-79 257t-223 95t-228 -104t-84 -230v-45zM659 1014q217 0 343 -136t126 -366t-130 -376t-349 -146t-319 164v-564h-180v1414h176l4 -168q111 178 329 178z" />
    <glyph glyph-name="q" unicode="q" horiz-adv-x="1216" 
d="M272 496q0 -162 79 -258t223 -95t228 105q85 104 85 229v45q0 130 -83 234q-82 104 -226 104t-225 -101t-81 -263zM1067 1004v-1414h-180v576q-111 -176 -329 -176t-344 136t-126 366t130 376t349 146t320 -164l4 154h176z" />
    <glyph glyph-name="r" unicode="r" horiz-adv-x="684" 
d="M588 1014q20 0 57 -6l-2 -179q-16 8 -68 9q-102 0 -173.5 -82t-71.5 -228v-528h-180v1004h169l5 -162q86 172 264 172z" />
    <glyph glyph-name="s" unicode="s" horiz-adv-x="966" 
d="M285 731q0 -105 210 -145q87 -16 175 -42t149.5 -92.5t61.5 -186.5t-105.5 -197.5t-296.5 -77.5q-393 0 -399 305l166 -2q8 -76 62 -113t173 -37q221 0 221 129q0 63 -61 98.5t-148 53.5t-175.5 43t-150 90.5t-61.5 183t102.5 195.5t283 78t274.5 -79t100 -226l-168 2
q-12 150 -212.5 149.5t-200.5 -129.5z" />
    <glyph glyph-name="t" unicode="t" horiz-adv-x="890" 
d="M686 330h164q0 -160 -84 -249t-237 -89t-243 88t-89 250v518h-152v156h162v299h172v-299h364v-152h-364v-522q0 -96 36 -140t113 -45q158 1 158 185z" />
    <glyph glyph-name="u" unicode="u" horiz-adv-x="1169" 
d="M981 -10q-68 0 -117 42t-59 113q-111 -156 -307 -155q-158 0 -258.5 99t-100.5 261v654h183v-629q0 -111 55 -171.5t165.5 -60.5t184.5 74t74 203v584h180v-783q0 -31 17.5 -49t42 -18t49.5 10l14 -158q-55 -16 -123 -16z" />
    <glyph glyph-name="v" unicode="v" horiz-adv-x="1038" 
d="M819 1004h185l-386 -1004h-196l-391 1004h202l259 -713q16 -45 32 -107h4q10 51 29 107z" />
    <glyph glyph-name="w" unicode="w" horiz-adv-x="1556" 
d="M1315 1004h203l-308 -1004h-213l-202 705q-10 39 -15 69h-4q-4 -31 -14 -69l-203 -705h-213l-307 1004h203l186 -713q6 -25 17.5 -61.5t13.5 -45.5h4q2 8 13 45t18 62l192 713h184l193 -713q6 -25 17.5 -61.5t13.5 -45.5h4q11 32 30 107z" />
    <glyph glyph-name="x" unicode="x" horiz-adv-x="968" 
d="M940 0h-211l-246 387l-245 -387h-203l342 510l-350 494h213l243 -367l244 367h205l-340 -488z" />
    <glyph glyph-name="y" unicode="y" horiz-adv-x="1032" 
d="M240.5 -420q-111.5 0 -166.5 25l14 159q49 -20 112.5 -20t116 31.5t91.5 128.5l24 57l-395 1043h203l254 -713q16 -45 32 -107h4q10 51 29 107l258 713h184l-423 -1117q-66 -172 -146 -239.5t-191.5 -67.5z" />
    <glyph glyph-name="z" unicode="z" horiz-adv-x="942" 
d="M866 152v-152h-788v147l553 705h-539v152h758v-146l-551 -706h567z" />
    <glyph glyph-name="braceleft" unicode="{" horiz-adv-x="657" 
d="M70 721h20q51 0 90 35t39 106v389q0 147 84 231t227 83h62v-160h-62q-135 0 -135 -154v-415q0 -82 -31 -136q-32 -53 -77 -63q45 -9 77 -63t31 -136v-415q0 -154 135 -154h62v-160h-62q-143 0 -227 83t-84 231v389q0 72 -39 106t-90 35h-20v168z" />
    <glyph glyph-name="bar" unicode="|" horiz-adv-x="524" 
d="M174 -348v1802h176v-1802h-176z" />
    <glyph glyph-name="braceright" unicode="}" horiz-adv-x="657" 
d="M588 721v-168h-21q-51 0 -90 -35t-39 -106v-389q0 -147 -84 -231t-227 -83h-61v160h61q135 0 135 154v415q0 82 32 135t77 64q-45 10 -77 63t-32 136v415q0 154 -135 154h-61v160h61q143 0 227 -83t84 -231v-389q0 -72 39 -106t90 -35h21z" />
    <glyph glyph-name="asciitilde" unicode="~" horiz-adv-x="1116" 
d="M397 684q-51 0 -85 -25t-33 -63h-136q0 229 246 229q87 0 193 -47t156 -47t84 24t34 62h133q1 -109 -65 -169t-164 -60t-206 48q-107 48 -157 48z" />
    <glyph glyph-name="exclamdown" unicode="&#xa1;" horiz-adv-x="503" 
d="M350 -408h-194l20 977h154zM248 772q-57 0 -92 34t-35 89t35 89t92 34t92 -34t35 -89t-35 -89t-92 -34z" />
    <glyph glyph-name="cent" unicode="&#xa2;" horiz-adv-x="1091" 
d="M276 677q0 -163 81 -261t204 -99q223 0 260 218h193q-20 -150 -108 -245t-240 -120v-190h-189v192q-174 33 -279 171q-106 138 -106 335t104 334t281 168v192h189v-192q150 -23 240 -120t108 -249h-193q-15 99 -77 161t-184 62t-203 -97t-81 -260z" />
    <glyph glyph-name="sterling" unicode="&#xa3;" horiz-adv-x="1208" 
d="M680 1262q-248 0 -248 -289q0 -109 14 -242h486v-158h-465q14 -115 14 -180q0 -137 -61 -233h694v-160h-1020v152q117 0 161 46t44 148t-16 227h-185v158h166q-14 139 -14 242q0 211 115 330t317 119t318 -116t114 -313h-178q-2 131 -68 200t-188 69z" />
    <glyph glyph-name="currency" unicode="&#xa4;" horiz-adv-x="1206" 
d="M602 901q-108 0 -174 -71q-66 -70 -66 -178t66 -177t174 -69q110 0 174 70t64 176q0 107 -65 178t-173 71zM1014 652q0 -130 -64 -234l146 -144l-123 -122l-144 143q-96 -63 -227 -63t-229 63l-142 -143l-122 122l145 144q-64 104 -64 234t62 237l-146 145l123 123
l144 -145q98 63 228 63t230 -61l144 143l121 -125l-144 -143q62 -107 62 -237z" />
    <glyph glyph-name="yen" unicode="&#xa5;" horiz-adv-x="1277" 
d="M1016 733v-158h-283l-6 -8v-139h289v-158h-289v-270h-180v270h-287v158h287v141l-4 6h-283v158h189l-404 672h199l395 -670l393 670h199l-404 -672h189z" />
    <glyph glyph-name="brokenbar" unicode="&#xa6;" horiz-adv-x="536" 
d="M180 -348v737h176v-737h-176zM180 717v737h176v-737h-176z" />
    <glyph glyph-name="section" unicode="&#xa7;" horiz-adv-x="1095" 
d="M815 516q0 70 -41 114q-41 42 -91 59t-100 30t-58 15q-7 1 -13 3q-100 -12 -158 -74q-57 -63 -56 -136t50 -115q49 -43 234 -84q113 8 173 63t60 125zM952 -35q0 -152 -114 -243t-319 -91q-203 -1 -317 95t-114 266l166 -2q0 -94 71 -150t193 -55q122 0 190 49
q66 49 66 126t-48 122t-121 63q-184 45 -315 100q-73 29 -121 101t-48 178q0 197 178 293q-137 88 -137 268q0 150 110 240q111 90 297 90t297 -95t109 -259h-166q0 96 -65 148q-65 53 -171 53t-171 -50q-66 -50 -64 -129q3 -140 233 -191q95 -22 191 -50t164 -107
q68 -78 67 -209q0 -194 -182 -282q141 -88 141 -279z" />
    <glyph glyph-name="dieresis" unicode="&#xa8;" horiz-adv-x="722" 
d="M551 1442q51 0 82 -31t31 -79t-31 -79t-82 -31t-82 32q-31 30 -31 78t31 79t82 31zM174 1442q51 0 82 -31t31 -79t-31 -79t-82 -31t-82 32q-31 30 -31 78t31 79t82 31z" />
    <glyph glyph-name="copyright" unicode="&#xa9;" horiz-adv-x="1613" 
d="M821 993q-109 0 -175 -78t-64 -213q0 -136 65 -214t163 -78t149 48q52 48 65 130h172q-16 -146 -116 -234t-271 -88q-172 0 -287 123q-114 123 -114 315t114 312q115 121 288 121t272 -89t114 -237h-172q-31 182 -203 182zM806 1272q-244 0 -398 -162
q-156 -162 -157 -408t155 -408t400 -161q244 0 400 162q156 161 157 407t-156 408t-401 162zM806 -12q-314 0 -512 200t-197 513q1 312 199 514t511 202t512 -202t198 -514q-1 -313 -199 -513t-512 -200z" />
    <glyph glyph-name="ordfeminine" unicode="&#xaa;" horiz-adv-x="907" 
d="M399 788q92 0 147.5 45.5t55.5 98.5v49h-82q-246 0 -246 -109q0 -84 125 -84zM453.5 1417q148.5 0 236.5 -78.5t88 -212.5v-469h-172l-2 105q-80 -113 -250 -113q-123 0 -190.5 55.5t-67.5 149.5q0 236 428 236h78v38q0 70 -42 109t-114 39q-142 0 -159 -121h-170
q12 123 100 192.5t236.5 69.5z" />
    <glyph glyph-name="guillemotleft" unicode="&#xab;" horiz-adv-x="1024" 
d="M449 481v25l268 303h192l-268 -315l270 -318h-194zM66 481v25l268 303h192l-268 -315l270 -318h-194z" />
    <glyph glyph-name="registered" unicode="&#xae;" horiz-adv-x="1077" 
d="M471 987h84q66 -1 66 61t-66 62h-84v-123zM754 1053q0 -92 -82 -138q16 -23 41 -85t49 -99h-133q-9 21 -27 67t-32 68t-35 23h-64v-158h-131v481h215q199 1 199 -159zM538 623q146 0 241 98t95 247q0 148 -95 246t-241 98t-242 -98q-96 -100 -95 -247q0 -147 95 -246
q96 -98 242 -98zM90 967q0 195 125 323t323 127q198 0 322 -127q124 -128 125 -324q0 -196 -125 -323q-126 -127 -324 -127t-322 128t-124 323z" />
    <glyph glyph-name="macron" unicode="&#xaf;" horiz-adv-x="776" 
d="M106 1262v135h564v-135h-564z" />
    <glyph glyph-name="degree" unicode="&#xb0;" horiz-adv-x="702" 
d="M494 1198q0 66 -41 105t-101 39t-101 -40q-40 -38 -40 -104t40 -104t100 -39q59 1 101 39t42 104zM618 1198q0 -122 -76 -194t-191 -72t-191 73t-76 193t76 194q76 72 192 72t191 -72q75 -73 75 -194z" />
    <glyph glyph-name="plusminus" unicode="&#xb1;" horiz-adv-x="1064" 
d="M127 143v150h811v-150h-811zM618 887h320v-150h-320v-338h-172v338h-319v150h319v338h172v-338z" />
    <glyph glyph-name="acute" unicode="&#xb4;" horiz-adv-x="548" 
d="M240 1157h-148l107 328h227z" />
    <glyph glyph-name="paragraph" unicode="&#xb6;" horiz-adv-x="1257" 
d="M883 -307v1552h-150v-1552h-174v915h-80q-190 0 -308 111t-118 286t118 287t308 113h580v-1712h-176z" />
    <glyph glyph-name="periodcentered" unicode="&#xb7;" horiz-adv-x="473" 
d="M236 885q57 0 92 -35q34 -35 34 -90t-34 -89t-92 -34q-57 0 -93 34q-35 34 -34 89q0 55 34 90q36 35 93 35z" />
    <glyph glyph-name="cedilla" unicode="&#xb8;" horiz-adv-x="548" 
d="M248 -297q98 0 98 55q0 63 -166 64l45 209h113l-25 -113q70 -4 117 -41t47 -118t-61 -131q-60 -50 -152 -50t-151 23l28 120q49 -18 107 -18z" />
    <glyph glyph-name="ordmasculine" unicode="&#xba;" horiz-adv-x="929" 
d="M466 1268q-89 0 -143 -66q-55 -66 -55 -170t54 -169t144 -65q89 0 143 64q55 62 55 168t-54 172t-144 66zM466 1417q171 1 275 -107q105 -108 105 -279t-104 -276t-276 -105q-170 0 -276 104q-106 106 -106 277t105 279q106 107 277 107z" />
    <glyph glyph-name="guillemotright" unicode="&#xbb;" horiz-adv-x="1024" 
d="M958 481l-268 -305h-194l270 318l-268 315h192l268 -303v-25zM575 481l-268 -305h-194l270 318l-268 315h192l268 -303v-25z" />
    <glyph glyph-name="onequarter" unicode="&#xbc;" horiz-adv-x="1527" 
d="M971 287h235v336h-4l-231 -334v-2zM1468 287v-131h-98v-156h-164v156h-387v143l324 473h227v-485h98zM535 760v-129h-447v129h148v430h-144v108q96 0 138 22t65 83h100v-643h140zM981 1417h172l-604 -1417h-174z" />
    <glyph glyph-name="onehalf" unicode="&#xbd;" horiz-adv-x="1523" 
d="M1460 131v-131h-569v98l295 287q84 85 84 143q0 118 -103 117q-57 0 -88 -38t-30 -97l-162 -2q0 129 80 202q79 72 201 72t194 -66t72 -162t-34 -154t-116 -136l-139 -133h315zM532 760v-129h-446v129h147v430h-143v108q96 0 138 22t65 83h100v-643h139zM969 1417h172
l-604 -1417h-175z" />
    <glyph glyph-name="threequarters" unicode="&#xbe;" horiz-adv-x="1611" 
d="M1055 287h235v336h-4l-231 -334v-2zM1552 287v-131h-98v-156h-164v156h-387v143l324 473h227v-485h98zM1065 1417h172l-604 -1417h-174zM233 891q-1 -119 127 -119t127 100q-2 100 -125 101h-73v121h69q117 0 121 88q1 44 -29 70t-85 26q-117 0 -117 -119h-168
q0 123 77 193t203 70t207 -63q80 -63 80 -165t-72 -154q89 -50 90 -162t-86 -180t-219 -68t-213 70q-82 68 -81 191h167z" />
    <glyph glyph-name="questiondown" unicode="&#xbf;" horiz-adv-x="923" 
d="M452 -428q-189 0 -291 99q-101 99 -102 255q0 146 127 262q52 48 106 96q128 113 128 220v71h166v-77q0 -137 -122 -254q-50 -50 -100 -96q-122 -113 -122 -214q0 -102 59 -152t161 -50t166 60t66 185l178 3q0 -188 -116 -298t-304 -110zM504 776q-55 0 -91 36t-36 89
t36 88t93 35t91 -34t34 -89t-36 -90t-91 -35z" />
    <glyph glyph-name="Agrave" unicode="&#xc0;" horiz-adv-x="1296" 
d="M397 516h502l-250 688zM1087 0l-129 356h-620l-129 -356h-182l518 1405h207l518 -1405h-183zM723 1491h-170l-182 264h262z" />
    <glyph glyph-name="Aacute" unicode="&#xc1;" horiz-adv-x="1296" 
d="M397 516h502l-250 688zM1087 0l-129 356h-620l-129 -356h-182l518 1405h207l518 -1405h-183zM938 1755l-186 -264h-170l86 264h270z" />
    <glyph glyph-name="Acircumflex" unicode="&#xc2;" horiz-adv-x="1296" 
d="M397 516h502l-250 688zM1087 0l-129 356h-620l-129 -356h-182l518 1405h207l518 -1405h-183zM649 1636l-141 -145h-150l174 264h236l172 -264h-149z" />
    <glyph glyph-name="Atilde" unicode="&#xc3;" horiz-adv-x="1296" 
d="M397 516h502l-250 688zM1087 0l-129 356h-620l-129 -356h-182l518 1405h207l518 -1405h-183zM530 1612q-76 0 -75 -88h-136q0 231 195 231q82 0 151.5 -48t104.5 -48q76 0 76 88h133q0 -111 -51 -171q-52 -60 -136 -60t-154.5 48t-107.5 48z" />
    <glyph glyph-name="Adieresis" unicode="&#xc4;" horiz-adv-x="1296" 
d="M397 516h502l-250 688zM1087 0l-129 356h-620l-129 -356h-182l518 1405h207l518 -1405h-183zM837.5 1520q-51.5 0 -82 30.5t-30.5 78.5t30.5 79t82 31t82 -31t30.5 -79t-30.5 -78.5t-82 -30.5zM461 1520q-51 0 -82 30.5t-31 78.5t31 79t82 31t81.5 -31t30.5 -79
t-30.5 -78.5t-81.5 -30.5z" />
    <glyph glyph-name="Aring" unicode="&#xc5;" horiz-adv-x="1296" 
d="M397 516h502l-250 688zM1087 0l-129 356h-620l-129 -356h-182l518 1405h207l518 -1405h-183zM649 1718q-35 0 -55 -20t-20.5 -52t20 -53.5t55.5 -21.5t56.5 21.5t21.5 53.5t-21.5 52t-56.5 20zM649 1458q-82 0 -139 51.5t-57 136.5t57 137t139 52t139.5 -52t57.5 -137
t-57.5 -136.5t-139.5 -51.5z" />
    <glyph glyph-name="AE" unicode="&#xc6;" horiz-adv-x="2037" 
d="M989 516v719h-2l-473 -719h475zM1169 160h766v-160h-946v356h-579l-234 -356h-194l899 1405h1042v-162h-754v-432h689v-162h-689v-489z" />
    <glyph glyph-name="Ccedilla" unicode="&#xc7;" horiz-adv-x="1409" 
d="M728.5 147q192.5 0 293 95.5t121.5 253.5h184q-27 -225 -167 -361.5t-394 -146.5l-14 -70q70 -4 116.5 -41t46.5 -118t-61 -131t-152.5 -50t-150.5 23l29 120q49 -18 106 -18q98 0 98 55q0 63 -166 64l37 170q-252 27 -403.5 215t-151.5 502.5t177.5 511t448.5 196.5
t424 -139t177 -375h-184q-20 162 -120.5 258t-292.5 96t-319.5 -151.5t-127.5 -406.5t126.5 -403.5t319 -148.5z" />
    <glyph glyph-name="Egrave" unicode="&#xc8;" horiz-adv-x="1232" 
d="M367 160h763v-160h-944v1405h934v-162h-753v-432h688v-162h-688v-489zM729 1491h-170l-182 264h262z" />
    <glyph glyph-name="Eacute" unicode="&#xc9;" horiz-adv-x="1232" 
d="M367 160h763v-160h-944v1405h934v-162h-753v-432h688v-162h-688v-489zM944 1755l-186 -264h-170l86 264h270z" />
    <glyph glyph-name="Ecircumflex" unicode="&#xca;" horiz-adv-x="1232" 
d="M367 160h763v-160h-944v1405h934v-162h-753v-432h688v-162h-688v-489zM655 1636l-141 -145h-149l174 264h235l172 -264h-149z" />
    <glyph glyph-name="Edieresis" unicode="&#xcb;" horiz-adv-x="1232" 
d="M367 160h763v-160h-944v1405h934v-162h-753v-432h688v-162h-688v-489zM844 1520q-51 0 -82 30.5t-31 78.5t31 79t82 31t81.5 -31t30.5 -79t-30.5 -78.5t-81.5 -30.5zM467 1520q-51 0 -82 30.5t-31 78.5t31 79t82 31t82 -31t31 -79t-31 -78.5t-82 -30.5z" />
    <glyph glyph-name="Igrave" unicode="&#xcc;" horiz-adv-x="552" 
d="M186 0v1405h181v-1405h-181zM180 1491l-182 264h262l90 -264h-170z" />
    <glyph glyph-name="Iacute" unicode="&#xcd;" horiz-adv-x="552" 
d="M186 0v1405h181v-1405h-181zM381 1491h-170l86 264h270z" />
    <glyph glyph-name="Icircumflex" unicode="&#xce;" horiz-adv-x="552" 
d="M186 0v1405h181v-1405h-181zM395 1755l172 -264h-149l-142 145l-141 -145h-149l174 264h235z" />
    <glyph glyph-name="Idieresis" unicode="&#xcf;" horiz-adv-x="552" 
d="M186 0v1405h181v-1405h-181zM467 1739q51 0 82 -31t31 -79t-31 -78.5t-82 -30.5t-82 30.5t-31 78.5t31 79t82 31zM90 1739q51 0 82 -31t31 -79t-31 -78.5t-82 -30.5t-82 30.5t-31 78.5t31 79t82 31z" />
    <glyph glyph-name="Eth" unicode="&#xd0;" horiz-adv-x="1490" 
d="M731 158q215 0 346 145.5t131 399t-131 398t-346 144.5h-332v-473h361v-151h-361v-463h332zM731 1405q297 0 478.5 -187.5t181.5 -515t-181.5 -515t-478.5 -187.5h-512v621h-184v151h184v633h512z" />
    <glyph glyph-name="Ntilde" unicode="&#xd1;" horiz-adv-x="1472" 
d="M1106 1405h180v-1405h-184l-735 1124v-1124h-181v1405h185l735 -1122v1122zM618 1612q-76 0 -75 -88h-135q0 231 194 231q82 0 151.5 -48t104.5 -48q76 0 76 88h133q0 -111 -51 -171q-52 -60 -136 -60t-154.5 48t-107.5 48z" />
    <glyph glyph-name="Ograve" unicode="&#xd2;" horiz-adv-x="1556" 
d="M778 147q213 0 355.5 151t142.5 403.5t-142.5 404t-355.5 151.5t-355 -151.5t-142 -404.5t142 -403.5t355 -150.5zM777 -12q-294 0 -486.5 191.5t-192.5 517t193.5 523t487.5 197.5t486.5 -191.5t192.5 -517t-193.5 -523t-487.5 -197.5zM682 1491l-182 264h262l90 -264
h-170z" />
    <glyph glyph-name="Oacute" unicode="&#xd3;" horiz-adv-x="1556" 
d="M778 147q213 0 355.5 151t142.5 403.5t-142.5 404t-355.5 151.5t-355 -151.5t-142 -404.5t142 -403.5t355 -150.5zM777 -12q-294 0 -486.5 191.5t-192.5 517t193.5 523t487.5 197.5t486.5 -191.5t192.5 -517t-193.5 -523t-487.5 -197.5zM881 1491h-170l86 264h270z" />
    <glyph glyph-name="Ocircumflex" unicode="&#xd4;" horiz-adv-x="1556" 
d="M778 147q213 0 355.5 151t142.5 403.5t-142.5 404t-355.5 151.5t-355 -151.5t-142 -404.5t142 -403.5t355 -150.5zM777 -12q-294 0 -486.5 191.5t-192.5 517t193.5 523t487.5 197.5t486.5 -191.5t192.5 -517t-193.5 -523t-487.5 -197.5zM897 1755l172 -264h-149l-142 145
l-141 -145h-150l175 264h235z" />
    <glyph glyph-name="Otilde" unicode="&#xd5;" horiz-adv-x="1556" 
d="M778 147q213 0 355.5 151t142.5 403.5t-142.5 404t-355.5 151.5t-355 -151.5t-142 -404.5t142 -403.5t355 -150.5zM777 -12q-294 0 -486.5 191.5t-192.5 517t193.5 523t487.5 197.5t486.5 -191.5t192.5 -517t-193.5 -523t-487.5 -197.5zM659 1612q-76 0 -75 -88h-135
q0 231 194 231q82 0 151.5 -48t104.5 -48q76 0 76 88h133q0 -111 -51 -171t-135.5 -60t-155 48t-107.5 48z" />
    <glyph glyph-name="Odieresis" unicode="&#xd6;" horiz-adv-x="1556" 
d="M778 147q213 0 355.5 151t142.5 403.5t-142.5 404t-355.5 151.5t-355 -151.5t-142 -404.5t142 -403.5t355 -150.5zM777 -12q-294 0 -486.5 191.5t-192.5 517t193.5 523t487.5 197.5t486.5 -191.5t192.5 -517t-193.5 -523t-487.5 -197.5zM966.5 1739q51.5 0 82 -31
t30.5 -79t-30.5 -78.5t-82 -30.5t-82 30.5t-30.5 78.5t30.5 79t82 31zM590 1739q51 0 81.5 -31t30.5 -79t-30.5 -78.5t-81.5 -30.5t-82 30.5t-31 78.5t31 79t82 31z" />
    <glyph glyph-name="multiply" unicode="&#xd7;" horiz-adv-x="944" 
d="M840 973l-262 -262l262 -265l-105 -104l-262 264l-264 -264l-105 104l265 265l-265 262l105 104l264 -262l262 262z" />
    <glyph glyph-name="Oslash" unicode="&#xd8;" horiz-adv-x="1556" 
d="M778 147q213 0 355.5 151t142.5 403.5t-146 408.5l-569 -913q98 -50 217 -50zM281 699q0 -255 151 -410l572 915q-102 53 -226 53q-213 0 -355 -151.5t-142 -406.5zM1458 723q0 -340 -193.5 -537.5t-486.5 -197.5q-168 0 -305 65l-92 -147h-188l145 231
q-240 197 -240 559q0 326 193.5 523.5t486.5 197.5q168 0 314 -67l73 116h187l-127 -202q233 -201 233 -541z" />
    <glyph glyph-name="Ugrave" unicode="&#xd9;" horiz-adv-x="1439" 
d="M1087 1405h181v-860q0 -258 -148.5 -407.5t-404.5 -149.5t-400.5 147.5t-144.5 409.5v860h180v-860q0 -197 95.5 -297.5t273.5 -100.5t273 100.5t95 297.5v860zM623 1491l-183 264h262l91 -264h-170z" />
    <glyph glyph-name="Uacute" unicode="&#xda;" horiz-adv-x="1439" 
d="M1087 1405h181v-860q0 -258 -148.5 -407.5t-404.5 -149.5t-400.5 147.5t-144.5 409.5v860h180v-860q0 -197 95.5 -297.5t273.5 -100.5t273 100.5t95 297.5v860zM821 1491h-170l86 264h271z" />
    <glyph glyph-name="Ucircumflex" unicode="&#xdb;" horiz-adv-x="1439" 
d="M1087 1405h181v-860q0 -258 -148.5 -407.5t-404.5 -149.5t-400.5 147.5t-144.5 409.5v860h180v-860q0 -197 95.5 -297.5t273.5 -100.5t273 100.5t95 297.5v860zM838 1755l172 -264h-150l-141 145l-141 -145h-150l174 264h236z" />
    <glyph glyph-name="Udieresis" unicode="&#xdc;" horiz-adv-x="1439" 
d="M1087 1405h181v-860q0 -258 -148.5 -407.5t-404.5 -149.5t-400.5 147.5t-144.5 409.5v860h180v-860q0 -197 95.5 -297.5t273.5 -100.5t273 100.5t95 297.5v860zM907 1739q51 0 82 -31t31 -79t-31 -78.5t-82 -30.5t-81.5 30.5t-30.5 78.5t30.5 79t81.5 31zM530.5 1739
q51.5 0 82 -31t30.5 -79t-30.5 -78.5t-82 -30.5t-82 30.5t-30.5 78.5t30.5 79t82 31z" />
    <glyph glyph-name="Yacute" unicode="&#xdd;" horiz-adv-x="1234" 
d="M707 0h-181v569l-501 836h198l395 -670l394 670h198l-503 -838v-567zM905 1755l-186 -264h-170l86 264h270z" />
    <glyph glyph-name="Thorn" unicode="&#xde;" horiz-adv-x="1259" 
d="M719 459q129 -1 201 71t72 182t-72 182q-70 72 -201 71h-352v-506h352zM719 1122q203 0 329 -110t126 -302t-126 -300t-329 -109h-352v-301h-181v1405h181v-283h352z" />
    <glyph glyph-name="germandbls" unicode="&#xdf;" horiz-adv-x="1128" 
d="M1042 408q0 -188 -122 -298t-349 -110h-114v154h114q139 0 213 68t74 187t-75 193t-212 74h-67v133h6q143 0 207 80q63 80 63 189t-53 176t-168 67t-172 -65t-57 -162v-1094h-180v1094q0 170 111 275t305 105t296 -107q102 -108 103 -271q-1 -232 -181 -336
q258 -76 258 -352z" />
    <glyph glyph-name="agrave" unicode="&#xe0;" horiz-adv-x="1118" 
d="M459 135q139 0 226 77t87 157v69h-221q-285 0 -285 -168q0 -135 193 -135zM951.5 -10q-68.5 0 -118 45t-59.5 119q-104 -164 -352 -164q-166 0 -253 73.5t-87 198.5q0 156 129 231.5t350 75.5h211v66q0 106 -64.5 165.5t-178.5 59.5t-177 -49t-71 -139h-177
q12 162 129 252t310 90t301 -100.5t108 -282.5v-410q0 -31 16.5 -49t42 -18t50.5 10l14 -158q-55 -16 -123.5 -16zM643 1157h-147l-187 328h228z" />
    <glyph glyph-name="aacute" unicode="&#xe1;" horiz-adv-x="1118" 
d="M459 135q139 0 226 77t87 157v69h-221q-285 0 -285 -168q0 -135 193 -135zM951.5 -10q-68.5 0 -118 45t-59.5 119q-104 -164 -352 -164q-166 0 -253 73.5t-87 198.5q0 156 129 231.5t350 75.5h211v66q0 106 -64.5 165.5t-178.5 59.5t-177 -49t-71 -139h-177
q12 162 129 252t310 90t301 -100.5t108 -282.5v-410q0 -31 16.5 -49t42 -18t50.5 10l14 -158q-55 -16 -123.5 -16zM793 1485l-187 -328h-147l106 328h228z" />
    <glyph glyph-name="acircumflex" unicode="&#xe2;" horiz-adv-x="1118" 
d="M459 135q139 0 226 77t87 157v69h-221q-285 0 -285 -168q0 -135 193 -135zM951.5 -10q-68.5 0 -118 45t-59.5 119q-104 -164 -352 -164q-166 0 -253 73.5t-87 198.5q0 156 129 231.5t350 75.5h211v66q0 106 -64.5 165.5t-178.5 59.5t-177 -49t-71 -139h-177
q12 162 129 252t310 90t301 -100.5t108 -282.5v-410q0 -31 16.5 -49t42 -18t50.5 10l14 -158q-55 -16 -123.5 -16zM551 1346l-141 -189h-154l195 328h200l195 -328h-154z" />
    <glyph glyph-name="atilde" unicode="&#xe3;" horiz-adv-x="1118" 
d="M459 135q139 0 226 77t87 157v69h-221q-285 0 -285 -168q0 -135 193 -135zM951.5 -10q-68.5 0 -118 45t-59.5 119q-104 -164 -352 -164q-166 0 -253 73.5t-87 198.5q0 156 129 231.5t350 75.5h211v66q0 106 -64.5 165.5t-178.5 59.5t-177 -49t-71 -139h-177
q12 162 129 252t310 90t301 -100.5t108 -282.5v-410q0 -31 16.5 -49t42 -18t50.5 10l14 -158q-55 -16 -123.5 -16zM412 1294q-76 0 -76 -88h-135q0 231 194 232q82 0 152.5 -48.5t105.5 -48.5q76 0 76 89h133q0 -111 -51 -171.5t-136 -60.5t-155.5 48t-107.5 48z" />
    <glyph glyph-name="adieresis" unicode="&#xe4;" horiz-adv-x="1118" 
d="M459 135q139 0 226 77t87 157v69h-221q-285 0 -285 -168q0 -135 193 -135zM951.5 -10q-68.5 0 -118 45t-59.5 119q-104 -164 -352 -164q-166 0 -253 73.5t-87 198.5q0 156 129 231.5t350 75.5h211v66q0 106 -64.5 165.5t-178.5 59.5t-177 -49t-71 -139h-177
q12 162 129 252t310 90t301 -100.5t108 -282.5v-410q0 -31 16.5 -49t42 -18t50.5 10l14 -158q-55 -16 -123.5 -16zM749.5 1223q-51.5 0 -82 30.5t-30.5 78.5t30.5 79t82 31t82 -31t30.5 -79t-30.5 -78.5t-82 -30.5zM373 1223q-51 0 -82 30.5t-31 78.5t31 79t82 31t81.5 -31
t30.5 -79t-30.5 -78.5t-81.5 -30.5z" />
    <glyph glyph-name="aring" unicode="&#xe5;" horiz-adv-x="1118" 
d="M459 135q139 0 226 77t87 157v69h-221q-285 0 -285 -168q0 -135 193 -135zM951.5 -10q-68.5 0 -118 45t-59.5 119q-104 -164 -352 -164q-166 0 -253 73.5t-87 198.5q0 156 129 231.5t350 75.5h211v66q0 106 -64.5 165.5t-178.5 59.5t-177 -49t-71 -139h-177
q12 162 129 252t310 90t301 -100.5t108 -282.5v-410q0 -31 16.5 -49t42 -18t50.5 10l14 -158q-55 -16 -123.5 -16zM551 1393q-35 0 -55.5 -20.5t-20.5 -52.5t20.5 -53.5t55.5 -21.5t56.5 21.5t21.5 53.5t-21.5 52.5t-56.5 20.5zM551 1133q-82 0 -139.5 51t-57.5 136
t57.5 137t139.5 52t139.5 -52t57.5 -137t-57.5 -136t-139.5 -51z" />
    <glyph glyph-name="ae" unicode="&#xe6;" horiz-adv-x="1767" 
d="M647 438q-383 0 -383 -168q0 -129 193 -129q137 0 227 73t94 151l-12 73h-119zM1234.5 860q-108.5 0 -186 -73.5t-98.5 -198.5h547q-16 133 -85 202.5t-177.5 69.5zM1679 500v-45h-733q12 -141 92 -226.5t198 -85.5t179.5 51.5t77.5 122.5h182q-29 -147 -138.5 -237
t-295.5 -90q-262 0 -395 205q-147 -205 -426 -205q-162 0 -251 74.5t-89 197.5q0 307 567 307h117v66q0 106 -63.5 165.5t-170 59.5t-168 -49t-75.5 -139h-181q16 158 128 250t290 92q250 0 359 -158q135 158 345 158t330.5 -137t120.5 -377z" />
    <glyph glyph-name="ccedilla" unicode="&#xe7;" horiz-adv-x="1085" 
d="M552 143q124 0 186.5 60.5t78.5 156.5h193q-23 -164 -131.5 -263t-288.5 -107l-17 -72q70 -4 117 -41t47 -118t-61.5 -131t-152.5 -50t-150 23l28 120q49 -18 107 -18q98 0 98 55q0 63 -166 64l37 174q-186 25 -287.5 160t-101.5 352t133 361.5t336 144.5t317.5 -100.5
t135.5 -276.5h-193q-16 100 -77.5 161.5t-183.5 61.5t-203 -97t-81 -261t78 -261.5t202 -97.5z" />
    <glyph glyph-name="egrave" unicode="&#xe8;" horiz-adv-x="1112" 
d="M569.5 860q-114.5 0 -191.5 -72.5t-99 -199.5h563q-16 133 -87 202.5t-185.5 69.5zM1024 500v-45h-750q10 -145 89 -228.5t205 -83.5t188.5 50.5t79.5 123.5h182q-31 -147 -143.5 -237t-303.5 -90q-229 0 -356 141t-127 367t134 371t345 145t334 -136t123 -378zM659 1157
h-147l-186 328h227z" />
    <glyph glyph-name="eacute" unicode="&#xe9;" horiz-adv-x="1112" 
d="M569.5 860q-114.5 0 -191.5 -72.5t-99 -199.5h563q-16 133 -87 202.5t-185.5 69.5zM1024 500v-45h-750q10 -145 89 -228.5t205 -83.5t188.5 50.5t79.5 123.5h182q-31 -147 -143.5 -237t-303.5 -90q-229 0 -356 141t-127 367t134 371t345 145t334 -136t123 -378zM809 1485
l-186 -328h-148l107 328h227z" />
    <glyph glyph-name="ecircumflex" unicode="&#xea;" horiz-adv-x="1112" 
d="M569.5 860q-114.5 0 -191.5 -72.5t-99 -199.5h563q-16 133 -87 202.5t-185.5 69.5zM1024 500v-45h-750q10 -145 89 -228.5t205 -83.5t188.5 50.5t79.5 123.5h182q-31 -147 -143.5 -237t-303.5 -90q-229 0 -356 141t-127 367t134 371t345 145t334 -136t123 -378zM567 1346
l-141 -189h-154l195 328h201l194 -328h-153z" />
    <glyph glyph-name="edieresis" unicode="&#xeb;" horiz-adv-x="1112" 
d="M569.5 860q-114.5 0 -191.5 -72.5t-99 -199.5h563q-16 133 -87 202.5t-185.5 69.5zM1024 500v-45h-750q10 -145 89 -228.5t205 -83.5t188.5 50.5t79.5 123.5h182q-31 -147 -143.5 -237t-303.5 -90q-229 0 -356 141t-127 367t134 371t345 145t334 -136t123 -378zM766 1223
q-51 0 -82 30.5t-31 78.5t31 79t82 31t82 -31t31 -79t-31 -78.5t-82 -30.5zM389 1223q-51 0 -82 30.5t-31 78.5t31 79t82 31t82 -31t31 -79t-31 -78.5t-82 -30.5z" />
    <glyph glyph-name="igrave" unicode="&#xec;" horiz-adv-x="481" 
d="M150 0v1004h182v-1004h-182zM141 1157l-186 328h227l107 -328h-148z" />
    <glyph glyph-name="iacute" unicode="&#xed;" horiz-adv-x="481" 
d="M150 0v1004h182v-1004h-182zM272 1157h-147l106 328h228z" />
    <glyph glyph-name="icircumflex" unicode="&#xee;" horiz-adv-x="481" 
d="M150 0v1004h182v-1004h-182zM-53 1157l194 328h201l195 -328h-154l-141 189l-142 -189h-153z" />
    <glyph glyph-name="idieresis" unicode="&#xef;" horiz-adv-x="481" 
d="M150 0v1004h182v-1004h-182zM440.5 1442q51.5 0 82 -31t30.5 -79t-30.5 -78.5t-82 -30.5t-82 30.5t-30.5 78.5t30.5 79t82 31zM63.5 1442q51.5 0 82 -31t30.5 -79t-30.5 -78.5t-82 -30.5t-82 30.5t-30.5 78.5t30.5 79t82 31z" />
    <glyph glyph-name="eth" unicode="&#xf0;" horiz-adv-x="1183" 
d="M575 801q-127 1 -215 -97t-88 -240t92 -232t224 -89q132 0 219 91q86 90 88 232t-95 238t-225 97zM575 -10q-193 0 -339 131t-148 343q0 212 140 350t343 138q111 0 194 -45t124 -100q-47 205 -213 358l-178 -149l-84 106l153 129q-102 66 -209 84l39 142
q158 -35 293 -121l146 123l86 -107l-121 -102q281 -260 280 -731q0 -265 -134 -407t-372 -142z" />
    <glyph glyph-name="ntilde" unicode="&#xf1;" horiz-adv-x="1150" 
d="M829 596q0 264 -234 264q-118 0 -191.5 -74.5t-73.5 -201.5v-584h-180v1004h169l9 -150q110 160 321 160q168 0 265.5 -99.5t97.5 -281.5v-633h-183v596zM457 1294q-76 0 -76 -88h-135q0 231 194 232q82 0 153 -48.5t105 -48.5q76 0 76 89h133q0 -111 -51 -171.5
t-136 -60.5t-155.5 48t-107.5 48z" />
    <glyph glyph-name="ograve" unicode="&#xf2;" horiz-adv-x="1169" 
d="M585 860q-140 0 -226.5 -101.5t-86.5 -260t86 -257t226.5 -98.5t226.5 97.5t86 258.5t-86 261t-226 100zM586 1014q223 0 359 -140.5t136 -370t-136 -371.5t-360 -142t-360.5 137t-136.5 365.5t137.5 375t360.5 146.5zM528 1157l-186 328h227l107 -328h-148z" />
    <glyph glyph-name="oacute" unicode="&#xf3;" horiz-adv-x="1169" 
d="M585 860q-140 0 -226.5 -101.5t-86.5 -260t86 -257t226.5 -98.5t226.5 97.5t86 258.5t-86 261t-226 100zM586 1014q223 0 359 -140.5t136 -370t-136 -371.5t-360 -142t-360.5 137t-136.5 365.5t137.5 375t360.5 146.5zM639 1157h-147l106 328h227z" />
    <glyph glyph-name="ocircumflex" unicode="&#xf4;" horiz-adv-x="1169" 
d="M585 860q-140 0 -226.5 -101.5t-86.5 -260t86 -257t226.5 -98.5t226.5 97.5t86 258.5t-86 261t-226 100zM586 1014q223 0 359 -140.5t136 -370t-136 -371.5t-360 -142t-360.5 137t-136.5 365.5t137.5 375t360.5 146.5zM289 1157l194 328h201l195 -328h-154l-141 189
l-142 -189h-153z" />
    <glyph glyph-name="otilde" unicode="&#xf5;" horiz-adv-x="1169" 
d="M585 860q-140 0 -226.5 -101.5t-86.5 -260t86 -257t226.5 -98.5t226.5 97.5t86 258.5t-86 261t-226 100zM586 1014q223 0 359 -140.5t136 -370t-136 -371.5t-360 -142t-360.5 137t-136.5 365.5t137.5 375t360.5 146.5zM444 1294q-76 0 -75 -88h-136q0 231 195 232
q82 0 152.5 -48.5t105.5 -48.5q76 0 76 89h133q0 -111 -51 -171.5t-136.5 -60.5t-156 48t-107.5 48z" />
    <glyph glyph-name="odieresis" unicode="&#xf6;" horiz-adv-x="1169" 
d="M585 860q-140 0 -226.5 -101.5t-86.5 -260t86 -257t226.5 -98.5t226.5 97.5t86 258.5t-86 261t-226 100zM586 1014q223 0 359 -140.5t136 -370t-136 -371.5t-360 -142t-360.5 137t-136.5 365.5t137.5 375t360.5 146.5zM782.5 1442q51.5 0 82 -31t30.5 -79t-30.5 -78.5
t-82 -30.5t-82 30.5t-30.5 78.5t30.5 79t82 31zM405.5 1442q51.5 0 82 -31t30.5 -79t-30.5 -78.5t-82 -30.5t-82 30.5t-30.5 78.5t30.5 79t82 31z" />
    <glyph glyph-name="divide" unicode="&#xf7;" horiz-adv-x="1019" 
d="M510 475q45 0 74 -28q28 -29 28 -73t-28 -71t-74 -27q-47 0 -75 27t-27 72q0 45 28 73t74 27zM104 635v149h811v-149h-811zM510 1145q45 0 74 -28q28 -28 28 -73q0 -46 -28 -72t-74 -26q-47 0 -75 27q-27 27 -27 71t28 73q29 28 74 28z" />
    <glyph glyph-name="oslash" unicode="&#xf8;" horiz-adv-x="1169" 
d="M584 143q141 0 227 97.5t86 258.5t-86 259l-356 -588q59 -27 129 -27zM272 499q0 -159 84 -255l361 587q-61 29 -133 29q-139 0 -225.5 -101t-86.5 -260zM1081 504q0 -229 -136 -371.5t-361 -142.5q-117 0 -215 41l-54 -88h-143l92 149q-176 139 -176 384t137 391.5
t359 146.5q121 0 219 -43l51 86h139l-88 -146q176 -143 176 -407z" />
    <glyph glyph-name="ugrave" unicode="&#xf9;" horiz-adv-x="1169" 
d="M981 -10q-68 0 -117 42t-59 113q-111 -156 -307 -155q-158 0 -258.5 99t-100.5 261v654h183v-629q0 -111 55 -171.5t165.5 -60.5t184.5 74t74 203v584h180v-783q0 -31 17.5 -49t42 -18t49.5 10l14 -158q-55 -16 -123 -16zM651 1157h-147l-187 328h228z" />
    <glyph glyph-name="uacute" unicode="&#xfa;" horiz-adv-x="1169" 
d="M981 -10q-68 0 -117 42t-59 113q-111 -156 -307 -155q-158 0 -258.5 99t-100.5 261v654h183v-629q0 -111 55 -171.5t165.5 -60.5t184.5 74t74 203v584h180v-783q0 -31 17.5 -49t42 -18t49.5 10l14 -158q-55 -16 -123 -16zM801 1485l-187 -328h-147l106 328h228z" />
    <glyph glyph-name="ucircumflex" unicode="&#xfb;" horiz-adv-x="1169" 
d="M981 -10q-68 0 -117 42t-59 113q-111 -156 -307 -155q-158 0 -258.5 99t-100.5 261v654h183v-629q0 -111 55 -171.5t165.5 -60.5t184.5 74t74 203v584h180v-783q0 -31 17.5 -49t42 -18t49.5 10l14 -158q-55 -16 -123 -16zM559 1346l-141 -189h-154l195 328h200l195 -328
h-154z" />
    <glyph glyph-name="udieresis" unicode="&#xfc;" horiz-adv-x="1169" 
d="M981 -10q-68 0 -117 42t-59 113q-111 -156 -307 -155q-158 0 -258.5 99t-100.5 261v654h183v-629q0 -111 55 -171.5t165.5 -60.5t184.5 74t74 203v584h180v-783q0 -31 17.5 -49t42 -18t49.5 10l14 -158q-55 -16 -123 -16zM758 1223q-51 0 -82 30.5t-31 78.5t31 79t82 31
t81.5 -31t30.5 -79t-30.5 -78.5t-81.5 -30.5zM381 1223q-51 0 -82 30.5t-31 78.5t31 79t82 31t82 -31t31 -79t-31 -78.5t-82 -30.5z" />
    <glyph glyph-name="yacute" unicode="&#xfd;" horiz-adv-x="1032" 
d="M240.5 -420q-111.5 0 -166.5 25l14 159q49 -20 112.5 -20t116 31.5t91.5 128.5l24 57l-395 1043h203l254 -713q16 -45 32 -107h4q10 51 29 107l258 713h184l-423 -1117q-66 -172 -146 -239.5t-191.5 -67.5zM756 1485l-187 -328h-147l106 328h228z" />
    <glyph glyph-name="thorn" unicode="&#xfe;" horiz-adv-x="1218" 
d="M330 481q0 -129 82 -233t226 -105t225 101t81 264t-79 257t-223 95t-228 -104t-84 -230v-45zM659 1014q217 0 343 -136t126 -366t-130 -376t-349 -146t-319 164v-564h-180v1864h180v-618q111 178 329 178z" />
    <glyph glyph-name="ydieresis" unicode="&#xff;" horiz-adv-x="1032" 
d="M240.5 -420q-111.5 0 -166.5 25l14 159q49 -20 112.5 -20t116 31.5t91.5 128.5l24 57l-395 1043h203l254 -713q16 -45 32 -107h4q10 51 29 107l258 713h184l-423 -1117q-66 -172 -146 -239.5t-191.5 -67.5zM713 1223q-51 0 -82 30.5t-31 78.5t31 79t82 31t81.5 -31
t30.5 -79t-30.5 -78.5t-81.5 -30.5zM336 1223q-51 0 -82 30.5t-31 78.5t31 79t82 31t82 -31t31 -79t-31 -78.5t-82 -30.5z" />
    <glyph glyph-name="Amacron" unicode="&#x100;" horiz-adv-x="1296" 
d="M397 516h502l-250 688zM1087 0l-129 356h-620l-129 -356h-182l518 1405h207l518 -1405h-183zM930 1683v-135h-563v135h563z" />
    <glyph glyph-name="amacron" unicode="&#x101;" horiz-adv-x="1118" 
d="M459 135q139 0 226 77t87 157v69h-221q-285 0 -285 -168q0 -135 193 -135zM951.5 -10q-68.5 0 -118 45t-59.5 119q-104 -164 -352 -164q-166 0 -253 73.5t-87 198.5q0 156 129 231.5t350 75.5h211v66q0 106 -64.5 165.5t-178.5 59.5t-177 -49t-71 -139h-177
q12 162 129 252t310 90t301 -100.5t108 -282.5v-410q0 -31 16.5 -49t42 -18t50.5 10l14 -158q-55 -16 -123.5 -16zM834 1397v-135h-564v135h564z" />
    <glyph glyph-name="Abreve" unicode="&#x102;" horiz-adv-x="1296" 
d="M397 516h502l-250 688zM1087 0l-129 356h-620l-129 -356h-182l518 1405h207l518 -1405h-183zM649 1491q-127 0 -194.5 74.5t-67.5 189.5h150q0 -127 112.5 -127t112.5 127h151q0 -115 -68.5 -189.5t-195.5 -74.5z" />
    <glyph glyph-name="abreve" unicode="&#x103;" horiz-adv-x="1118" 
d="M459 135q139 0 226 77t87 157v69h-221q-285 0 -285 -168q0 -135 193 -135zM951.5 -10q-68.5 0 -118 45t-59.5 119q-104 -164 -352 -164q-166 0 -253 73.5t-87 198.5q0 156 129 231.5t350 75.5h211v66q0 106 -64.5 165.5t-178.5 59.5t-177 -49t-71 -139h-177
q12 162 129 252t310 90t301 -100.5t108 -282.5v-410q0 -31 16.5 -49t42 -18t50.5 10l14 -158q-55 -16 -123.5 -16zM550 1151q-134 0 -209 86t-75 238h150q0 -186 133 -186.5t133 186.5h152q0 -150 -75 -237t-209 -87z" />
    <glyph glyph-name="Aogonek" unicode="&#x104;" horiz-adv-x="1296" 
d="M397 516h502l-250 688zM1194.5 -424q-106.5 0 -163 52.5t-56.5 140.5q0 127 125 231h-13l-129 356h-620l-129 -356h-182l518 1405h207l518 -1405q-6 -4 -16 -10q-45 -26 -92.5 -80t-47.5 -121q0 -88 86 -88q64 0 111 37l51 -103q-61 -59 -167.5 -59z" />
    <glyph glyph-name="aogonek" unicode="&#x105;" horiz-adv-x="1118" 
d="M459 135q139 0 226 77t87 157v69h-221q-285 0 -285 -168q0 -135 193 -135zM780 -225q0 125 117 225q-106 31 -123 154q-104 -164 -352 -164q-166 0 -253 73.5t-87 198.5q0 156 129 231.5t350 75.5h211v66q0 106 -64.5 165.5t-178.5 59.5t-177 -49t-71 -139h-177
q12 162 129 252t310 90t301 -100.5t108 -282.5v-410q0 -31 16.5 -49t42.5 -18t50 10l14 -158q-6 -4 -16 -10q-49 -29 -94 -81t-45 -120q0 -88 86 -88q63 0 110 37l51 -102q-61 -59 -167.5 -59.5t-163 52t-56.5 140.5z" />
    <glyph glyph-name="Cacute" unicode="&#x106;" horiz-adv-x="1409" 
d="M728.5 147q192.5 0 293 95.5t121.5 253.5h184q-27 -236 -176.5 -372t-425 -136t-450.5 191.5t-175 518t177.5 523t448.5 196.5t424 -139t177 -375h-184q-20 162 -120.5 258t-292.5 96t-319.5 -151.5t-127.5 -406.5t126.5 -403.5t319 -148.5zM834 1470h-170l86 265h270z
" />
    <glyph glyph-name="cacute" unicode="&#x107;" horiz-adv-x="1085" 
d="M543 -10q-209 0 -332 140t-123 367.5t133 372t336 144.5t317.5 -100.5t135.5 -276.5h-193q-16 100 -77.5 161.5t-183.5 61.5t-203 -97t-81 -261t78 -261.5t202 -97.5t186.5 60.5t78.5 156.5h193q-25 -172 -141.5 -271t-325.5 -99zM629 1157h-148l107 328h227z" />
    <glyph glyph-name="Ccircumflex" unicode="&#x108;" horiz-adv-x="1409" 
d="M728.5 147q192.5 0 293 95.5t121.5 253.5h184q-27 -236 -176.5 -372t-425 -136t-450.5 191.5t-175 518t177.5 523t448.5 196.5t424 -139t177 -375h-184q-20 162 -120.5 258t-292.5 96t-319.5 -151.5t-127.5 -406.5t126.5 -403.5t319 -148.5zM850 1735l172 -265h-150
l-141 146l-141 -146h-150l174 265h236z" />
    <glyph glyph-name="ccircumflex" unicode="&#x109;" horiz-adv-x="1085" 
d="M543 -10q-209 0 -332 140t-123 367.5t133 372t336 144.5t317.5 -100.5t135.5 -276.5h-193q-16 100 -77.5 161.5t-183.5 61.5t-203 -97t-81 -261t78 -261.5t202 -97.5t186.5 60.5t78.5 156.5h193q-25 -172 -141.5 -271t-325.5 -99zM279 1157l194 328h201l194 -328h-153
l-142 189l-141 -189h-153z" />
    <glyph glyph-name="Cdotaccent" unicode="&#x10a;" horiz-adv-x="1409" 
d="M728.5 147q192.5 0 293 95.5t121.5 253.5h184q-27 -236 -176.5 -372t-425 -136t-450.5 191.5t-175 518t177.5 523t448.5 196.5t424 -139t177 -375h-184q-20 162 -120.5 258t-292.5 96t-319.5 -151.5t-127.5 -406.5t126.5 -403.5t319 -148.5zM729 1724q57 0 92 -34.5
t35 -90t-35 -89t-92 -33.5t-92 33.5t-35 89t35 90t92 34.5z" />
    <glyph glyph-name="cdotaccent" unicode="&#x10b;" horiz-adv-x="1085" 
d="M543 -10q-209 0 -332 140t-123 367.5t133 372t336 144.5t317.5 -100.5t135.5 -276.5h-193q-16 100 -77.5 161.5t-183.5 61.5t-203 -97t-81 -261t78 -261.5t202 -97.5t186.5 60.5t78.5 156.5h193q-25 -172 -141.5 -271t-325.5 -99zM573.5 1458q57.5 0 92 -34.5t34.5 -90
t-34.5 -89.5t-92 -34t-92.5 34t-35 89.5t35 90t92.5 34.5z" />
    <glyph glyph-name="Ccaron" unicode="&#x10c;" horiz-adv-x="1409" 
d="M728.5 147q192.5 0 293 95.5t121.5 253.5h184q-27 -236 -176.5 -372t-425 -136t-450.5 191.5t-175 518t177.5 523t448.5 196.5t424 -139t177 -375h-184q-20 162 -120.5 258t-292.5 96t-319.5 -151.5t-127.5 -406.5t126.5 -403.5t319 -148.5zM852 1470h-236l-174 265h150
l141 -146l141 146h150z" />
    <glyph glyph-name="ccaron" unicode="&#x10d;" horiz-adv-x="1085" 
d="M543 -10q-209 0 -332 140t-123 367.5t133 372t336 144.5t317.5 -100.5t135.5 -276.5h-193q-16 100 -77.5 161.5t-183.5 61.5t-203 -97t-81 -261t78 -261.5t202 -97.5t186.5 60.5t78.5 156.5h193q-25 -172 -141.5 -271t-325.5 -99zM279 1485h153l141 -189l144 189h153
l-194 -328h-201z" />
    <glyph glyph-name="Dcaron" unicode="&#x10e;" horiz-adv-x="1458" 
d="M698 158q215 0 346.5 145.5t131.5 399t-131.5 398t-346.5 144.5h-331v-1087h331zM698 1405q297 0 478.5 -187.5t181.5 -515t-181.5 -515t-478.5 -187.5h-512v1405h512zM805 1489h-236l-174 264h150l141 -145l141 145h150z" />
    <glyph glyph-name="dcaron" unicode="&#x10f;" horiz-adv-x="1232" 
d="M577.5 143q143.5 0 226.5 104.5t83 233.5v41q0 129 -83 233.5t-226.5 104.5t-224.5 -98t-81 -260t81 -260.5t224.5 -98.5zM887 1454h180v-1454h-176l-4 156q-102 -166 -321.5 -166t-348.5 141t-129 371.5t129 371t348.5 140.5t321.5 -164v604zM1288 1528
q125 0 125 -157.5t-71.5 -244t-157.5 -82.5v93q43 0 76.5 41t33.5 108q-57 0 -92 35t-35 89t36 86t85 32z" />
    <glyph glyph-name="Dcroat" unicode="&#x110;" horiz-adv-x="1490" 
d="M731 158q215 0 346 145.5t131 399t-131 398t-346 144.5h-332v-473h361v-151h-361v-463h332zM731 1405q297 0 478.5 -187.5t181.5 -515t-181.5 -515t-478.5 -187.5h-512v621h-184v151h184v633h512z" />
    <glyph glyph-name="dcroat" unicode="&#x111;" horiz-adv-x="1216" 
d="M573.5 143q143.5 0 228.5 104.5t85 229.5v45q0 129 -83 233.5t-226.5 104.5t-224.5 -101.5t-81 -263t79 -257t222.5 -95.5zM1180 1303v-132h-113v-1171h-176l-4 168q-111 -178 -329 -178t-344 136t-126 366t130 376t349 146t320 -164v321h-312v132h312v151h180v-151h113z
" />
    <glyph glyph-name="Emacron" unicode="&#x112;" horiz-adv-x="1232" 
d="M367 160h763v-160h-944v1405h934v-162h-753v-432h688v-162h-688v-489zM938 1683v-135h-563v135h563z" />
    <glyph glyph-name="emacron" unicode="&#x113;" horiz-adv-x="1112" 
d="M569.5 860q-114.5 0 -191.5 -72.5t-99 -199.5h563q-16 133 -87 202.5t-185.5 69.5zM1024 500v-45h-750q10 -145 89 -228.5t205 -83.5t188.5 50.5t79.5 123.5h182q-31 -147 -143.5 -237t-303.5 -90q-229 0 -356 141t-127 367t134 371t345 145t334 -136t123 -378zM850 1397
v-135h-563v135h563z" />
    <glyph glyph-name="Ebreve" unicode="&#x114;" horiz-adv-x="1232" 
d="M367 160h763v-160h-944v1405h934v-162h-753v-432h688v-162h-688v-489zM655 1491q-127 0 -194.5 74.5t-67.5 189.5h150q0 -127 112.5 -127t112.5 127h152q0 -115 -69 -189.5t-196 -74.5z" />
    <glyph glyph-name="ebreve" unicode="&#x115;" horiz-adv-x="1112" 
d="M569.5 860q-114.5 0 -191.5 -72.5t-99 -199.5h563q-16 133 -87 202.5t-185.5 69.5zM1024 500v-45h-750q10 -145 89 -228.5t205 -83.5t188.5 50.5t79.5 123.5h182q-31 -147 -143.5 -237t-303.5 -90q-229 0 -356 141t-127 367.5t134 371t345 144.5t334 -136t123 -378z
M566 1151q-134 0 -208.5 86t-74.5 238h149q0 -186 133 -186.5t133 186.5h152q0 -150 -75 -237t-209 -87z" />
    <glyph glyph-name="Edotaccent" unicode="&#x116;" horiz-adv-x="1232" 
d="M367 160h763v-160h-944v1405h934v-162h-753v-432h688v-162h-688v-489zM653.5 1497q-57.5 0 -92.5 34t-35 89t35 90t92.5 35t92 -35t34.5 -90t-34.5 -89t-92 -34z" />
    <glyph glyph-name="edotaccent" unicode="&#x117;" horiz-adv-x="1112" 
d="M569.5 860q-114.5 0 -191.5 -72.5t-99 -199.5h563q-16 133 -87 202.5t-185.5 69.5zM1024 500v-45h-750q10 -145 89 -228.5t205 -83.5t188.5 50.5t79.5 123.5h182q-31 -147 -143.5 -237t-303.5 -90q-229 0 -356 141t-127 367t134 371t345 145t334 -136t123 -378z
M567.5 1210q-57.5 0 -92.5 34t-35 89.5t35 90t92.5 34.5t92 -34.5t34.5 -90t-34.5 -89.5t-92 -34z" />
    <glyph glyph-name="Eogonek" unicode="&#x118;" horiz-adv-x="1232" 
d="M1055.5 -424q-106.5 0 -163 52.5t-56.5 140.5q0 127 125 231h-775v1405h934v-162h-753v-432h688v-162h-688v-489h763v-160q-6 -4 -16 -10q-47 -28 -93 -81t-46 -120q0 -88 86 -88q63 0 110 37l52 -103q-61 -59 -167.5 -59z" />
    <glyph glyph-name="eogonek" unicode="&#x119;" horiz-adv-x="1112" 
d="M569.5 860q-114.5 0 -191.5 -72.5t-99 -199.5h563q-16 133 -87 202.5t-185.5 69.5zM1024 500v-45h-750q10 -145 89 -228.5t205 -83.5t188.5 50.5t79.5 123.5h182q-41 -197 -213 -280l2 -2q-7 -5 -17 -11q-49 -30 -94 -82t-45 -118q0 -88 86 -88q63 0 111 37l51 -103
q-61 -59 -167.5 -59t-163 52t-56.5 146t78 181h-19q-229 0 -356 141t-127 367.5t134 371t345 144.5t334 -136t123 -378z" />
    <glyph glyph-name="Ecaron" unicode="&#x11a;" horiz-adv-x="1232" 
d="M367 160h763v-160h-944v1405h934v-162h-753v-432h688v-162h-688v-489zM776 1491h-235l-174 264h149l141 -145l142 145h149z" />
    <glyph glyph-name="ecaron" unicode="&#x11b;" horiz-adv-x="1112" 
d="M569.5 860q-114.5 0 -191.5 -72.5t-99 -199.5h563q-16 133 -87 202.5t-185.5 69.5zM1024 500v-45h-750q10 -145 89 -228.5t205 -83.5t188.5 50.5t79.5 123.5h182q-31 -147 -143.5 -237t-303.5 -90q-229 0 -356 141t-127 367t134 371t345 145t334 -136t123 -378zM670 1157
h-201l-197 328h154l141 -189l144 189h153z" />
    <glyph glyph-name="Gcircumflex" unicode="&#x11c;" horiz-adv-x="1470" 
d="M756 731h592v-731h-140v244q-143 -256 -473 -256q-287 0 -461 194q-174 192 -174 518t182 522q180 196 458 195.5t428.5 -131.5t172.5 -342h-184q-20 137 -117.5 225t-295.5 88t-329.5 -150.5t-131.5 -404.5t126 -404q125 -150 327 -150.5t325 116.5t137 273v41h-442v153
zM754 1636l-142 -145h-149l174 264h235l172 -264h-149z" />
    <glyph glyph-name="gcircumflex" unicode="&#x11d;" horiz-adv-x="1208" 
d="M573.5 143q141.5 0 223.5 104.5t82 233.5v41q0 129 -82 233.5t-222.5 104.5t-221.5 -98t-81 -259t80 -260.5t221.5 -99.5zM1059 1004v-1024q0 -180 -127 -295t-357 -115q-416 0 -452 321h180q16 -90 82 -128.5t202 -38.5t214 71.5t78 184.5v174q-100 -164 -317.5 -164
t-345.5 141t-128 371.5t129 371t345 140.5t319 -168l8 158h170zM604 1346l-141 -189h-154l195 328h201l194 -328h-154z" />
    <glyph glyph-name="Gbreve" unicode="&#x11e;" horiz-adv-x="1470" 
d="M756 731h592v-731h-140v244q-143 -256 -473 -256q-287 0 -461 194q-174 192 -174 518t182 522q180 196 458 195.5t428.5 -131.5t172.5 -342h-184q-20 137 -117.5 225t-295.5 88t-329.5 -150.5t-131.5 -404.5t126 -404q125 -150 327 -150.5t325 116.5t137 273v41h-442v153
zM754 1491q-127 0 -194.5 74.5t-67.5 189.5h149q0 -127 112.5 -127t112.5 127h152q0 -115 -68.5 -189.5t-195.5 -74.5z" />
    <glyph glyph-name="gbreve" unicode="&#x11f;" horiz-adv-x="1208" 
d="M573.5 143q141.5 0 223.5 104.5t82 233.5v41q0 129 -82 233.5t-222.5 104.5t-221.5 -98t-81 -259t80 -260.5t221.5 -99.5zM1059 1004v-1024q0 -180 -127 -295t-357 -115q-416 0 -452 321h180q16 -90 82 -128.5t202 -38.5t214 71.5t78 184.5v174q-100 -164 -317.5 -164
t-345.5 141t-128 371.5t129 371t345 140.5t319 -168l8 158h170zM603 1151q-134 0 -209 86t-75 238h150q0 -186 133 -186.5t133 186.5h152q0 -150 -75 -237t-209 -87z" />
    <glyph glyph-name="Gdotaccent" unicode="&#x120;" horiz-adv-x="1470" 
d="M756 731h592v-731h-140v244q-143 -256 -473 -256q-287 0 -461 194q-174 192 -174 518t182 522q180 196 458 195.5t428.5 -131.5t172.5 -342h-184q-20 137 -117.5 225t-295.5 88t-329.5 -150.5t-131.5 -404.5t126 -404q125 -150 327 -150.5t325 116.5t137 273v41h-442v153
zM751.5 1497q-57.5 0 -92 34t-34.5 89t34.5 90t92 35t92.5 -35t35 -90t-35 -89t-92.5 -34z" />
    <glyph glyph-name="gdotaccent" unicode="&#x121;" horiz-adv-x="1208" 
d="M573.5 143q141.5 0 223.5 104.5t82 233.5v41q0 129 -82 233.5t-222.5 104.5t-221.5 -98t-81 -259t80 -260.5t221.5 -99.5zM1059 1004v-1024q0 -180 -127 -295t-357 -115q-416 0 -452 321h180q16 -90 82 -128.5t202 -38.5t214 71.5t78 184.5v174q-100 -164 -317.5 -164
t-345.5 141t-128 371.5t129 371t345 140.5t319 -168l8 158h170zM604.5 1210q-57.5 0 -92.5 34t-35 89.5t35 90t92.5 34.5t92 -34.5t34.5 -90t-34.5 -89.5t-92 -34z" />
    <glyph glyph-name="Gcommaaccent" unicode="&#x122;" horiz-adv-x="1470" 
d="M748 -84q125 0 124 -168q0 -141 -72.5 -227t-156.5 -82v92q43 0 76 40t33 103q-55 0 -90 35t-35 89t36 86t85 32zM756 731h592v-731h-140v244q-143 -256 -473 -256q-287 0 -461 194q-174 192 -174 518t182 522q180 196 458 195.5t428.5 -131.5t172.5 -342h-184
q-20 137 -117.5 225t-295.5 88t-329.5 -150.5t-131.5 -404.5t126 -404q125 -150 327 -150.5t325 116.5t137 273v41h-442v153z" />
    <glyph glyph-name="gcommaaccent" unicode="&#x123;" horiz-adv-x="1208" 
d="M573.5 143q141.5 0 223.5 104.5t82 233.5v41q0 129 -82 233.5t-222.5 104.5t-221.5 -98t-81 -259t80 -260.5t221.5 -99.5zM1059 1004v-1024q0 -180 -127 -295t-357 -115q-416 0 -452 321h180q16 -90 82 -128.5t202 -38.5t214 71.5t78 184.5v174q-100 -164 -317.5 -164
t-345.5 141t-128 371.5t129 371t345 140.5t319 -168l8 158h170zM602 1128q-125 0 -125 168q0 141 73 227.5t157 82.5v-93q-43 0 -76 -39.5t-33 -103.5q55 0 90 -35t35 -89t-36 -86t-85 -32z" />
    <glyph glyph-name="Hcircumflex" unicode="&#x124;" horiz-adv-x="1476" 
d="M1110 1405h180v-1405h-180v647h-743v-647h-181v1405h181v-596h743v596zM741 1636l-141 -145h-149l174 264h235l172 -264h-149z" />
    <glyph glyph-name="hcircumflex" unicode="&#x125;" horiz-adv-x="1150" 
d="M649 1014q166 0 264.5 -98.5t98.5 -262.5v-653h-183v614q0 115 -59 180.5t-175 65.5t-189.5 -73.5t-73.5 -202.5v-584h-182v1454h178v-598q108 158 321 158zM377 1520l-141 145l-142 -145h-149l174 264h235l172 -264h-149z" />
    <glyph glyph-name="Hbar" unicode="&#x126;" horiz-adv-x="1476" 
d="M1110 809v266h-743v-266h743zM1391 1227v-152h-101v-1075h-180v647h-743v-647h-181v1075h-100v152h100v178h181v-178h743v178h180v-178h101z" />
    <glyph glyph-name="hbar" unicode="&#x127;" horiz-adv-x="1150" 
d="M649 1014q166 0 264.5 -98.5t98.5 -262.5v-653h-183v614q0 115 -59 180.5t-175 65.5t-189.5 -73.5t-73.5 -202.5v-584h-182v1171h-119v132h119v151h178v-151h307v-132h-307v-315q108 158 321 158z" />
    <glyph glyph-name="Itilde" unicode="&#x128;" horiz-adv-x="552" 
d="M186 0v1405h181v-1405h-181zM158 1612q-76 0 -76 -88h-135q0 231 194 231q82 0 151.5 -48t104.5 -48q76 0 76 88h133q0 -111 -51 -171t-135 -60t-154.5 48t-107.5 48z" />
    <glyph glyph-name="itilde" unicode="&#x129;" horiz-adv-x="481" 
d="M150 0v1004h182v-1004h-182zM102 1294q-76 0 -75 -88h-136q0 231 195 232q82 0 152.5 -48.5t105.5 -48.5q76 0 76 89h133q0 -112 -51 -172q-50 -60 -136 -60t-156.5 48t-107.5 48z" />
    <glyph glyph-name="Imacron" unicode="&#x12a;" horiz-adv-x="552" 
d="M186 0v1405h181v-1405h-181zM-4 1548v135h563v-135h-563z" />
    <glyph glyph-name="imacron" unicode="&#x12b;" horiz-adv-x="481" 
d="M150 0v1004h182v-1004h-182zM-39 1262v135h563v-135h-563z" />
    <glyph glyph-name="Ibreve" unicode="&#x12c;" horiz-adv-x="552" 
d="M186 0v1405h181v-1405h-181zM541 1755q0 -115 -69 -189.5t-195.5 -74.5t-194.5 74.5t-68 189.5h150q0 -127 112.5 -127t112.5 127h152z" />
    <glyph glyph-name="ibreve" unicode="&#x12d;" horiz-adv-x="481" 
d="M150 0v1004h182v-1004h-182zM524 1475q0 -150 -74.5 -237t-208.5 -87t-209 86t-75 238h149q0 -186 133.5 -186.5t133.5 186.5h151z" />
    <glyph glyph-name="Iogonek" unicode="&#x12e;" horiz-adv-x="552" 
d="M291.5 -424q-106.5 0 -163 52.5t-56.5 140.5q0 127 125 231h-11v1405h181v-1405q-7 -4 -17 -10q-45 -26 -92 -80t-47 -121q0 -88 86 -88q64 0 111 37l51 -103q-61 -59 -167.5 -59z" />
    <glyph glyph-name="iogonek" unicode="&#x12f;" horiz-adv-x="481" 
d="M256.5 -424q-106.5 0 -163 52.5t-56.5 140.5q0 127 125 231h-12v1004h182v-1004q-6 -4 -16 -10q-45 -26 -92.5 -80t-47.5 -121q0 -88 86 -88q64 0 111 37l51 -103q-61 -59 -167.5 -59zM246 1208q-53 0 -89 35t-36 87t36 88t89 36t89 -36t36 -88t-36 -87t-89 -35z" />
    <glyph glyph-name="Idotaccent" unicode="&#x130;" horiz-adv-x="552" 
d="M186 0v1405h181v-1405h-181zM276.5 1745q57.5 0 92 -35t34.5 -90t-34.5 -89t-92 -34t-92 34t-34.5 89t34.5 90t92 35z" />
    <glyph glyph-name="dotlessi" unicode="&#x131;" horiz-adv-x="481" 
d="M150 0v1004h182v-1004h-182z" />
    <glyph glyph-name="IJ" unicode="&#x132;" horiz-adv-x="1611" 
d="M1021 150q106 0 171 72.5t65 211.5v971h181v-959q0 -209 -108.5 -331.5t-311.5 -122.5t-311.5 116.5t-108.5 325.5h180q2 -145 69.5 -214.5t173.5 -69.5zM186 0v1405h181v-1405h-181z" />
    <glyph glyph-name="ij" unicode="&#x133;" horiz-adv-x="980" 
d="M498 -420q-94 0 -150 25l14 159q49 -20 97 -20q90 0 141 53t51 150v1057h180v-1063q0 -168 -90.5 -264.5t-242.5 -96.5zM150 0v1004h182v-1004h-182zM870 1330q0 -52 -36.5 -87t-90 -35t-88 35t-34.5 88t35.5 88t87.5 35t89 -36t37 -88zM371 1330q0 -52 -36 -87t-89 -35
t-89 35t-36 87t36 88t89 36t89 -36t36 -88z" />
    <glyph glyph-name="Jcircumflex" unicode="&#x134;" horiz-adv-x="1056" 
d="M466 150q106 0 171 72.5t65 211.5v971h181v-959q0 -209 -108.5 -331.5t-311.5 -122.5t-311.5 116.5t-108.5 325.5h180q2 -145 69.5 -214.5t173.5 -69.5zM905 1735l172 -265h-149l-142 146l-141 -146h-149l174 265h235z" />
    <glyph glyph-name="jcircumflex" unicode="&#x135;" horiz-adv-x="495" 
d="M12 -420q-94 0 -149 25l14 159q49 -20 96 -20q90 0 142 53q51 53 51 150v1057h180v-1063q0 -169 -91 -265t-243 -96zM-45 1157l195 328h200l195 -328h-154l-141 189l-141 -189h-154z" />
    <glyph glyph-name="Kcommaaccent" unicode="&#x136;" horiz-adv-x="1314" 
d="M700 -84q125 0 125 -168q-1 -141 -73 -227t-156 -82v92q43 0 76 40t33 103q-55 0 -91 35q-34 35 -34 89t35 86q36 32 85 32zM1188 -10q-82 0 -154 50t-149 177l-277 438l-241 -270v-385h-181v1405h181v-791l690 791h225l-543 -604l342 -549q59 -98 148 -98q57 0 82 10
l14 -158q-55 -16 -137 -16z" />
    <glyph glyph-name="kcommaaccent" unicode="&#x137;" horiz-adv-x="1026" 
d="M543 -84q125 0 125 -168q0 -141 -73 -227t-157 -82v92q43 0 76 40t33 103q-55 0 -90 35t-35 89t36 86t85 32zM330 0h-180v1454h180v-928l432 478h227l-393 -431l432 -573h-211l-338 449l-149 -164v-285z" />
    <glyph glyph-name="kgreenlandic" unicode="&#x138;" horiz-adv-x="1026" 
d="M330 0h-180v1004h180v-478l432 478h227l-393 -431l432 -573h-211l-338 449l-149 -164v-285z" />
    <glyph glyph-name="Lacute" unicode="&#x139;" horiz-adv-x="1132" 
d="M367 160h743v-160h-924v1405h181v-1245zM547 1755l-187 -264h-170l86 264h271z" />
    <glyph glyph-name="lacute" unicode="&#x13a;" horiz-adv-x="512" 
d="M381.5 154q23.5 0 50.5 10l14 -158q-55 -16 -127.5 -16t-124 54t-51.5 142v1268h181v-1233q0 -31 17 -49t40.5 -18zM500 1784l-187 -264h-170l86 264h271z" />
    <glyph glyph-name="Lcommaaccent" unicode="&#x13b;" horiz-adv-x="1132" 
d="M672 -84q125 0 125 -168q0 -141 -73 -227t-157 -82v92q43 0 76 40t33 103q-55 0 -90 35t-35 89t36 86t85 32zM367 160h743v-160h-924v1405h181v-1245z" />
    <glyph glyph-name="lcommaaccent" unicode="&#x13c;" horiz-adv-x="512" 
d="M289 -84q125 0 125 -168q0 -141 -73 -227t-157 -82v92q43 0 76 40t33 103q-55 0 -90 35t-35 89t36 86t85 32zM318.5 -10q-72.5 0 -124 54t-51.5 142v1268h181v-1233q0 -31 17 -49t40.5 -18t50.5 10l14 -158q-55 -16 -127.5 -16z" />
    <glyph glyph-name="Lcaron" unicode="&#x13d;" horiz-adv-x="1136" 
d="M367 160h743v-160h-924v1405h181v-1245zM844 1202q-57 0 -92 35t-35 89t35.5 86t85.5 32q125 0 125 -168q0 -141 -73 -228t-157 -83v92q43 0 77 41t34 104z" />
    <glyph glyph-name="lcaron" unicode="&#x13e;" horiz-adv-x="512" 
d="M381.5 154q23.5 0 50.5 10l14 -158q-55 -16 -127.5 -16t-124 54t-51.5 142v1268h181v-1233q0 -31 17 -49t40.5 -18zM528 1528q125 0 125 -168q0 -141 -72.5 -228.5t-156.5 -82.5v92q43 0 77 41t34 104q-57 0 -92 35t-35 89t35.5 86t84.5 32z" />
    <glyph glyph-name="Ldot" unicode="&#x13f;" horiz-adv-x="1134" 
d="M839.5 602q-57.5 0 -92 34t-34.5 89t34.5 90t92 35t92.5 -35t35 -90t-35 -89t-92.5 -34zM367 160h743v-160h-924v1405h181v-1245z" />
    <glyph glyph-name="ldot" unicode="&#x140;" horiz-adv-x="659" 
d="M569.5 829q57.5 0 92 -34.5t34.5 -90t-34.5 -89t-92 -33.5t-92.5 33.5t-35 89t35 90t92.5 34.5zM381.5 154q23.5 0 50.5 10l14 -158q-55 -16 -127.5 -16t-124 54t-51.5 142v1268h181v-1233q0 -31 17 -49t40.5 -18z" />
    <glyph glyph-name="Lslash" unicode="&#x141;" horiz-adv-x="1200" 
d="M434 160h744v-160h-924v485l-154 -94l-71 129l225 137v748h180v-637l238 145l71 -127l-309 -190v-436z" />
    <glyph glyph-name="lslash" unicode="&#x142;" horiz-adv-x="647" 
d="M477 154q25 0 49 10l15 -158q-55 -16 -128 -16t-124 54t-51 142v430l-144 -86l-65 119l209 127v678h180v-569l135 82l68 -119l-203 -123v-504q0 -31 17 -49t42 -18z" />
    <glyph glyph-name="Nacute" unicode="&#x143;" horiz-adv-x="1472" 
d="M1106 1405h180v-1405h-184l-735 1124v-1124h-181v1405h185l735 -1122v1122zM1026 1755l-186 -264h-170l86 264h270z" />
    <glyph glyph-name="nacute" unicode="&#x144;" horiz-adv-x="1150" 
d="M829 596q0 264 -234 264q-118 0 -191.5 -74.5t-73.5 -201.5v-584h-180v1004h169l9 -150q110 160 321 160q168 0 265.5 -99.5t97.5 -281.5v-633h-183v596zM838 1485l-187 -328h-147l106 328h228z" />
    <glyph glyph-name="Ncommaaccent" unicode="&#x145;" horiz-adv-x="1472" 
d="M741 -84q125 0 125 -168q0 -141 -72.5 -227t-156.5 -82v92q43 0 75.5 40t32.5 103q-55 0 -89.5 35t-34.5 89t35.5 86t84.5 32zM1106 1405h180v-1405h-184l-735 1124v-1124h-181v1405h185l735 -1122v1122z" />
    <glyph glyph-name="ncommaaccent" unicode="&#x146;" horiz-adv-x="1150" 
d="M586 -84q125 0 125 -168q0 -141 -73 -227t-157 -82v92q43 0 76 40t33 103q-55 0 -90 35t-35 89t36 86t85 32zM829 596q0 264 -234 264q-118 0 -191.5 -74.5t-73.5 -201.5v-584h-180v1004h169l9 -150q110 160 321 160q168 0 265.5 -99.5t97.5 -281.5v-633h-183v596z" />
    <glyph glyph-name="Ncaron" unicode="&#x147;" horiz-adv-x="1472" 
d="M1106 1405h180v-1405h-184l-735 1124v-1124h-181v1405h185l735 -1122v1122zM858 1491h-235l-174 264h149l141 -145l142 145h149z" />
    <glyph glyph-name="ncaron" unicode="&#x148;" horiz-adv-x="1150" 
d="M829 596q0 264 -234 264q-118 0 -191.5 -74.5t-73.5 -201.5v-584h-180v1004h169l9 -150q110 160 321 160q168 0 265.5 -99.5t97.5 -281.5v-633h-183v596zM698 1157h-200l-197 328h154l141 -189l143 189h154z" />
    <glyph glyph-name="napostrophe" unicode="&#x149;" horiz-adv-x="1288" 
d="M967 596q0 264 -235 264q-118 0 -191.5 -74.5t-73.5 -201.5v-584h-180v1004h170l8 -150q110 160 321 160q168 0 265.5 -99.5t97.5 -281.5v-633h-182v596zM178 1475q125 0 125 -168q0 -141 -72.5 -228.5t-156.5 -83.5v92q43 0 76.5 41t33.5 105q-57 0 -92 35t-35 89t36 86
t85 32z" />
    <glyph glyph-name="Eng" unicode="&#x14a;" horiz-adv-x="1472" 
d="M1106 1405h180v-1464q0 -168 -91 -264.5t-243 -96.5q-94 0 -149 25l14 159q49 -20 96 -20q86 0 137.5 50t51.5 132v74l-735 1124v-1124h-181v1405h185l735 -1122v1122z" />
    <glyph glyph-name="eng" unicode="&#x14b;" horiz-adv-x="1150" 
d="M829 596q0 264 -234 264q-118 0 -191.5 -74.5t-73.5 -201.5v-584h-180v1004h169l9 -150q110 160 321 160q168 0 265.5 -99.5t97.5 -281.5v-692q0 -168 -91.5 -264.5t-242.5 -96.5q-94 0 -150 25l15 159q49 -20 96 -20q90 0 140 53t50 150v649z" />
    <glyph glyph-name="Omacron" unicode="&#x14c;" horiz-adv-x="1556" 
d="M778 147q213 0 355.5 151t142.5 403.5t-142.5 404t-355.5 151.5t-355 -151.5t-142 -404.5t142 -403.5t355 -150.5zM777 -12q-294 0 -486.5 191.5t-192.5 517t193.5 523t487.5 197.5t486.5 -191.5t192.5 -517t-193.5 -523t-487.5 -197.5zM498 1548v135h563v-135h-563z" />
    <glyph glyph-name="omacron" unicode="&#x14d;" horiz-adv-x="1169" 
d="M585 860q-140 0 -226.5 -101.5t-86.5 -260t86 -257t226.5 -98.5t226.5 97.5t86 258.5t-86 261t-226 100zM586 1014q223 0 359 -140.5t136 -370t-136 -371.5t-360 -142t-360.5 137t-136.5 365.5t137.5 375t360.5 146.5zM303 1262v135h563v-135h-563z" />
    <glyph glyph-name="Obreve" unicode="&#x14e;" horiz-adv-x="1556" 
d="M778 147q213 0 355.5 151t142.5 403.5t-142.5 404t-355.5 151.5t-355 -151.5t-142 -404.5t142 -403.5t355 -150.5zM777 -12q-294 0 -486.5 191.5t-192.5 517t193.5 523t487.5 197.5t486.5 -191.5t192.5 -517t-193.5 -523t-487.5 -197.5zM1042 1755q0 -115 -68.5 -189.5
t-195.5 -74.5t-194.5 74.5t-67.5 189.5h150q0 -127 112.5 -127t112.5 127h151z" />
    <glyph glyph-name="obreve" unicode="&#x14f;" horiz-adv-x="1169" 
d="M585 860q-140 0 -226.5 -101.5t-86.5 -260t86 -257t226.5 -98.5t226.5 97.5t86 258.5t-86 261t-226 100zM586 1014q223 0 359 -140.5t136 -370t-136 -371.5t-360 -142t-360.5 137t-136.5 365.5t137.5 375t360.5 146.5zM866 1475q0 -150 -74.5 -237t-208.5 -87t-209 86
t-75 238h150q0 -186 133 -186.5t133 186.5h151z" />
    <glyph glyph-name="Ohungarumlaut" unicode="&#x150;" horiz-adv-x="1556" 
d="M778 147q213 0 355.5 151t142.5 403.5t-142.5 404t-355.5 151.5t-355 -151.5t-142 -404.5t142 -403.5t355 -150.5zM777 -12q-294 0 -486.5 191.5t-192.5 517t193.5 523t487.5 197.5t486.5 -191.5t192.5 -517t-193.5 -523t-487.5 -197.5zM954 1491h-151l106 264h238z
M637 1491h-152l107 264h237z" />
    <glyph glyph-name="ohungarumlaut" unicode="&#x151;" horiz-adv-x="1169" 
d="M585 860q-140 0 -226.5 -101.5t-86.5 -260t86 -257t226.5 -98.5t226.5 97.5t86 258.5t-86 261t-226 100zM586 1014q223 0 359 -140.5t136 -370t-136 -371.5t-360 -142t-360.5 137t-136.5 365.5t137.5 375t360.5 146.5zM803 1157h-141l86 328h241zM467 1157h-141l86 328
h241z" />
    <glyph glyph-name="OE" unicode="&#x152;" horiz-adv-x="2332" 
d="M778 147q214 0 356 151q142 152 142 404t-142.5 403.5t-355.5 151.5t-355 -151.5t-142 -404.5t142 -403.5t355 -150.5zM1464 160h764v-160h-944v207q-190 -219 -496 -219t-498 191.5t-192 517t193.5 523t496.5 197.5t496 -211v199h934v-162h-754v-432h688v-162h-688v-489
z" />
    <glyph glyph-name="oe" unicode="&#x153;" horiz-adv-x="1921" 
d="M1378.5 860q-114.5 0 -191.5 -72.5t-100 -199.5h564q-16 133 -87 202.5t-185.5 69.5zM585 143q140 0 226 97.5t86 258.5t-86 261t-226 100t-226.5 -101.5t-86.5 -260t86.5 -257t226.5 -98.5zM1833 500v-45h-750q10 -145 89 -228.5t205 -83.5t188.5 50.5t79.5 123.5h182
q-31 -147 -143.5 -237t-303.5 -90q-266 0 -395 190q-137 -190 -401 -190q-223 0 -359.5 137t-136.5 365.5t137 375t359 146.5q272 0 407 -195q135 195 385 195q211 0 334 -136t123 -378z" />
    <glyph glyph-name="Racute" unicode="&#x154;" horiz-adv-x="1314" 
d="M367 715h333q133 -1 204 73t71 193t-71 193t-204 73h-333v-532zM1159 -10q-123 0 -193 55t-132 172l-187 348h-280v-565h-181v1405h514q203 0 330 -112t127 -312q0 -156 -80 -257t-219 -138l172 -334q53 -98 148 -98q55 0 82 10l14 -158q-55 -16 -115 -16zM899 1755
l-186 -264h-170l86 264h270z" />
    <glyph glyph-name="racute" unicode="&#x155;" horiz-adv-x="684" 
d="M588 1014q20 0 57 -6l-2 -179q-16 8 -68 9q-102 0 -173.5 -82t-71.5 -228v-528h-180v1004h169l5 -162q86 172 264 172zM645 1485l-186 -328h-148l107 328h227z" />
    <glyph glyph-name="Rcommaaccent" unicode="&#x156;" horiz-adv-x="1314" 
d="M674 -84q125 0 125 -168q0 -141 -73 -227t-157 -82v92q43 0 76 40t33 103q-55 0 -90 35t-35 89t36 86t85 32zM367 715h333q133 -1 204 73t71 193t-71 193t-204 73h-333v-532zM1159 -10q-123 0 -193 55t-132 172l-187 348h-280v-565h-181v1405h514q203 0 330 -112
t127 -312q0 -156 -80 -257t-219 -138l172 -334q53 -98 148 -98q55 0 82 10l14 -158q-55 -16 -115 -16z" />
    <glyph glyph-name="rcommaaccent" unicode="&#x157;" horiz-adv-x="684" 
d="M256 -84q125 0 125 -168q0 -141 -72.5 -227t-156.5 -82v92q43 0 75.5 40t32.5 103q-55 0 -90 35t-35 89t36 86t85 32zM588 1014q20 0 57 -6l-2 -179q-16 8 -68 9q-102 0 -173.5 -82t-71.5 -228v-528h-180v1004h169l5 -162q86 172 264 172z" />
    <glyph glyph-name="Rcaron" unicode="&#x158;" horiz-adv-x="1314" 
d="M367 715h333q133 -1 204 73t71 193t-71 193t-204 73h-333v-532zM1159 -10q-123 0 -193 55t-132 172l-187 348h-280v-565h-181v1405h514q203 0 330 -112t127 -312q0 -156 -80 -257t-219 -138l172 -334q53 -98 148 -98q55 0 82 10l14 -158q-55 -16 -115 -16zM731 1491h-235
l-174 264h149l141 -145l142 145h149z" />
    <glyph glyph-name="rcaron" unicode="&#x159;" horiz-adv-x="684" 
d="M588 1014q20 0 57 -6l-2 -179q-16 8 -68 9q-102 0 -173.5 -82t-71.5 -228v-528h-180v1004h169l5 -162q86 172 264 172zM506 1157h-201l-196 328h153l141 -189l144 189h153z" />
    <glyph glyph-name="Sacute" unicode="&#x15a;" horiz-adv-x="1228" 
d="M305 1042q0 -76 46 -125t119 -73.5t161 -43t176 -45t160.5 -67.5t119 -123t46.5 -198q0 -170 -143.5 -274.5t-384.5 -104.5t-380 108.5t-139 306.5h178q0 -121 94.5 -188.5t258.5 -67.5t249.5 57.5t83.5 162.5q0 80 -46 132t-118.5 76.5t-160.5 44t-176.5 44t-161 63.5
t-118.5 118t-46 193q0 172 137 275.5t364.5 103.5t359.5 -107.5t130 -297.5h-178q0 123 -84 184t-234 61q-313 0 -313 -215zM907 1755l-186 -264h-170l86 264h270z" />
    <glyph glyph-name="sacute" unicode="&#x15b;" horiz-adv-x="966" 
d="M285 731q0 -105 210 -145q87 -16 175 -42t149.5 -92.5t61.5 -186.5t-105.5 -197.5t-296.5 -77.5q-393 0 -399 305l166 -2q8 -76 62 -113t173 -37q221 0 221 129q0 63 -61 98.5t-148 53.5t-175.5 43t-150 90.5t-61.5 183t102.5 195.5t283 78t274.5 -79t100 -226l-168 2
q-12 150 -212.5 149.5t-200.5 -129.5zM731 1487l-186 -328h-148l107 328h227z" />
    <glyph glyph-name="Scircumflex" unicode="&#x15c;" horiz-adv-x="1228" 
d="M305 1042q0 -76 46 -125t119 -73.5t161 -43t176 -45t160.5 -67.5t119 -123t46.5 -198q0 -170 -143.5 -274.5t-384.5 -104.5t-380 108.5t-139 306.5h178q0 -121 94.5 -188.5t258.5 -67.5t249.5 57.5t83.5 162.5q0 80 -46 132t-118.5 76.5t-160.5 44t-176.5 44t-161 63.5
t-118.5 118t-46 193q0 172 137 275.5t364.5 103.5t359.5 -107.5t130 -297.5h-178q0 123 -84 184t-234 61q-313 0 -313 -215zM618 1636l-141 -145h-149l174 264h235l172 -264h-149z" />
    <glyph glyph-name="scircumflex" unicode="&#x15d;" horiz-adv-x="966" 
d="M285 731q0 -105 210 -145q87 -16 175 -42t149.5 -92.5t61.5 -186.5t-105.5 -197.5t-296.5 -77.5q-393 0 -399 305l166 -2q8 -76 62 -113t173 -37q221 0 221 129q0 63 -61 98.5t-148 53.5t-175.5 43t-150 90.5t-61.5 183t102.5 195.5t283 78t274.5 -79t100 -226l-168 2
q-12 150 -212.5 149.5t-200.5 -129.5zM492 1348l-142 -189h-153l194 328h201l194 -328h-153z" />
    <glyph glyph-name="Scedilla" unicode="&#x15e;" horiz-adv-x="1228" 
d="M1133 367q0 -162 -129.5 -264.5t-344.5 -112.5l-16 -72q70 -4 117 -41t47 -118t-61.5 -131t-153.5 -50t-150 23l29 120q49 -18 107 -18q98 0 98 55q0 63 -166 64l37 168q-219 16 -340 122.5t-121 290.5h178q0 -121 94.5 -188.5t258.5 -67.5t249.5 57.5t83.5 162.5
q0 80 -46 132t-118.5 76.5t-160.5 44t-176.5 44t-161 63.5t-118.5 118t-46 193q0 172 137 275.5t364.5 103.5t359.5 -107.5t130 -297.5h-178q0 123 -84 184t-234 61q-313 0 -313 -215q0 -76 46 -125t119 -73.5t161 -43t176 -45t160.5 -67.5t119 -122.5t46.5 -198.5z" />
    <glyph glyph-name="scedilla" unicode="&#x15f;" horiz-adv-x="966" 
d="M881 269q0 -116 -93.5 -192.5t-261.5 -84.5l-16 -74q70 -4 117 -41t47 -118t-61.5 -131t-153 -50t-150.5 23l29 120q49 -18 106 -18q98 0 99 55q0 63 -166 64l37 170q-328 23 -334 303l166 -2q8 -76 62 -113t173 -37q221 0 221 129q0 63 -61 98.5t-148 53.5t-175.5 43
t-150 90.5t-61.5 183t102.5 195.5t283 78t274.5 -79t100 -226l-168 2q-12 150 -213 149.5t-200 -129.5q0 -105 210 -145q87 -16 175 -42t149.5 -92.5t61.5 -182.5z" />
    <glyph glyph-name="Scaron" unicode="&#x160;" horiz-adv-x="1228" 
d="M305 1042q0 -76 46 -125t119 -73.5t161 -43t176 -45t160.5 -67.5t119 -123t46.5 -198q0 -170 -143.5 -274.5t-384.5 -104.5t-380 108.5t-139 306.5h178q0 -121 94.5 -188.5t258.5 -67.5t249.5 57.5t83.5 162.5q0 80 -46 132t-118.5 76.5t-160.5 44t-176.5 44t-161 63.5
t-118.5 118t-46 193q0 172 137 275.5t364.5 103.5t359.5 -107.5t130 -297.5h-178q0 123 -84 184t-234 61q-313 0 -313 -215zM739 1491h-235l-174 264h149l142 -145l141 145h149z" />
    <glyph glyph-name="scaron" unicode="&#x161;" horiz-adv-x="966" 
d="M285 731q0 -105 210 -145q87 -16 175 -42t149.5 -92.5t61.5 -186.5t-105.5 -197.5t-296.5 -77.5q-393 0 -399 305l166 -2q8 -76 62 -113t173 -37q221 0 221 129q0 63 -61 98.5t-148 53.5t-175.5 43t-150 90.5t-61.5 183t102.5 195.5t283 78t274.5 -79t100 -226l-168 2
q-12 150 -212.5 149.5t-200.5 -129.5zM592 1159h-201l-196 328h153l141 -189l144 189h153z" />
    <glyph glyph-name="uni0162" unicode="&#x162;" horiz-adv-x="1150" 
d="M666 0h-35l-19 -82q70 -4 117 -41t47 -118t-61.5 -131t-152.5 -50t-150 23l28 120q49 -18 107 -18q98 0 98 55q0 63 -166 64l39 178h-33v1243h-460v162h1101v-162h-460v-1243z" />
    <glyph glyph-name="uni0163" unicode="&#x163;" horiz-adv-x="890" 
d="M528 -8h-14l-16 -74q70 -4 116 -41t48 -118q0 -81 -62 -131t-152 -50q-92 0 -151 23l29 120q49 -18 106 -18q98 0 98 55q0 63 -165 64l41 188q-209 63 -209 320v518h-152v156h162v299h172v-299h364v-152h-364v-522q0 -96 36 -140t113 -45q158 0 158 185h164
q0 -160 -84 -249t-238 -89z" />
    <glyph glyph-name="Tcaron" unicode="&#x164;" horiz-adv-x="1150" 
d="M485 0v1243h-460v162h1101v-162h-460v-1243h-181zM700 1491h-235l-174 264h149l142 -145l141 145h149z" />
    <glyph glyph-name="tcaron" unicode="&#x165;" horiz-adv-x="890" 
d="M686 330h164q0 -160 -84 -249t-237 -89t-243 88t-89 250v518h-152v156h162v299h172v-299h364v-152h-364v-522q0 -96 36 -140t113 -45q158 1 158 185zM612 1286q-57 0 -92 35t-35 89t36 86t87 32t87 -42t36 -150t-72 -181q-72 -74 -157 -70v93q43 0 77 29q33 30 33 79z
" />
    <glyph glyph-name="Tbar" unicode="&#x166;" horiz-adv-x="1175" 
d="M1139 1243h-461v-432h272v-152h-272v-659h-180v659h-273v152h273v432h-461v162h1102v-162z" />
    <glyph glyph-name="tbar" unicode="&#x167;" horiz-adv-x="890" 
d="M686 330h164q0 -160 -84 -249t-237 -89t-243 88t-89 250v174h-123v131h123v213h-152v156h162v299h172v-299h364v-152h-364v-217h299v-131h-299v-174q0 -96 36 -140t113 -45q158 1 158 185z" />
    <glyph glyph-name="Utilde" unicode="&#x168;" horiz-adv-x="1439" 
d="M1087 1405h181v-860q0 -258 -148.5 -407.5t-404.5 -149.5t-400.5 147.5t-144.5 409.5v860h180v-860q0 -197 95.5 -297.5t273.5 -100.5t273 100.5t95 297.5v860zM600 1612q-76 0 -76 -88h-135q0 231 195 231q82 0 151.5 -48t104.5 -48q76 0 75 88h134q0 -111 -51.5 -171
t-135.5 -60t-154.5 48t-107.5 48z" />
    <glyph glyph-name="utilde" unicode="&#x169;" horiz-adv-x="1169" 
d="M981 -10q-68 0 -117 42t-59 113q-111 -156 -307 -155q-158 0 -258.5 99t-100.5 261v654h183v-629q0 -111 55 -171.5t165.5 -60.5t184.5 74t74 203v584h180v-783q0 -31 17.5 -49t42 -18t49.5 10l14 -158q-55 -16 -123 -16zM420 1294q-76 0 -76 -88h-135q0 231 194 232
q82 0 153 -48.5t106 -48.5q76 0 75 89h133q0 -111 -51 -171.5t-136 -60.5t-155.5 48t-107.5 48z" />
    <glyph glyph-name="Umacron" unicode="&#x16a;" horiz-adv-x="1439" 
d="M1087 1405h181v-860q0 -258 -148.5 -407.5t-404.5 -149.5t-400.5 147.5t-144.5 409.5v860h180v-860q0 -197 95.5 -297.5t273.5 -100.5t273 100.5t95 297.5v860zM436 1548v135h563v-135h-563z" />
    <glyph glyph-name="umacron" unicode="&#x16b;" horiz-adv-x="1169" 
d="M981 -10q-68 0 -117 42t-59 113q-111 -156 -307 -155q-158 0 -258.5 99t-100.5 261v654h183v-629q0 -111 55 -171.5t165.5 -60.5t184.5 74t74 203v584h180v-783q0 -31 17.5 -49t42 -18t49.5 10l14 -158q-55 -16 -123 -16zM842 1397v-135h-563v135h563z" />
    <glyph glyph-name="Ubreve" unicode="&#x16c;" horiz-adv-x="1439" 
d="M1087 1405h181v-860q0 -258 -148.5 -407.5t-404.5 -149.5t-400.5 147.5t-144.5 409.5v860h180v-860q0 -197 95.5 -297.5t273.5 -100.5t273 100.5t95 297.5v860zM983 1755q0 -115 -68.5 -189.5t-195.5 -74.5t-194.5 74.5t-67.5 189.5h149q0 -127 112.5 -127t112.5 127h152
z" />
    <glyph glyph-name="ubreve" unicode="&#x16d;" horiz-adv-x="1169" 
d="M981 -10q-68 0 -117 42t-59 113q-111 -156 -307 -155q-158 0 -258.5 99t-100.5 261v654h183v-629q0 -111 55 -171.5t165.5 -60.5t184.5 74t74 203v584h180v-783q0 -31 17.5 -49t42 -18t49.5 10l14 -158q-55 -16 -123 -16zM558 1151q-134 0 -209 86t-75 238h150
q0 -186 133 -186.5t133 186.5h152q0 -150 -75 -237t-209 -87z" />
    <glyph glyph-name="Uring" unicode="&#x16e;" horiz-adv-x="1439" 
d="M1087 1405h181v-860q0 -258 -148.5 -407.5t-404.5 -149.5t-400.5 147.5t-144.5 409.5v860h180v-860q0 -197 95.5 -297.5t273.5 -100.5t273 100.5t95 297.5v860zM719 1571q35 0 56.5 21.5t21.5 53.5t-21.5 52t-56.5 20t-55 -20t-20.5 -52t20 -53.5t55.5 -21.5zM719 1458
q-82 0 -139.5 51.5t-57.5 136.5t57.5 137t139.5 52t139 -52t57 -137t-57 -136.5t-139 -51.5z" />
    <glyph glyph-name="uring" unicode="&#x16f;" horiz-adv-x="1169" 
d="M981 -10q-68 0 -117 42t-59 113q-111 -156 -307 -155q-158 0 -258.5 99t-100.5 261v654h183v-629q0 -111 55 -171.5t165.5 -60.5t184.5 74t74 203v584h180v-783q0 -31 17.5 -49t42 -18t49.5 10l14 -158q-55 -16 -123 -16zM559 1393q-35 0 -55.5 -20.5t-20.5 -52.5
t20.5 -53.5t55.5 -21.5t56.5 21.5t21.5 53.5t-21.5 52.5t-56.5 20.5zM559 1133q-82 0 -139.5 51t-57.5 136t57.5 137t139.5 52t139.5 -52t57.5 -137t-57.5 -136t-139.5 -51z" />
    <glyph glyph-name="Uhungarumlaut" unicode="&#x170;" horiz-adv-x="1439" 
d="M1087 1405h181v-860q0 -258 -148.5 -407.5t-404.5 -149.5t-400.5 147.5t-144.5 409.5v860h180v-860q0 -197 95.5 -297.5t273.5 -100.5t273 100.5t95 297.5v860zM895 1491h-152l107 264h237zM578 1491h-152l106 264h238z" />
    <glyph glyph-name="uhungarumlaut" unicode="&#x171;" horiz-adv-x="1169" 
d="M981 -10q-68 0 -117 42t-59 113q-111 -156 -307 -155q-158 0 -258.5 99t-100.5 261v654h183v-629q0 -111 55 -171.5t165.5 -60.5t184.5 74t74 203v584h180v-783q0 -31 17.5 -49t42 -18t49.5 10l14 -158q-55 -16 -123 -16zM965 1485l-187 -328h-141l86 328h242zM629 1485
l-187 -328h-141l86 328h242z" />
    <glyph glyph-name="Uogonek" unicode="&#x172;" horiz-adv-x="1439" 
d="M1087 1405h181v-860q0 -197 -89 -333t-247 -192q-65 -34 -109.5 -95.5t-44.5 -112.5q0 -88 86 -88q63 0 111 36l51 -102q-61 -59 -167.5 -59t-163 52t-56.5 149t86 188h-6q-260 0 -404.5 147.5t-144.5 409.5v860h180v-860q0 -197 95.5 -297.5t273.5 -100.5t273 100.5
t95 297.5v860z" />
    <glyph glyph-name="uogonek" unicode="&#x173;" horiz-adv-x="1169" 
d="M809 -225q0 125 117 225q-104 31 -121 145q-111 -156 -307 -155q-158 0 -258.5 99t-100.5 261v654h183v-629q0 -111 55 -171.5t165.5 -60.5t184.5 74t74 203v584h180v-783q0 -31 17.5 -49t42 -18t49.5 10l14 -158q-6 -4 -16 -10q-45 -26 -92.5 -80t-47.5 -121
q0 -88 86 -88q64 0 111 37l51 -102q-61 -59 -167.5 -59.5t-163 52t-56.5 140.5z" />
    <glyph glyph-name="Wcircumflex" unicode="&#x174;" horiz-adv-x="1923" 
d="M1706 1405h182l-411 -1405h-191l-323 1174l-324 -1174h-193l-411 1405h182l324 -1204l327 1204h187l327 -1204zM963 1636l-142 -145h-149l174 264h235l172 -264h-149z" />
    <glyph glyph-name="wcircumflex" unicode="&#x175;" horiz-adv-x="1556" 
d="M1315 1004h203l-308 -1004h-213l-202 705q-10 39 -15 69h-4q-4 -31 -14 -69l-203 -705h-213l-307 1004h203l186 -713q6 -25 17.5 -61.5t13.5 -45.5h4q2 8 13 45t18 62l192 713h184l193 -713q6 -25 17.5 -61.5t13.5 -45.5h4q11 32 30 107zM776 1346l-141 -189h-154
l195 328h201l194 -328h-153z" />
    <glyph glyph-name="Ycircumflex" unicode="&#x176;" horiz-adv-x="1234" 
d="M707 0h-181v569l-501 836h198l395 -670l394 670h198l-503 -838v-567zM616 1636l-141 -145h-149l174 264h235l172 -264h-149z" />
    <glyph glyph-name="ycircumflex" unicode="&#x177;" horiz-adv-x="1032" 
d="M240.5 -420q-111.5 0 -166.5 25l14 159q49 -20 112.5 -20t116 31.5t91.5 128.5l24 57l-395 1043h203l254 -713q16 -45 32 -107h4q10 51 29 107l258 713h184l-423 -1117q-66 -172 -146 -239.5t-191.5 -67.5zM514 1346l-141 -189h-154l195 328h200l195 -328h-154z" />
    <glyph glyph-name="Ydieresis" unicode="&#x178;" horiz-adv-x="1234" 
d="M707 0h-181v569l-501 836h198l395 -670l394 670h198l-503 -838v-567zM807 1520q-51 0 -82 30.5t-31 78.5t31 79t82 31t82 -31t31 -79t-31 -78.5t-82 -30.5zM430 1520q-51 0 -82 30.5t-31 78.5t31 79t82 31t82 -31t31 -79t-31 -78.5t-82 -30.5z" />
    <glyph glyph-name="Zacute" unicode="&#x179;" horiz-adv-x="1196" 
d="M1116 160v-160h-1042v145l821 1098h-801v162h1020l-2 -145l-821 -1100h825zM868 1755l-186 -264h-170l86 264h270z" />
    <glyph glyph-name="zacute" unicode="&#x17a;" horiz-adv-x="942" 
d="M866 152v-152h-788v147l553 705h-539v152h758v-146l-551 -706h567zM731 1485l-186 -328h-148l107 328h227z" />
    <glyph glyph-name="Zdotaccent" unicode="&#x17b;" horiz-adv-x="1196" 
d="M1116 160v-160h-1042v145l821 1098h-801v162h1020l-2 -145l-821 -1100h825zM577.5 1497q-57.5 0 -92 34t-34.5 89t34.5 90t92 35t92.5 -35t35 -90t-35 -89t-92.5 -34z" />
    <glyph glyph-name="zdotaccent" unicode="&#x17c;" horiz-adv-x="942" 
d="M866 152v-152h-788v147l553 705h-539v152h758v-146l-551 -706h567zM489.5 1210q-57.5 0 -92.5 34t-35 89.5t35 90t92.5 34.5t92 -34.5t34.5 -90t-34.5 -89.5t-92 -34z" />
    <glyph glyph-name="Zcaron" unicode="&#x17d;" horiz-adv-x="1196" 
d="M1116 160v-160h-1042v145l821 1098h-801v162h1020l-2 -145l-821 -1100h825zM700 1491h-235l-174 264h149l142 -145l141 145h149z" />
    <glyph glyph-name="zcaron" unicode="&#x17e;" horiz-adv-x="942" 
d="M866 152v-152h-788v147l553 705h-539v152h758v-146l-551 -706h567zM592 1157h-201l-196 328h153l141 -189l144 189h153z" />
    <glyph glyph-name="uni018F" unicode="&#x18f;" horiz-adv-x="1445" 
d="M721 147q157 0 277 111t153 315h-872q55 -426 442 -426zM721 1417q293 -1 458 -195t165 -516t-178 -520q-177 -197 -445 -196q-311 0 -471 190t-160 543v10h1071q-6 262 -132 393t-305 131t-282 -80q-102 -81 -135 -208h-182q39 199 195 323t401 125z" />
    <glyph glyph-name="uni019D" unicode="&#x19d;" horiz-adv-x="1472" 
d="M1106 1405h180v-1405h-184l-735 1124v-1183q0 -168 -90.5 -264.5t-239.5 -96.5q-94 0 -150 25l15 159q49 -20 96 -20q86 0 137 50t51 132v1479h185l735 -1122v1122z" />
    <glyph glyph-name="Gcaron" unicode="&#x1e6;" horiz-adv-x="1470" 
d="M756 731h592v-731h-140v244q-143 -256 -473 -256q-287 0 -461 194q-174 192 -174 518t182 522q180 196 458 195.5t428.5 -131.5t172.5 -342h-184q-20 137 -117.5 225t-295.5 88t-329.5 -150.5t-131.5 -404.5t126 -404q125 -150 327 -150.5t325 116.5t137 273v41h-442v153
zM874 1491h-235l-174 264h149l142 -145l141 145h150z" />
    <glyph glyph-name="gcaron" unicode="&#x1e7;" horiz-adv-x="1208" 
d="M573.5 143q141.5 0 223.5 104.5t82 233.5v41q0 129 -82 233.5t-222.5 104.5t-221.5 -98t-81 -259t80 -260.5t221.5 -99.5zM1059 1004v-1024q0 -180 -127 -295t-357 -115q-416 0 -452 321h180q16 -90 82 -128.5t202 -38.5t214 71.5t78 184.5v174q-100 -164 -317.5 -164
t-345.5 141t-128 371.5t129 371t345 140.5t319 -168l8 158h170zM707 1157h-201l-197 328h154l141 -189l144 189h153z" />
    <glyph glyph-name="uni01EA" unicode="&#x1ea;" horiz-adv-x="1556" 
d="M281 701q0 -253 142 -403.5t355 -150.5t355.5 151t142.5 403.5t-142.5 404t-355.5 151.5t-355 -151.5t-142 -404.5zM883 -291q63 0 110 37l51 -102q-61 -59 -167.5 -59.5t-163 52t-56.5 140.5q0 119 101 211q-287 6 -473.5 197.5t-186.5 514t193.5 520t487.5 197.5
t486.5 -191.5t192.5 -516.5q0 -274 -139.5 -460t-366.5 -241q-156 -104 -155 -211q0 -88 86 -88z" />
    <glyph glyph-name="uni01EB" unicode="&#x1eb;" horiz-adv-x="1169" 
d="M272 499q0 -159 86 -257.5t226.5 -98.5t226.5 97.5t86 258.5t-86 261t-226 100t-226.5 -101t-86.5 -260zM621 -184q0 -88 86 -88q63 0 110 36l51 -102q-61 -59 -167.5 -59t-163 52t-56.5 147t84 188q-215 6 -346 143t-131 362.5t137 372t360.5 146.5t359.5 -140.5
t136 -369.5q0 -178 -84.5 -307.5t-234.5 -180.5q-141 -90 -141 -200z" />
    <glyph glyph-name="Aringacute" unicode="&#x1fa;" horiz-adv-x="1296" 
d="M397 516h502l-250 688zM649 1583q-35 0 -55.5 -20.5t-20.5 -52.5t20.5 -53t55.5 -21t56.5 21.5t21.5 53t-21.5 52t-56.5 20.5zM654 1700q87 0 145 -62l59 117h191l-203 -262q-8 -86 -78 -135l502 -1358h-183l-129 356h-620l-129 -356h-182l501 1360q-76 55 -75.5 145
t57.5 142.5t144 52.5z" />
    <glyph glyph-name="aringacute" unicode="&#x1fb;" horiz-adv-x="1118" 
d="M459 135q139 0 226 77t87 157v69h-221q-285 0 -285 -168q0 -135 193 -135zM951.5 -10q-68.5 0 -118 45t-59.5 119q-104 -164 -352 -164q-166 0 -253 73.5t-87 198.5q0 156 129 231.5t350 75.5h211v66q0 106 -64.5 165.5t-178.5 59.5t-177 -49t-71 -139h-177
q12 162 129 252t310 90t301 -100.5t108 -282.5v-410q0 -31 16.5 -49t42 -18t50.5 10l14 -158q-55 -16 -123.5 -16zM551 1393q-35 0 -55.5 -20.5t-20.5 -52.5t20.5 -53.5t55.5 -21.5t56.5 21.5t21.5 53.5t-21.5 52.5t-56.5 20.5zM547 1133q-78 0 -135.5 51t-57.5 136
t57.5 137t138.5 52t134 -47l53 148h191l-183 -326q-12 -70 -66 -110.5t-132 -40.5z" />
    <glyph glyph-name="AEacute" unicode="&#x1fc;" horiz-adv-x="2037" 
d="M989 516v719h-2l-473 -719h475zM1169 160h766v-160h-946v356h-579l-234 -356h-194l899 1405h1042v-162h-754v-432h689v-162h-689v-489zM1298 1755l-186 -264h-170l86 264h270z" />
    <glyph glyph-name="aeacute" unicode="&#x1fd;" horiz-adv-x="1767" 
d="M647 438q-383 0 -383 -168q0 -129 193 -129q137 0 227 73t94 151l-12 73h-119zM1234.5 860q-108.5 0 -186 -73.5t-98.5 -198.5h547q-16 133 -85 202.5t-177.5 69.5zM1679 500v-45h-733q12 -141 92 -226.5t198 -85.5t179.5 51.5t77.5 122.5h182q-29 -147 -138.5 -237
t-295.5 -90q-262 0 -395 205q-147 -205 -426 -205q-162 0 -251 74.5t-89 197.5q0 307 567 307h117v66q0 106 -63.5 165.5t-170 59.5t-168 -49t-75.5 -139h-181q16 158 128 250t290 92q250 0 359 -158q135 158 345 158t330.5 -137t120.5 -377zM1135 1485l-187 -328h-147
l106 328h228z" />
    <glyph glyph-name="Oslashacute" unicode="&#x1fe;" horiz-adv-x="1556" 
d="M778 147q213 0 355.5 151t142.5 403.5t-146 408.5l-569 -913q98 -50 217 -50zM281 699q0 -255 151 -410l572 915q-102 53 -226 53q-213 0 -355 -151.5t-142 -406.5zM1458 723q0 -340 -193.5 -537.5t-486.5 -197.5q-168 0 -305 65l-92 -147h-188l145 231
q-240 197 -240 559q0 326 193.5 523.5t486.5 197.5q168 0 314 -67l73 116h187l-127 -202q233 -201 233 -541zM1004 1731l-187 -265h-170l86 265h271z" />
    <glyph glyph-name="oslashacute" unicode="&#x1ff;" horiz-adv-x="1169" 
d="M584 143q141 0 227 97.5t86 258.5t-86 259l-356 -588q59 -27 129 -27zM272 499q0 -159 84 -255l361 587q-61 29 -133 29q-139 0 -225.5 -101t-86.5 -260zM1081 504q0 -229 -136 -371.5t-361 -142.5q-117 0 -215 41l-54 -88h-143l92 149q-176 139 -176 384t137 391.5
t359 146.5q121 0 219 -43l51 86h139l-88 -146q176 -143 176 -407zM817 1485l-186 -328h-148l107 328h227z" />
    <glyph glyph-name="Scommaaccent" unicode="&#x218;" horiz-adv-x="1228" 
d="M631 -84q125 0 125 -168q0 -141 -73 -227t-157 -82v92q43 0 76 40t33 103q-55 0 -90 35t-35 89t36 86t85 32zM305 1042q0 -76 46 -125t119 -73.5t161 -43t176 -45t160.5 -67.5t119 -123t46.5 -198q0 -170 -143.5 -274.5t-384.5 -104.5t-380 108.5t-139 306.5h178
q0 -121 94.5 -188.5t258.5 -67.5t249.5 57.5t83.5 162.5q0 80 -46 132t-118.5 76.5t-160.5 44t-176.5 44t-161 63.5t-118.5 118t-46 193q0 172 137 275.5t364.5 103.5t359.5 -107.5t130 -297.5h-178q0 123 -84 184t-234 61q-313 0 -313 -215z" />
    <glyph glyph-name="scommaaccent" unicode="&#x219;" horiz-adv-x="966" 
d="M498 -84q125 0 125 -168q0 -141 -73 -227t-157 -82v92q43 0 76 40t33 103q-55 0 -90 35t-35 89t36 86t85 32zM285 731q0 -105 210 -145q87 -16 175 -42t149.5 -92.5t61.5 -186.5t-105.5 -197.5t-296.5 -77.5q-393 0 -399 305l166 -2q8 -76 62 -113t173 -37q221 0 221 129
q0 63 -61 98.5t-148 53.5t-175.5 43t-150 90.5t-61.5 183t102.5 195.5t283 78t274.5 -79t100 -226l-168 2q-12 150 -212.5 149.5t-200.5 -129.5z" />
    <glyph glyph-name="uni021A" unicode="&#x21a;" horiz-adv-x="1150" 
d="M469 -469q43 0 76 40t33 103q-55 0 -90 35t-35 89t35.5 86t84.5 32q125 0 125 -168q0 -141 -72.5 -227t-156.5 -82v92zM485 0v1243h-460v162h1101v-162h-460v-1243h-181z" />
    <glyph glyph-name="uni021B" unicode="&#x21b;" horiz-adv-x="890" 
d="M506 -84q125 0 125 -168q0 -141 -73 -227t-157 -82v92q43 0 76 40t33 103q-55 0 -90 35t-35 89t36 86t85 32zM686 330h164q0 -160 -84 -249t-237 -89t-243 88t-89 250v518h-152v156h162v299h172v-299h364v-152h-364v-522q0 -96 36 -140t113 -45q158 1 158 185z" />
    <glyph glyph-name="uni0232" unicode="&#x232;" horiz-adv-x="1234" 
d="M707 0h-181v569l-501 836h198l395 -670l394 670h198l-503 -838v-567zM899 1683v-135h-563v135h563z" />
    <glyph glyph-name="uni0233" unicode="&#x233;" horiz-adv-x="1032" 
d="M240.5 -420q-111.5 0 -166.5 25l14 159q49 -20 112.5 -20t116 31.5t91.5 128.5l24 57l-395 1043h203l254 -713q16 -45 32 -107h4q10 51 29 107l258 713h184l-423 -1117q-66 -172 -146 -239.5t-191.5 -67.5zM797 1397v-135h-564v135h564z" />
    <glyph glyph-name="uni0237" unicode="&#x237;" horiz-adv-x="495" 
d="M12 -420q-94 0 -149 25l14 159q49 -20 96 -20q90 0 142 53q51 53 51 150v1057h180v-1063q0 -169 -91 -265t-243 -96z" />
    <glyph glyph-name="uni0259" unicode="&#x259;" horiz-adv-x="1112" 
d="M551 143q113 0 186.5 72t96.5 197h-562q33 -269 279 -269zM549 1014q227 0 351 -141.5t124 -369t-133 -370.5t-346 -143t-335 130t-122 380v45h750q-10 145 -85 229t-198 84t-182.5 -47t-91.5 -125h-183q29 141 149 234.5t302 93.5z" />
    <glyph glyph-name="uni0272" unicode="&#x272;" horiz-adv-x="1150" 
d="M829 596q0 264 -234 264q-118 0 -191.5 -74.5t-73.5 -201.5v-643q0 -166 -88 -263.5t-226 -97.5q-94 0 -149 25l14 159q49 -20 111.5 -20t110 54.5t47.5 148.5v1057h169l9 -150q110 160 321 160q168 0 265.5 -99.5t97.5 -281.5v-633h-183v596z" />
    <glyph glyph-name="circumflex" unicode="&#x2c6;" horiz-adv-x="710" 
d="M57 1157l195 328h201l194 -328h-153l-142 189l-141 -189h-154z" />
    <glyph glyph-name="caron" unicode="&#x2c7;" horiz-adv-x="681" 
d="M37 1485h153l142 -189l143 189h154l-195 -328h-201z" />
    <glyph glyph-name="breve" unicode="&#x2d8;" horiz-adv-x="657" 
d="M612 1475q0 -150 -74 -237t-209 -87q-134 0 -209 86t-75 238h150q0 -186 133 -187q133 0 133 187h151z" />
    <glyph glyph-name="dotaccent" unicode="&#x2d9;" horiz-adv-x="413" 
d="M188 1458q56 0 92 -35t36 -90t-36 -89q-34 -34 -92 -34t-92 34q-35 34 -35 89t35 90t92 35z" />
    <glyph glyph-name="ring" unicode="&#x2da;" horiz-adv-x="530" 
d="M258 1245q34 0 56 22q22 21 22 53t-22 52t-56 20t-55 -20t-21 -52t20 -54t56 -21zM258 1133q-82 0 -139 51t-57 136t56 137q58 52 140 52t139 -52t57 -137t-56 -136q-58 -51 -140 -51z" />
    <glyph glyph-name="ogonek" unicode="&#x2db;" horiz-adv-x="530" 
d="M201 -209q0 -88 86 -88q63 0 110 37l52 -102q-61 -60 -168 -60t-163 52t-56 142t60 167q62 76 124 106l61 31l49 -74q-6 -4 -16 -10q-82 -49 -123 -131q-16 -35 -16 -70z" />
    <glyph glyph-name="tilde" unicode="&#x2dc;" horiz-adv-x="817" 
d="M283 1294q-76 0 -76 -88h-135q0 231 194 232q82 0 153 -48t105 -49q76 0 76 89h133q0 -112 -51 -172t-136 -60q-86 0 -156 48t-107 48z" />
    <glyph glyph-name="hungarumlaut" unicode="&#x2dd;" horiz-adv-x="825" 
d="M555 1157h-141l86 328h241zM219 1157h-141l86 328h242z" />
    <glyph glyph-name="gravecomb" unicode="&#x300;" 
d="M-223 1157l-187 328h228l106 -328h-147z" />
    <glyph glyph-name="acutecomb" unicode="&#x301;" 
d="M-307 1157h-148l107 328h227z" />
    <glyph glyph-name="uni0302" unicode="&#x302;" 
d="M-651 1157l194 328h201l195 -328h-154l-141 189l-142 -189h-153z" />
    <glyph glyph-name="tildecomb" unicode="&#x303;" 
d="M-535 1294q-76 0 -75 -88h-135q0 231 194 232q82 0 152.5 -48.5t105.5 -48.5q76 0 76 89h133q0 -111 -51 -171.5t-137 -60.5t-156 48t-107 48z" />
    <glyph glyph-name="uni0304" unicode="&#x304;" 
d="M-670 1262v135h564v-135h-564z" />
    <glyph glyph-name="uni0306" unicode="&#x306;" 
d="M-45 1475q0 -150 -75 -237t-209 -87t-208.5 86t-74.5 238h149q0 -186 133 -186.5t133 186.5h152z" />
    <glyph glyph-name="uni0307" unicode="&#x307;" 
d="M-188.5 1458q57.5 0 92.5 -34.5t35 -90t-35 -89.5t-92.5 -34t-92 34t-34.5 89.5t34.5 90t92 34.5z" />
    <glyph glyph-name="uni0308" unicode="&#x308;" 
d="M-174 1442q51 0 82 -31t31 -79t-31 -78.5t-82 -30.5t-82 30.5t-31 78.5t31 79t82 31zM-551 1442q51 0 82 -31t31 -79t-31 -78.5t-82 -30.5t-82 30.5t-31 78.5t31 79t82 31z" />
    <glyph glyph-name="uni030A" unicode="&#x30a;" 
d="M-258 1245q35 0 56.5 21.5t21.5 53.5t-21.5 52.5t-56.5 20.5t-55.5 -20.5t-20.5 -52.5t20.5 -53.5t55.5 -21.5zM-258 1133q-82 0 -139.5 51t-57.5 136t57.5 137t139.5 52t139.5 -52t57.5 -137t-57.5 -136t-139.5 -51z" />
    <glyph glyph-name="uni030B" unicode="&#x30b;" 
d="M-307 1157h-142l87 328h241zM-643 1157h-141l86 328h241z" />
    <glyph glyph-name="uni030C" unicode="&#x30c;" 
d="M-629 1485h154l141 -189l144 189h153l-194 -328h-201z" />
    <glyph glyph-name="dotbelowcomb" unicode="&#x323;" 
d="M-188.5 -131q57.5 0 92.5 -34t35 -89t-35 -89t-92.5 -34t-92 34t-34.5 89t34.5 89t92 34z" />
    <glyph glyph-name="uni0326" unicode="&#x326;" 
d="M-307 -469q43 0 75.5 40t32.5 103q-55 0 -90 35t-35 89t36 86t85 32q125 0 125 -168q0 -141 -72.5 -227t-156.5 -82v92z" />
    <glyph glyph-name="uni0327" unicode="&#x327;" 
d="M-301 -297q98 0 98 55q0 63 -166 64l45 209h113l-25 -113q70 -4 117 -41t47 -118t-61.5 -131t-152.5 -50t-150 23l28 120q49 -18 107 -18z" />
    <glyph glyph-name="uni0328" unicode="&#x328;" 
d="M-469 -227q0 90 61.5 165.5t122.5 106.5l62 31l49 -74q-6 -4 -16 -10q-45 -26 -92.5 -80t-47.5 -121q0 -88 86 -88q63 0 111 37l51 -102q-61 -59 -167.5 -59.5t-163 52t-56.5 142.5z" />
    <glyph glyph-name="uni0335" unicode="&#x335;" 
d="M-645 469h604v-131h-604v131z" />
    <glyph glyph-name="uni0336" unicode="&#x336;" 
d="M-766 489h725v-151h-725v151z" />
    <glyph glyph-name="uni0337" unicode="&#x337;" 
d="M-633 725l524 317l68 -118l-526 -318z" />
    <glyph glyph-name="uni0338" unicode="&#x338;" 
d="M-399 1071h139l-678 -1114h-143z" />
    <glyph glyph-name="Wgrave" unicode="&#x1e80;" horiz-adv-x="1923" 
d="M1706 1405h182l-411 -1405h-191l-323 1174l-324 -1174h-193l-411 1405h182l324 -1204l327 1204h187l327 -1204zM1036 1491h-170l-182 264h262z" />
    <glyph glyph-name="wgrave" unicode="&#x1e81;" horiz-adv-x="1556" 
d="M1315 1004h203l-308 -1004h-213l-202 705q-10 39 -15 69h-4q-4 -31 -14 -69l-203 -705h-213l-307 1004h203l186 -713q6 -25 17.5 -61.5t13.5 -45.5h4q2 8 13 45t18 62l192 713h184l193 -713q6 -25 17.5 -61.5t13.5 -45.5h4q11 32 30 107zM868 1157h-147l-186 328h227z
" />
    <glyph glyph-name="Wacute" unicode="&#x1e82;" horiz-adv-x="1923" 
d="M1706 1405h182l-411 -1405h-191l-323 1174l-324 -1174h-193l-411 1405h182l324 -1204l327 1204h187l327 -1204zM1251 1755l-186 -264h-170l86 264h270z" />
    <glyph glyph-name="wacute" unicode="&#x1e83;" horiz-adv-x="1556" 
d="M1315 1004h203l-308 -1004h-213l-202 705q-10 39 -15 69h-4q-4 -31 -14 -69l-203 -705h-213l-307 1004h203l186 -713q6 -25 17.5 -61.5t13.5 -45.5h4q2 8 13 45t18 62l192 713h184l193 -713q6 -25 17.5 -61.5t13.5 -45.5h4q11 32 30 107zM1018 1485l-187 -328h-147
l107 328h227z" />
    <glyph glyph-name="Wdieresis" unicode="&#x1e84;" horiz-adv-x="1923" 
d="M1706 1405h182l-411 -1405h-191l-323 1174l-324 -1174h-193l-411 1405h182l324 -1204l327 1204h187l327 -1204zM1151 1520q-51 0 -82 30.5t-31 78.5t31 79t82 31t82 -31t31 -79t-31 -78.5t-82 -30.5zM774 1520q-51 0 -81.5 30.5t-30.5 78.5t30.5 79t81.5 31t82 -31
t31 -79t-31 -78.5t-82 -30.5z" />
    <glyph glyph-name="wdieresis" unicode="&#x1e85;" horiz-adv-x="1556" 
d="M1315 1004h203l-308 -1004h-213l-202 705q-10 39 -15 69h-4q-4 -31 -14 -69l-203 -705h-213l-307 1004h203l186 -713q6 -25 17.5 -61.5t13.5 -45.5h4q2 8 13 45t18 62l192 713h184l193 -713q6 -25 17.5 -61.5t13.5 -45.5h4q11 32 30 107zM975 1223q-51 0 -82 30.5
t-31 78.5t31 79t82 31t81.5 -31t30.5 -79t-30.5 -78.5t-81.5 -30.5zM598 1223q-51 0 -82 30.5t-31 78.5t31 79t82 31t82 -31t31 -79t-31 -78.5t-82 -30.5z" />
    <glyph glyph-name="uni1E9E" unicode="&#x1e9e;" horiz-adv-x="1355" 
d="M1257 388q-1 -172 -123 -280t-348 -108h-147v154h147q137 0 212 66t75 178q0 114 -76 186t-211 71h-100v144l285 452h-418q-92 0 -144 -49t-53 -131v-1071h-180v1065q0 145 95 243t255 97h674v-113l-319 -499q180 -23 278 -128t98 -277z" />
    <glyph glyph-name="uni1EA0" unicode="&#x1ea0;" horiz-adv-x="1296" 
d="M651.5 -131q57.5 0 92 -34t34.5 -89t-34.5 -89t-92 -34t-92.5 34t-35 89t35 89t92.5 34zM397 516h502l-250 688zM1270 0h-183l-129 356h-620l-129 -356h-182l518 1405h207z" />
    <glyph glyph-name="uni1EA1" unicode="&#x1ea1;" horiz-adv-x="1118" 
d="M524.5 -131q57.5 0 92 -34t34.5 -89t-34.5 -89t-92 -34t-92.5 34t-35 89t35 89t92.5 34zM459 135q139 0 226 77t87 157v69h-221q-285 0 -285 -168q0 -135 193 -135zM951.5 -10q-68.5 0 -118 45t-59.5 119q-104 -164 -352 -164q-166 0 -253 73.5t-87 198.5
q0 156 129 231.5t350 75.5h211v66q0 106 -64.5 165.5t-178.5 59.5t-177 -49t-71 -139h-177q12 162 129 252t310 90t301 -100.5t108 -282.5v-410q0 -31 16.5 -49t42 -18t50.5 10l14 -158q-55 -16 -123.5 -16z" />
    <glyph glyph-name="uni1EB8" unicode="&#x1eb8;" horiz-adv-x="1232" 
d="M671.5 -131q57.5 0 92.5 -34t35 -89t-35 -89t-92.5 -34t-92 34t-34.5 89t34.5 89t92 34zM367 160h763v-160h-944v1405h934v-162h-753v-432h688v-162h-688v-489z" />
    <glyph glyph-name="uni1EB9" unicode="&#x1eb9;" horiz-adv-x="1112" 
d="M577.5 -131q57.5 0 92.5 -34t35 -89t-35 -89t-92.5 -34t-92 34t-34.5 89t34.5 89t92 34zM569.5 860q-114.5 0 -191.5 -72.5t-99 -199.5h563q-16 133 -87 202.5t-185.5 69.5zM1024 500v-45h-750q10 -145 89 -228.5t205 -83.5t188.5 50.5t79.5 123.5h182
q-31 -147 -143.5 -237t-303.5 -90q-229 0 -356 141t-127 367t134 371t345 145t334 -136t123 -378z" />
    <glyph glyph-name="uni1EBC" unicode="&#x1ebc;" horiz-adv-x="1232" 
d="M367 160h763v-160h-944v1405h934v-162h-753v-432h688v-162h-688v-489zM537 1612q-76 0 -76 -88h-135q0 231 194 231q82 0 151.5 -48t104.5 -48q76 0 76 88h133q0 -111 -51 -171t-135 -60t-154.5 48t-107.5 48z" />
    <glyph glyph-name="uni1EBD" unicode="&#x1ebd;" horiz-adv-x="1112" 
d="M569.5 860q-114.5 0 -191.5 -72.5t-99 -199.5h563q-16 133 -87 202.5t-185.5 69.5zM1024 500v-45h-750q10 -145 89 -228.5t205 -83.5t188.5 50.5t79.5 123.5h182q-31 -147 -143.5 -237t-303.5 -90q-229 0 -356 141t-127 367t134 371t345 145t334 -136t123 -378zM428 1294
q-76 0 -76 -88h-135q0 231 195 232q82 0 152.5 -48.5t105.5 -48.5q76 0 75 89h134q0 -111 -51.5 -171.5t-136.5 -60.5t-155.5 48t-107.5 48z" />
    <glyph glyph-name="uni1ECA" unicode="&#x1eca;" horiz-adv-x="552" 
d="M276.5 -131q57.5 0 92 -34t34.5 -89t-34.5 -89t-92 -34t-92 34t-34.5 89t34.5 89t92 34zM186 0v1405h181v-1405h-181z" />
    <glyph glyph-name="uni1ECB" unicode="&#x1ecb;" horiz-adv-x="481" 
d="M241.5 -131q57.5 0 92.5 -34t35 -89t-35 -89t-92.5 -34t-92 34t-34.5 89t34.5 89t92 34zM150 0v1004h182v-1004h-182zM241.5 1458q57.5 0 92.5 -34.5t35 -90t-35 -89.5t-92.5 -34t-92 34t-34.5 89.5t34.5 90t92 34.5z" />
    <glyph glyph-name="uni1ECC" unicode="&#x1ecc;" horiz-adv-x="1556" 
d="M778.5 -131q57.5 0 92 -34t34.5 -89t-34.5 -89t-92 -34t-92.5 34t-35 89t35 89t92.5 34zM778 147q213 0 355.5 151t142.5 403.5t-142.5 404t-355.5 151.5t-355 -151.5t-142 -404.5t142 -403.5t355 -150.5zM777 -12q-294 0 -486.5 191.5t-192.5 517t193.5 523t487.5 197.5
t486.5 -191.5t192.5 -517t-193.5 -523t-487.5 -197.5z" />
    <glyph glyph-name="uni1ECD" unicode="&#x1ecd;" horiz-adv-x="1169" 
d="M583.5 -131q57.5 0 92.5 -34t35 -89t-35 -89t-92.5 -34t-92 34t-34.5 89t34.5 89t92 34zM585 860q-140 0 -226.5 -101.5t-86.5 -260t86 -257t226.5 -98.5t226.5 97.5t86 258.5t-86 261t-226 100zM586 1014q223 0 359 -140.5t136 -370t-136 -371.5t-360 -142t-360.5 137
t-136.5 365.5t137.5 375t360.5 146.5z" />
    <glyph glyph-name="uni1EE4" unicode="&#x1ee4;" horiz-adv-x="1439" 
d="M719 -131q57 0 92 -34t35 -89t-35 -89t-92 -34t-92 34t-35 89t35 89t92 34zM1087 1405h181v-860q0 -258 -148.5 -407.5t-404.5 -149.5t-400.5 147.5t-144.5 409.5v860h180v-860q0 -197 95.5 -297.5t273.5 -100.5t273 100.5t95 297.5v860z" />
    <glyph glyph-name="uni1EE5" unicode="&#x1ee5;" horiz-adv-x="1169" 
d="M571.5 -131q57.5 0 92 -34t34.5 -89t-34.5 -89t-92 -34t-92.5 34t-35 89t35 89t92.5 34zM981 -10q-68 0 -117 42t-59 113q-111 -156 -307 -155q-158 0 -258.5 99t-100.5 261v654h183v-629q0 -111 55 -171.5t165.5 -60.5t184.5 74t74 203v584h180v-783q0 -31 17.5 -49
t42 -18t49.5 10l14 -158q-55 -16 -123 -16z" />
    <glyph glyph-name="Ygrave" unicode="&#x1ef2;" horiz-adv-x="1234" 
d="M707 0h-181v569l-501 836h198l395 -670l394 670h198l-503 -838v-567zM690 1491h-170l-182 264h262z" />
    <glyph glyph-name="ygrave" unicode="&#x1ef3;" horiz-adv-x="1032" 
d="M240.5 -420q-111.5 0 -166.5 25l14 159q49 -20 112.5 -20t116 31.5t91.5 128.5l24 57l-395 1043h203l254 -713q16 -45 32 -107h4q10 51 29 107l258 713h184l-423 -1117q-66 -172 -146 -239.5t-191.5 -67.5zM606 1157h-147l-187 328h228z" />
    <glyph glyph-name="uni1EF8" unicode="&#x1ef8;" horiz-adv-x="1234" 
d="M707 0h-181v569l-501 836h198l395 -670l394 670h198l-503 -838v-567zM498 1612q-76 0 -76 -88h-135q0 231 194 231q82 0 151.5 -48t104.5 -48q76 0 76 88h133q0 -111 -51 -171t-135 -60t-154.5 48t-107.5 48z" />
    <glyph glyph-name="uni1EF9" unicode="&#x1ef9;" horiz-adv-x="1032" 
d="M240.5 -420q-111.5 0 -166.5 25l14 159q49 -20 112.5 -20t116 31.5t91.5 128.5l24 57l-395 1043h203l254 -713q16 -45 32 -107h4q10 51 29 107l258 713h184l-423 -1117q-66 -172 -146 -239.5t-191.5 -67.5zM375 1294q-76 0 -76 -88h-135q0 231 194 232q82 0 153 -48.5
t105 -48.5q76 0 76 89h133q0 -111 -51 -171.5t-136 -60.5t-155.5 48t-107.5 48z" />
    <glyph glyph-name="endash" unicode="&#x2013;" horiz-adv-x="1103" 
d="M131 514v135h842v-135h-842z" />
    <glyph glyph-name="emdash" unicode="&#x2014;" horiz-adv-x="1656" 
d="M131 514v135h1395v-135h-1395z" />
    <glyph glyph-name="quoteleft" unicode="&#x2018;" horiz-adv-x="456" 
d="M356 1423q-55 0 -103 -50t-48 -111h8q10 2 18 2q57 0 91 -35t34 -91t-37 -91t-94 -35t-97 43t-40 137q0 142 86 240t182 94v-103z" />
    <glyph glyph-name="quoteright" unicode="&#x2019;" horiz-adv-x="460" 
d="M113 1114q55 0 103 50t48 112l-10 -2h-16q-57 0 -92 35q-34 35 -34 91t38 91q37 35 94 35t97 -43t40 -137q0 -142 -86 -240t-182 -94v102z" />
    <glyph glyph-name="quotesinglbase" unicode="&#x201a;" horiz-adv-x="475" 
d="M102 -154q56 0 104 50t48 112h-8q-10 -2 -19 -2q-57 0 -91 35t-34 91t37 91t94 35t97 -43t41 -137q0 -142 -86 -240t-183 -94v102z" />
    <glyph glyph-name="quotedblleft" unicode="&#x201c;" horiz-adv-x="804" 
d="M705 1423q-55 0 -103 -50t-49 -111h8q10 2 19 2q57 0 91 -35t34 -91t-37 -91q-36 -35 -94 -35t-98 43t-40 137q0 142 86 240t183 94v-103zM356 1423q-55 0 -103 -50t-48 -111h8q10 2 18 2q57 0 91 -35t34 -91t-37 -91t-94 -35t-97 43t-40 137q0 142 86 240t182 94v-103z
" />
    <glyph glyph-name="quotedblright" unicode="&#x201d;" horiz-adv-x="808" 
d="M461 1114q55 0 103 50t48 112l-10 -2h-16q-57 0 -91 35t-34 91t37 91t94 35t97 -43t40 -137q0 -142 -86 -240t-182 -94v102zM113 1114q55 0 103 50t48 112l-10 -2h-16q-57 0 -92 35q-34 35 -34 91t38 91q37 35 94 35t97 -43t40 -137q0 -142 -86 -240t-182 -94v102z" />
    <glyph glyph-name="quotedblbase" unicode="&#x201e;" horiz-adv-x="821" 
d="M453 -195q55 1 103 51t48 111h-10q-8 -2 -16 -2q-57 0 -92 35q-34 35 -34 91t37 91t95 35t97 -43q40 -43 40 -137q0 -141 -86 -239t-182 -95v102zM104 -195q56 1 104 51t48 111h-10q-8 -2 -17 -2q-57 0 -91 35t-34 91t37 91t94 35t97 -43t41 -137q0 -141 -86 -239
t-183 -95v102z" />
    <glyph glyph-name="dagger" unicode="&#x2020;" horiz-adv-x="872" 
d="M760 1198v-160h-236v-632h-176v632h-235v160h235v256h176v-256h236z" />
    <glyph glyph-name="daggerdbl" unicode="&#x2021;" horiz-adv-x="872" 
d="M760 1038h-236v-217h236v-159h-236v-256h-176v256h-235v159h235v217h-235v160h235v256h176v-256h236v-160z" />
    <glyph glyph-name="bullet" unicode="&#x2022;" horiz-adv-x="722" 
d="M156 716q0 90 56 148q56 56 149 56t149 -56t57 -146q0 -92 -55 -146q-56 -54 -150 -54t-150 54t-56 144z" />
    <glyph glyph-name="ellipsis" unicode="&#x2026;" horiz-adv-x="1185" 
d="M958 238q56 0 92 -35t36 -90t-36 -89q-34 -34 -92 -34t-92 34q-35 34 -35 89t35 90t92 35zM592 238q57 0 92 -35t35 -90t-35 -89t-92 -34t-92 34t-35 89t35 90t92 35zM225 238q57 0 92 -35t35 -90t-35 -89t-92 -34t-92 34t-35 89t35 90t92 35z" />
    <glyph glyph-name="perthousand" unicode="&#x2030;" horiz-adv-x="2185" 
d="M1657 385q0 -238 142 -238t143 238q0 238 -142 238t-143 -238zM1190 385q0 -238 142 -238t143 238q-1 238 -143 238t-142 -238zM1802 780q152 0 237 -103t85 -291t-85 -292t-237 -104t-235 96q-84 -96 -236 -96q-151 0 -237 103t-86 291t86 292t238 104t235 -96
q83 96 235 96zM387 782q141 0 141 238t-141 237q-141 1 -141 -237t141 -238zM713 1020q0 -188 -86 -292t-240 -103q-154 0 -240 103q-86 104 -86 292t86 292t240 103q154 1 240 -103t86 -292zM1077 1417h172l-604 -1417h-174z" />
    <glyph glyph-name="guilsinglleft" unicode="&#x2039;" horiz-adv-x="641" 
d="M66 481v25l268 303h192l-268 -315l270 -318h-194z" />
    <glyph glyph-name="guilsinglright" unicode="&#x203a;" horiz-adv-x="641" 
d="M575 481l-268 -305h-194l270 318l-268 315h192l268 -303v-25z" />
    <glyph glyph-name="fraction" unicode="&#x2044;" horiz-adv-x="360" 
d="M-215 0l606 1417h172l-604 -1417h-174z" />
    <glyph glyph-name="Euro" unicode="&#x20ac;" horiz-adv-x="1452" 
d="M256 698q0 55 2 82h-190l30 156h185q53 225 202 352q150 127 355 128q205 2 342 -110t182 -302h-188q-37 118 -122 186t-212 68t-229 -84q-101 -84 -144 -238h430l-31 -156h-426q-4 -53 -4 -82t4 -82h457l-31 -155h-397q45 -152 145 -234t229 -81q130 1 212 69t119 180
h188q-47 -188 -181 -298q-134 -109 -341 -109t-357 125t-202 348h-215l30 155h160q-2 27 -2 82z" />
    <glyph glyph-name="trademark" unicode="&#x2122;" horiz-adv-x="1431" 
d="M1284 1405v-590h-123l2 344l-149 -344h-90l-146 344l2 -344h-123v590h140l174 -401l180 401h133zM61 1290v115h519v-115h-191v-475h-137v475h-191z" />
    <glyph glyph-name="oneeighth" unicode="&#x215b;" horiz-adv-x="1562" 
d="M1208 119q57 0 95 32q37 31 37 79t-37 80t-95 32t-95 -32q-38 -32 -37 -80t38 -80t94 -31zM1207 668q-50 0 -82 -31q-31 -31 -31 -72t32 -71t82 -31q51 0 82 32q31 33 31 71t-32 70t-82 32zM1497 234q0 -112 -80 -178q-80 -64 -211 -64t-210 64q-78 64 -78 178
q0 112 114 178q-90 61 -90 161q0 99 75 159t191 60t189 -58q73 -60 73 -160t-88 -162q115 -66 115 -178zM530 760v-129h-446v129h147v430h-143v108q96 0 138 22t65 83h100v-643h139zM967 1417h172l-604 -1417h-175z" />
    <glyph glyph-name="threeeighths" unicode="&#x215c;" horiz-adv-x="1628" 
d="M1274 119q57 0 94 32q37 31 37 79t-37 80t-94 32t-95 -32t-37 -80t38 -80t94 -31zM1273 668q-50 0 -82 -31t-32 -72t32 -71t83 -31q51 0 82 32q30 33 30 71t-31 70q-32 32 -82 32zM1563 234q0 -112 -80 -178q-80 -64 -211 -64t-210 64t-79 178q0 112 115 178
q-90 61 -90 161t74 160q75 59 191 59q115 0 189 -58q74 -60 74 -160t-88 -162q115 -66 115 -178zM1053 1417h172l-604 -1417h-175zM61 891h168q0 -119 127 -119t127 100q-2 100 -125 101h-73v121h69q117 0 121 88q0 44 -30 70t-85 26q-117 0 -116 -119h-168q0 123 77 193
t203 70t207 -63q80 -63 80 -165t-72 -154q88 -50 89 -162t-86 -180t-218 -68t-213 70q-82 68 -82 191z" />
    <glyph glyph-name="fiveeighths" unicode="&#x215d;" horiz-adv-x="1619" 
d="M1266 342q-58 0 -96 -32t-36 -80t38 -80q37 -32 94 -31q57 0 94 32q37 31 37 79t-37 80t-94 32zM1265 668q-50 0 -82 -31t-32 -72t32 -71t83 -31q51 0 82 32q30 33 30 71t-31 70q-32 32 -82 32zM975 234q0 112 115 178q-90 61 -91 161q0 99 75 159t191 60q115 0 189 -58
q74 -60 74 -160t-88 -162q114 -66 114 -178t-80 -178q-80 -64 -210 -64q-131 0 -210 64q-79 66 -79 178zM369 1151q123 -1 203 -71t79 -188q0 -118 -84 -190t-216 -72t-211 68t-79 172l162 -2q0 -40 33 -68t94 -28t101 33q39 33 38 86q0 53 -38 88q-39 35 -108 35t-128 -49
l-135 45l49 395h475v-135h-352l-19 -142q61 23 136 23zM1047 1417h172l-605 -1417h-174z" />
    <glyph glyph-name="seveneighths" unicode="&#x215e;" horiz-adv-x="1546" 
d="M1184 119q57 0 94 32q37 31 37 79t-37 80t-94 32t-95 -32t-37 -80t38 -80t94 -31zM1183 668q-50 0 -82 -31t-32 -72t32 -71t83 -31q51 0 82 32q30 33 30 71t-31 70q-32 32 -82 32zM1473 234q0 -112 -80 -178q-80 -64 -211 -64t-210 64t-79 178q0 112 115 178
q-90 61 -90 161t74 160q75 59 191 59q115 0 189 -58q74 -60 74 -160t-88 -162q115 -66 115 -178zM444 1270h-389v135h563v-133l-276 -641h-178l280 637v2zM922 1417h172l-605 -1417h-174z" />
    <glyph glyph-name="minus" unicode="&#x2212;" horiz-adv-x="1089" 
d="M139 635v149h811v-149h-811z" />
    <glyph glyph-name="approxequal" unicode="&#x2248;" horiz-adv-x="1091" 
d="M375 627q67 0 185 -33t175 -33q129 0 219 70v-150q-100 -68 -225 -65q-67 2 -187 34t-177 32t-122 -21q-65 -20 -100 -49v149q92 66 232 66zM735 934q129 0 219 70v-150q-100 -68 -225 -66q-67 2 -187 34t-177 32t-122 -20t-100 -50v150q92 66 232 65q67 -1 185 -33
t175 -32z" />
    <glyph glyph-name="notequal" unicode="&#x2260;" horiz-adv-x="1089" 
d="M950 840h-268l-123 -260h391v-150h-461l-96 -205h-149l96 205h-201v150h271l122 260h-393v149h463l96 205h150l-96 -205h198v-149z" />
    <glyph glyph-name="uniF8FF" unicode="&#xf8ff;" horiz-adv-x="2912" 
d="M2208 33q8 0 8 6t-8 6h-15v-12h15zM2193 23v-19h-10v49h23q20 0 20 -15t-14 -15l12 -19h-12l-8 19h-11zM2204 66q-37 0 -37 -38t37 -38t37 38t-37 38zM2157 28q0 48 48 48t48 -48t-48 -48t-48 48zM1346 154q20 0 47 17t27 63t-42 47q-43 0 -43 -66q1 -30 11 -61z
M1882 231h80q6 57 -33 58q-47 0 -47 -58zM2148 270q0 -45 -6 -73h-250q23 -39 96 -39t115 24v-159q-47 -33 -155 -33q-285 0 -285 260q0 124 67 196q68 72 182 72t175 -64t61 -184zM1470 518q76 0 119 -62t43 -180q0 -287 -276 -286q2 -33 2 -84h-238q0 295 21 602h155
q14 -92 15 -164q34 174 159 174zM858 508h209q20 -113 20 -290q1 -177 -67 -251q-68 -73 -216 -73t-198 36v176q53 -34 118 -34q130 1 130 59q-29 -23 -98 -22q-180 0 -181 176v28h-110l6 -139q12 -8 35 -8t33 10v-156q-39 -30 -133 -30t-131 36q-35 36 -35 116t6 171h-37
v170l235 62l-2 -37h355v-254q0 -35 6 -46t24 -11q31 0 31 57v254zM2511 795q0 59 -47 59q-41 0 -41 -59t41 -60q47 1 47 60zM782 795q0 59 -46 59t-46 -59t45 -60q47 1 47 60zM2712 831q0 -265 -248 -266q-244 0 -244 265t248 266q244 0 244 -265zM1673 575q0 373 21 508
h161q10 -117 11 -161q4 32 13 64t49 71t113 39t105 -54t35 -174l6 -293h-229l4 199q0 61 -29 62q-37 0 -37 -62l7 -199h-230zM657 565q-184 0 -184 242q0 289 270 289q248 0 248 -250v-271h-166l-16 130q-27 -140 -152 -140zM1012 889v168l239 63l2 -37h357q20 -135 20 -508
h-237q0 195 6 314h-123l6 -139q8 -8 33 -8t35 10v-158q-29 -31 -138 -31q-164 0 -163 139l6 187h-43zM440 575h-239q0 289 18 668h201q20 -420 20 -668zM1386 1243q0 55 36 93t88 38t88 -38t36 -93t-37 -93t-88 -38t-87 38t-36 93z" />
    <glyph glyph-name="J.ss01" horiz-adv-x="921" 
d="M297 158q123 0 196.5 72.5t73.5 211.5v963h181v-963q0 -203 -117 -322.5t-332 -119.5q-123 0 -238 12v158q113 -12 236 -12z" />
    <glyph glyph-name="Jcircumflex.ss01" horiz-adv-x="921" 
d="M297 158q123 0 196.5 72.5t73.5 211.5v963h181v-963q0 -203 -117 -322.5t-332 -119.5q-123 0 -238 12v158q113 -12 236 -12zM770 1735l172 -265h-149l-142 146l-141 -146h-150l175 265h235z" />
    <glyph glyph-name="K.ss01" horiz-adv-x="1314" 
d="M367 0h-181v1405h181v-791l690 791h225l-551 -614l594 -791h-219l-496 657l-243 -272v-385z" />
    <glyph glyph-name="Kcommaaccent.ss01" horiz-adv-x="1314" 
d="M705 -84q125 0 124 -168q-1 -141 -73 -227t-156 -82v92q43 0 76 40t33 103q-55 0 -91 35q-34 35 -34 89t36 86t85 32zM367 0h-181v1405h181v-791l690 791h225l-551 -614l594 -791h-219l-496 657l-243 -272v-385z" />
    <glyph glyph-name="R.ss01" horiz-adv-x="1269" 
d="M367 1247v-532h333q133 0 204 73.5t71 192.5t-70.5 192.5t-204.5 73.5h-333zM367 565v-565h-181v1405h514q205 0 331 -109.5t126 -310.5q0 -152 -74.5 -252t-205.5 -141l307 -592h-215l-291 565h-311z" />
    <glyph glyph-name="Racute.ss01" horiz-adv-x="1269" 
d="M367 1247v-532h333q133 0 204 73.5t71 192.5t-70.5 192.5t-204.5 73.5h-333zM367 565v-565h-181v1405h514q205 0 331 -109.5t126 -310.5q0 -152 -74.5 -252t-205.5 -141l307 -592h-215l-291 565h-311zM899 1755l-186 -264h-170l86 264h270z" />
    <glyph glyph-name="Rcaron.ss01" horiz-adv-x="1269" 
d="M367 1247v-532h333q133 0 204 73.5t71 192.5t-70.5 192.5t-204.5 73.5h-333zM367 565v-565h-181v1405h514q205 0 331 -109.5t126 -310.5q0 -152 -74.5 -252t-205.5 -141l307 -592h-215l-291 565h-311zM731 1491h-235l-174 264h149l141 -145l142 145h149z" />
    <glyph glyph-name="Rcommaaccent.ss01" horiz-adv-x="1269" 
d="M659 -84q125 0 125 -168q0 -141 -72.5 -227t-156.5 -82v92q43 0 76 40t33 103q-55 0 -90 35t-35 89t35.5 86t84.5 32zM367 1247v-532h333q133 0 204 73.5t71 192.5t-70.5 192.5t-204.5 73.5h-333zM367 565v-565h-181v1405h514q205 0 331 -109.5t126 -310.5
q0 -152 -74.5 -252t-205.5 -141l307 -592h-215l-291 565h-311z" />
    <glyph glyph-name="i.loclTRK" horiz-adv-x="481" 
d="M150 0v1004h182v-1004h-182zM241.5 1458q57.5 0 92.5 -34.5t35 -90t-35 -89.5t-92.5 -34t-92 34t-34.5 89.5t34.5 90t92 34.5z" />
    <glyph glyph-name="a.ss01" horiz-adv-x="1091" 
d="M453 135q145 0 232 77t87 157v69h-209q-297 0 -297 -168q1 -135 187 -135zM541.5 1014q195.5 0 303 -102.5t107.5 -293.5v-618h-178l-4 147q-106 -158 -348 -157q-166 0 -253 74.5t-87 199.5q0 156 130 230.5t351 74.5h209v58q0 115 -63.5 174t-184.5 59
q-223 0 -243 -188h-177q8 156 125 249t312.5 93z" />
    <glyph glyph-name="aacute.ss01" horiz-adv-x="1091" 
d="M453 135q145 0 232 77t87 157v69h-209q-297 0 -297 -168q1 -135 187 -135zM541.5 1014q195.5 0 303 -102.5t107.5 -293.5v-618h-178l-4 147q-106 -158 -348 -157q-166 0 -253 74.5t-87 199.5q0 156 130 230.5t351 74.5h209v58q0 115 -63.5 174t-184.5 59
q-223 0 -243 -188h-177q8 156 125 249t312.5 93zM770 1485l-186 -328h-148l107 328h227z" />
    <glyph glyph-name="abreve.ss01" horiz-adv-x="1091" 
d="M453 135q145 0 232 77t87 157v69h-209q-297 0 -297 -168q1 -135 187 -135zM541.5 1014q195.5 0 303 -102.5t107.5 -293.5v-618h-178l-4 147q-106 -158 -348 -157q-166 0 -253 74.5t-87 199.5q0 156 130 230.5t351 74.5h209v58q0 115 -63.5 174t-184.5 59
q-223 0 -243 -188h-177q8 156 125 249t312.5 93zM527 1151q-134 0 -208.5 86t-74.5 238h149q0 -186 133 -186.5t133 186.5h152q0 -150 -75 -237t-209 -87z" />
    <glyph glyph-name="acircumflex.ss01" horiz-adv-x="1091" 
d="M453 135q145 0 232 77t87 157v69h-209q-297 0 -297 -168q1 -135 187 -135zM541.5 1014q195.5 0 303 -102.5t107.5 -293.5v-618h-178l-4 147q-106 -158 -348 -157q-166 0 -253 74.5t-87 199.5q0 156 130 230.5t351 74.5h209v58q0 115 -63.5 174t-184.5 59
q-223 0 -243 -188h-177q8 156 125 249t312.5 93zM528 1346l-141 -189h-154l195 328h201l194 -328h-153z" />
    <glyph glyph-name="adieresis.ss01" horiz-adv-x="1091" 
d="M453 135q145 0 232 77t87 157v69h-209q-297 0 -297 -168q1 -135 187 -135zM541.5 1014q195.5 0 303 -102.5t107.5 -293.5v-618h-178l-4 147q-106 -158 -348 -157q-166 0 -253 74.5t-87 199.5q0 156 130 230.5t351 74.5h209v58q0 115 -63.5 174t-184.5 59
q-223 0 -243 -188h-177q8 156 125 249t312.5 93zM729 1223q-51 0 -82 30.5t-31 78.5t31 79t82 31t82 -31t31 -79t-31 -78.5t-82 -30.5zM352 1223q-51 0 -81.5 30.5t-30.5 78.5t30.5 79t81.5 31t82 -31t31 -79t-31 -78.5t-82 -30.5z" />
    <glyph glyph-name="uni1EA1.ss01" horiz-adv-x="1091" 
d="M524.5 -131q57.5 0 92 -34t34.5 -89t-34.5 -89t-92 -34t-92.5 34t-35 89t35 89t92.5 34zM453 135q145 0 232 77t87 157v69h-209q-297 0 -297 -168q1 -135 187 -135zM541.5 1014q195.5 0 303 -102.5t107.5 -293.5v-618h-178l-4 147q-106 -158 -348 -157q-166 0 -253 74.5
t-87 199.5q0 156 130 230.5t351 74.5h209v58q0 115 -63.5 174t-184.5 59q-223 0 -243 -188h-177q8 156 125 249t312.5 93z" />
    <glyph glyph-name="agrave.ss01" horiz-adv-x="1091" 
d="M453 135q145 0 232 77t87 157v69h-209q-297 0 -297 -168q1 -135 187 -135zM541.5 1014q195.5 0 303 -102.5t107.5 -293.5v-618h-178l-4 147q-106 -158 -348 -157q-166 0 -253 74.5t-87 199.5q0 156 130 230.5t351 74.5h209v58q0 115 -63.5 174t-184.5 59
q-223 0 -243 -188h-177q8 156 125 249t312.5 93zM621 1157h-148l-186 328h227z" />
    <glyph glyph-name="amacron.ss01" horiz-adv-x="1091" 
d="M453 135q145 0 232 77t87 157v69h-209q-297 0 -297 -168q1 -135 187 -135zM541.5 1014q195.5 0 303 -102.5t107.5 -293.5v-618h-178l-4 147q-106 -158 -348 -157q-166 0 -253 74.5t-87 199.5q0 156 130 230.5t351 74.5h209v58q0 115 -63.5 174t-184.5 59
q-223 0 -243 -188h-177q8 156 125 249t312.5 93zM811 1397v-135h-563v135h563z" />
    <glyph glyph-name="aogonek.ss01" horiz-adv-x="1091" 
d="M453 135q145 0 232 77t87 157v69h-209q-297 0 -297 -168q1 -135 187 -135zM876.5 -424q-106.5 0 -163 52.5t-56.5 140.5q0 127 125 231h-8l-4 147q-106 -158 -348 -157q-166 0 -253 74.5t-87 199.5q0 156 130 230.5t351 74.5h209v58q0 115 -63.5 174t-184.5 59
q-223 0 -243 -188h-177q8 156 125 249t312.5 93t303 -102.5t107.5 -293.5v-618q-6 -4 -16 -10q-49 -29 -94 -81t-45 -120q0 -88 86 -88q63 0 110 37l51 -103q-61 -59 -167.5 -59z" />
    <glyph glyph-name="aring.ss01" horiz-adv-x="1091" 
d="M453 135q145 0 232 77t87 157v69h-209q-297 0 -297 -168q1 -135 187 -135zM541.5 1014q195.5 0 303 -102.5t107.5 -293.5v-618h-178l-4 147q-106 -158 -348 -157q-166 0 -253 74.5t-87 199.5q0 156 130 230.5t351 74.5h209v58q0 115 -63.5 174t-184.5 59
q-223 0 -243 -188h-177q8 156 125 249t312.5 93zM528.5 1393q-34.5 0 -55 -20.5t-20.5 -52.5t20.5 -53.5t55 -21.5t56 21.5t21.5 53.5t-21.5 52.5t-56 20.5zM528 1133q-82 0 -139 51t-57 136t57 137t139 52t139.5 -52t57.5 -137t-57.5 -136t-139.5 -51z" />
    <glyph glyph-name="aringacute.ss01" horiz-adv-x="1091" 
d="M453 135q145 0 232 77t87 157v69h-209q-297 0 -297 -168q1 -135 187 -135zM541.5 1014q195.5 0 303 -102.5t107.5 -293.5v-618h-178l-4 147q-106 -158 -348 -157q-166 0 -253 74.5t-87 199.5q0 156 130 230.5t351 74.5h209v58q0 115 -63.5 174t-184.5 59
q-223 0 -243 -188h-177q8 156 125 249t312.5 93zM528.5 1393q-34.5 0 -55 -20.5t-20.5 -52.5t20.5 -53.5t55 -21.5t56 21.5t21.5 53.5t-21.5 52.5t-56 20.5zM524 1133q-78 0 -135 51t-57 136t57 137t138 52t135 -47l51 148h186l-176 -320q-10 -72 -65.5 -114.5t-133.5 -42.5
z" />
    <glyph glyph-name="atilde.ss01" horiz-adv-x="1091" 
d="M453 135q145 0 232 77t87 157v69h-209q-297 0 -297 -168q1 -135 187 -135zM541.5 1014q195.5 0 303 -102.5t107.5 -293.5v-618h-178l-4 147q-106 -158 -348 -157q-166 0 -253 74.5t-87 199.5q0 156 130 230.5t351 74.5h209v58q0 115 -63.5 174t-184.5 59
q-223 0 -243 -188h-177q8 156 125 249t312.5 93zM389 1294q-76 0 -76 -88h-135q0 231 195 232q82 0 152.5 -48.5t105.5 -48.5q76 0 76 89h133q0 -111 -51.5 -171.5t-136.5 -60.5t-155.5 48t-107.5 48z" />
    <glyph glyph-name="f.ss01" horiz-adv-x="745" 
d="M393 1004h330v-152h-330v-852h-180v852h-141v152h141v180q0 129 90 210t229 81q138 0 224 -83t86 -208h-164q0 63 -41 100t-105 37t-101 -38q-38 -38 -38 -99v-180z" />
    <glyph glyph-name="g.ss01" horiz-adv-x="1228" 
d="M573.5 143q141.5 0 223.5 104.5t82 233.5v41q0 129 -82 233.5t-222.5 104.5t-221.5 -98t-81 -259t80 -260.5t221.5 -99.5zM1059 1004v-963q0 -219 -131 -345t-416 -126q-184 0 -332 63v166q166 -76 351.5 -75.5t266.5 83t81 234.5v119q-98 -154 -326 -170
q-209 0 -337 141t-128 371.5t129 371t345 140.5t319 -168l8 158h170z" />
    <glyph glyph-name="gbreve.ss01" horiz-adv-x="1228" 
d="M573.5 143q141.5 0 223.5 104.5t82 233.5v41q0 129 -82 233.5t-222.5 104.5t-221.5 -98t-81 -259t80 -260.5t221.5 -99.5zM1059 1004v-963q0 -219 -131 -345t-416 -126q-184 0 -332 63v166q166 -76 351.5 -75.5t266.5 83t81 234.5v119q-98 -154 -326 -170
q-209 0 -337 141t-128 371.5t129 371t345 140.5t319 -168l8 158h170zM603 1151q-134 0 -209 86t-75 238h150q0 -186 133 -186.5t133 186.5h152q0 -150 -75 -237t-209 -87z" />
    <glyph glyph-name="gcaron.ss01" horiz-adv-x="1228" 
d="M573.5 143q141.5 0 223.5 104.5t82 233.5v41q0 129 -82 233.5t-222.5 104.5t-221.5 -98t-81 -259t80 -260.5t221.5 -99.5zM1059 1004v-963q0 -219 -131 -345t-416 -126q-184 0 -332 63v166q166 -76 351.5 -75.5t266.5 83t81 234.5v119q-98 -154 -326 -170
q-209 0 -337 141t-128 371.5t129 371t345 140.5t319 -168l8 158h170zM707 1157h-201l-197 328h154l141 -189l144 189h153z" />
    <glyph glyph-name="gcircumflex.ss01" horiz-adv-x="1228" 
d="M573.5 143q141.5 0 223.5 104.5t82 233.5v41q0 129 -82 233.5t-222.5 104.5t-221.5 -98t-81 -259t80 -260.5t221.5 -99.5zM1059 1004v-963q0 -219 -131 -345t-416 -126q-184 0 -332 63v166q166 -76 351.5 -75.5t266.5 83t81 234.5v119q-98 -154 -326 -170
q-209 0 -337 141t-128 371.5t129 371t345 140.5t319 -168l8 158h170zM604 1346l-141 -189h-154l195 328h201l194 -328h-154z" />
    <glyph glyph-name="gcommaaccent.ss01" horiz-adv-x="1228" 
d="M573.5 143q141.5 0 223.5 104.5t82 233.5v41q0 129 -82 233.5t-222.5 104.5t-221.5 -98t-81 -259t80 -260.5t221.5 -99.5zM1059 1004v-963q0 -219 -131 -345t-416 -126q-184 0 -332 63v166q166 -76 351.5 -75.5t266.5 83t81 234.5v119q-98 -154 -326 -170
q-209 0 -337 141t-128 371.5t129 371t345 140.5t319 -168l8 158h170zM602 1128q-125 0 -125 168q0 141 73 227.5t157 82.5v-93q-43 0 -76 -39.5t-33 -103.5q55 0 90 -35t35 -89t-36 -86t-85 -32z" />
    <glyph glyph-name="gdotaccent.ss01" horiz-adv-x="1228" 
d="M573.5 143q141.5 0 223.5 104.5t82 233.5v41q0 129 -82 233.5t-222.5 104.5t-221.5 -98t-81 -259t80 -260.5t221.5 -99.5zM1059 1004v-963q0 -219 -131 -345t-416 -126q-184 0 -332 63v166q166 -76 351.5 -75.5t266.5 83t81 234.5v119q-98 -154 -326 -170
q-209 0 -337 141t-128 371.5t129 371t345 140.5t319 -168l8 158h170zM604.5 1210q-57.5 0 -92.5 34t-35 89.5t35 90t92.5 34.5t92 -34.5t34.5 -90t-34.5 -89.5t-92 -34z" />
    <glyph glyph-name="j.ss01" horiz-adv-x="495" 
d="M-102 -145q0 -131 134 -131t134 151v1129h180v-1135q0 -137 -86 -218t-221 -81t-220 71t-85 214h164zM385 1330q0 -52 -37 -87t-90 -35t-88 35t-35 88t35 88t88 35t90 -36t37 -88z" />
    <glyph glyph-name="uni0237.ss01" horiz-adv-x="495" 
d="M-102 -145q0 -131 134 -131t134 151v1129h180v-1135q0 -137 -86 -218t-221 -81t-220 71t-85 214h164z" />
    <glyph glyph-name="jcircumflex.ss01" horiz-adv-x="495" 
d="M39 -430q-135 0 -220 71t-85 214h164q0 -131 134 -131t134 151v1129h180v-1135q0 -137 -86 -218t-221 -81zM-45 1157l195 328h200l195 -328h-154l-141 189l-141 -189h-154z" />
    <glyph glyph-name="l.ss01" horiz-adv-x="479" 
d="M150 0v1454h180v-1454h-180z" />
    <glyph glyph-name="lacute.ss01" horiz-adv-x="479" 
d="M150 0v1454h180v-1454h-180zM319 1520h-169l86 264h270z" />
    <glyph glyph-name="lcaron.ss01" horiz-adv-x="495" 
d="M150 0v1454h180v-1454h-180zM442 1137q43 0 77 41t34 108q-57 0 -92 35t-35 89t36 86t85 32q125 0 125 -158t-72 -244t-158 -82v93z" />
    <glyph glyph-name="lcommaaccent.ss01" horiz-adv-x="479" 
d="M139 -469q43 0 76 40t33 103q-55 0 -90 35t-35 89t36 86t85 32q125 0 125 -168q0 -141 -73 -227t-157 -82v92zM150 0v1454h180v-1454h-180z" />
    <glyph glyph-name="ldot.ss01" horiz-adv-x="665" 
d="M575.5 829q57.5 0 92 -34.5t34.5 -90t-34.5 -89t-92 -33.5t-92 33.5t-34.5 89t34.5 90t92 34.5zM150 0v1454h180v-1454h-180z" />
    <glyph glyph-name="lslash.ss01" horiz-adv-x="647" 
d="M418 0h-180v616l-144 -86l-65 119l209 127v678h180v-569l135 82l68 -119l-203 -123v-725z" />
    <glyph glyph-name="t.ss01" horiz-adv-x="759" 
d="M197 330v518h-152v156h162v299h170v-299h325v-152h-325v-522q0 -182 211 -183q74 0 131 25l8 -158q-55 -25 -158 -24q-174 0 -273 91t-99 249z" />
    <glyph glyph-name="tbar.ss01" horiz-adv-x="761" 
d="M199 330v174h-125v131h125v213h-152v156h162v299h170v-299h326v-152h-326v-217h299v-131h-299v-174q0 -182 211 -183q74 0 131 25l8 -158q-55 -25 -158 -24q-174 0 -273 91t-99 249z" />
    <glyph glyph-name="tcaron.ss01" horiz-adv-x="759" 
d="M588 147q74 0 131 25l8 -158q-55 -25 -158 -24q-174 0 -273 91t-99 249v518h-152v156h162v299h170v-299h325v-152h-325v-522q0 -183 211 -183zM612 1286q-57 0 -92 35t-35 89t36 86t87 32t87 -42t36 -150t-71.5 -181.5t-157.5 -69.5v93q43 0 76.5 29.5t33.5 78.5z" />
    <glyph glyph-name="uni0163.ss01" horiz-adv-x="759" 
d="M662 -241q0 -81 -61.5 -131t-153 -50t-150.5 23l29 120q49 -18 106 -18q98 0 98 55q0 63 -165 64l41 194q-100 35 -154.5 117t-54.5 197v518h-152v156h162v299h170v-299h325v-152h-325v-522q0 -182 211 -183q74 0 131 25l8 -158q-81 -37 -213 -22l-16 -74q70 -4 117 -41
t47 -118z" />
    <glyph glyph-name="uni021B.ss01" horiz-adv-x="759" 
d="M485 -84q125 0 125 -168q0 -141 -72.5 -227t-156.5 -82v92q43 0 75.5 40t32.5 103q-55 0 -89.5 35t-34.5 89t35.5 86t84.5 32zM197 330v518h-152v156h162v299h170v-299h325v-152h-325v-522q0 -182 211 -183q74 0 131 25l8 -158q-55 -25 -158 -24q-174 0 -273 91t-99 249z
" />
    <glyph glyph-name="u.ss01" horiz-adv-x="1130" 
d="M801 1004h180v-1004h-170l-8 147q-104 -158 -309 -157q-164 0 -259.5 97t-95.5 261v656h183v-629q0 -111 58 -171.5t169 -60.5t181.5 75t70.5 202v584z" />
    <glyph glyph-name="uacute.ss01" horiz-adv-x="1130" 
d="M801 1004h180v-1004h-170l-8 147q-104 -158 -309 -157q-164 0 -259.5 97t-95.5 261v656h183v-629q0 -111 58 -171.5t169 -60.5t181.5 75t70.5 202v584zM801 1485l-187 -328h-147l106 328h228z" />
    <glyph glyph-name="ubreve.ss01" horiz-adv-x="1130" 
d="M801 1004h180v-1004h-170l-8 147q-104 -158 -309 -157q-164 0 -259.5 97t-95.5 261v656h183v-629q0 -111 58 -171.5t169 -60.5t181.5 75t70.5 202v584zM558 1151q-134 0 -209 86t-75 238h150q0 -186 133 -186.5t133 186.5h152q0 -150 -75 -237t-209 -87z" />
    <glyph glyph-name="ucircumflex.ss01" horiz-adv-x="1130" 
d="M801 1004h180v-1004h-170l-8 147q-104 -158 -309 -157q-164 0 -259.5 97t-95.5 261v656h183v-629q0 -111 58 -171.5t169 -60.5t181.5 75t70.5 202v584zM559 1346l-141 -189h-154l195 328h200l195 -328h-154z" />
    <glyph glyph-name="udieresis.ss01" horiz-adv-x="1130" 
d="M801 1004h180v-1004h-170l-8 147q-104 -158 -309 -157q-164 0 -259.5 97t-95.5 261v656h183v-629q0 -111 58 -171.5t169 -60.5t181.5 75t70.5 202v584zM758 1223q-51 0 -82 30.5t-31 78.5t31 79t82 31t81.5 -31t30.5 -79t-30.5 -78.5t-81.5 -30.5zM381 1223
q-51 0 -82 30.5t-31 78.5t31 79t82 31t82 -31t31 -79t-31 -78.5t-82 -30.5z" />
    <glyph glyph-name="uni1EE5.ss01" horiz-adv-x="1130" 
d="M569.5 -131q57.5 0 92 -34t34.5 -89t-34.5 -89t-92 -34t-92.5 34t-35 89t35 89t92.5 34zM801 1004h180v-1004h-170l-8 147q-104 -158 -309 -157q-164 0 -259.5 97t-95.5 261v656h183v-629q0 -111 58 -171.5t169 -60.5t181.5 75t70.5 202v584z" />
    <glyph glyph-name="ugrave.ss01" horiz-adv-x="1130" 
d="M801 1004h180v-1004h-170l-8 147q-104 -158 -309 -157q-164 0 -259.5 97t-95.5 261v656h183v-629q0 -111 58 -171.5t169 -60.5t181.5 75t70.5 202v584zM651 1157h-147l-187 328h228z" />
    <glyph glyph-name="uhungarumlaut.ss01" horiz-adv-x="1130" 
d="M801 1004h180v-1004h-170l-8 147q-104 -158 -309 -157q-164 0 -259.5 97t-95.5 261v656h183v-629q0 -111 58 -171.5t169 -60.5t181.5 75t70.5 202v584zM965 1485l-187 -328h-141l86 328h242zM629 1485l-187 -328h-141l86 328h242z" />
    <glyph glyph-name="umacron.ss01" horiz-adv-x="1130" 
d="M801 1004h180v-1004h-170l-8 147q-104 -158 -309 -157q-164 0 -259.5 97t-95.5 261v656h183v-629q0 -111 58 -171.5t169 -60.5t181.5 75t70.5 202v584zM842 1397v-135h-563v135h563z" />
    <glyph glyph-name="uogonek.ss01" horiz-adv-x="1130" 
d="M905.5 -424q-106.5 0 -163 52.5t-56.5 140.5q0 131 125 231l-8 147q-104 -158 -309 -157q-164 0 -259.5 97t-95.5 261v656h183v-629q0 -111 58 -171.5t169 -60.5t181.5 75t70.5 202v584h180v-1004q-7 -4 -17 -10q-45 -26 -92 -80t-47 -121q0 -88 86 -88q64 0 111 37
l51 -103q-61 -59 -167.5 -59z" />
    <glyph glyph-name="uring.ss01" horiz-adv-x="1130" 
d="M801 1004h180v-1004h-170l-8 147q-104 -158 -309 -157q-164 0 -259.5 97t-95.5 261v656h183v-629q0 -111 58 -171.5t169 -60.5t181.5 75t70.5 202v584zM559 1393q-35 0 -55.5 -20.5t-20.5 -52.5t20.5 -53.5t55.5 -21.5t56.5 21.5t21.5 53.5t-21.5 52.5t-56.5 20.5z
M559 1133q-82 0 -139.5 51t-57.5 136t57.5 137t139.5 52t139.5 -52t57.5 -137t-57.5 -136t-139.5 -51z" />
    <glyph glyph-name="utilde.ss01" horiz-adv-x="1130" 
d="M801 1004h180v-1004h-170l-8 147q-104 -158 -309 -157q-164 0 -259.5 97t-95.5 261v656h183v-629q0 -111 58 -171.5t169 -60.5t181.5 75t70.5 202v584zM420 1294q-76 0 -76 -88h-135q0 231 194 232q82 0 153 -48.5t106 -48.5q76 0 75 89h133q0 -111 -51 -171.5
t-136 -60.5t-155.5 48t-107.5 48z" />
    <glyph glyph-name="y.ss01" horiz-adv-x="1130" 
d="M801 1004h180v-1045q0 -180 -112.5 -284.5t-306.5 -104.5t-304.5 84t-126.5 237h180q29 -168 236 -167q258 0 258 235v191q-106 -160 -311 -160q-164 0 -259.5 97t-95.5 261v656h183v-629q0 -111 58 -171.5t169 -60.5t181.5 75t70.5 202v584z" />
    <glyph glyph-name="yacute.ss01" horiz-adv-x="1130" 
d="M801 1004h180v-1045q0 -180 -112.5 -284.5t-306.5 -104.5t-304.5 84t-126.5 237h180q29 -168 236 -167q258 0 258 235v191q-106 -160 -311 -160q-164 0 -259.5 97t-95.5 261v656h183v-629q0 -111 58 -171.5t169 -60.5t181.5 75t70.5 202v584zM805 1485l-187 -328h-147
l107 328h227z" />
    <glyph glyph-name="ycircumflex.ss01" horiz-adv-x="1130" 
d="M801 1004h180v-1045q0 -180 -112.5 -284.5t-306.5 -104.5t-304.5 84t-126.5 237h180q29 -168 236 -167q258 0 258 235v191q-106 -160 -311 -160q-164 0 -259.5 97t-95.5 261v656h183v-629q0 -111 58 -171.5t169 -60.5t181.5 75t70.5 202v584zM565 1346l-141 -189h-154
l195 328h201l194 -328h-153z" />
    <glyph glyph-name="ydieresis.ss01" horiz-adv-x="1130" 
d="M801 1004h180v-1045q0 -180 -112.5 -284.5t-306.5 -104.5t-304.5 84t-126.5 237h180q29 -168 236 -167q258 0 258 235v191q-106 -160 -311 -160q-164 0 -259.5 97t-95.5 261v656h183v-629q0 -111 58 -171.5t169 -60.5t181.5 75t70.5 202v584zM756 1223q-51 0 -82 30.5
t-31 78.5t31 79t82 31t81.5 -31t30.5 -79t-30.5 -78.5t-81.5 -30.5zM379 1223q-51 0 -82 30.5t-31 78.5t31 79t82 31t82 -31t31 -79t-31 -78.5t-82 -30.5z" />
    <glyph glyph-name="ygrave.ss01" horiz-adv-x="1130" 
d="M801 1004h180v-1045q0 -180 -112.5 -284.5t-306.5 -104.5t-304.5 84t-126.5 237h180q29 -168 236 -167q258 0 258 235v191q-106 -160 -311 -160q-164 0 -259.5 97t-95.5 261v656h183v-629q0 -111 58 -171.5t169 -60.5t181.5 75t70.5 202v584zM657 1157h-147l-186 328h227
z" />
    <glyph glyph-name="uni0233.ss01" horiz-adv-x="1130" 
d="M801 1004h180v-1045q0 -180 -112.5 -284.5t-306.5 -104.5t-304.5 84t-126.5 237h180q29 -168 236 -167q258 0 258 235v191q-106 -160 -311 -160q-164 0 -259.5 97t-95.5 261v656h183v-629q0 -111 58 -171.5t169 -60.5t181.5 75t70.5 202v584zM856 1397v-135h-563v135h563
z" />
    <glyph glyph-name="uni1EF9.ss01" horiz-adv-x="1130" 
d="M801 1004h180v-1045q0 -180 -112.5 -284.5t-306.5 -104.5t-304.5 84t-126.5 237h180q29 -168 236 -167q258 0 258 235v191q-106 -160 -311 -160q-164 0 -259.5 97t-95.5 261v656h183v-629q0 -111 58 -171.5t169 -60.5t181.5 75t70.5 202v584zM436 1294q-76 0 -76 -88
h-135q0 231 195 232q82 0 152.5 -48.5t105.5 -48.5q76 0 76 89h133q0 -111 -51.5 -171.5t-136.5 -60.5t-155.5 48t-107.5 48z" />
    <glyph glyph-name="f.ss02" horiz-adv-x="745" 
d="M610 1296q-217 0 -217 -223v-69h320v-152h-320v-852h-180v852h-141v152h141v69q0 189 104 285t283 96q53 0 127 -6v-158q-72 6 -117 6z" />
    <glyph glyph-name="g.ss02" horiz-adv-x="1228" 
d="M573.5 143q141.5 0 223.5 104.5t82 233.5v41q0 129 -82 233.5t-222.5 104.5t-221.5 -98t-81 -259t80 -260.5t221.5 -99.5zM1059 1004v-977q0 -203 -131 -320t-416 -117q-168 0 -332 17v153q160 -16 348 -16q350 0 351 283v133q-98 -154 -326 -170q-209 0 -337 141
t-128 371.5t129 371t345 140.5t319 -168l8 158h170z" />
    <glyph glyph-name="gbreve.ss02" horiz-adv-x="1228" 
d="M573.5 143q141.5 0 223.5 104.5t82 233.5v41q0 129 -82 233.5t-222.5 104.5t-221.5 -98t-81 -259t80 -260.5t221.5 -99.5zM1059 1004v-977q0 -203 -131 -320t-416 -117q-168 0 -332 17v153q160 -16 348 -16q350 0 351 283v133q-98 -154 -326 -170q-209 0 -337 141
t-128 371.5t129 371t345 140.5t319 -168l8 158h170zM603 1151q-134 0 -209 86t-75 238h150q0 -186 133 -186.5t133 186.5h152q0 -150 -75 -237t-209 -87z" />
    <glyph glyph-name="gcaron.ss02" horiz-adv-x="1228" 
d="M573.5 143q141.5 0 223.5 104.5t82 233.5v41q0 129 -82 233.5t-222.5 104.5t-221.5 -98t-81 -259t80 -260.5t221.5 -99.5zM1059 1004v-977q0 -203 -131 -320t-416 -117q-168 0 -332 17v153q160 -16 348 -16q350 0 351 283v133q-98 -154 -326 -170q-209 0 -337 141
t-128 371.5t129 371t345 140.5t319 -168l8 158h170zM707 1157h-201l-197 328h154l141 -189l144 189h153z" />
    <glyph glyph-name="gcircumflex.ss02" horiz-adv-x="1228" 
d="M573.5 143q141.5 0 223.5 104.5t82 233.5v41q0 129 -82 233.5t-222.5 104.5t-221.5 -98t-81 -259t80 -260.5t221.5 -99.5zM1059 1004v-977q0 -203 -131 -320t-416 -117q-168 0 -332 17v153q160 -16 348 -16q350 0 351 283v133q-98 -154 -326 -170q-209 0 -337 141
t-128 371.5t129 371t345 140.5t319 -168l8 158h170zM604 1346l-141 -189h-154l195 328h201l194 -328h-154z" />
    <glyph glyph-name="gcommaaccent.ss02" horiz-adv-x="1208" 
d="M573.5 143q141.5 0 223.5 104.5t82 233.5v41q0 129 -82 233.5t-222.5 104.5t-221.5 -98t-81 -259t80 -260.5t221.5 -99.5zM1059 1004v-977q0 -203 -131 -320t-416 -117q-168 0 -332 17v153q160 -16 348 -16q350 0 351 283v133q-98 -154 -326 -170q-209 0 -337 141
t-128 371.5t129 371t345 140.5t319 -168l8 158h170zM602 1128q-125 0 -125 168q0 141 73 227.5t157 82.5v-93q-43 0 -76 -39.5t-33 -103.5q55 0 90 -35t35 -89t-36 -86t-85 -32z" />
    <glyph glyph-name="gdotaccent.ss02" horiz-adv-x="1228" 
d="M573.5 143q141.5 0 223.5 104.5t82 233.5v41q0 129 -82 233.5t-222.5 104.5t-221.5 -98t-81 -259t80 -260.5t221.5 -99.5zM1059 1004v-977q0 -203 -131 -320t-416 -117q-168 0 -332 17v153q160 -16 348 -16q350 0 351 283v133q-98 -154 -326 -170q-209 0 -337 141
t-128 371.5t129 371t345 140.5t319 -168l8 158h170zM604.5 1210q-57.5 0 -92.5 34t-35 89.5t35 90t92.5 34.5t92 -34.5t34.5 -90t-34.5 -89.5t-92 -34z" />
    <glyph glyph-name="j.ss02" horiz-adv-x="495" 
d="M-20 -420q-53 0 -127 6v158q72 -6 116 -6q197 0 197 223v1043h180v-1043q0 -185 -101 -283t-265 -98zM385 1330q0 -52 -37 -87t-90 -35t-88 35t-35 88t35 88t88 35t90 -36t37 -88z" />
    <glyph glyph-name="uni0237.ss02" horiz-adv-x="495" 
d="M-20 -420q-53 0 -127 6v158q72 -6 116 -6q197 0 197 223v1043h180v-1043q0 -185 -101 -283t-265 -98z" />
    <glyph glyph-name="jcircumflex.ss02" horiz-adv-x="495" 
d="M-20 -420q-53 0 -127 6v158q72 -6 116 -6q197 0 197 223v1043h180v-1043q0 -185 -101 -283t-265 -98zM-45 1157l195 328h200l195 -328h-154l-141 189l-141 -189h-154z" />
    <glyph glyph-name="t.ss02" horiz-adv-x="759" 
d="M600 158q47 0 119 6v-158q-74 -6 -131 -6q-391 0 -391 381v467h-152v156h162v299h170v-299h325v-152h-325v-471q0 -117 48 -170t175 -53z" />
    <glyph glyph-name="tbar.ss02" horiz-adv-x="759" 
d="M600 158q47 0 119 6v-158q-74 -6 -131 -6q-391 0 -391 381v123h-123v131h123v213h-152v156h162v299h170v-299h325v-152h-325v-217h301v-131h-301v-123q0 -117 48 -170t175 -53z" />
    <glyph glyph-name="tcaron.ss02" horiz-adv-x="759" 
d="M377 381q0 -117 48 -170t175 -53q47 0 119 6v-158q-74 -6 -131 -6q-391 0 -391 381v467h-152v156h162v299h170v-299h325v-152h-325v-471zM612 1286q-57 0 -92 35t-35 89t36 86t87 32t87 -42t36 -150t-71.5 -181.5t-157.5 -69.5v93q43 0 76.5 29.5t33.5 78.5z" />
    <glyph glyph-name="uni0163.ss02" horiz-adv-x="759" 
d="M603 0q-42 0 -87 4l-18 -86q70 -4 117 -41t47 -118t-61.5 -131t-153 -50t-150.5 23l29 120q49 -18 106 -18q98 0 98 55q0 63 -165 64l45 205q-213 74 -213 354v467h-152v156h162v299h170v-299h325v-152h-325v-471q0 -117 48 -170t175 -53q47 0 119 6v-158q-74 -6 -116 -6
z" />
    <glyph glyph-name="uni021B.ss02" horiz-adv-x="759" 
d="M485 -84q125 0 125 -168q0 -141 -72.5 -227t-156.5 -82v92q43 0 75.5 40t32.5 103q-55 0 -89.5 35t-34.5 89t35.5 86t84.5 32zM600 158q47 0 119 6v-158q-74 -6 -131 -6q-391 0 -391 381v467h-152v156h162v299h170v-299h325v-152h-325v-471q0 -117 48 -170t175 -53z" />
    <glyph glyph-name="y.ss02" horiz-adv-x="1130" 
d="M801 1004h180v-977q0 -201 -118 -319t-355 -118q-168 0 -332 17v153q160 -16 330 -16q299 0 299 283v123q-106 -160 -311 -160q-164 0 -259.5 97t-95.5 261v656h183v-629q0 -111 58 -171.5t169 -60.5t181.5 75t70.5 202v584z" />
    <glyph glyph-name="yacute.ss02" horiz-adv-x="1130" 
d="M801 1004h180v-977q0 -201 -118 -319t-355 -118q-168 0 -332 17v153q160 -16 330 -16q299 0 299 283v123q-106 -160 -311 -160q-164 0 -259.5 97t-95.5 261v656h183v-629q0 -111 58 -171.5t169 -60.5t181.5 75t70.5 202v584zM805 1485l-187 -328h-147l107 328h227z" />
    <glyph glyph-name="ycircumflex.ss02" horiz-adv-x="1130" 
d="M801 1004h180v-977q0 -201 -118 -319t-355 -118q-168 0 -332 17v153q160 -16 330 -16q299 0 299 283v123q-106 -160 -311 -160q-164 0 -259.5 97t-95.5 261v656h183v-629q0 -111 58 -171.5t169 -60.5t181.5 75t70.5 202v584zM565 1346l-141 -189h-154l195 328h201
l194 -328h-153z" />
    <glyph glyph-name="ydieresis.ss02" horiz-adv-x="1130" 
d="M801 1004h180v-977q0 -201 -118 -319t-355 -118q-168 0 -332 17v153q160 -16 330 -16q299 0 299 283v123q-106 -160 -311 -160q-164 0 -259.5 97t-95.5 261v656h183v-629q0 -111 58 -171.5t169 -60.5t181.5 75t70.5 202v584zM756 1223q-51 0 -82 30.5t-31 78.5t31 79
t82 31t81.5 -31t30.5 -79t-30.5 -78.5t-81.5 -30.5zM379 1223q-51 0 -82 30.5t-31 78.5t31 79t82 31t82 -31t31 -79t-31 -78.5t-82 -30.5z" />
    <glyph glyph-name="ygrave.ss02" horiz-adv-x="1130" 
d="M801 1004h180v-977q0 -201 -118 -319t-355 -118q-168 0 -332 17v153q160 -16 330 -16q299 0 299 283v123q-106 -160 -311 -160q-164 0 -259.5 97t-95.5 261v656h183v-629q0 -111 58 -171.5t169 -60.5t181.5 75t70.5 202v584zM657 1157h-147l-186 328h227z" />
    <glyph glyph-name="uni0233.ss02" horiz-adv-x="1130" 
d="M801 1004h180v-977q0 -201 -118 -319t-355 -118q-168 0 -332 17v153q160 -16 330 -16q299 0 299 283v123q-106 -160 -311 -160q-164 0 -259.5 97t-95.5 261v656h183v-629q0 -111 58 -171.5t169 -60.5t181.5 75t70.5 202v584zM856 1397v-135h-563v135h563z" />
    <glyph glyph-name="uni1EF9.ss02" horiz-adv-x="1130" 
d="M801 1004h180v-977q0 -201 -118 -319t-355 -118q-168 0 -332 17v153q160 -16 330 -16q299 0 299 283v123q-106 -160 -311 -160q-164 0 -259.5 97t-95.5 261v656h183v-629q0 -111 58 -171.5t169 -60.5t181.5 75t70.5 202v584zM436 1294q-76 0 -76 -88h-135q0 231 195 232
q82 0 152.5 -48.5t105.5 -48.5q76 0 76 89h133q0 -111 -51.5 -171.5t-136.5 -60.5t-155.5 48t-107.5 48z" />
    <glyph glyph-name="y.ss03" horiz-adv-x="1130" 
d="M801 1004h180v-963q0 -219 -123 -345t-383 -126q-170 0 -317 63v166q166 -76 323 -75q324 0 324 317v109q-106 -160 -311 -160q-164 0 -259.5 97t-95.5 261v656h183v-629q0 -111 58 -171.5t169 -60.5t181.5 75t70.5 202v584z" />
    <glyph glyph-name="yacute.ss03" horiz-adv-x="1130" 
d="M801 1004h180v-963q0 -219 -123 -345t-383 -126q-170 0 -317 63v166q166 -76 323 -75q324 0 324 317v109q-106 -160 -311 -160q-164 0 -259.5 97t-95.5 261v656h183v-629q0 -111 58 -171.5t169 -60.5t181.5 75t70.5 202v584zM805 1485l-187 -328h-147l107 328h227z" />
    <glyph glyph-name="ycircumflex.ss03" horiz-adv-x="1130" 
d="M801 1004h180v-963q0 -219 -123 -345t-383 -126q-170 0 -317 63v166q166 -76 323 -75q324 0 324 317v109q-106 -160 -311 -160q-164 0 -259.5 97t-95.5 261v656h183v-629q0 -111 58 -171.5t169 -60.5t181.5 75t70.5 202v584zM565 1346l-141 -189h-154l195 328h201
l194 -328h-153z" />
    <glyph glyph-name="ydieresis.ss03" horiz-adv-x="1130" 
d="M801 1004h180v-963q0 -219 -123 -345t-383 -126q-170 0 -317 63v166q166 -76 323 -75q324 0 324 317v109q-106 -160 -311 -160q-164 0 -259.5 97t-95.5 261v656h183v-629q0 -111 58 -171.5t169 -60.5t181.5 75t70.5 202v584zM756 1223q-51 0 -82 30.5t-31 78.5t31 79
t82 31t81.5 -31t30.5 -79t-30.5 -78.5t-81.5 -30.5zM379 1223q-51 0 -82 30.5t-31 78.5t31 79t82 31t82 -31t31 -79t-31 -78.5t-82 -30.5z" />
    <glyph glyph-name="ygrave.ss03" horiz-adv-x="1130" 
d="M801 1004h180v-963q0 -219 -123 -345t-383 -126q-170 0 -317 63v166q166 -76 323 -75q324 0 324 317v109q-106 -160 -311 -160q-164 0 -259.5 97t-95.5 261v656h183v-629q0 -111 58 -171.5t169 -60.5t181.5 75t70.5 202v584zM657 1157h-147l-186 328h227z" />
    <glyph glyph-name="uni0233.ss03" horiz-adv-x="1130" 
d="M801 1004h180v-963q0 -219 -123 -345t-383 -126q-170 0 -317 63v166q166 -76 323 -75q324 0 324 317v109q-106 -160 -311 -160q-164 0 -259.5 97t-95.5 261v656h183v-629q0 -111 58 -171.5t169 -60.5t181.5 75t70.5 202v584zM856 1397v-135h-563v135h563z" />
    <glyph glyph-name="uni1EF9.ss03" horiz-adv-x="1130" 
d="M801 1004h180v-963q0 -219 -123 -345t-383 -126q-170 0 -317 63v166q166 -76 323 -75q324 0 324 317v109q-106 -160 -311 -160q-164 0 -259.5 97t-95.5 261v656h183v-629q0 -111 58 -171.5t169 -60.5t181.5 75t70.5 202v584zM436 1294q-76 0 -76 -88h-135q0 231 195 232
q82 0 152.5 -48.5t105.5 -48.5q76 0 76 89h133q0 -111 -51.5 -171.5t-136.5 -60.5t-155.5 48t-107.5 48z" />
    <glyph glyph-name="a.sc" horiz-adv-x="1138" 
d="M371 393h397l-199 488zM928 0l-99 244h-520l-98 -244h-182l436 1053h209l436 -1053h-182z" />
    <glyph glyph-name="aacute.sc" horiz-adv-x="1138" 
d="M371 393h397l-199 488zM928 0l-99 244h-520l-98 -244h-182l436 1053h209l436 -1053h-182zM825 1534l-186 -328h-147l106 328h227z" />
    <glyph glyph-name="abreve.sc" horiz-adv-x="1138" 
d="M371 393h397l-199 488zM928 0l-99 244h-520l-98 -244h-182l436 1053h209l436 -1053h-182zM583 1200q-134 0 -209 86t-75 238h150q0 -186 133 -186.5t133 186.5h151q0 -150 -74.5 -237t-208.5 -87z" />
    <glyph glyph-name="acircumflex.sc" horiz-adv-x="1138" 
d="M371 393h397l-199 488zM928 0l-99 244h-520l-98 -244h-182l436 1053h209l436 -1053h-182zM584 1395l-142 -189h-153l194 328h201l195 -328h-154z" />
    <glyph glyph-name="adieresis.sc" horiz-adv-x="1138" 
d="M371 393h397l-199 488zM928 0l-99 244h-520l-98 -244h-182l436 1053h209l436 -1053h-182zM782.5 1272q-51.5 0 -82 30.5t-30.5 78.5t30.5 79t82 31t82 -30.5t30.5 -78.5t-30.5 -79t-82 -31zM405.5 1272q-51.5 0 -82 30.5t-30.5 78.5t30.5 79t82 31t82 -30.5t30.5 -78.5
t-30.5 -79t-82 -31z" />
    <glyph glyph-name="uni1EA1.sc" horiz-adv-x="1138" 
d="M569.5 -131q57.5 0 92 -34t34.5 -89t-34.5 -89t-92 -34t-92.5 34t-35 89t35 89t92.5 34zM371 393h397l-199 488zM1110 0h-182l-99 244h-520l-98 -244h-182l436 1053h209z" />
    <glyph glyph-name="agrave.sc" horiz-adv-x="1138" 
d="M371 393h397l-199 488zM928 0l-99 244h-520l-98 -244h-182l436 1053h209l436 -1053h-182zM676 1206h-148l-186 328h227z" />
    <glyph glyph-name="amacron.sc" horiz-adv-x="1138" 
d="M371 393h397l-199 488zM928 0l-99 244h-520l-98 -244h-182l436 1053h209l436 -1053h-182zM866 1446v-135h-563v135h563z" />
    <glyph glyph-name="aogonek.sc" horiz-adv-x="1138" 
d="M371 393h397l-199 488zM1034.5 -424q-106.5 0 -163 52.5t-56.5 140.5q0 127 125 231h-12l-99 244h-520l-98 -244h-182l436 1053h209l436 -1053q-6 -4 -16 -10q-45 -26 -92.5 -80t-47.5 -121q0 -88 86 -88q64 0 111 37l51 -103q-61 -59 -167.5 -59z" />
    <glyph glyph-name="aring.sc" horiz-adv-x="1138" 
d="M371 393h397l-199 488zM928 0l-99 244h-520l-98 -244h-182l436 1053h209l436 -1053h-182zM583.5 1442q-34.5 0 -55 -20.5t-20.5 -52.5t20.5 -53.5t55 -21.5t56.5 21.5t22 53.5t-22 52.5t-56.5 20.5zM584 1182q-82 0 -139.5 51t-57.5 136t57.5 137.5t139.5 52.5t139 -52.5
t57 -137.5t-57 -136t-139 -51z" />
    <glyph glyph-name="aringacute.sc" horiz-adv-x="1138" 
d="M371 393h397l-199 488zM928 0l-99 244h-520l-98 -244h-182l436 1053h209l436 -1053h-182zM583.5 1442q-34.5 0 -55 -20.5t-20.5 -52.5t20.5 -53.5t55 -21.5t56.5 21.5t22 53.5t-22 52.5t-56.5 20.5zM582 1182q-80 0 -137.5 51t-57.5 136t57.5 137.5t147.5 52.5t145 -66
l99 184h182l-238 -325q-6 -76 -62 -123t-136 -47z" />
    <glyph glyph-name="atilde.sc" horiz-adv-x="1138" 
d="M371 393h397l-199 488zM928 0l-99 244h-520l-98 -244h-182l436 1053h209l436 -1053h-182zM444 1343q-76 0 -75 -88h-136q0 231 195 232q82 0 152.5 -48t105.5 -48q76 0 76 88h133q0 -111 -51 -171q-50 -60 -136 -60.5t-156.5 47.5t-107.5 48z" />
    <glyph glyph-name="ae.sc" horiz-adv-x="1605" 
d="M768 393v500h-2l-324 -500h326zM946 160h563v-160h-741v244h-422l-158 -244h-192l666 1053h839v-158h-555v-277h500v-153h-500v-305z" />
    <glyph glyph-name="aeacute.sc" horiz-adv-x="1605" 
d="M768 393v500h-2l-324 -500h326zM946 160h563v-160h-741v244h-422l-158 -244h-192l666 1053h839v-158h-555v-277h500v-153h-500v-305zM1040 1534l-186 -328h-147l106 328h227z" />
    <glyph glyph-name="b.sc" horiz-adv-x="1112" 
d="M639 145q92 0 146 42t55 122q0 80 -56 122t-155 42h-289v-328h299zM797 761q-1 71 -51 109t-138 37h-268v-299h268q92 0 141 41q48 41 48 112zM672 0h-510v1053h497q147 0 233 -74t87 -180q0 -105 -53 -165t-113 -79v-4q86 -20 146 -87q61 -66 61 -186t-95 -199t-253 -79
z" />
    <glyph glyph-name="c.sc" horiz-adv-x="1226" 
d="M637 150q295 0 332 233h182q-23 -178 -153 -285.5t-366 -107.5t-389 150t-153 388t154 388t388 149.5t366 -109t153 -286.5h-182q-16 106 -98.5 170.5t-236.5 64.5t-258 -104.5t-104 -274.5t103.5 -273t261.5 -103z" />
    <glyph glyph-name="cacute.sc" horiz-adv-x="1226" 
d="M637 150q295 0 332 233h182q-23 -178 -153 -285.5t-366 -107.5t-389 150t-153 388t154 388t388 149.5t366 -109t153 -286.5h-182q-16 106 -98.5 170.5t-236.5 64.5t-258 -104.5t-104 -274.5t103.5 -273t261.5 -103zM688 1206h-147l106 328h227z" />
    <glyph glyph-name="ccaron.sc" horiz-adv-x="1226" 
d="M637 150q295 0 332 233h182q-23 -178 -153 -285.5t-366 -107.5t-389 150t-153 388t154 388t388 149.5t366 -109t153 -286.5h-182q-16 106 -98.5 170.5t-236.5 64.5t-258 -104.5t-104 -274.5t103.5 -273t261.5 -103zM338 1534h154l141 -188l143 188h154l-195 -328h-200z
" />
    <glyph glyph-name="ccedilla.sc" horiz-adv-x="1226" 
d="M637 150q295 0 332 233h182q-23 -172 -144.5 -278.5t-338.5 -114.5l-15 -70q70 -4 117 -41t47 -118t-61.5 -131t-152.5 -50t-150 23l28 121q49 -18 107 -19q98 0 98 55q0 63 -166 64l37 170q-211 25 -339 170q-128 146 -128 374t154 378t388 149.5t366 -109t153 -286.5
h-182q-16 106 -98.5 170.5t-236.5 64.5t-258 -104.5t-104 -274.5t103.5 -273t261.5 -103z" />
    <glyph glyph-name="ccircumflex.sc" horiz-adv-x="1226" 
d="M637 150q295 0 332 233h182q-23 -178 -153 -285.5t-366 -107.5t-389 150t-153 388t154 388t388 149.5t366 -109t153 -286.5h-182q-16 106 -98.5 170.5t-236.5 64.5t-258 -104.5t-104 -274.5t103.5 -273t261.5 -103zM338 1206l194 328h201l195 -328h-154l-141 189
l-141 -189h-154z" />
    <glyph glyph-name="cdotaccent.sc" horiz-adv-x="1226" 
d="M637 150q295 0 332 233h182q-23 -178 -153 -285.5t-366 -107.5t-389 150t-153 388t154 388t388 149.5t366 -109t153 -286.5h-182q-16 106 -98.5 170.5t-236.5 64.5t-258 -104.5t-104 -274.5t103.5 -273t261.5 -103zM632.5 1507q57.5 0 92.5 -34.5t35 -90t-35 -89
t-92.5 -33.5t-92 33.5t-34.5 89t34.5 90t92 34.5z" />
    <glyph glyph-name="d.sc" horiz-adv-x="1263" 
d="M606 152q174 0 279.5 98t105.5 276.5t-105.5 276.5t-279.5 98h-264v-749h264zM606 1053q256 0 412 -140.5t156 -386t-156 -386t-412 -140.5h-444v1053h444z" />
    <glyph glyph-name="eth.sc" horiz-adv-x="1284" 
d="M627 152q174 0 279.5 98t105.5 276.5t-105.5 276.5t-279.5 98h-265v-305h283v-131h-283v-313h265zM627 1053q256 0 411.5 -140.5t155.5 -386t-155.5 -386t-411.5 -140.5h-445v465h-141v131h141v457h445z" />
    <glyph glyph-name="dcaron.sc" horiz-adv-x="1263" 
d="M606 152q174 0 279.5 98t105.5 276.5t-105.5 276.5t-279.5 98h-264v-749h264zM606 1053q256 0 412 -140.5t156 -386t-156 -386t-412 -140.5h-444v1053h444zM694 1206h-200l-197 328h154l141 -188l143 188h154z" />
    <glyph glyph-name="dcroat.sc" horiz-adv-x="1284" 
d="M627 152q174 0 279.5 98t105.5 276.5t-105.5 276.5t-279.5 98h-265v-305h283v-131h-283v-313h265zM627 1053q256 0 411.5 -140.5t155.5 -386t-155.5 -386t-411.5 -140.5h-445v465h-141v131h141v457h445z" />
    <glyph glyph-name="e.sc" horiz-adv-x="1073" 
d="M342 154h635v-154h-815v1053h807v-154h-627v-281h567v-151h-567v-313z" />
    <glyph glyph-name="eacute.sc" horiz-adv-x="1073" 
d="M342 154h635v-154h-815v1053h807v-154h-627v-281h567v-151h-567v-313zM817 1534l-186 -328h-148l107 328h227z" />
    <glyph glyph-name="ebreve.sc" horiz-adv-x="1073" 
d="M342 154h635v-154h-815v1053h807v-154h-627v-281h567v-151h-567v-313zM574 1200q-134 0 -208.5 86t-74.5 238h149q0 -186 133.5 -186.5t133.5 186.5h151q0 -150 -75 -237t-209 -87z" />
    <glyph glyph-name="ecaron.sc" horiz-adv-x="1073" 
d="M342 154h635v-154h-815v1053h807v-154h-627v-281h567v-151h-567v-313zM678 1206h-201l-196 328h153l141 -188l144 188h153z" />
    <glyph glyph-name="ecircumflex.sc" horiz-adv-x="1073" 
d="M342 154h635v-154h-815v1053h807v-154h-627v-281h567v-151h-567v-313zM575 1395l-141 -189h-153l194 328h201l194 -328h-153z" />
    <glyph glyph-name="edieresis.sc" horiz-adv-x="1073" 
d="M342 154h635v-154h-815v1053h807v-154h-627v-281h567v-151h-567v-313zM776 1272q-51 0 -81.5 30.5t-30.5 78.5t30.5 79t81.5 31t82 -30.5t31 -78.5t-31 -79t-82 -31zM399.5 1272q-51.5 0 -82 30.5t-30.5 78.5t30.5 79t82 31t82 -30.5t30.5 -78.5t-30.5 -79t-82 -31z" />
    <glyph glyph-name="edotaccent.sc" horiz-adv-x="1073" 
d="M342 154h635v-154h-815v1053h807v-154h-627v-281h567v-151h-567v-313zM575.5 1260q-57.5 0 -92 33.5t-34.5 89t34.5 90t92 34.5t92 -34.5t34.5 -90t-34.5 -89t-92 -33.5z" />
    <glyph glyph-name="uni1EB9.sc" horiz-adv-x="1073" 
d="M581.5 -131q57.5 0 92.5 -34t35 -89t-35 -89t-92.5 -34t-92 34t-34.5 89t34.5 89t92 34zM342 154h635v-154h-815v1053h807v-154h-627v-281h567v-151h-567v-313z" />
    <glyph glyph-name="egrave.sc" horiz-adv-x="1073" 
d="M342 154h635v-154h-815v1053h807v-154h-627v-281h567v-151h-567v-313zM668 1206h-148l-186 328h227z" />
    <glyph glyph-name="emacron.sc" horiz-adv-x="1073" 
d="M342 154h635v-154h-815v1053h807v-154h-627v-281h567v-151h-567v-313zM858 1446v-135h-563v135h563z" />
    <glyph glyph-name="eogonek.sc" horiz-adv-x="1073" 
d="M901.5 -424q-106.5 0 -163 52.5t-56.5 140.5q0 127 125 231h-645v1053h807v-154h-627v-281h567v-151h-567v-313h635v-154q-7 -4 -17 -10q-45 -26 -92 -80t-47 -121q0 -88 86 -88q64 0 111 37l51 -103q-61 -59 -167.5 -59z" />
    <glyph glyph-name="uni1EBD.sc" horiz-adv-x="1073" 
d="M342 154h635v-154h-815v1053h807v-154h-627v-281h567v-151h-567v-313zM436 1343q-76 0 -76 -88h-135q0 231 195 232q82 0 152.5 -48t105.5 -48q76 0 76 88h133q0 -111 -51.5 -171.5t-136.5 -60.5t-155.5 48t-107.5 48z" />
    <glyph glyph-name="uni0259.sc" horiz-adv-x="1226" 
d="M614 150q109 0 202 72t124 196h-670q45 -268 344 -268zM620 1063q222 0 368 -150q146 -151 146 -387t-149 -386q-150 -150 -371 -148q-268 0 -399 141t-131 404v24h866q-10 160 -112 252t-230 92t-210 -54q-81 -54 -103 -134h-184q33 152 160 249q128 97 349 97z" />
    <glyph glyph-name="f.sc" horiz-adv-x="1007" 
d="M944 903h-602v-323h526v-150h-526v-430h-180v1053h782v-150z" />
    <glyph glyph-name="g.sc" horiz-adv-x="1267" 
d="M655 551h504v-551h-135v168q-119 -178 -374 -178q-256 0 -408 150q-152 152 -152 392t154 386q156 146 394 146.5t366.5 -102t148.5 -268.5h-182q-16 92 -94 151.5t-237 59.5t-263.5 -102.5t-104.5 -272.5t104.5 -275t265.5 -105t255 77.5t104 180.5h-346v143z" />
    <glyph glyph-name="gbreve.sc" horiz-adv-x="1267" 
d="M655 551h504v-551h-135v168q-119 -178 -374 -178t-407.5 150.5t-152.5 391t154.5 387t393 146.5t367 -102.5t148.5 -268.5h-182q-16 92 -94 151.5t-237 59.5t-263.5 -102.5t-104.5 -272.5t104.5 -275t265.5 -105t255 77.5t104 180.5h-346v143zM650 1217q-134 0 -208.5 86
t-74.5 237h149q0 -186 133 -186t133 186h152q0 -150 -75 -236.5t-209 -86.5z" />
    <glyph glyph-name="gcaron.sc" horiz-adv-x="1267" 
d="M655 551h504v-551h-135v168q-119 -178 -374 -178q-256 0 -408 150q-152 152 -152 392t154 386q156 146 394 146.5t366.5 -102t148.5 -268.5h-182q-16 92 -94 151.5t-237 59.5t-263.5 -102.5t-104.5 -272.5t104.5 -275t265.5 -105t255 77.5t104 180.5h-346v143zM754 1223
h-201l-197 327h154l141 -188l144 188h153z" />
    <glyph glyph-name="gcircumflex.sc" horiz-adv-x="1267" 
d="M655 551h504v-551h-135v168q-119 -178 -374 -178q-256 0 -408 150q-152 152 -152 392t154 386q156 146 394 146.5t366.5 -102t148.5 -268.5h-182q-16 92 -94 151.5t-237 59.5t-263.5 -102.5t-104.5 -272.5t104.5 -275t265.5 -105t255 77.5t104 180.5h-346v143zM651 1411
l-141 -188h-154l195 327h201l194 -327h-153z" />
    <glyph glyph-name="gcommaaccent.sc" horiz-adv-x="1267" 
d="M645 -84q125 0 125 -168q0 -141 -72.5 -227t-156.5 -82v92q43 0 75.5 40t32.5 103q-55 0 -90 35t-35 89t36 86t85 32zM655 551h504v-551h-135v168q-119 -178 -374 -178q-256 0 -408 150q-152 152 -152 392t154 386q156 146 394 146.5t366.5 -102t148.5 -268.5h-182
q-16 92 -94 151.5t-237 59.5t-263.5 -102.5t-104.5 -272.5t104.5 -275t265.5 -105t255 77.5t104 180.5h-346v143z" />
    <glyph glyph-name="gdotaccent.sc" horiz-adv-x="1267" 
d="M655 551h504v-551h-135v168q-119 -178 -374 -178q-256 0 -408 150q-152 152 -152 392t154 386q156 146 394 146.5t366.5 -102t148.5 -268.5h-182q-16 92 -94 151.5t-237 59.5t-263.5 -102.5t-104.5 -272.5t104.5 -275t265.5 -105t255 77.5t104 180.5h-346v143z
M651.5 1276q-57.5 0 -92.5 33.5t-35 89t35 90.5t92.5 35t92 -35t34.5 -90.5t-34.5 -89t-92 -33.5z" />
    <glyph glyph-name="h.sc" horiz-adv-x="1286" 
d="M942 1053h180v-1053h-180v461h-600v-461h-180v1053h180v-432h600v432z" />
    <glyph glyph-name="hbar.sc" horiz-adv-x="1298" 
d="M948 621v153h-600v-153h600zM1231 926v-152h-103v-774h-180v461h-600v-461h-180v774h-105v152h105v127h180v-127h600v127h180v-127h103z" />
    <glyph glyph-name="hcircumflex.sc" horiz-adv-x="1286" 
d="M942 1053h180v-1053h-180v461h-600v-461h-180v1053h180v-432h600v432zM643 1395l-141 -189h-154l195 328h200l195 -328h-154z" />
    <glyph glyph-name="i.sc" horiz-adv-x="503" 
d="M162 0v1053h180v-1053h-180z" />
    <glyph glyph-name="iacute.sc" horiz-adv-x="503" 
d="M162 0v1053h180v-1053h-180zM307 1206h-147l106 328h228z" />
    <glyph glyph-name="ibreve.sc" horiz-adv-x="503" 
d="M162 0v1053h180v-1053h-180zM535 1524q0 -150 -75 -237t-209 -87t-209 86t-75 238h150q0 -186 133 -186.5t133 186.5h152z" />
    <glyph glyph-name="icircumflex.sc" horiz-adv-x="503" 
d="M162 0v1053h180v-1053h-180zM-43 1206l195 328h200l195 -328h-154l-141 189l-141 -189h-154z" />
    <glyph glyph-name="idieresis.sc" horiz-adv-x="503" 
d="M162 0v1053h180v-1053h-180zM452.5 1491q51.5 0 82 -30.5t30.5 -78.5t-30.5 -79t-82 -31t-82 30.5t-30.5 78.5t30.5 79t82 31zM76 1491q51 0 81.5 -30.5t30.5 -78.5t-30.5 -79t-81.5 -31t-82 30.5t-31 78.5t31 79t82 31z" />
    <glyph glyph-name="i.sc.loclTRK" horiz-adv-x="503" 
d="M162 0v1053h180v-1053h-180zM252 1507q57 0 92 -34.5t35 -90t-35 -89t-92 -33.5t-92 33.5t-35 89t35 90t92 34.5z" />
    <glyph glyph-name="uni1ECB.sc" horiz-adv-x="503" 
d="M252 -131q57 0 92 -34t35 -89t-35 -89t-92 -34t-92 34t-35 89t35 89t92 34zM162 0v1053h180v-1053h-180z" />
    <glyph glyph-name="igrave.sc" horiz-adv-x="503" 
d="M162 0v1053h180v-1053h-180zM197 1206l-187 328h228l106 -328h-147z" />
    <glyph glyph-name="ij.sc" horiz-adv-x="1449" 
d="M929 152q85 0 135 46t50 140v715h182v-715q0 -162 -95 -253t-274 -91t-274.5 91t-95.5 253h178q2 -96 55.5 -141t138.5 -45zM162 0v1053h180v-1053h-180z" />
    <glyph glyph-name="imacron.sc" horiz-adv-x="503" 
d="M162 0v1053h180v-1053h-180zM-29 1311v135h564v-135h-564z" />
    <glyph glyph-name="iogonek.sc" horiz-adv-x="503" 
d="M266.5 -424q-106.5 0 -163 52.5t-56.5 140.5q0 127 125 231h-10v1053h180v-1053q-6 -4 -16 -10q-45 -26 -92.5 -80t-47.5 -121q0 -88 86 -88q64 0 111 37l51 -103q-61 -59 -167.5 -59z" />
    <glyph glyph-name="itilde.sc" horiz-adv-x="503" 
d="M162 0v1053h180v-1053h-180zM113 1343q-76 0 -76 -88h-135q0 231 194 232q82 0 152.5 -48t105.5 -48q76 0 76 88h133q0 -111 -51 -171.5t-136 -60.5t-155.5 48t-107.5 48z" />
    <glyph glyph-name="j.sc" horiz-adv-x="935" 
d="M415 152q85 0 135 46t50 140v715h182v-715q0 -162 -95 -253t-274 -91t-274.5 91t-95.5 253h178q2 -96 55.5 -141t138.5 -45z" />
    <glyph glyph-name="jcircumflex.sc" horiz-adv-x="935" 
d="M415 152q85 0 135 46t50 140v715h182v-715q0 -162 -95 -253t-274 -91t-274.5 91t-95.5 253h178q2 -96 55.5 -141t138.5 -45zM391 1206l195 328h200l195 -328h-154l-141 189l-141 -189h-154z" />
    <glyph glyph-name="k.sc" horiz-adv-x="1157" 
d="M1041.5 -8q-68.5 0 -131 35.5t-136.5 136.5l-233 311l-199 -196v-279h-180v1053h180v-561l557 561h219l-448 -459l280 -367q63 -82 119.5 -81.5t81.5 8.5l12 -148q-53 -14 -121.5 -14z" />
    <glyph glyph-name="kcommaaccent.sc" horiz-adv-x="1157" 
d="M598 -84q125 0 125 -168q0 -141 -72.5 -227t-156.5 -82v92q43 0 75.5 40t32.5 103q-55 0 -90 35t-35 89t36 86t85 32zM1041.5 -8q-68.5 0 -131 35.5t-136.5 136.5l-233 311l-199 -196v-279h-180v1053h180v-561l557 561h219l-448 -459l280 -367q63 -82 119.5 -81.5
t81.5 8.5l12 -148q-53 -14 -121.5 -14z" />
    <glyph glyph-name="l.sc" horiz-adv-x="995" 
d="M342 160h619v-160h-799v1053h180v-893z" />
    <glyph glyph-name="lacute.sc" horiz-adv-x="995" 
d="M342 160h619v-160h-799v1053h180v-893zM479 1534l-186 -328h-148l107 328h227z" />
    <glyph glyph-name="lcaron.sc" horiz-adv-x="1001" 
d="M342 160h619v-160h-799v1053h180v-893zM748 842q-57 0 -92 34q-35 36 -35 90t35.5 85.5t84.5 31.5q125 0 125 -168q0 -141 -72.5 -228t-156.5 -83v92q43 0 77 41.5t34 104.5z" />
    <glyph glyph-name="lcommaaccent.sc" horiz-adv-x="995" 
d="M582 -84q125 0 125 -168q0 -141 -73 -227t-157 -82v92q43 0 76 40t33 103q-55 0 -90 35t-35 89t36 86t85 32zM342 160h619v-160h-799v1053h180v-893z" />
    <glyph glyph-name="ldot.sc" horiz-adv-x="1015" 
d="M733.5 438q-57.5 0 -92.5 34t-35 89t35 90t92.5 35t92 -35t34.5 -90t-34.5 -89t-92 -34zM342 160h619v-160h-799v1053h180v-893z" />
    <glyph glyph-name="lslash.sc" horiz-adv-x="1060" 
d="M408 160h618v-160h-799v385l-129 -78l-65 119l194 119v508h181v-400l149 90l68 -118l-217 -131v-334z" />
    <glyph glyph-name="m.sc" horiz-adv-x="1492" 
d="M1157 0v877l-338 -877h-145l-338 877v-877h-174l-2 1053h270l318 -844l315 844h270l-2 -1053h-174z" />
    <glyph glyph-name="n.sc" horiz-adv-x="1284" 
d="M940 1053h180v-1053h-180l-600 799v-799h-178v1053h178l600 -799v799z" />
    <glyph glyph-name="nacute.sc" horiz-adv-x="1284" 
d="M940 1053h180v-1053h-180l-600 799v-799h-178v1053h178l600 -799v799zM883 1534l-187 -328h-147l106 328h228z" />
    <glyph glyph-name="ncaron.sc" horiz-adv-x="1284" 
d="M940 1053h180v-1053h-180l-600 799v-799h-178v1053h178l600 -799v799zM743 1206h-200l-197 328h154l141 -188l143 188h154z" />
    <glyph glyph-name="ncommaaccent.sc" horiz-adv-x="1284" 
d="M645 -84q125 0 125 -168q0 -141 -72.5 -227t-156.5 -82v92q43 0 75.5 40t32.5 103q-55 0 -90 35t-35 89t36 86t85 32zM940 1053h180v-1053h-180l-600 799v-799h-178v1053h178l600 -799v799z" />
    <glyph glyph-name="eng.sc" horiz-adv-x="1280" 
d="M940 1053h178v-1086q0 -131 -80 -207.5t-215 -76.5q-80 0 -131 18l13 152q41 -15 97 -15t97 34t41 93v35l-600 799v-799h-178v1053h178l600 -799v799z" />
    <glyph glyph-name="uni0272.sc" horiz-adv-x="1280" 
d="M940 1053h178v-1053h-178l-600 799v-832q0 -131 -80 -207.5t-215 -76.5q-78 0 -133 18l14 152q36 -15 94 -15t100 34t42 93v1088h178l600 -799v799z" />
    <glyph glyph-name="ntilde.sc" horiz-adv-x="1284" 
d="M940 1053h180v-1053h-180l-600 799v-799h-178v1053h178l600 -799v799zM502 1343q-76 0 -76 -88h-135q0 231 194 232q82 0 153 -48t105 -48q76 0 76 88h133q0 -111 -51 -171.5t-136 -60.5t-155.5 48t-107.5 48z" />
    <glyph glyph-name="o.sc" horiz-adv-x="1316" 
d="M657 147q170 0 277.5 102.5t107.5 277.5t-107.5 276.5t-277.5 101.5t-277.5 -101.5t-107.5 -276.5t107.5 -277.5t277.5 -102.5zM657.5 -10q-251.5 0 -409.5 145.5t-158 391t159 392t408.5 146.5t408.5 -146.5t159 -392t-158 -391t-409.5 -145.5z" />
    <glyph glyph-name="oacute.sc" horiz-adv-x="1316" 
d="M657 147q170 0 277.5 102.5t107.5 277.5t-107.5 276.5t-277.5 101.5t-277.5 -101.5t-107.5 -276.5t107.5 -277.5t277.5 -102.5zM657.5 -10q-251.5 0 -409.5 145.5t-158 391t159 392t408.5 146.5t408.5 -146.5t159 -392t-158 -391t-409.5 -145.5zM713 1223h-148l107 327
h227z" />
    <glyph glyph-name="obreve.sc" horiz-adv-x="1316" 
d="M657 147q170 0 277.5 102.5t107.5 277.5t-107.5 276.5t-277.5 101.5t-277.5 -101.5t-107.5 -276.5t107.5 -277.5t277.5 -102.5zM657.5 -10q-251.5 0 -409.5 145.5t-158 391t159 392t408.5 146.5t408.5 -146.5t159 -392t-158 -391t-409.5 -145.5zM940 1540
q0 -150 -74 -236q-76 -86 -210 -86.5t-208.5 85.5t-74.5 237h149q0 -186 133 -186t133 186h152z" />
    <glyph glyph-name="ocircumflex.sc" horiz-adv-x="1316" 
d="M657 147q170 0 277.5 102.5t107.5 277.5t-107.5 276.5t-277.5 101.5t-277.5 -101.5t-107.5 -276.5t107.5 -277.5t277.5 -102.5zM657.5 -10q-251.5 0 -409.5 145.5t-158 391t159 392t408.5 146.5t408.5 -146.5t159 -392t-158 -391t-409.5 -145.5zM362 1223l195 327h201
l194 -327h-153l-142 188l-141 -188h-154z" />
    <glyph glyph-name="odieresis.sc" horiz-adv-x="1316" 
d="M657 147q170 0 277.5 102.5t107.5 277.5t-107.5 276.5t-277.5 101.5t-277.5 -101.5t-107.5 -276.5t107.5 -277.5t277.5 -102.5zM657.5 -10q-251.5 0 -409.5 145.5t-158 391t159 392t408.5 146.5t408.5 -146.5t159 -392t-158 -391t-409.5 -145.5zM856 1507q51 0 82 -30.5
t31 -78.5t-31 -79t-82 -31t-82 31t-31 79t31 78.5t82 30.5zM479 1507q51 0 82 -30.5t31 -78.5t-31 -79t-82 -31t-81.5 31t-30.5 79t30.5 78.5t81.5 30.5z" />
    <glyph glyph-name="uni1ECD.sc" horiz-adv-x="1316" 
d="M657.5 -131q57.5 0 92 -34t34.5 -89t-34.5 -89t-92 -34t-92.5 34t-35 89t35 89t92.5 34zM657 147q170 0 277.5 102.5t107.5 277.5t-107.5 276.5t-277.5 101.5t-277.5 -101.5t-107.5 -276.5t107.5 -277.5t277.5 -102.5zM657.5 -10q-251.5 0 -409.5 145.5t-158 391t159 392
t408.5 146.5t408.5 -146.5t159 -392t-158 -391t-409.5 -145.5z" />
    <glyph glyph-name="ograve.sc" horiz-adv-x="1316" 
d="M657 147q170 0 277.5 102.5t107.5 277.5t-107.5 276.5t-277.5 101.5t-277.5 -101.5t-107.5 -276.5t107.5 -277.5t277.5 -102.5zM657.5 -10q-251.5 0 -409.5 145.5t-158 391t159 392t408.5 146.5t408.5 -146.5t159 -392t-158 -391t-409.5 -145.5zM602 1223l-186 327h227
l107 -327h-148z" />
    <glyph glyph-name="ohungarumlaut.sc" horiz-adv-x="1316" 
d="M657 147q170 0 277.5 102.5t107.5 277.5t-107.5 276.5t-277.5 101.5t-277.5 -101.5t-107.5 -276.5t107.5 -277.5t277.5 -102.5zM657.5 -10q-251.5 0 -409.5 145.5t-158 391t159 392t408.5 146.5t408.5 -146.5t159 -392t-158 -391t-409.5 -145.5zM877 1223h-142l86 327
h242zM541 1223h-142l86 327h242z" />
    <glyph glyph-name="omacron.sc" horiz-adv-x="1316" 
d="M657 147q170 0 277.5 102.5t107.5 277.5t-107.5 276.5t-277.5 101.5t-277.5 -101.5t-107.5 -276.5t107.5 -277.5t277.5 -102.5zM657.5 -10q-251.5 0 -409.5 145.5t-158 391t159 392t408.5 146.5t408.5 -146.5t159 -392t-158 -391t-409.5 -145.5zM377 1327v135h563v-135
h-563z" />
    <glyph glyph-name="uni01EB.sc" horiz-adv-x="1316" 
d="M272 527q0 -175 107.5 -277.5t277.5 -102.5t277.5 102.5t107.5 277.5t-107.5 276.5t-277.5 101.5t-277.5 -101.5t-107.5 -276.5zM662 -201q0 -88 86 -88q63 0 110 37l51 -102q-61 -59 -167.5 -59.5t-163 52t-56.5 140.5q0 121 103 211q-240 10 -387.5 155.5t-147.5 386
t159 387t408.5 146.5t408.5 -146.5t159 -392.5q0 -205 -113 -342t-303 -178q-147 -92 -147 -207z" />
    <glyph glyph-name="oslash.sc" horiz-adv-x="1316" 
d="M657 147q170 0 277.5 102.5t107.5 284.5t-127 287l-397 -653q61 -21 139 -21zM272 520q0 -182 127 -289l402 652q-72 23 -144 22q-170 0 -277.5 -101.5t-107.5 -283.5zM1225 526q0 -246 -158 -391t-410 -145q-125 0 -225 37l-72 -117h-157l108 176q-221 150 -221 440
q0 246 159 392.5t408 146.5q131 0 230 -39l69 113h154l-104 -172q219 -150 219 -441z" />
    <glyph glyph-name="oslashacute.sc" horiz-adv-x="1316" 
d="M657 147q170 0 277.5 102.5t107.5 284.5t-127 287l-397 -653q61 -21 139 -21zM272 520q0 -182 127 -289l402 652q-72 23 -144 22q-170 0 -277.5 -101.5t-107.5 -283.5zM1225 526q0 -246 -158 -391t-410 -145q-125 0 -225 37l-72 -117h-157l108 176q-221 150 -221 440
q0 246 159 392.5t408 146.5q131 0 230 -39l69 113h154l-104 -172q219 -150 219 -441zM899 1550l-186 -327h-148l107 327h227z" />
    <glyph glyph-name="otilde.sc" horiz-adv-x="1316" 
d="M657 147q170 0 277.5 102.5t107.5 277.5t-107.5 276.5t-277.5 101.5t-277.5 -101.5t-107.5 -276.5t107.5 -277.5t277.5 -102.5zM657.5 -10q-251.5 0 -409.5 145.5t-158 391t159 392t408.5 146.5t408.5 -146.5t159 -392t-158 -391t-409.5 -145.5zM518 1360q-76 0 -76 -88
h-135q0 231 195 231q82 0 152.5 -48t105.5 -48q76 0 76 88h133q0 -111 -51.5 -171t-136.5 -60t-155.5 48t-107.5 48z" />
    <glyph glyph-name="oe.sc" horiz-adv-x="1951" 
d="M657 147q170 0 277.5 102.5t107.5 277.5t-107.5 276.5t-277.5 101.5t-277.5 -101.5t-107.5 -276.5t107.5 -277.5t277.5 -102.5zM1223 154h635v-154h-816v115q-154 -125 -396 -125t-399 145.5t-157 391t159 392t399 146.5t394 -125v113h807v-154h-626v-281h567v-151h-567
v-313z" />
    <glyph glyph-name="p.sc" horiz-adv-x="1085" 
d="M625 557q106 0 162 48t57 124q0 76 -56 124t-163 48h-283v-344h283zM625 1053q181 0 291 -85t110 -239t-110 -239t-291 -84h-283v-406h-180v1053h463z" />
    <glyph glyph-name="thorn.sc" horiz-adv-x="1103" 
d="M625 362q106 0 162 48t57 125q0 75 -58 123t-161 49h-283v-345h283zM625 858q181 0 291 -86t110 -238t-110 -238q-110 -85 -291 -85h-283v-211h-180v1053h180v-195h283z" />
    <glyph glyph-name="q.sc" horiz-adv-x="1316" 
d="M657 147q170 0 277.5 102.5t107.5 277.5t-107.5 276.5t-277.5 101.5t-277.5 -101.5t-107.5 -276.5t107.5 -277.5t277.5 -102.5zM1225 541.5q0 -230.5 -123 -369.5t-326 -172q100 -80 260 -80l11 -168q-150 0 -270 64.5t-189 175.5q-223 20 -360.5 163.5t-137.5 380
t159 383t408.5 146.5t408.5 -146.5t159 -377z" />
    <glyph glyph-name="r.sc" horiz-adv-x="1161" 
d="M342 901v-356h268q106 0 164 49q57 49 57 129t-57 129t-164 49h-268zM1001 -8q-109 0 -169 42t-113 130l-141 237h-236v-401h-180v1053h448q182 0 293 -86t111 -242q0 -115 -64 -191t-174 -110l129 -209q41 -70 121 -70q45 1 70 9l12 -148q-53 -14 -107 -14z" />
    <glyph glyph-name="racute.sc" horiz-adv-x="1161" 
d="M342 901v-356h268q106 0 164 49q57 49 57 129t-57 129t-164 49h-268zM1001 -8q-109 0 -169 42t-113 130l-141 237h-236v-401h-180v1053h448q182 0 293 -86t111 -242q0 -115 -64 -191t-174 -110l129 -209q41 -70 121 -70q45 1 70 9l12 -148q-53 -14 -107 -14zM776 1550
l-186 -327h-148l107 327h227z" />
    <glyph glyph-name="rcaron.sc" horiz-adv-x="1161" 
d="M342 901v-356h268q106 0 164 49q57 49 57 129t-57 129t-164 49h-268zM1001 -8q-109 0 -169 42t-113 130l-141 237h-236v-401h-180v1053h448q182 0 293 -86t111 -242q0 -115 -64 -191t-174 -110l129 -209q41 -70 121 -70q45 1 70 9l12 -148q-53 -14 -107 -14zM639 1223
h-201l-196 327h153l142 -188l143 188h154z" />
    <glyph glyph-name="rcommaaccent.sc" horiz-adv-x="1161" 
d="M580 -84q125 0 125 -168q0 -141 -73 -227t-157 -82v92q43 0 76 40t33 103q-55 0 -90 35t-35 89t36 86t85 32zM342 901v-356h268q106 0 164 49q57 49 57 129t-57 129t-164 49h-268zM1001 -8q-109 0 -169 42t-113 130l-141 237h-236v-401h-180v1053h448q182 0 293 -86
t111 -242q0 -115 -64 -191t-174 -110l129 -209q41 -70 121 -70q45 1 70 9l12 -148q-53 -14 -107 -14z" />
    <glyph glyph-name="s.sc" horiz-adv-x="1077" 
d="M547 143q262 0 258 148q1 129 -245 167q-102 16 -205 39t-174.5 90.5t-71.5 192.5t117.5 205t313.5 80t313.5 -84t115.5 -231h-178q0 162 -251 161.5t-251 -139.5q0 -57 52 -92t129 -46t168 -30.5t168 -46.5t129 -94.5t52 -171.5q0 -141 -116.5 -221t-328.5 -80t-337 85
t-125 236l180 -2q0 -80 74 -123t213 -43z" />
    <glyph glyph-name="sacute.sc" horiz-adv-x="1077" 
d="M547 143q262 0 258 148q1 129 -245 167q-102 16 -205 39t-174.5 90.5t-71.5 192.5t117.5 205t313.5 80t313.5 -84t115.5 -231h-178q0 162 -251 161.5t-251 -139.5q0 -57 52 -92t129 -46t168 -30.5t168 -46.5t129 -94.5t52 -171.5q0 -141 -116.5 -221t-328.5 -80t-337 85
t-125 236l180 -2q0 -80 74 -123t213 -43zM780 1550l-186 -327h-148l107 327h227z" />
    <glyph glyph-name="scaron.sc" horiz-adv-x="1077" 
d="M547 143q262 0 258 148q1 129 -245 167q-102 16 -205 39t-174.5 90.5t-71.5 192.5t117.5 205t313.5 80t313.5 -84t115.5 -231h-178q0 162 -251 161.5t-251 -139.5q0 -57 52 -92t129 -46t168 -30.5t168 -46.5t129 -94.5t52 -171.5q0 -141 -116.5 -221t-328.5 -80t-337 85
t-125 236l180 -2q0 -80 74 -123t213 -43zM641 1223h-201l-196 327h153l142 -188l143 188h154z" />
    <glyph glyph-name="scedilla.sc" horiz-adv-x="1077" 
d="M547 143q262 0 258 148q1 129 -245 167q-102 16 -205 39t-174.5 90.5t-71.5 192.5t117.5 205t313.5 80t313.5 -84t115.5 -231h-178q0 162 -251 161.5t-251 -139.5q0 -57 52 -92t129 -46t168 -30.5t168 -46.5t129 -94.5t52 -171.5q0 -135 -108.5 -215t-300.5 -86l-17 -72
q70 -4 117 -41t47 -118t-61.5 -131t-153 -50t-150.5 23l29 120q49 -18 107 -18q98 0 98 55q0 63 -166 64l37 172q-180 16 -282.5 98t-102.5 219l180 -2q0 -80 74 -123t213 -43z" />
    <glyph glyph-name="scircumflex.sc" horiz-adv-x="1077" 
d="M547 143q262 0 258 148q1 129 -245 167q-102 16 -205 39t-174.5 90.5t-71.5 192.5t117.5 205t313.5 80t313.5 -84t115.5 -231h-178q0 162 -251 161.5t-251 -139.5q0 -57 52 -92t129 -46t168 -30.5t168 -46.5t129 -94.5t52 -171.5q0 -141 -116.5 -221t-328.5 -80t-337 85
t-125 236l180 -2q0 -80 74 -123t213 -43zM539 1411l-142 -188h-153l194 327h201l195 -327h-154z" />
    <glyph glyph-name="scommaaccent.sc" horiz-adv-x="1077" 
d="M549 -84q125 0 125 -168q0 -141 -73 -227t-157 -82v92q43 0 76 40t33 103q-55 0 -90 35t-35 89t36 86t85 32zM547 143q262 0 258 148q1 129 -245 167q-102 16 -205 39t-174.5 90.5t-71.5 192.5t117.5 205t313.5 80t313.5 -84t115.5 -231h-178q0 162 -251 161.5
t-251 -139.5q0 -57 52 -92t129 -46t168 -30.5t168 -46.5t129 -94.5t52 -171.5q0 -141 -116.5 -221t-328.5 -80t-337 85t-125 236l180 -2q0 -80 74 -123t213 -43z" />
    <glyph glyph-name="germandbls.sc" horiz-adv-x="1179" 
d="M1092 295q0 -129 -108 -212t-302 -83h-121v145h121q109 0 167 43t58 120t-59 123t-166 46h-82v129l205 297h-313q-76 0 -118 -35t-42 -96v-772h-180v772q0 121 85 201t228 80h573v-115l-245 -340q143 -20 221 -97t78 -206z" />
    <glyph glyph-name="t.sc" horiz-adv-x="1024" 
d="M420 0v899h-387v154h956v-154h-389v-899h-180z" />
    <glyph glyph-name="tbar.sc" horiz-adv-x="1046" 
d="M1001 899h-389v-291h236v-131h-236v-477h-180v477h-233v131h233v291h-387v154h956v-154z" />
    <glyph glyph-name="tcaron.sc" horiz-adv-x="1024" 
d="M420 0v899h-387v154h956v-154h-389v-899h-180zM219 1534h154l141 -188l143 188h154l-195 -328h-200z" />
    <glyph glyph-name="uni0163.sc" horiz-adv-x="1024" 
d="M600 0h-35l-18 -82q70 -4 117 -41t47 -118t-61.5 -131t-153.5 -50t-150 23l29 120q49 -18 106 -18q98 0 99 55q0 63 -166 64l39 178h-33v899h-387v154h956v-154h-389v-899z" />
    <glyph glyph-name="uni021B.sc" horiz-adv-x="1024" 
d="M424 -469q43 0 75.5 40t32.5 103q-55 0 -89.5 35t-34.5 89t35.5 86t84.5 32q125 0 125 -168q0 -141 -72.5 -227t-156.5 -82v92zM420 0v899h-387v154h956v-154h-389v-899h-180z" />
    <glyph glyph-name="u.sc" horiz-adv-x="1251" 
d="M922 1053h180v-637q0 -199 -127 -312.5t-350.5 -113.5t-350.5 113.5t-127 312.5v637h183v-637q0 -131 76 -200q78 -69 220 -69t219 69t77 200v637z" />
    <glyph glyph-name="uacute.sc" horiz-adv-x="1251" 
d="M922 1053h180v-637q0 -199 -127 -312.5t-350.5 -113.5t-350.5 113.5t-127 312.5v637h183v-637q0 -131 76 -200q78 -69 220 -69t219 69t77 200v637zM680 1206h-148l107 328h227z" />
    <glyph glyph-name="ubreve.sc" horiz-adv-x="1251" 
d="M922 1053h180v-637q0 -199 -127 -312.5t-350.5 -113.5t-350.5 113.5t-127 312.5v637h183v-637q0 -131 76 -200q78 -69 220 -69t219 69t77 200v637zM907 1524q0 -150 -74.5 -237t-208.5 -87t-209 86t-75 238h149q0 -186 133.5 -186.5t133.5 186.5h151z" />
    <glyph glyph-name="ucircumflex.sc" horiz-adv-x="1251" 
d="M922 1053h180v-637q0 -199 -127 -312.5t-350.5 -113.5t-350.5 113.5t-127 312.5v637h183v-637q0 -131 76 -200q78 -69 220 -69t219 69t77 200v637zM330 1206l194 328h201l195 -328h-154l-141 189l-142 -189h-153z" />
    <glyph glyph-name="udieresis.sc" horiz-adv-x="1251" 
d="M922 1053h180v-637q0 -199 -127 -312.5t-350.5 -113.5t-350.5 113.5t-127 312.5v637h183v-637q0 -131 76 -200q78 -69 220 -69t219 69t77 200v637zM825.5 1491q51.5 0 82 -30.5t30.5 -78.5t-30.5 -79t-82 -31t-82 30.5t-30.5 78.5t30.5 79t82 31zM448.5 1491
q51.5 0 82 -30.5t30.5 -78.5t-30.5 -79t-82 -31t-82 30.5t-30.5 78.5t30.5 79t82 31z" />
    <glyph glyph-name="uni1EE5.sc" horiz-adv-x="1251" 
d="M626.5 -131q57.5 0 92.5 -34t35 -89t-35 -89t-92.5 -34t-92 34t-34.5 89t34.5 89t92 34zM922 1053h180v-637q0 -199 -127 -312.5t-350.5 -113.5t-350.5 113.5t-127 312.5v637h183v-637q0 -131 76 -200q78 -69 220 -69t219 69t77 200v637z" />
    <glyph glyph-name="ugrave.sc" horiz-adv-x="1251" 
d="M922 1053h180v-637q0 -199 -127 -312.5t-350.5 -113.5t-350.5 113.5t-127 312.5v637h183v-637q0 -131 76 -200q78 -69 220 -69t219 69t77 200v637zM569 1206l-186 328h227l107 -328h-148z" />
    <glyph glyph-name="uhungarumlaut.sc" horiz-adv-x="1251" 
d="M922 1053h180v-637q0 -199 -127 -312.5t-350.5 -113.5t-350.5 113.5t-127 312.5v637h183v-637q0 -131 76 -200q78 -69 220 -69t219 69t77 200v637zM844 1206h-142l86 328h242zM508 1206h-141l86 328h241z" />
    <glyph glyph-name="umacron.sc" horiz-adv-x="1251" 
d="M922 1053h180v-637q0 -199 -127 -312.5t-350.5 -113.5t-350.5 113.5t-127 312.5v637h183v-637q0 -131 76 -200q78 -69 220 -69t219 69t77 200v637zM344 1311v135h563v-135h-563z" />
    <glyph glyph-name="uogonek.sc" horiz-adv-x="1251" 
d="M922 1053h180v-637q0 -152 -75 -255.5t-212 -144.5q-156 -104 -156 -211q0 -88 86 -88q63 0 111 37l51 -102q-61 -60 -167 -60t-163 52t-57 154t94 192q-219 4 -343 116.5t-124 309.5v637h183v-637q0 -131 76 -200q78 -69 220 -69t219 69t77 200v637z" />
    <glyph glyph-name="uring.sc" horiz-adv-x="1251" 
d="M922 1053h180v-637q0 -199 -127 -312.5t-350.5 -113.5t-350.5 113.5t-127 312.5v637h183v-637q0 -131 76 -200q78 -69 220 -69t219 69t77 200v637zM624.5 1294q34.5 0 56 21.5t21.5 53.5t-21.5 52.5t-56 20.5t-55 -20.5t-20.5 -52.5t20.5 -53.5t55 -21.5zM625 1182
q-82 0 -139.5 51t-57.5 136t57.5 137.5t139.5 52.5t139 -52.5t57 -137.5t-57 -136t-139 -51z" />
    <glyph glyph-name="utilde.sc" horiz-adv-x="1251" 
d="M922 1053h180v-637q0 -199 -127 -312.5t-350.5 -113.5t-350.5 113.5t-127 312.5v637h183v-637q0 -131 76 -200q78 -69 220 -69t219 69t77 200v637zM485 1343q-76 0 -75 -88h-136q0 231 195 232q82 0 152.5 -48t105.5 -48q76 0 76 88h133q0 -111 -51 -171.5t-137 -60.5
t-156 48t-107 48z" />
    <glyph glyph-name="v.sc" horiz-adv-x="1118" 
d="M907 1053h183l-437 -1053h-190l-436 1053h182l350 -858z" />
    <glyph glyph-name="w.sc" horiz-adv-x="1665" 
d="M1450 1053h180l-344 -1053h-196l-256 852l-259 -852h-196l-344 1053h180l262 -877l260 877h191l260 -877z" />
    <glyph glyph-name="wacute.sc" horiz-adv-x="1665" 
d="M1450 1053h180l-344 -1053h-196l-256 852l-259 -852h-196l-344 1053h180l262 -877l260 877h191l260 -877zM1073 1534l-186 -328h-148l107 328h227z" />
    <glyph glyph-name="wcircumflex.sc" horiz-adv-x="1665" 
d="M1450 1053h180l-344 -1053h-196l-256 852l-259 -852h-196l-344 1053h180l262 -877l260 877h191l260 -877zM834 1395l-142 -189h-153l194 328h201l194 -328h-153z" />
    <glyph glyph-name="wdieresis.sc" horiz-adv-x="1665" 
d="M1450 1053h180l-344 -1053h-196l-256 852l-259 -852h-196l-344 1053h180l262 -877l260 877h191l260 -877zM1032 1272q-51 0 -81.5 30.5t-30.5 78.5t30.5 79t81.5 31t82 -30.5t31 -78.5t-31 -79t-82 -31zM655.5 1272q-51.5 0 -82 30.5t-30.5 78.5t30.5 79t82 31t82 -30.5
t30.5 -78.5t-30.5 -79t-82 -31z" />
    <glyph glyph-name="wgrave.sc" horiz-adv-x="1665" 
d="M1450 1053h180l-344 -1053h-196l-256 852l-259 -852h-196l-344 1053h180l262 -877l260 877h191l260 -877zM926 1206h-148l-186 328h227z" />
    <glyph glyph-name="x.sc" horiz-adv-x="1083" 
d="M1061 0h-205l-313 434l-314 -434h-200l387 537l-377 516h207l297 -412l293 412h202l-366 -510z" />
    <glyph glyph-name="y.sc" horiz-adv-x="1083" 
d="M631 0h-180v416l-424 637h196l318 -484l317 484h197l-424 -637v-416z" />
    <glyph glyph-name="yacute.sc" horiz-adv-x="1083" 
d="M631 0h-180v416l-424 637h196l318 -484l317 484h197l-424 -637v-416zM782 1534l-186 -328h-147l106 328h227z" />
    <glyph glyph-name="ycircumflex.sc" horiz-adv-x="1083" 
d="M631 0h-180v416l-424 637h196l318 -484l317 484h197l-424 -637v-416zM541 1395l-142 -189h-153l194 328h201l195 -328h-154z" />
    <glyph glyph-name="ydieresis.sc" horiz-adv-x="1083" 
d="M631 0h-180v416l-424 637h196l318 -484l317 484h197l-424 -637v-416zM739.5 1272q-51.5 0 -82 30.5t-30.5 78.5t30.5 79t82 31t82 -30.5t30.5 -79t-30.5 -79t-82 -30.5zM362.5 1272q-51.5 0 -82 30.5t-30.5 78.5t30.5 79t82 31t82 -30.5t30.5 -79t-30.5 -79t-82 -30.5z
" />
    <glyph glyph-name="ygrave.sc" horiz-adv-x="1083" 
d="M631 0h-180v416l-424 637h196l318 -484l317 484h197l-424 -637v-416zM633 1206h-148l-186 328h227z" />
    <glyph glyph-name="uni0233.sc" horiz-adv-x="1083" 
d="M631 0h-180v416l-424 637h196l318 -484l317 484h197l-424 -637v-416zM823 1446v-135h-563v135h563z" />
    <glyph glyph-name="uni1EF9.sc" horiz-adv-x="1083" 
d="M631 0h-180v416l-424 637h196l318 -484l317 484h197l-424 -637v-416zM401 1343q-76 0 -75 -88h-136q0 231 195 232q82 0 152.5 -48t105.5 -48q76 0 76 88h133q0 -111 -51 -171.5t-136.5 -60.5t-156 48t-107.5 48z" />
    <glyph glyph-name="z.sc" horiz-adv-x="1067" 
d="M981 156v-156h-903v147l667 752h-649v154h883v-146l-668 -751h670z" />
    <glyph glyph-name="zacute.sc" horiz-adv-x="1067" 
d="M981 156v-156h-903v147l667 752h-649v154h883v-146l-668 -751h670zM758 1550l-187 -327h-147l106 327h228z" />
    <glyph glyph-name="zcaron.sc" horiz-adv-x="1067" 
d="M981 156v-156h-903v147l667 752h-649v154h883v-146l-668 -751h670zM618 1223h-200l-197 327h154l141 -188l143 188h154z" />
    <glyph glyph-name="zdotaccent.sc" horiz-adv-x="1067" 
d="M981 156v-156h-903v147l667 752h-649v154h883v-146l-668 -751h670zM516 1276q-57 0 -92 33.5t-35 89t35 90.5t92 35t92 -35t35 -90.5t-35 -89t-92 -33.5z" />
    <glyph glyph-name="k.sc.ss01" horiz-adv-x="1157" 
d="M342 0h-180v1053h180v-561l557 561h219l-448 -459l485 -594h-217l-399 473l-197 -194v-279z" />
    <glyph glyph-name="kcommaaccent.sc.ss01" horiz-adv-x="1157" 
d="M598 -84q125 0 125 -168q0 -141 -72.5 -227t-156.5 -82v92q43 0 75.5 40t32.5 103q-55 0 -90 35t-35 89t36 86t85 32zM342 0h-180v1053h180v-561l557 561h219l-448 -459l485 -594h-217l-399 473l-197 -194v-279z" />
    <glyph glyph-name="r.sc.ss01" horiz-adv-x="1120" 
d="M342 901v-356h268q106 0 163.5 49t57.5 129t-57 129t-164 49h-268zM342 401v-401h-180v1053h448q182 0 293 -86t111 -242q0 -109 -57.5 -183.5t-157.5 -109.5l243 -432h-208l-226 401h-266z" />
    <glyph glyph-name="racute.sc.ss01" horiz-adv-x="1120" 
d="M342 901v-356h268q106 0 163.5 49t57.5 129t-57 129t-164 49h-268zM342 401v-401h-180v1053h448q182 0 293 -86t111 -242q0 -109 -57.5 -183.5t-157.5 -109.5l243 -432h-208l-226 401h-266zM776 1550l-186 -327h-148l107 327h227z" />
    <glyph glyph-name="rcaron.sc.ss01" horiz-adv-x="1120" 
d="M342 901v-356h268q106 0 163.5 49t57.5 129t-57 129t-164 49h-268zM342 401v-401h-180v1053h448q182 0 293 -86t111 -242q0 -109 -57.5 -183.5t-157.5 -109.5l243 -432h-208l-226 401h-266zM639 1223h-201l-196 327h153l142 -188l143 188h154z" />
    <glyph glyph-name="rcommaaccent.sc.ss01" horiz-adv-x="1120" 
d="M580 -84q125 0 125 -168q0 -141 -73 -227t-157 -82v92q43 0 76 40t33 103q-55 0 -90 35t-35 89t36 86t85 32zM342 901v-356h268q106 0 163.5 49t57.5 129t-57 129t-164 49h-268zM342 401v-401h-180v1053h448q182 0 293 -86t111 -242q0 -109 -57.5 -183.5t-157.5 -109.5
l243 -432h-208l-226 401h-266z" />
    <glyph glyph-name="zero.sinf" horiz-adv-x="815" 
d="M408 -31q178 0 178 288t-178 288t-178 -288t178 -288zM408 -172q-162 0 -252 112t-90 318t90 316q90 112 252 112t252 -112t90 -318t-90 -316q-90 -112 -252 -112z" />
    <glyph glyph-name="one.sinf" horiz-adv-x="550" 
d="M383 -29h131v-135h-444v135h151v510q-53 -35 -147 -35v132q125 0 182 98h127v-705z" />
    <glyph glyph-name="two.sinf" horiz-adv-x="714" 
d="M645 -29v-135h-579v105l315 301q94 90 94 186q-2 57 -35 88t-87 31t-91 -38t-37 -110l-162 -2q0 139 80 214t212 75t208 -69t74 -189q2 -86 -34 -152t-122 -145l-172 -160h336z" />
    <glyph glyph-name="three.sinf" horiz-adv-x="729" 
d="M354 -172q-133 0 -215 73t-82 205l162 -2q0 -135 141 -135q63 0 101 30q37 30 36 86t-38 87t-99 31h-84v119h78q55 0 91 30t36 84q0 55 -35 82t-89 27t-88 -33t-33 -98h-162q-2 128 74 200t205 72q128 0 209 -64t82 -180q1 -115 -95 -176q111 -61 112 -183
q1 -123 -87 -189t-220 -66z" />
    <glyph glyph-name="four.sinf" horiz-adv-x="743" 
d="M199 156h239v364h-2l-237 -362v-2zM696 156v-136h-108v-184h-160v184h-389v125l352 531h197v-520h108z" />
    <glyph glyph-name="five.sinf" horiz-adv-x="706" 
d="M369 379q125 0 203 -73t79 -202q0 -128 -83 -202t-217 -74t-218 72t-84 188h162q0 -55 38 -87q37 -32 101 -32t102 36t37 99q0 63 -37 101q-38 37 -108 37t-129 -49l-135 45l49 438h475v-133h-352l-21 -187q62 23 138 23z" />
    <glyph glyph-name="six.sinf" horiz-adv-x="761" 
d="M397 -31q68 0 106 38t38 98q0 59 -37 99t-113 40t-119 -60t-6 -133h-4q41 -82 135 -82zM425 367q124 0 201 -72q76 -72 76 -191q0 -120 -80 -198t-228 -78t-238 111t-90 315t90 318t247 114q123 0 200 -64t77 -169h-162q0 45 -32 69t-83 23q-170 0 -176 -266
q74 88 198 88z" />
    <glyph glyph-name="seven.sinf" horiz-adv-x="647" 
d="M440 543h-409v133h583v-133l-305 -707h-178l309 705v2z" />
    <glyph glyph-name="eight.sinf" horiz-adv-x="747" 
d="M375 -45q71 0 111 34t40 92t-40 92t-112 34t-113 -34q-40 -34 -39 -93t41 -92t112 -33zM375 561q-66 0 -101 -33q-34 -33 -34 -85t34 -84q34 -31 102 -31q66 0 100 32t34 83q0 50 -34 84t-101 34zM684 85q0 -125 -82 -191t-228 -66t-229 66q-82 66 -82 192t121 190
q-94 64 -94 176t77 173t207 61t208 -61t78 -172t-97 -179q121 -63 121 -189z" />
    <glyph glyph-name="nine.sinf" horiz-adv-x="761" 
d="M362 545q-68 0 -106 -38t-37 -98q1 -59 37 -99t107 -40t116 49t31 113q-39 113 -148 113zM57 410q0 120 80 198q81 78 229 78t238 -111t90 -315t-90 -318t-248 -114q-124 0 -200 64t-76 169h162q0 -45 32 -69t82 -23q170 0 176 264q-76 -86 -198 -86t-200 72
q-77 72 -77 191z" />
    <glyph glyph-name="zero.tf" horiz-adv-x="1306" 
d="M652 150q169 0 260 141q92 141 92 412t-92 415t-260 146q-169 0 -259 -144t-90 -416q0 -274 90 -414t259 -140zM653 -10q-252 0 -392 183t-140 530t140 533t392 187q253 0 393 -187q140 -186 140 -532t-140 -530t-393 -184z" />
    <glyph glyph-name="one.tf" horiz-adv-x="1306" 
d="M805 160h328v-160h-891v160h383v983q-123 -57 -383 -58v156q289 0 432 166h131v-1247z" />
    <glyph glyph-name="two.tf" horiz-adv-x="1306" 
d="M1169 160v-160h-1009v131l547 483q127 113 190 204t62 205t-81 177q-80 64 -222 64t-232 -78t-88 -213l-180 -2q-2 203 148 327t361 125q212 1 344 -109t132 -302q2 -229 -262 -467l-433 -385h723z" />
    <glyph glyph-name="three.tf" horiz-adv-x="1306" 
d="M646 -10q-226 0 -373 108q-146 109 -148 299h178q2 -127 97 -187t247 -60t242 61t90 178q-2 250 -358 250h-125v160h102q152 0 248 56t98 173q0 117 -82 176q-82 60 -218 60t-221 -64t-87 -205h-178q-2 199 135 314t348 115t348 -108t136 -300t-189 -287
q223 -102 225 -340q0 -187 -144 -293q-145 -106 -371 -106z" />
    <glyph glyph-name="four.tf" horiz-adv-x="1306" 
d="M283 512h542v717h-2l-540 -715v-2zM1200 512v-160h-194v-352h-181v352h-739v160l662 895h258v-895h194z" />
    <glyph glyph-name="five.tf" horiz-adv-x="1306" 
d="M664 911q219 0 361 -123q142 -124 142 -336t-147 -337q-148 -125 -370 -125t-366 116t-145 312h178q3 -133 95 -201q92 -67 240 -67t240 78q93 78 93 226q0 150 -89 224q-88 74 -240 74t-287 -93l-170 76l55 672h840v-160h-680l-31 -399q131 63 281 63z" />
    <glyph glyph-name="six.tf" horiz-adv-x="1306" 
d="M684 150q127 0 210 78t83 213q0 134 -78 210t-209 74q-160 0 -261 -103t-42 -286q80 -186 297 -186zM1159 440q0 -202 -133 -326t-342 -124q-250 0 -387 180t-137 530t139 534t389 185q197 -1 323 -109t124 -278h-179q-2 113 -75 170q-74 57 -187 58q-174 0 -268 -140
t-94 -415v-13q57 88 152 140t206 53q203 2 336 -121t133 -324z" />
    <glyph glyph-name="seven.tf" horiz-adv-x="1306" 
d="M973 1247h-842v160h1038v-139l-622 -1268h-197l623 1245v2z" />
    <glyph glyph-name="eight.tf" horiz-adv-x="1306" 
d="M326 406q0 -120 91 -188t237 -68t237 68q90 69 90 189q0 121 -90 189q-91 68 -237 68t-237 -69t-91 -189zM653 1264q-121 0 -197 -64t-77 -162q0 -100 77 -162q78 -62 198 -62t197 62t77 161t-77 163t-198 64zM1161 406q0 -201 -143 -309q-142 -107 -364 -107t-365 108
t-144 308q0 231 226 342q-172 106 -172 287t132 285t322 103q191 0 323 -103q132 -102 132 -284t-172 -288q225 -111 225 -342z" />
    <glyph glyph-name="nine.tf" horiz-adv-x="1306" 
d="M621 1260q-135 0 -223 -79t-87 -212q0 -133 83 -210q84 -77 234 -76t257 102q106 101 49 280q-80 195 -313 195zM621 1419q260 0 400 -174t140 -530q0 -357 -143 -541t-402 -184q-204 0 -332 108t-126 279h178q2 -113 79 -170t195 -57q180 0 280 141q99 141 99 416v16
q-59 -90 -159 -144t-216 -55q-211 -2 -347 121t-136 324q-1 201 137 325t353 125z" />
    <glyph glyph-name="zero.dnom" horiz-adv-x="815" 
d="M408 133q178 0 178 288t-178 288t-178 -288t178 -288zM408 -8q-162 0 -252 112t-90 317t90 317t252 112t252 -112t90 -318t-90 -316q-90 -112 -252 -112z" />
    <glyph glyph-name="one.dnom" horiz-adv-x="550" 
d="M383 135h131v-135h-444v135h151v510q-53 -35 -147 -35v131q125 0 182 99h127v-705z" />
    <glyph glyph-name="two.dnom" horiz-adv-x="714" 
d="M653 135v-135h-583v106l311 300q94 90 94 186q-2 57 -35 88t-87 31t-91 -38t-37 -110l-162 -2q0 139 80 214t212 75t208 -69t74 -189q2 -86 -34 -152t-122 -145l-168 -160h340z" />
    <glyph glyph-name="three.dnom" horiz-adv-x="729" 
d="M360 133q63 0 101 30q37 30 36 86t-38 87t-99 31h-84v118h78q55 0 91 30t36 85t-35 82t-89 27t-88 -33t-33 -98h-162q-2 128 74 200t205 72q128 0 209 -65t81 -179t-94 -176q111 -61 112 -183t-87 -189q-88 -66 -220 -66q-133 0 -215 74t-82 204l162 -2q0 -135 141 -135z
" />
    <glyph glyph-name="four.dnom" horiz-adv-x="743" 
d="M197 319h239v365l-239 -362v-3zM694 319v-135h-108v-184h-160v184h-389v125l352 531h197v-521h108z" />
    <glyph glyph-name="five.dnom" horiz-adv-x="706" 
d="M371 543q125 0 203 -73t79 -202q0 -128 -83 -202t-217 -74t-218 72t-84 188h162q0 -55 38 -87q37 -32 101 -32t102 36t38 99q0 62 -38 100t-108 38t-129 -50l-135 45l49 439h475v-133h-352l-21 -187q62 23 138 23z" />
    <glyph glyph-name="six.dnom" horiz-adv-x="761" 
d="M397 133q68 0 106 38t38 98q0 59 -37 99t-108 40q-72 0 -116 -50t-30 -114q38 -111 147 -111zM425 530q124 0 201 -72q76 -72 76 -190q0 -120 -80 -198t-228 -78t-238 110t-90 316q0 204 90 318t247 114q123 0 200 -65t77 -169h-162q0 45 -32 69t-83 24q-170 0 -176 -267
q74 88 198 88z" />
    <glyph glyph-name="seven.dnom" horiz-adv-x="647" 
d="M440 707h-409v133h583v-133l-305 -707h-178l309 705v2z" />
    <glyph glyph-name="eight.dnom" horiz-adv-x="747" 
d="M375 119q71 0 111 34t40 92t-40 92t-112 34t-113 -34q-40 -34 -39 -93t41 -92t112 -33zM375 725q-66 0 -101 -33q-34 -33 -34 -85t34 -84q34 -31 102 -31q66 0 100 32t34 83q0 50 -34 84t-101 34zM684 249q0 -126 -82 -192q-82 -65 -228 -65t-229 65q-82 66 -82 193
t121 190q-94 63 -94 175t77 173q77 62 207 62t208 -62t78 -172t-97 -178q121 -63 121 -189z" />
    <glyph glyph-name="nine.dnom" horiz-adv-x="761" 
d="M362 709q-68 0 -106 -38q-38 -39 -37 -99t37 -99t107 -39t116 49t31 113q-39 113 -148 113zM366 850q148 0 238 -111t90 -315t-90 -319q-90 -114 -248 -113q-124 0 -200 64t-76 169h162q0 -45 32 -69t82 -23q170 0 176 264q-76 -86 -198 -86t-200 72q-77 73 -77 191
t80 197q81 79 229 79z" />
    <glyph glyph-name="zero.numr" horiz-adv-x="815" 
d="M408 696q178 0 178 288t-178 288t-178 -288t178 -288zM408 555q-162 0 -252 113q-90 114 -90 318t90 316t252 112t252 -112t90 -317t-90 -317t-252 -113z" />
    <glyph glyph-name="one.numr" horiz-adv-x="550" 
d="M383 698h131v-133h-444v133h151v510q-57 -35 -147 -34v133q127 0 182 98h127v-707z" />
    <glyph glyph-name="two.numr" horiz-adv-x="714" 
d="M645 698v-135h-579v105l315 301q94 90 94 186q-2 57 -35 87t-88 30t-91 -37t-36 -109l-162 -2q0 139 80 214t212 75q132 -1 208 -69t74 -189q2 -85 -34 -151t-122 -146l-172 -160h336z" />
    <glyph glyph-name="three.numr" horiz-adv-x="729" 
d="M354 555q-133 0 -215 74t-82 205l162 -3q0 -135 141 -135q63 0 101 30q37 30 36 86t-38 87t-99 31h-84v119h78q55 -1 91 29t36 85t-35 82t-89 27t-88 -33t-33 -98h-162q-2 127 74 199t205 73q128 -1 209 -65t81 -179t-94 -176q111 -61 112 -183t-87 -188t-220 -67z" />
    <glyph glyph-name="four.numr" horiz-adv-x="743" 
d="M197 883h239v366h-2l-237 -364v-2zM692 883v-133h-106v-185h-162v185h-389v124l352 531h199v-522h106z" />
    <glyph glyph-name="five.numr" horiz-adv-x="706" 
d="M371 1108q125 0 203 -73t79 -202q0 -129 -83 -203t-217 -73q-134 0 -218 72t-84 188l162 -2q0 -53 38 -85q37 -32 101 -32t102 36t38 100t-38 100q-38 37 -108 37t-129 -49l-135 45l49 438h475v-135h-352l-21 -187q68 25 138 25z" />
    <glyph glyph-name="six.numr" horiz-adv-x="761" 
d="M397 696q68 0 106 38t38 98t-37 100q-37 39 -109 39q-73 0 -117 -51t-26 -117q39 -107 145 -107zM426 1094q123 0 200 -72q76 -72 76 -190t-80 -198q-80 -79 -228 -79t-238 111q-90 112 -90 316t90 318t247 113q123 -1 200 -65t77 -168l-162 2q0 42 -32 66t-83 24
q-170 0 -176 -264q76 86 199 86z" />
    <glyph glyph-name="seven.numr" horiz-adv-x="647" 
d="M440 1270h-409v135h583v-133l-305 -707h-178l309 703v2z" />
    <glyph glyph-name="eight.numr" horiz-adv-x="747" 
d="M375 682q75 0 113 34t38 93t-40 92t-112 33t-113 -33q-40 -33 -40 -92q4 -127 154 -127zM375 1288q-66 0 -101 -33q-34 -33 -34 -85t34 -83t102 -31q66 0 100 33q34 31 34 81t-34 84t-101 34zM684 811q0 -125 -82 -191t-228 -65q-146 0 -229 66q-82 67 -82 193t121 190
q-94 63 -94 175t77 173t207 61t208 -61t78 -173t-97 -175q121 -68 121 -193z" />
    <glyph glyph-name="nine.numr" horiz-adv-x="761" 
d="M362 1272q-68 0 -106 -38t-37 -98t37 -100t107 -38q71 0 116 50t31 111q-39 113 -148 113zM57 1137q0 119 80 197q81 78 229 79q148 -1 238 -111t90 -315t-90 -319t-248 -113q-124 0 -200 65t-76 168h162q0 -44 32 -68t82 -24q170 0 176 267q-76 -86 -198 -87
q-122 -2 -200 70q-77 72 -77 191z" />
    <glyph glyph-name="zero.sups" horiz-adv-x="815" 
d="M408 870q178 0 178 288t-178 288t-178 -288t178 -288zM408 729q-162 0 -252 113q-90 114 -90 318t90 316t252 112t252 -112t90 -317t-90 -317t-252 -113z" />
    <glyph glyph-name="one.sups" horiz-adv-x="550" 
d="M381 872h131v-135h-444v135h151v508q-55 -33 -147 -32v131q125 0 182 98h127v-705z" />
    <glyph glyph-name="two.sups" horiz-adv-x="714" 
d="M645 872v-135h-579v105l315 301q94 90 94 186q-2 57 -35 87t-88 30t-91 -37t-36 -109l-162 -2q0 139 80 214t212 75q132 -1 208 -69t74 -189q2 -85 -34 -151t-122 -146l-172 -160h336z" />
    <glyph glyph-name="three.sups" horiz-adv-x="729" 
d="M354 729q-133 0 -215 74t-82 205l162 -2q0 -135 141 -136q63 0 101 30q37 30 36 86t-38 87t-99 31h-84v119h78q55 -1 91 29t36 85t-35 82t-89 27t-88 -33t-33 -98h-162q-2 127 74 199t205 73q128 -1 209 -65t81 -179t-94 -176q111 -61 112 -183t-87 -188t-220 -67z" />
    <glyph glyph-name="four.sups" horiz-adv-x="743" 
d="M197 1057h239v364h-2l-237 -362v-2zM692 1057v-135h-106v-185h-162v185h-389v125l352 530h199v-520h106z" />
    <glyph glyph-name="five.sups" horiz-adv-x="706" 
d="M371 1280q125 0 203 -73t79 -201q0 -128 -83 -203q-83 -74 -217 -74t-218 72t-84 188h162q0 -55 38 -87q37 -32 101 -32t102 36t38 100t-38 100q-38 37 -108 37t-129 -49l-135 45l49 438h475v-133h-352l-21 -187q62 23 138 23z" />
    <glyph glyph-name="six.sups" horiz-adv-x="761" 
d="M397 870q68 0 106 38t38 98t-37 100q-37 39 -108 39q-72 0 -116 -50t-30 -114q38 -111 147 -111zM426 1268q123 0 200 -72q76 -72 76 -190t-80 -198q-80 -79 -228 -79t-238 111q-90 112 -90 316t90 318t247 113q123 -1 200 -65t77 -168h-162q0 44 -32 68t-83 24
q-170 0 -176 -264q76 86 199 86z" />
    <glyph glyph-name="seven.sups" horiz-adv-x="647" 
d="M440 1444h-409v133h583v-133l-305 -707h-178l309 705v2z" />
    <glyph glyph-name="eight.sups" horiz-adv-x="747" 
d="M375 856q71 0 111 34t40 92t-40 92t-112 34t-113 -34q-40 -34 -39 -93t41 -92t112 -33zM375 1462q-66 0 -101 -32q-34 -32 -34 -85q0 -52 34 -84t102 -32q66 0 100 33t34 83q0 49 -34 83t-101 34zM684 986q0 -126 -82 -192t-228 -65q-146 0 -229 66q-82 67 -82 193
t121 190q-94 63 -94 175t77 173t207 61t208 -61q78 -62 78 -172t-97 -178q121 -64 121 -190z" />
    <glyph glyph-name="nine.sups" horiz-adv-x="761" 
d="M362 1446q-68 0 -106 -38t-37 -98t37 -100t107 -39q71 -1 116 49t31 113q-39 113 -148 113zM334 1049q-122 -1 -200 71q-77 72 -77 191t80 197q81 78 229 79q148 -1 238 -111t90 -315t-90 -319t-248 -113q-124 0 -200 65t-76 169h162q0 -45 32 -69t82 -24q170 0 176 265
q-76 -86 -198 -86z" />
    <glyph glyph-name="zero.sc" horiz-adv-x="1112" 
d="M557 150q276 0 277 376q0 188 -72 284t-206 97q-134 0 -206 -96q-72 -95 -72 -283t72 -283t207 -95zM556 -8q-218 0 -339 138t-121 397t122 399t339 141q217 0 338 -140q121 -139 121 -399t-121 -398t-339 -138z" />
    <glyph glyph-name="one.sc" horiz-adv-x="745" 
d="M504 156h188v-156h-596v156h226v659q-76 -39 -224 -39v152q193 0 269 127h137v-899z" />
    <glyph glyph-name="two.sc" horiz-adv-x="983" 
d="M885 156v-156h-799v125l432 364q90 75 133 133t41 126q0 160 -200 159q-98 0 -158 -50t-62 -142l-180 -2q-2 164 112 259t286 95t278 -86t109 -233q0 -180 -207 -353l-287 -239h502z" />
    <glyph glyph-name="three.sc" horiz-adv-x="1013" 
d="M499 -10q-181 0 -299 88t-118 239l180 -2q2 -84 68 -125q66 -40 172 -40t170 38q63 39 63 113q-2 162 -252 162h-102v145h88q106 0 172 38t67 113q2 75 -56 111t-152 37q-94 0 -154 -43t-61 -133h-179q-2 156 109 246t282 90t283 -83t110 -225q-1 -142 -134 -216
q160 -76 162 -246q0 -139 -119 -223t-300 -84z" />
    <glyph glyph-name="four.sc" horiz-adv-x="1042" 
d="M242 397h393v482h-2l-391 -480v-2zM965 397v-153h-154v-244h-180v244h-578v149l512 662h246v-658h154z" />
    <glyph glyph-name="five.sc" horiz-adv-x="995" 
d="M508 684q178 0 292 -91t114 -253t-122 -256q-120 -94 -300 -94t-296 89q-118 89 -118 236h180q0 -81 67 -123t170 -42t170 49t67 141t-64 140q-63 48 -172 48t-207 -61l-164 61l49 527h678v-156h-522l-25 -254q94 39 203 39z" />
    <glyph glyph-name="six.sc" horiz-adv-x="1046" 
d="M545 150q100 0 164 50q63 50 63 135t-60 134t-169 49t-187 -66t-47 -167q62 -135 236 -135zM556 666q175 0 287 -92q111 -92 111 -240q0 -150 -112 -247t-310 -97t-317 137t-119 397t120 400t335 141q167 0 275 -83t106 -214h-180q0 68 -56 102t-141 35q-281 0 -283 -368
q109 129 284 129z" />
    <glyph glyph-name="seven.sc" horiz-adv-x="888" 
d="M643 899h-598v156h795v-146l-451 -909h-196l450 897v2z" />
    <glyph glyph-name="eight.sc" horiz-adv-x="1036" 
d="M518 477q-112 0 -178 -45q-68 -45 -68 -124t68 -123t179 -44t179 44t68 123t-68 124t-180 45zM518 918q-92 0 -149 -42t-57 -109t56 -108q58 -41 151 -41t151 42q57 42 55 108q2 66 -56 108q-59 42 -151 42zM944 314q0 -160 -119 -242t-307 -82t-307 83t-119 241t170 241
q-129 80 -129 217t111 216q110 79 274 79t275 -79t111 -216t-128 -217q168 -82 168 -241z" />
    <glyph glyph-name="nine.sc" horiz-adv-x="1044" 
d="M502 539q108 1 186 65t47 164q-59 137 -235 137q-100 0 -164 -50t-64 -134t61 -133t169 -49zM514 1065q198 0 316 -135q118 -136 118 -398t-120 -402t-334 -140q-168 0 -275 84q-106 84 -106 215l180 -2q2 -68 57 -103t142 -34q279 0 280 368q-106 -127 -282 -127
t-288 91t-112 240t113 246t311 97z" />
    <glyph glyph-name="exclam.case" horiz-adv-x="555" 
d="M375 0h-195l21 977h153zM272 1180q-57 0 -92 34t-35 88q0 56 35 90t92 34t93 -34q35 -34 35 -89t-35 -90q-36 -33 -93 -33z" />
    <glyph glyph-name="exclamdown.case" horiz-adv-x="555" 
d="M272 217q56 0 92 -35t36 -90t-36 -89q-34 -34 -92 -34t-92 34q-35 34 -35 89t35 90t92 35zM375 1405l-21 -987h-153l-21 987h195z" />
    <glyph glyph-name="question.case" horiz-adv-x="940" 
d="M881 399q0 -188 -116 -298q-116 -109 -304 -109t-291 98q-102 98 -102 256q0 80 36 149t90 115t107 91q127 105 127 212v52h166v-58q0 -132 -122 -247q-50 -46 -100 -91q-122 -110 -122 -213q0 -104 59 -154t161 -50t167 62q63 62 65 185h179zM512 1165q-55 0 -91 36
t-36 89t36 88t93 35t91 -34t34 -89t-36 -90t-91 -35z" />
    </font>
</defs>
</svg>
